<?xml version="1.0" encoding="utf-8"?>

<!DOCTYPE svg PUBLIC "-//W3C//DTD SVG 1.1//EN" "http://www.w3.org/Graphics/SVG/1.1/DTD/svg11.dtd">
<svg version="1.1"
	 id="svg4805" xmlns:cc="http://creativecommons.org/ns#" xmlns:dc="http://purl.org/dc/elements/1.1/" xmlns:rdf="http://www.w3.org/1999/02/22-rdf-syntax-ns#" xmlns:svg="http://www.w3.org/2000/svg"
	 xmlns="http://www.w3.org/2000/svg" xmlns:xlink="http://www.w3.org/1999/xlink" x="0px" y="0px" viewBox="0 0 2121.029 1637.092"
	 enable-background="new 0 0 2121.029 1637.092" xml:space="preserve">
<g id="layer1" transform="translate(-993.50216,868.18806)">
	<g id="g7622" transform="matrix(0.99276834,0,0,0.99276834,7.1846633,5.2922103)">
		<path id="path4610" d="M1963.129,336.924c33.96,51.81,51.996,107.229,128.944,131.147c28.395,10.286,51.722-5.84,64.325,18.762
			c0.102,0.199,0.22,0.389,0.354,0.568c75.089,101.003,194.731,214.535,195.739,215.096c22.958,12.781,36.686,48.783,70.187,47.976
			c0.229-0.006,0.458-0.031,0.684-0.076c26.307-5.179,62.622,0.021,82.003-27.285c1.464-2.06,3.024-15.145-4.326-25.744
			c-11.99-17.29-37.314-21.08-53.371-38.964c-14.112-15.739-22.366-36.328-34.943-54.964c-1.216-1.877-3.724-2.413-5.601-1.197
			c-1.877,1.216-2.413,3.723-1.197,5.601c14.264,22.161,21.109,39.55,35.492,55.701c17.621,23.37,60.652,24.565,56.71,55.664
			c-16.944,22.722-48.451,17.925-75.792,23.162c-28.987,0.587-40.323-32.249-65.332-46.589
			c-66.214-64.242-140.096-141.051-193.699-213.139c-15.404-29.156-42.723-12.835-68.503-22.191
			c-15.821-5.868-46.68-13.97-77.019-52.566c-17.652-22.457-30.519-48.909-47.883-75.4
			C1967.01,327.933,1960.074,332.401,1963.129,336.924z"/>
		<path id="path4623" d="M2175.341,416.093c-0.114,1.007-1.747,7.036-7.777,14.771c-7.133,9.149-20.72,21.292-46.64,32.308
			c-2.076,0.832-3.085,3.189-2.253,5.265c0.856,2.136,3.32,3.132,5.419,2.188c22.017-9.357,48.586-25.605,57.568-47.75
			c1.333-3.285,1.701-5.639,1.701-5.639c0.348-2.209-1.162-4.282-3.371-4.63C2177.729,412.253,2175.63,413.834,2175.341,416.093z"/>
		<path id="path4219" d="M2871.862,158.986c-4.608-0.115-7.655,4.755-5.557,8.846c29.755,60.082,17.529,135.067-21.578,188.557
			c-14.396,19.736-64.454,126.81-148.272,180.502c-45.804,25.323-94.37,46.395-144.38,61.275
			c-49.632,8.442-101.117,3.264-151.518-3.621c-116.457-27.855-190.381-147.997-207.479-166.202
			c-27.056-28.743-31.55-68.42-33.845-107.911c-0.06-1.007-2.989-27.26-14.236-49.628c-1.444-3.028-5.069-4.313-8.097-2.869
			c-3.028,1.444-4.313,5.069-2.869,8.097c5.849,12.287,10.171,24.563,13.099,45.451c2.317,39.663,6.779,82.662,36.783,114.821
			c53.901,72.62,120.496,147.856,214.076,170.127c0.193,0.046,0.388,0.082,0.584,0.109c50.894,6.96,103.85,12.466,155.874,3.555
			c1.008-0.173,67.568-18.139,148.055-62.662c0.113-0.062,0.223-0.128,0.332-0.197c69.203-44.254,112.14-116.317,151.95-184.043
			c41.37-56.842,54.45-136.052,22.408-200.752C2876.207,160.378,2874.147,159.043,2871.862,158.986L2871.862,158.986z"/>
		<path id="path4318" d="M2872.721,184.23c-19.136,14.664-43.035,19.86-50.867,22.379c-54.56,18.089-112.131,22.998-168.995,31.935
			c-71.41,7.184-122.197,48.743-185.848,68.9c-47.251,13.888-83.878,52.133-101.11,97.491c-0.95,2.502,2.836,3.942,3.787,1.438l0,0
			c16.829-44.296,52.623-81.586,98.505-95.056c65.637-21.244,119.005-63.069,185.129-68.751c0.047-0.004,0.094-0.01,0.141-0.018
			c56.644-8.904,114.422-13.801,169.557-32.062c18.219-4.93,36.737-11.22,52.164-23.041c1.567-1.164,0.729-3.648-1.205-3.65
			C2873.51,183.809,2873.104,183.928,2872.721,184.23z"/>
		<path id="path4320" d="M2793.038,154.888c-43.042-0.883-109.551,26.562-162.264,31.306c-0.091,0.008-0.181,0.023-0.27,0.043
			c-45.9,10.512-93.288,25.059-131.333,54.685c-3.846,2.997-10.542,18.882-61.207,41.533l0.068-0.029
			c-49.458,19.943-74.917,70.215-92.38,116.731c-0.96,2.497,2.818,3.954,3.78,1.454c17.344-44.173,40.509-94.426,90.116-114.429
			c21.711-8.834,46.915-23.347,62.222-42.142c37.228-28.948,83.935-43.383,129.565-53.837
			c55.477-5.041,107.002-29.377,161.702-31.265C2795.666,158.883,2795.655,154.943,2793.038,154.888L2793.038,154.888z"/>
		<path id="path4322" d="M2850.794,173.685c0,0-38.358,7.045-71.501,12.023c-58.229,0.207-107.323,35.854-162.586,43.146
			c-47.745-4.074-87.303,25.724-125.552,47.783c-2.328,1.318-0.335,4.844,1.995,3.524c38.448-22.133,77.37-51.331,123.498-47.26
			c0.147,0.013,0.295,0.009,0.441-0.01c56.763-7.438,105.723-43.026,162.426-43.142c1.007-0.006,31.256-4.697,71.662-12.043
			C2853.655,177.293,2853.275,173.624,2850.794,173.685L2850.794,173.685z"/>
		<path id="path4324" d="M2476.207,237.304c-0.456,0.016-0.893,0.186-1.24,0.482c-25.539,21.14-58.832,27.6-87.941,44.365
			c-40.952,23.51-49.34,80.553-61.65,118.54c-0.86,2.533,2.972,3.839,3.834,1.303c13.224-39.535,19.174-91.022,59.87-116.353
			c28.319-16.3,61.933-22.772,88.468-44.736C2479.071,239.681,2478.136,237.234,2476.207,237.304L2476.207,237.304z"/>
		<path id="path4326" d="M2462.151,200.038c-32.356,20.68-67.138,38.341-97.13,63.279c0,0.001,0,0.003,0,0.004
			c-44.071,32.873-47.334,91.008-58.486,138.983c-0.687,2.647,3.384,3.615,3.943,0.916c11.272-48.494,14.66-105.103,56.968-136.657
			c0.029-0.021,0.057-0.044,0.084-0.066c29.547-24.589,64.193-42.203,96.806-63.046c1.745-1.081,0.943-3.772-1.092-3.746
			C2462.922,199.697,2462.502,199.807,2462.151,200.038z"/>
		<path id="path4328" d="M2709.154,144.762c-0.64-0.011-16.412,2.386-17.045,2.482c-95.983,7.62-179.937,57.651-265.822,94.579
			c-2.458,1.057-0.862,4.779,1.6,3.721l0,0c86.266-37.092,169.855-86.794,264.687-94.278c0,0,9.709-1.483,16.795-2.469
			C2711.868,148.497,2711.657,144.794,2709.154,144.762L2709.154,144.762z"/>
		<path id="path4330" d="M2817.243,233.398c-76.649,30.059-142.114,9.817-209.049,37.173c-0.109,0.044-0.213,0.098-0.313,0.16
			c-70.764,44.457-153.679,50.587-214.113,117.661c-1.896,1.983,1.214,4.817,3.008,2.709c24.817-27.543,56.406-47.524,90.782-61.046
			c0.035-0.013,0.069-0.028,0.104-0.043c40.45-18.58,83.839-31.703,122.161-55.726c66.064-26.952,133.221-6.895,208.936-37.135
			c19.453-7.794,38.181-17.013,57.406-24.855c2.104-0.828,1.456-3.977-0.803-3.908
			C2871.524,209.188,2836.427,225.712,2817.243,233.398z"/>
		<path id="path4332" d="M2882.733,237.308c-0.387-0.015-0.771,0.081-1.105,0.277c-21.47,12.225-44.741,21.067-68.417,28.361
			c-47.08,7.612-95.552,9.274-142.69,20.07c-59.192,4.592-105.008,45.112-156.959,66.204
			c-46.684,11.184-88.74,34.813-129.442,58.923c-2.424,1.327-0.272,4.978,2.063,3.482c94.202-55.802,118.937-54.588,128.819-58.617
			c52.934-21.467,98.386-61.582,156.01-65.978c0.101-0.008,0.2-0.022,0.299-0.045c46.716-10.715,95.186-12.371,142.688-20.064
			c1.008-0.16,38.471-11.074,69.634-28.818C2885.428,240.115,2884.766,237.387,2882.733,237.308L2882.733,237.308z"/>
		<path id="path4334" d="M2873.879,266.235c-0.512,0.025-17.218,7.196-17.601,7.426c-49.603,29.611-109.618,22.587-165.43,33.498
			c-0.059,0.012-0.116,0.026-0.174,0.043c-90.147,26.017-167.334,85.711-259.605,102.245c-2.651,0.396-2.046,4.401,0.599,4.005
			c83.224-12.431,173.007-77.19,260.041-102.332c54.857-10.705,115.464-3.536,166.471-33.888c5.523-2.367,11.047-4.734,16.57-7.102
			C2876.852,269.264,2876.128,266.124,2873.879,266.235L2873.879,266.235z"/>
		<path id="path4336" d="M2672.772,367.48c-72.105,0.287-135.474,42.518-205.383,49.173c-2.698,0.222-2.316,4.32,0.383,4.031
			c76.022-7.237,142.825-54.529,219.233-48.642c0.075,0.006,0.151,0.008,0.227,0.006c34.171-1.195,66.068,14.762,98.577,22.965
			c0.32,0.081,26.998,1.083,27.328,1.096c2.673,0.103,2.833-3.943,0.156-4.047l0,0c-8.892-0.342-17.784-0.683-26.676-1.025
			c-31.837-8.064-64.092-24.275-99.528-23.035l0.227,0.004C2682.425,367.629,2677.579,367.461,2672.772,367.48L2672.772,367.48z"/>
		<path id="path4338" d="M2871.157,292.262c-0.387-0.014-0.77,0.084-1.104,0.281c-29.639,17.002-64.462,20.934-98.364,24.482
			c-61.292-2.386-118.999,21.737-171.995,49.232c-2.444,1.21-0.536,4.894,1.865,3.594c111-57.589,155.809-47.225,170.446-48.787
			c33.953-3.553,69.443-7.445,100.063-25.01C2873.859,295.059,2873.191,292.335,2871.157,292.262L2871.157,292.262z"/>
		<path id="path4340" d="M2852.305,329.873c-1.009-0.007-97.231,1.994-181.463,30.478c-2.547,0.818-1.312,4.675,1.239,3.856
			c48.844-15.722,98.841-26.409,180.276-30.285C2854.994,333.845,2854.933,329.884,2852.305,329.873L2852.305,329.873z"/>
		<path id="path4342" d="M2737.865,364.59c-2.673,0.119-2.496,4.165,0.18,4.046c17.563-0.773,53.53-6.716,84.96-1.477
			c2.664,0.484,3.357-3.584,0.666-3.994C2794.949,358.377,2766.108,362.505,2737.865,364.59z"/>
		<path id="path4344" d="M2341.763,419.521c-2.016-0.021-2.813,2.609-1.137,3.715c47.472,32.288,95.297,63.558,152.567,63.111
			c59.111-1.639,109.471-7.909,156.301-17.74c0-0.001,0.01-0.001,0.014-0.002c36.705-7.136,74.389-4.659,109.493,8.363
			c2.556,1.039,4.027-2.914,1.408-3.795c-35.844-13.297-74.31-15.813-111.708-8.537c-49.361,10.798-104.896,16.256-155.61,17.662
			c-56.233,0.577-104.925-31.623-150.19-62.41C2342.567,419.654,2342.171,419.526,2341.763,419.521L2341.763,419.521z"/>
		<path id="path4346" d="M2396.7,428.204c-2.233-0.009-2.822,3.091-0.752,3.908c82.6,33.992,176.124,34.095,261.107,9.455
			c36.806-7.449,73.786,2.543,111.11,6.592c2.654,0.341,3.173-3.675,0.517-4.017c-45.088-5.737-77.42-13.637-112.455-6.54
			c-7.931,1.574-130.457,43.554-258.738-9.236C2397.24,428.26,2396.971,428.205,2396.7,428.204L2396.7,428.204z"/>
		<path id="path4348" d="M2699.029,410.128c-51.105-0.46-92.353,6.446-93.361,6.828c-40.086,15.271-83.837,10.805-126.471,9.812
			c-2.675-0.063-2.775,3.985-0.096,4.049c42.31,0.985,86.554,5.594,127.714-9.984c60.774-9.564,123.727-8.602,184.381,1.281
			c2.687,0.5,3.365-3.615,0.65-3.996C2761.302,413.142,2730.177,410.409,2699.029,410.128L2699.029,410.128z"/>
		<path id="path4350" d="M2320.15,430.286c40.154,36.784,88.14,73.728,145.766,74.759c38.044,8.398,79.039,14.96,116.681-0.957
			c44.388-9.098,98.14-9.049,147.696,3.316c2.619,0.66,3.572-3.309,0.98-3.93c-6.19-1.542-3.9-0.939-10.045-2.645
			c-6.906-1.969-71.257-14.72-139.577-0.686c-0.133,0.027-0.262,0.068-0.387,0.121c-48.813,20.779-107.687,0.853-115.052,0.744
			c-56.033-0.907-103.31-37.052-143.327-73.71c-0.398-0.375-0.932-0.573-1.478-0.549
			C2319.689,426.751,2318.754,429.044,2320.15,430.286z"/>
		<path id="path4352" d="M2296.824,433.982c-1.82,0.08-2.602,2.335-1.26,3.533c33.572,30.824,70.551,59.552,114.995,73.433
			c0,0,0,0.002,0,0.002c105.371,35.811,128.309,27.063,253.676,28.33c2.674,0.076,2.793-3.972,0.115-4.048
			c-14.682-0.404-70.903,0.384-106.942-0.341c-33.086-0.758-64.358-0.178-145.595-27.791
			c-32.582-11.264-62.869-26.067-113.515-72.568c-0.398-0.376-0.931-0.575-1.479-0.551L2296.824,433.982z"/>
		<path id="path4354" d="M2280.959,439.765c-1.818,0.042-2.653,2.278-1.334,3.506c29.639,28.357,58.645,60.203,98.462,75.554
			c97.62,53.802,204.398,48.6,241.219,50.822c2.671,0.165,2.925-3.877,0.25-4.043c-30.471-1.693-141.565,3.686-239.573-50.355
			c-0.081-0.045-0.165-0.084-0.252-0.117c-38.772-14.881-67.482-46.251-97.308-74.786
			C2282.033,439.962,2281.505,439.753,2280.959,439.765L2280.959,439.765z"/>
		<path id="path4356" d="M2255.055,447.624c38.062,35.674,74.489,75.13,122.544,98.691c59.434,34.16,129.956,42.666,196.971,43.582
			c2.715,0.08,2.775-4.057,0.055-4.049c-120.714-1.65-164.587-28.304-195.243-43.168c-47.174-23.129-83.352-62.202-121.557-98.011
			C2255.868,442.782,2253.055,445.805,2255.055,447.624z"/>
		<path id="path4358" d="M2231.819,453.31c48.246,51.889,100.378,105.875,170.797,127.204c32.067,11.287,65.527,16.953,97.642,26.65
			c2.578,0.795,3.751-3.114,1.17-3.877c-35.367-10.68-45.543-10.202-97.554-26.621c-69.176-20.921-120.863-74.243-169.09-126.112
			C2232.969,448.545,2229.947,451.349,2231.819,453.31z"/>
		<path id="path4360" d="M2362.081,231.515c-0.597-0.015-1.17,0.233-1.566,0.68c-9.602,10.509-20.084,20.356-29.584,31.287
			c0,0.002,0,0.005-0.01,0.008c0,0.003-0.01,0.006-0.01,0.01c-37.559,42.284-40.845,100.739-43.236,153.633
			c-0.168,2.67,3.873,2.928,4.042,0.254c2.748-44.139,2.931-106.983,42.235-151.216c28.871-31.331,31.98-31.736,29.463-34.106
			c-0.363-0.342-0.839-0.537-1.337-0.55L2362.081,231.515z"/>
		<path id="path4362" d="M2309.748,259.86c-33.853,47.356-41.458,107.321-49.527,162.858c-0.385,2.648,3.623,3.233,4.008,0.582
			c8.076-55.585,15.738-114.814,48.814-161.085c0.664-0.9,0.472-2.168-0.428-2.831
			C2311.697,258.708,2310.397,258.923,2309.748,259.86z"/>
		<path id="path4364" d="M2288.22,268.335c-38.605,41.452-44.311,100.217-59.75,151.194c-0.776,2.561,3.1,3.739,3.877,1.174l0,0
			c15.605-51.527,21.403-109.414,58.835-149.608C2293.057,269.137,2290.044,266.322,2288.22,268.335z"/>
		<path id="path4366" d="M2266.31,267.167c-27.154,41.837-56.617,84.418-65.374,135.251c-0.468,2.679,3.601,3.3,3.992,0.688
			c8.563-49.705,37.581-91.83,64.779-133.733c0.623-0.929,0.374-2.187-0.555-2.809
			C2268.205,265.928,2266.917,266.202,2266.31,267.167z"/>
		<path id="path4368" d="M2236.076,269.874c-24.096,29.279-53.336,60.155-56.853,100.898c-0.307,2.72,3.861,3.1,4.033,0.35
			c3.366-38.991,31.724-69.24,55.947-98.673c0.723-0.853,0.619-2.131-0.234-2.854
			C2238.099,268.857,2236.788,268.983,2236.076,269.874z"/>
		<path id="path4370" d="M2205.309,266.194c-15.426,20.246-30.851,40.493-46.277,60.74c-1.716,2.145,1.623,4.673,3.221,2.453
			c15.426-20.246,30.851-40.491,46.277-60.738c0.69-0.88,0.536-2.153-0.343-2.843
			C2207.29,265.103,2205.987,265.278,2205.309,266.194z"/>
		<path id="path2453" d="M2196.305-860.476c-44.832-3.134-85.31,26.154-123.938,11.857c-0.543-0.201-1.107-0.339-1.682-0.412
			c-103.053-13.032-206.634,8.344-306.63,24.988c-0.714,0.119-1.407,0.339-2.059,0.654
			c-54.584,26.396-113.392,40.515-173.446,52.201c-0.01,0.001-0.013,0.003-0.02,0.004c-46.013,6.461-88.548,22.556-126.974,48.908
			c-44.704,30.858-83.053,31.814-127.43,57.048c-51.18,8.233-81.9,48.891-115.761,78.124c-0.811,0.7-1.464,1.563-1.918,2.533
			c-14.485,31.018-52.836,53.954-53.98,94.872c-32.932,6.428-57.836,32.816-73.529,58.591l0.719-0.992
			c-18.589,21.688-5.036,48.876-10.879,63.001c-3.736,9.032-11.779,8.012-14.943,12.283c-27.832,37.572,14.792,75.864-2.996,107.851
			c-0.294,0.529-0.525,1.091-0.686,1.674c-11.541,41.917-34.981,106.107,12.832,136.813c-5.919,21.323,8.821,52.017,16.758,76.818
			c6.881,47.607,45.776,74.62,72.527,104.913c41.61,54.672,96.685,97.861,160.69,121.458c0.452,0.167,0.919,0.291,1.395,0.369
			c69.582,11.43,106.358,6.371,158.11,9.451c1.007,0.061,3.644-0.03,4.812,0.791c2.198,1.543-0.662,14.894-1.264,17.51
			c-3.808,16.548-9.748,36.414,0.654,50.386l-0.42-0.625c14.228,23.699,33.117,51.469,61.261,65.546
			c34.092,31.185,81.548,17.663,113.938,38.476c0.416,0.268,0.858,0.494,1.318,0.676c38.565,15.205,74.39,50.748,122.12,54.425
			c43.17,10.269,85.002-9.653,111.888-42.218c58.32-41.25,127.124-69.301,191.676-104.384c57.693-7.124,117.782-9.791,176.641-21.49
			l-0.094,0.02c28.754-5.34,79.171-3.387,85.938-43.818c48.407,11.187,94.519-12.258,136.3-25.594
			c49.664-10.62,89.135-39.599,132.009-58.115c82.333,13.702,165.346,13.511,243.547,37.213l-0.484-0.164
			c34.023,12.863,75.878,16.674,109.257-3.229l0.01-0.002c32.965-16.455,58.938-40.833,75.253-74.355
			c32.658-34.853,27.568-81.604,32.431-121.093c0.13-1.057,0.036-2.129-0.275-3.146c-7.863-25.73-10.34-62.887-35.344-85.259
			c6.204-35.889-17.761-68.991-23.291-100.657c-0.18-1.036-0.574-2.024-1.156-2.9c-32.069-48.213-52.725-107.797-98.552-150.114
			c5.58-22.832-8.719-52.025-15.601-76.294c-0.241-0.85-0.629-1.652-1.146-2.369c-32.809-45.499-66.014-95.546-116.136-127.956
			c-10.359-10.783-24.271-18.38-35.482-26.58c-22.931-16.772-18.802-25.383-20.83-29.982
			c-21.289-48.216-73.662-69.612-109.384-98.341c-27.036-31.143-71.528-20.53-92.474-47.945c-0.783-1.025-1.814-1.834-2.996-2.35
			c-71.125-31.041-148.68-54.417-150.106-54.58c-51.171-5.871-103.234-24.007-157.325-25.119
			C2214.104-861.271,2204.87-861.139,2196.305-860.476z M2373.901-821.019c48.949,15.167,98.579,32.685,145.145,52.923
			c25.764,31.052,69.917,20.869,92.183,47.587c0.32,0.384,0.676,0.735,1.064,1.049c38.066,30.705,86.517,51.466,104.921,92.159
			c3.969,31.774,43.545,44.121,60.335,62.279c0.436,0.471,0.93,0.885,1.471,1.232c46.612,29.951,78.949,77.78,111.86,123.464
			c6.823,23.385,20.636,53.338,14.023,70.277c-1.162,2.977-0.335,6.364,2.068,8.471c44.189,38.728,64.853,97.81,98.812,149.298
			c6.641,34.755,29.917,66.48,22.211,97.437c-0.729,2.931,0.347,6.015,2.742,7.855c21.041,16.173,24.591,49.883,33.293,79.161
			c-4.924,41.778-1.089,82.831-28.967,111.812c-0.563,0.586-1.029,1.259-1.379,1.992c-21.783,45.612-56.218,60.67-69.445,68.673
			c-27.802,16.835-65.346,14.116-96.562,2.314c-0.159-0.06-0.32-0.115-0.482-0.164c-81.828-24.8-166.422-24.197-247.781-38.007
			c-1.428-0.242-2.896-0.071-4.23,0.494c-46.053,19.505-85.182,48.502-131.794,58.275c-25.676,5.368-85.557,39.913-136.966,23.299
			c-3.991-1.289-8.271,0.901-9.559,4.892c-1.069,3.309,1.443,12.924-6.271,21.832c-12.862,14.854-44.742,14.742-68.37,19.131
			c-74.069,13.418-110.574,13.192-176.981,21.476c-0.945,0.118-1.859,0.413-2.695,0.869
			c-64.097,34.968-134.312,63.284-195.117,106.427c-0.567,0.402-1.075,0.88-1.512,1.42c-24.001,29.695-60.719,47.066-98.052,37.933
			c-0.416-0.101-0.84-0.167-1.267-0.197c-40.556-2.872-75.032-36.204-117.638-53.199c-36.965-23.218-82.32-9.174-111.897-37.074
			c-4.32-4.076-25.067-7.075-57.796-61.593c-0.823-1.371-4.106-4.533-3.01-15.867c1.596-16.494,9.367-32.525,6.49-45.519
			c-1.849-8.35-8.286-14.059-19.849-14.031l0.469,0.014c-52.92-3.15-88.28,1.835-155.77-9.164
			c-93.347-34.643-140.284-101.545-153.913-116.972c-28.641-32.447-63.581-57.093-69.066-97.88
			c-1.23-9.161-24.644-56.646-15.648-73.413c2.007-3.742,0.558-8.414-3.242-10.353c-42.754-21.794-23.649-76.789-11.045-122.448
			c20.021-38.444-19.303-74.486,0.531-103.599c37.563-17.259,7.77-54.525,25.973-75.761c1.473-1.719,27.352-48.945,69.761-53.421
			c4.096-0.433,7.101-4.052,6.771-8.158c-2.996-37.323,34.277-57.245,51.703-92.833c35.331-30.764,63.802-67.262,108.329-73.847
			c0.949-0.14,1.863-0.459,2.693-0.939c39.551-22.9,88.946-27.769,129.962-58.525l-0.262,0.188
			c36.611-25.108,76.874-40.336,120.882-46.459c1.024-0.145,101.15-16.829,176.496-53.017
			c99.9-16.652,201.504-37.228,300.751-24.791c44.267,15.57,86.735-14.471,127.587-11.295c0.008,0.001,8.596-0.478,12.072-0.564
			C2270.443-845.878,2314.403-827.983,2373.901-821.019z"/>
		<path id="path3230" d="M2673.295-635.568c-5.693,0.11-3.131,4.788-15.281,22.244c-30.066,34.049-62.283,71.319-63.599,121.292
			c-18.755,115.319-68.319,179.077-69.419,183.944c-14.21,63.035-85.331,87.058-108.265,138.471
			c-16.937,38.198-29.626,85.214-63.078,98.515c-19.387,7.709-38.748,1.064-41.919,0.607
			c-63.756-9.237-126.567,12.599-174.245,54.878l0.111-0.096c-63.475,53.08-151.726,82.883-232.082,56.248l0.232,0.082
			c-67.229-25.99-122.635,30.013-170.36,62.882c-66.454,45.55-87.307,135.744-164.044,163.221c-2.643,0.912-4.046,3.794-3.134,6.437
			c0.912,2.643,3.794,4.046,6.437,3.134c80.632-27.751,108.375-129.751,166.483-164.454c49.49-34.085,99.771-85.435,160.967-61.777
			c0.077,0.03,0.154,0.058,0.232,0.084c84.58,28.035,176.179-3.248,241.762-58.091c0.038-0.031,0.075-0.063,0.111-0.096
			c45.673-40.502,105.494-61.212,166.077-52.435l-0.563-0.113c76.984,20.233,94.864-56.575,116.194-104.757
			c27.047-52.87,93.361-74.337,108.687-139.565c36.243-56.235,59.149-119.803,69.839-185.672c0.038-0.231,0.059-0.465,0.064-0.699
			c1.008-46.11,31.161-81.443,61.345-115.622c0.887-1.007,7.672-10.788,12.186-21.584c1.114-2.564-0.062-5.546-2.626-6.66
			C2674.743-635.439,2674.021-635.582,2673.295-635.568L2673.295-635.568z"/>
		<path id="path3235" d="M2034.256,206.913c-7.349-0.396-14.801,1.525-21.799,7.26l0.186-0.139
			c-45.318,30.656-75.358,27.592-78.681,28.396c-30.707,7.413-68.505,0.37-94.759,24.324
			c-2.998,2.737-31.161,53.107-112.151,108.999c-2.781,1.869,0.05,6.066,2.824,4.201c41.392-27.741,83.688-66.654,112.894-109.589
			c24.653-22.33,60.693-15.47,92.103-22.963c29.607-0.757,56.735-13.027,80.607-29.176c0.064-0.043,0.126-0.09,0.186-0.139
			c19.098-15.65,39.327,1.421,60.107,13.1c21.162,13.839,41.797,28.847,64.697,40.507c3.009,1.614,5.377-3.021,2.297-4.51
			C2099.132,244.969,2060.134,208.306,2034.256,206.913L2034.256,206.913z"/>
		<path id="path3250" d="M2392.878-442.427c-17.409,21.539-30.229,15.989-66.683,88.095c-39.99,78.63-137.214,30.748-205.912,69.335
			c-59.252,29.172-82.432,107.5-133.149,128.431c-29.902,12.34-56.768-1.395-61.283-1.799
			c-111.318-9.955-207.781,66.304-288.302,128.682c-79.6,53.517-115.742,140.494-151.223,222.48
			c-1.723,3.823-0.02,8.319,3.804,10.042s8.319,0.02,10.042-3.804c31.583-70.236,65.587-162.388,146.217-216.383
			c42.32-28.317,154.678-136.486,277.443-125.921c50.214,17.596,84.244,1.186,117.739-38.345
			c32.391-38.227,46.562-68.063,85.968-90.052c46.214-26.098,116.717-7.071,167.375-31.119
			c31.408-14.91,42.226-40.738,44.836-44.699c35.694-70.604,44.673-60.324,64.939-85.398c4.219-5.071,0.38-12.675-6.105-12.445
			C2396.778-445.35,2394.397-444.361,2392.878-442.427z"/>
		<path id="path3255" d="M2277.455-699.948c-96.448,28.939-98.04,4.089-168.594,113.056c-16.854,13.774-36.107,40.514-52.642,69.249
			c-75.263,130.792-27.926,199.698-1.301,299.587c0.675,2.713,3.421,4.366,6.134,3.691c2.787-0.693,4.43-3.556,3.647-6.299
			c-26.82-100.618-72.541-165.359,0.293-291.931c30.623-53.218,50.605-66.095,51.964-68.201
			c68.246-105.503,65.958-80.218,163.409-109.458c5.733-1.631,4.362-10.142-1.568-9.928
			C2278.479-700.18,2277.94-700.101,2277.455-699.948z"/>
		<path id="path3264" d="M2276.564-847.751c-1.698,0.017-2.904,1.673-2.387,3.299c0.973,3.213,1.947,6.426,2.92,9.639
			c5.311,49.708,40.843,91.372,84.509,112.896c20.906,36.062,42.398,139.295,64.677,175.098
			c33.112,83.065,120.801,60.204,144.79,145.182c0.869,3.286,5.854,1.881,4.871-1.375
			c-24.723-87.579-112.895-64.857-145.038-145.858c-2.115-5.353-6.892-3.799-32.806-87.507
			c-1.081-3.492-25.781-85.932-33.523-89.696c-42.737-20.79-77.476-61.53-82.488-109.56c-0.039-0.371-2.96-9.928-3.069-10.285
			C2278.707-847.013,2277.702-847.762,2276.564-847.751L2276.564-847.751z"/>
		<path id="path3278" d="M2632.418-326.225c-2.038,0.018-3.209,2.317-2.054,3.977c12.809,18.978,26.962,36.84,38.708,56.123
			c6.457,60.326,20.684,99.373,3.963,157.03c-11.125,37.124-25.134,75.506-21.513,115.726c-12.625,22.818,2.512,55.707,28.9,59.066
			c24.202,11.321,54.55,12.588,72.39-7.301c26.576-22.874,61.054-39.703,96.417-35.236c0.148,0.018,0.298,0.024,0.447,0.016
			c24.03-1.232,46.797-23.645,41.189-48.386c-0.638-6.583-2.259-12.994-4.465-19.119c-1.092-3.235-5.982-1.475-4.761,1.715
			c3.895,10.818,4.039,17.414,4.275,18.422c5.002,21.726-15.627,41.181-36.408,42.3c-37.207-4.558-72.817,13.051-100.015,36.466
			c-0.087,0.074-0.168,0.155-0.244,0.24c-16.356,18.501-44.971,16.584-67.009,6.164c-0.251-0.119-0.519-0.195-0.795-0.227
			c-22.929-2.606-36.636-32.735-25.185-52.308c0.269-0.459,0.386-0.99,0.336-1.52c-3.73-38.997,10.01-76.946,21.261-114.478
			c17.623-57.159,2.15-103.075-3.828-159.725c-0.398-3.752-29.883-43.597-39.469-57.798
			C2634.087-325.8,2633.281-326.232,2632.418-326.225L2632.418-326.225z"/>
		<path id="path3306" d="M2915.285-130.127c-54.287,16.311-109.664,28.998-165.254,40.798c-2.736,0.578-4.485,3.264-3.907,5.999
			c0.58,2.746,3.279,4.488,6.008,3.905c55.292-11.737,110.536-24.4,164.87-40.668c15.211,3.378,30.425,2.832,39.248,13.392
			c2.163,2.589,30.263,21.524,47.156,48.179c3.159,4.985,19.216,19.803,49.834,82.722c0.028,0.057,1.086,2.096,1.116,2.152
			c0,0.001,0,0.001,0,0.002l1.058,2.037c1.245,2.503,4.283,3.524,6.787,2.279c2.503-1.245,3.523-4.283,2.279-6.786
			c-15.328-30.965-30.389-60.694-52.72-88.117c-12.771-20.027-30.533-35.612-48.5-49.697l0.762,0.738
			c-12.086-14.467-31.906-13.592-46.09-17.012c-0.329-0.079-0.664-0.125-1.002-0.137
			C2916.355-130.345,2915.887-130.308,2915.285-130.127z"/>
		<path id="path3308" d="M2697.852-453.022c-2.156,0.027-3.279,2.567-1.885,4.184c20.08,23.96,35.322,59.246,70.015,68.851
			c6.608,1.832,38.59,1.676,59.417,16.367c0.077,0.055,0.157,0.106,0.24,0.152c21.73,11.927,29.113,41.056,32.716,48.185
			c19.532,38.13,43.419,56.309,63.136,102.872c11.473,27.459-3.004,56.503-11.267,84.366c-0.951,3.207,3.901,4.649,4.853,1.439
			c8.063-27.187,23.604-57.742,11.096-87.726c-14.453-38.969-45.163-67.87-63.279-103.2c-7.144-18.618-15.368-39.653-34.759-50.334
			c-18.213-12.757-40.564-14.383-60.931-17.045c-31.859-8.901-46.582-42.392-67.357-67.181
			C2699.359-452.69,2698.624-453.033,2697.852-453.022L2697.852-453.022z"/>
		<path id="path3329" d="M2282.705-9.218c-2.162,0.007-3.297,2.539-1.926,4.164c0.271,0.33,9.947,12.075,10.207,12.373
			c13.448,15.072,24.707,32.252,38.603,47.597c0,0.001,0,0.002,0,0.004c9.099,10.391,21.803,18.449,36.386,18.451
			c41.102,0.211,82.151-2.668,122.956-6.928c22.382-2.308,58.718-15.503,82.788-21.564c3.255-0.766,2.099-5.695-1.16-4.927
			c-22.527,5.285-53.264,17.476-82.208,21.464c-52.831,5.514-86.79,6.823-122.376,6.893c-28.9-0.004-42.726-32.429-71.218-64.361
			l0.064,0.074c-11.016-13.336-10.519-13.244-12.121-13.24L2282.705-9.218z"/>
		<path id="path3335" d="M2155.458-21.208c-2.869,31.064,5.439,62.841,22.955,88.624c29.464,56.013,90.365,79.318,128.997,123.919
			c2.105,2.599,6.041-0.585,3.934-3.186c-34.279-42.165-99.662-68.17-128.538-123.236c-0.942-1.774-26.906-35.855-22.306-85.656
			C2160.858-24.11,2155.722-24.598,2155.458-21.208z"/>
		<path id="path3337" d="M2227.403,122.908c-14.029,22.823-42.719,27.765-66.492,39.978c-3.004,1.522-0.666,6.06,2.314,4.502
			c22.734-11.679,53.046-16.706,68.49-41.83c0.749-1.181,0.398-2.744-0.782-3.493
			C2229.735,121.306,2228.135,121.679,2227.403,122.908z"/>
		<path id="path3339" d="M2490.682-145.334c48.072,13.043,100.215,50.461,62.144,98.478c-0.797,1.007-5.475,12.23-16.316,24.179
			c-2.266,2.46,1.455,5.892,3.723,3.43c5.963-6.508,11.893-14.975,16.767-24.767c40.452-51.454-13.553-92.249-64.994-106.206
			C2488.727-151.152,2487.418-146.169,2490.682-145.334z"/>
		<path id="path3341" d="M2619.163-133.728c-18.406,8.181-36.814,16.362-55.22,24.543c-3.143,1.313-1.052,6.086,2.055,4.625
			c18.406-8.181,36.814-16.362,55.22-24.543c1.285-0.551,1.88-2.039,1.329-3.324
			C2621.985-133.736,2620.455-134.323,2619.163-133.728z"/>
		<path id="path3343" d="M2676.545-209.448c-27.709,10.678-55.035,22.332-81.962,34.834c-3.031,1.397-0.938,5.998,2.131,4.592
			c77.963-36.195,85.006-32.916,83.153-37.952C2679.373-209.319,2677.865-209.981,2676.545-209.448z"/>
		<path id="path3347" d="M2760.968-545.391c-6.792,19.123-7.071,39.637-16.806,56.189c-50.621,31.505-100.868,64.753-144.134,106.45
			c-2.503,2.316,1.102,6.066,3.512,3.645c42.991-41.433,93.145-74.607,143.885-106.171c0.34-0.212,0.625-0.502,0.832-0.846
			c10.919-18.153,11.016-39.373,17.48-57.572c0.487-1.31-0.18-2.767-1.49-3.254C2762.913-547.446,2761.427-546.743,2760.968-545.391
			z"/>
		<path id="path3349" d="M2951.453-50.125c-1.81,0.031-3.001,1.9-2.271,3.553c9.825,23.113,11.642,42.954,11.998,44.714
			c12.62,60.585-23.719,119.196-74.4,150.526c-2.969,1.727-0.217,6.19,2.66,4.305c52.163-32.246,89.841-92.748,76.695-155.862
			l0.033,0.189c-2.042-15.727-6.109-31.223-12.328-45.853C2953.444-49.519,2952.496-50.144,2951.453-50.125L2951.453-50.125z"/>
		<path id="path3351" d="M2392.663-88.544c-0.1,4.582,22.876,14.735,33.376,22.026c10.753,7.467,16.4,15.798,13.74,28.67
			c-0.724,3.265,4.217,4.365,4.942,1.097c7.001-31.688-31.658-39.768-47.855-53.637C2395.259-91.804,2392.71-90.698,2392.663-88.544
			z"/>
		<path id="path3353" d="M2467.785-74.403c-8.862,4.09-17.725,8.181-26.588,12.271c-3.102,1.376-0.937,6.07,2.121,4.596
			c8.863-4.09,17.725-8.181,26.588-12.271c1.278-0.567,1.854-2.063,1.286-3.34C2470.612-74.456,2469.065-75.017,2467.785-74.403z"/>
		<path id="path3355" d="M1887.767,90.434c-21.128,45.018,20.225,88.71,62.808,103.679c3.138,1.155,4.891-3.594,1.749-4.751
			c-42.064-15.473-79.26-55.687-59.975-96.778C1893.83,89.536,1889.167,87.343,1887.767,90.434z"/>
		<path id="path3357" d="M2423.343,154.968c0.043,1.289-1.575-0.933,29.282,34.333c2.17,2.545,6.024-0.737,3.852-3.284
			c-0.005-0.006-28.671-32.766-28.676-32.772C2426.261,151.431,2423.262,152.569,2423.343,154.968z"/>
		<path id="path3345" d="M2795.876-303.404c-7.258-0.433-15.858,1.6-21.295,4.023c-44.347,20.064-50.259,82.284-85.245,87.747
			c-3.304,0.516-2.528,5.519,0.781,5.002c38.268-5.976,43.89-68.794,86.511-88.116c52.046-20.657,57.822,50.174,57.822,106.067
			c-0.085,3.413,5.14,3.443,5.061,0C2839.51-230.068,2837.342-300.931,2795.876-303.404L2795.876-303.404z"/>
		<path id="path3361" d="M2828.892-506.203c-1.697-0.067-2.984,1.528-2.547,3.178c12.559,50.242,7.005,29.407,24.427,91.628
			l-6.082,54.732c-0.369,3.324,4.662,3.886,5.031,0.559l6.135-55.22c0.085-0.761,0.878,2.455-14.385-52.056l-10.217-40.871
			C2830.994-505.361,2830.027-506.158,2828.892-506.203L2828.892-506.203z"/>
		<path id="path3363" d="M2972.556-227.567c-13.635,9.544-27.27,19.088-40.904,28.633c-2.83,1.906,0.152,6.15,2.902,4.146
			c13.634-9.544,27.269-19.088,40.904-28.633c1.157-0.785,1.458-2.359,0.673-3.516
			C2975.33-228.118,2973.711-228.401,2972.556-227.567z"/>
		<path id="path3572" d="M1163.787-482.251c-1.748,3.588-3.692,7.131-5.625,10.734l0.16-0.262
			c-14.58,20.692-12.533,49.065-2.209,71.425c13.933,26.528,25.368,54.844,50.441,71.505c20.533,13.376,45.197-12.094,65.441-12.496
			c24.952,0,34.363,20.994,53.632,34.505c21.724,15.878,26.497,40.925,27.948,69.581c6.213,26.01,35.983,29.264,51.385,45.527
			c21.779,11.782,20.139,38.485,30.111,59.814c9.433,25.748,34.173,39.867,57.214,49.861l2.016-4.643
			c-23.217-10.07-45.815-23.48-54.548-47.134c-9.381-19.838-8.512-49.175-31.748-61.982c-15.971-16.536-43.795-19.429-49.408-42.254
			c-1.311-25.963-5.939-56.556-30.095-72.937l0.033,0.022c-17.182-12.048-31.089-36.735-56.689-35.418
			c-22.839,0.488-42.703,24.346-62.566,13.277c-23.784-15.852-35.148-44.054-48.589-69.398
			c-9.353-21.083-11.834-47.032,1.771-66.341c0.131-0.185,3.911-7.136,5.877-11.172L1163.787-482.251z"/>
		<path id="path3702" d="M1212.74-196.706l-3.367,3.779c1.831,1.632,3.569,3.406,5.258,5.256
			c11.966,18.583,32.456,29.655,53.234,34.443c11.086,5.156,22.545,0.159,32.13-1.672c9.006,1.071,14.21,12.153,11.049,20.213
			c-15.464,20.861-23.82,45.344-28.947,70.79c0.17,0.767,8.236,37.064,8.43,37.929c0.712,0.863,36.966,44.747,39.246,47.507
			l3.902-3.223c-12.824-15.523-25.647-31.049-38.47-46.572c-2.641-11.884-5.283-23.766-7.924-35.65
			c4.969-24.633,13.275-48.243,28.285-68.408c4.768-11.58-2.519-26.465-15.723-27.726c-11.593,2.108-21.194,6.499-30.461,1.969
			c-36.963-8.361-49.204-31.041-50.969-32.967C1216.629-192.992,1214.757-194.908,1212.74-196.706L1212.74-196.706z"/>
		<path id="path3762" d="M1204.587-266.973c-1.056,0.469-37.04,16.462-38.465,17.096c-5.216,13.514-16.895,25.015-13.303,40.379
			l-0.055-0.332c3.004,30.946,5.403,55.196,23.482,78.279c13.813,15.682,25.844,33.976,36.259,58.851
			c0.415,1.007,9.422,13.841,4.294,33.531c-0.087,1.301-0.136,2.541-0.094,3.955l5.059-0.152c-0.032-1.059,0-2.137,0.07-3.228
			c0-1.007,5.697-18.63-4.717-36.177c-9.112-21.733-21.211-42.437-37.072-60.124l0.061,0.072
			c-17.953-21.594-19.732-51.417-22.322-75.661c-1.482-6.573,0.138-12.011,3.148-18.137c2.757-5.61,6.482-11.28,9.027-17.424
			c11.764-5.228,23.529-10.455,35.292-15.683c16.112,2.685,32.222,5.369,48.334,8.055l0.832-4.992
			C1253.09-258.89,1205.931-266.749,1204.587-266.973z"/>
		<path id="path3826" d="M1461.032-675.366c-14.881,11.916-29.317,25.878-48.164,26.189c-27.757,6.083-50.519,23.007-71.398,42.49
			c-23.799,14.189-61.144,9.647-79.914,21.347c-21.901,13.421-35.095,38.145-27.941,58.494
			c5.229,14.057,17.707,18.572,20.853,34.383c2.946,14.395,11.313,27.895,25.629,33.716c1.787,1.162,3.433,2.42,4.775,3.867
			l3.709-3.441c-1.754-1.89-3.757-3.401-5.775-4.709c-1.007-0.65-18.308-5.67-23.379-30.447l0.031,0.195
			c-1.9-15.278-16.482-23.053-21.068-35.263c-6.352-20.351,7.788-41.379,25.711-52.41c24.572-12.213,55.153-6.49,80.103-21.455
			c3.183-1.915,31.977-33.583,69.464-41.759c20.884-0.662,36.184-15.76,50.527-27.246L1461.032-675.366z"/>
		<path id="path3565" d="M1886.433-740.813c-10.718,8.574-21.436,17.148-32.154,25.722l0.221-0.158
			c-9.098,5.8-14.306,15.007-19.183,23.422c0,0.004-0.01,0.008-0.01,0.012c-14.551,21.462-25.812,44.725-37.14,67.703
			c-10.67,11.067-21.744,21.8-32.621,32.795l3.6,3.561c10.591-10.706,23.38-23.141,33.195-33.385
			c31.753-63.858,31.762-58.45,37.346-68.134c9.465-16.33,11.696-17.038,17.754-21.861c10.718-8.574,21.436-17.148,32.154-25.722
			L1886.433-740.813z"/>
		<path id="path3689" d="M1561.889-68.319c-79.057,31.623,7.864,2.666-208.044,34.613l0.74,5.008
			c49.471-7.32,98.951-14.704,148.786-17.076c9.893-0.408,20.705-0.534,30.342-5.846l-0.283,0.133
			c10.111-4.044,20.223-8.088,30.334-12.133L1561.889-68.319z"/>
		<path id="path4136" d="M1951.891-329.996l-5.045,0.395c0.731,9.324,7.926,104.332,15.435,110.304l2.807-4.211
			c0.456,0.371,0.504,0.451,0.504,0.451C1959.685-233.182,1952.792-318.508,1951.891-329.996L1951.891-329.996z"/>
		<path id="path4138" d="M1743.047-429.052l-4.574,2.168c10.977,23.173,29.003,68.202,18.941,91.679
			c-1.211,2.826-2.082,3.617-2.082,3.617l3.578,3.578c4.37-4.579,6.115-14.433,6.363-21.642
			C1765.804-365.04,1761.568-389.952,1743.047-429.052z"/>
		<path id="path4140" d="M2204.469-628.421l-3.285,3.85c34.344,29.293,47.314,59.887,51.822,83.175s0.541,39.043,0.541,39.043
			l4.91,1.229c0,0,4.214-16.969-0.482-41.232C2253.279-566.62,2239.662-598.404,2204.469-628.421z"/>
		<path id="path4142" d="M2158.6-428.814l-5.045,0.41c4.134,50.888,38.946,80.5,72.316,97.091
			c33.37,16.591,65.667,20.533,65.667,20.533l0.617-5.025c0,0-31.54-3.887-64.031-20.041
			C2195.635-351.999,2162.562-380.044,2158.6-428.814z"/>
		<path id="path4144" d="M1353.266,91.92c-27.557-1.303-57.156,5.993-80.707,32.683l3.795,3.35
			c29.956-33.95,69.606-34.886,102.349-27.33c32.743,7.556,58.005,23.697,58.005,23.697l2.729-4.264
			C1413.047,103.141,1373.721,91.92,1353.266,91.92z"/>
		<path id="path3419" d="M1865.314-89.629c-21.651,41.893-16.372,98.598,18.918,131.85l3.473-3.684
			c-33.37-31.443-38.53-85.913-17.894-125.843L1865.314-89.629z"/>
		<path id="path3421" d="M2000.129-148.537c-11.514,36.593-33.661,70.051-41.039,109.204c-3.869,7.033-11.834,11.446-17.82,18.805
			l3.926,3.195c5.362-6.592,13.528-10.598,18.67-20.133c6.827-37.937,29.215-71.807,41.091-109.552L2000.129-148.537z"/>
		<path id="path3423" d="M2303.017-214.448c-12.094,21.869-18.155,55.944-47.542,51.925c-30.757,6.819-59.558-3.745-90.847-10.228
			l-1.027,4.955c29.569,6.127,60.506,17.338,92.118,10.379c32.759,4.146,40.716-34.669,51.728-54.582L2303.017-214.448z"/>
		<path id="path3425" d="M2320.072-270.918l-1.049,4.951c31.573,6.694,66.214,16.332,98.78,3.885
			c25.478-0.94,48.378,13.494,72.652,22.597l1.777-4.74c-24.107-9.04-47.173-24.072-75.296-22.904
			C2385.837-254.967,2352.887-263.961,2320.072-270.918L2320.072-270.918z"/>
		<path id="path3427" d="M2567.714-648.946c-23.55,14.8-46.531,30.475-69.083,46.72l-46.365,4.031l0.438,5.043l47.736-4.15
			c22.277-16.11,46.271-32.464,69.968-47.357L2567.714-648.946z"/>
		<path id="path3429" d="M2498.801-701.456c-39.338-1.649-54.019,16.197-82.05,27.771l1.932,4.68
			c10.958-4.524,19.361-9.803,33.803-17.275c28.282-15.724,63.278-11.491,93.13,0.865c13.583,5.953,73.27,19.395,107.435,58.679
			l3.818-3.32c-28.426-32.685-70.418-47.012-109.482-60.097l0.164,0.063C2520.457-701.305,2501.143-701.163,2498.801-701.456z"/>
		<path id="path3431" d="M2536.814-761.274c-10.242,8.089-17.824,18.393-27.666,25.426c-14.757,4.715-23.542,22.118-18.133,36.748
			l4.746-1.756c-4.227-11.431,2.779-26.738,15.844-30.515c11.57-8.255,18.585-18.221,28.345-25.929L2536.814-761.274z"/>
		<path id="path3433" d="M2172.87-829.244l-1.152,4.93c27.168,6.351,48.001,57.397,6.945,58.826
			c-35.361,6.417-75.531,11.771-108.855,34.91l0.094-0.063c-27.041,17.033-63.808,37.997-57.267,75.812
			c17.078,24.575,3.055,46.886-24.738,52.58c-29.382,22.255-39.933,57.786-49.203,93.614
			c-15.123,29.703-26.554,65.836-54.333,83.144c-37.365,14.928-34.243,55.273-19.928,92.87c0.755,37.57-40.119,48.537-57.017,78.433
			c-6.199,31.495-29.925,47.157-54.427,67.906l0.135-0.107c-29.245,21.532-6.25,55.294,25.227,73.527l2.537-4.381
			c-23.901-13.845-52.484-44.359-24.693-65.12c21.959-18.818,49.188-36.322,55.987-69.933c15.984-27.777,58.44-40.312,57.312-81.216
			c-13.476-35.311-17.996-73.703,17.07-87.435c0.266-0.103,0.172-0.056,0.414-0.207c30.103-18.713,41.508-56.445,56.474-85.687
			c8.543-32.681,18.653-69.169,46.689-90.734c30.682-6.662,44.982-33.034,27.342-59.078c-5.725-34.815,31.419-54.018,55.213-69.767
			c31.257-21.704,69.362-27.437,106.681-34.054l-0.346,0.037C2225.618-762.232,2206.567-821.366,2172.87-829.244L2172.87-829.244z"
			/>
		<path id="path3438" d="M2024.199-827.679c-43.068,7.252-61.483,50.927-69.878,93.677c-25.788,26.828-35.356,64.805-35.793,97.769
			c-21.064,22.272-66.398,41.929-54.619,83.595l-0.15-0.742c5.289,41.953-50.278,40.502-84.886,47.671
			c-30.545-0.538-85.738-11.825-105.064,29.713c-19.505,38.165-0.719,87.169-5.395,126.677c0,0.009,0,0.015,0,0.023
			c-6.791,59.837-46.374,112.471-52.451,176.436c0,5.982-9.24,42.624,3.209,134.161l10.029-1.365
			c-5.943-43.703-9.246-88.024-3.213-131.401c10.08-71.406,45.372-114.018,52.485-176.69c2.563-21.704-1.035-43.42-2.752-64.285
			c-8.439-102.536,54.513-83.809,103.952-83.118c31.2-6.655,100.893-5.463,94.132-59.089c-0.058-0.463-0.024-0.294-0.151-0.744
			c-9.896-35.003,31.006-50.107,54.916-76.681c0-36.131,9.772-71.582,35.103-97.138c7.498-39.002,22.853-81.858,62.208-88.486
			L2024.199-827.679z"/>
		<path id="path3446" d="M1562.99-384.212l-4.414,2.479c8.688,15.475,21.175,28.136,26.586,44.017
			c4.135,24.415,6.372,49.281,3.588,73.769c-10.006,44.342-0.975,89.341,4.289,132.837l5.025-0.609
			c-5.354-44.236-14.117-88.223-4.301-131.505c4.03-34.95-3.311-74.68-3.741-75.954
			C1584.152-356.582,1571.248-369.506,1562.99-384.212L1562.99-384.212z"/>
		<path id="path3490" d="M1871.181-810.691c-1.662,15.258-19.142,20.134-34.371,21.164c-30.712,1.264-87.311,25.014-118.3,32.615
			c-25.759,8.764-54.284,24.789-79.704,36.545l-39.638,62.585c-0.345,20.504,4.313,42.419,23.898,48.49l-0.232-0.084
			c18.772,7.895,36.975,17.311,55.73,25.787c19.277,17.236,28.489,42.808,42.515,65.316l-0.096-0.164
			c3.132,5.985,6.229,11.999,9.349,18.01l4.492-2.332c-30.109-57.986-39.02-72.266-53.402-85.083
			c-13.806-6.215-51.416-24.588-56.859-26.283c-16.576-5.138-20.518-24.69-20.338-42.185l38.074-60.115
			c26.045-12.118,50.97-26.292,77.74-35.656c39.688-10.206,77.06-28.174,117.206-32.404l-0.094,0.008
			c18.181-1.23,37.096-7.633,39.06-25.666L1871.181-810.691z"/>
		<path id="path3502" d="M1617.222-480.678c-14.833-0.371-29.371,3.533-42.726,9.322c-20.537,6.341-40.97,14.317-58.751,27.125
			c-12.662,7.154-23.296,17.032-32.578,27.857c-9.998,9.656-19.569,20.757-23.783,34.814l0.027-0.084
			c-3.351,9.908-11.313,20.165-8.939,32.316l-0.047-0.42c0.386,15.042,0.397,31.409,8.551,45.613
			c4.524,10.858,9.05,21.716,13.574,32.574l4.672-1.945c-0.098-0.235-13.554-32.53-13.652-32.765
			c-9.673-16.647-7.339-39.973-8.135-44.027c-1.994-10.204,5.234-19.276,8.768-29.722c2.988-9.153,7.268-17.867,22.649-32.883
			c16.628-19.568,29.901-25.857,31.849-27.22c17.006-12.249,37.349-20.33,57.478-26.457c27.884-12.246,45.485-8.467,47.388-8.631
			c16.014-1.405,30.659,7.552,44.199,16.623l2.818-4.205c-26.591-17.815-33.909-17.398-53.365-17.885L1617.222-480.678z"/>
		<path id="path3509" d="M1574.834-719.782c-28.637,11.032-49.663,13.35-62.239,32.291c-0.122,0.181-0.083,0.112-0.176,0.309
			c-9.536,19.961,9.905,44.184-7.492,59.386c-36.511,28.121-91.555,47.312-116.132,64.183
			c-22.682,14.933-52.317,30.843-57.63,61.525c-7.059,22.295,7.941,52.849,35.068,58.656c20.277,14.365,15.521,42.812,27.515,64.242
			c4.737,22.858,31.303,33.35,52.96,29.385l-0.912-4.978c-18.701,3.424-43.136-5.112-47.255-26.14
			c-12.154-21.2-6.662-50.908-30.152-67.203c-32.968-6.469-50.063-52.774-11.5-86.902c8.828-7.813,28.114-20.425,34.623-24.314
			c39.198-23.854,74.456-33.492,116.636-64.537c20.099-18.539,0.415-42.989,8.77-60.939c13.007-19.407,38.859-20.639,59.74-30.242
			c42.925-16.576,59.787-4.25,69.183-0.937l1.684-4.771l-3.111-1.1l0.348,0.152C1623.026-733.279,1597.718-728.619,1574.834-719.782
			z"/>
		<path id="path3522" d="M1549.541-633.695c-2.513,17.454-28.501,32.998-34.244,58.888c8.48,39.667-4.277,42.612-47.704,42.363
			c-29.961,8.615-36.109,54.709-40.211,85.738l5.017,0.664c2.137-16.166,3.979-32.345,9.223-47.449c0-0.008,0-0.006,0-0.014
			c4.842-14.216,12.261-29.636,26.777-33.881c42.165,0.061,61.323-3.066,52.07-47.22c5.449-23.628,31.253-38.76,34.076-58.367
			L1549.541-633.695z"/>
		<path id="path3580" d="M1697.866-686.044c-0.739,3.83,0.047,18.677-16.19,35.72l0.137-0.129
			c-15.471,13.475-20.008,33.431-20.799,52.65l4.047,0.168c0.776-18.873,5.214-37.446,19.482-49.828
			c17.407-18.62,16.531-33.789,17.294-37.818L1697.866-686.044z"/>
	</g>
</g>
</svg>
