<?xml version="1.0"?>
<svg xmlns:rdf="http://www.w3.org/1999/02/22-rdf-syntax-ns#" xmlns="http://www.w3.org/2000/svg" xmlns:cc="http://creativecommons.org/ns#" xmlns:dc="http://purl.org/dc/elements/1.1/" xmlns:svg="http://www.w3.org/2000/svg" id="svg3597" viewBox="0 0 151.36 123.87" version="1.1">
  <g id="layer1" transform="translate(-299.32 -470.43)">
    <path id="path170" d="m363.58 545.09c-1.3198 1.1785-4.0295 6.1571-8.1411 2.1627 0 0 5.8613 2.0733 6.3504-4.1188 0 0 1.5456-0.9781 1.7908 1.9562" fill="#231f20"/>
    <path id="path172" d="m360.52 549.93s1.8874 0.86941 2.8256 0.17388c0.93825-0.69553 0.79938-1.5988 2.1192-1.216 1.321 0.38158 0.97326-0.59048 0.79938-1.5637-0.17388-0.97205-0.83319-1.7485-0.2089-2.6167 0.62549-0.86821 0.48663-2.3281-1.1109-2.432-1.5988-0.10384-2.0612 0.48663-3.2422-0.17388-1.1822-0.66051-0.34777-1.0071-1.8415 0.035-1.4949 1.0421-2.7338 0.6255-3.6141 0.34777-0.87908-0.27894-1.7594 0.37071-1.2619 2.2931 0.4975 1.9212-1.0771-0.69553-1.0771-0.69553l0.76436-5.4314 11.696-0.52044 3.625 8.1411-2.339 5.2575-6.5774 0.76436-0.55666-2.3631" fill="#231f20"/>
    <path id="path194" d="m367.32 546.61s1.4671 3.4233-1.2232 3.9124c-2.6891 0.48904-5.947 1.3005-6.4361-1.9562 0 0-5.2129 1.4671-4.7238-4.725 0.31033-3.9305 1.5456-2.9343 3.7457-2.4452 2.2013 0.48904-0.48783-3.9124 5.458-0.73297 0 0 5.1356-0.24513 3.1794 5.947z" stroke="#231f20" stroke-miterlimit="3.864" stroke-width="1.1713" fill="none"/>
    <path id="path196" d="m390.08 527.86c-0.1123-0.0362-42.973-14.878-42.511-1.5939 0.24995 7.1751 5.1754 9.1747 5.1754 9.1747s8.6748-2.4259 7.675 3.7494l-0.71002 0.63636s-0.24271 1.8234-1.7896 4.0392 0.67501-6.1753-2.2496-6.1753c-2.9258 0-10.676 1.9997-13.6-0.74987-2.9258-2.7495-7.9262-6.1016-4.4256-12.101 3.4994-5.999 8.7485-8.9248 17.85-10.175 9.1011-1.2498 38.051 4.4256 45.726 12.351 7.675 7.925-1.5758 17.557-6.1752 12.351-0.7704-0.87183-0.99983-3.4994 0-5.4254s0.56753-4.2565-4.9653-6.0811z" stroke="#231f20" stroke-miterlimit="3.864" stroke-width="1.1713" fill="#fff"/>
    <path id="path198" d="m396.6 566.23-0.89235-0.64965c-1.3524-0.64964-2.8135-1.2981-2.8135-2.8135 0-0.37795 0.4335-0.48663 0.4335-0.86579 0-1.4599-1.0832-2.1095-1.0832-3.5706 0-1.5686 1.0832-2.2726 1.2993-3.7868 0.59531-3.5163 0.64965-6.2767 2.8135-7.1413 0.4009-0.1606 1.7847-0.54096 2.1639-0.43349 0.92013-2.7592 3.3545-4.1116 6.2755-4.1116 0.43349 0 0.48663 0.54097 0.86579 0.64965 0.70398-1.7859 0.4335-3.6793 2.38-3.6793 3.6793 0 8.2244 0.4323 8.8741 3.8955 8.0071 1.0819 12.226 5.7888 15.798 12.984l-0.4335 1.7316c0.97446 1.5142 1.5154 2.7048 1.5154 4.5439 0 1.4068-0.86579 2.2182-1.9477 3.0309l0.4323 3.8942c0 0.4335 0.21614 0.70399 0.21614 1.1363 0 4.2203-3.7324 6.3842-7.7909 7.5204-3.3002 0.92013-4.1116 4.7612-7.5736 4.7612-0.86579 0-1.3524-0.48663-1.7316-1.2981-1.0276 0.75711-1.5154 1.7304-2.8135 1.7304-2.1095 0-2.9753-1.7304-4.9774-2.38-3.084-1.0276-6.9251-1.2981-6.9251-4.5451 0-0.86459 0.70399-1.1363 1.2981-1.7304-0.86458-0.32482-1.4599-0.4335-2.38-0.4335 0 0-3.2458-3.6793 0.64965-4.7612 3.8955-1.0819-2.3535-3.2458-3.6528-3.6781zm35.681-12.986c2.8135 6.2767 8.0071 14.068 11.686 10.388 0.995-0.99499 2.5974-3.1383 2.5974-4.5451 0-2.921-4.1128-2.2182-5.1947-4.9774m-5.4097-0.4323c0.64844-1.3524 1.7316-1.7859 1.7316-3.2458 0-2.543-2.3812-3.5175-2.3812-6.0593 0-2.8679 2.1639-4.2746 2.1639-7.1425 0-1.8934-2.3257-2.5962-4.2191-2.5962-4.1128 0-6.2767 2.38-10.388 2.38-3.084 0-4.8144-0.86579-7.8984-0.86579-2.3812 0-3.788 0.75833-5.8432 1.9477m12.984-2.5962c2.3257-2.1108 2.3257-4.6538 4.9774-6.2767 3.8955-2.4344 8.0071-4.1116 8.0071-8.7098v-4.6538c0-6.3298-8.4406-6.9782-14.77-6.9782-2.0021 0-3.1383-0.16302-5.1392-0.21736 2.1095-0.16181 4.1116-1.5686 4.1116-3.6781 0-1.5698-0.70278-2.3812-0.70278-3.9498 0-0.97447 0-1.5686 0.0531-2.543m12.552 7.7909c-9.3595-1.839-7.1413-17.53-16.501-17.53h-1.8946c0.10867 1.6772 0.64964 2.6517 0.64964 4.329 0 6.2211-8.1701 7.1956-8.6567 13.417m-2.38-1.5142c1.3524-0.32483 2.1639-0.54097 3.462-1.0819m16.231-8.4406c0.91892-0.32482 1.4068-0.64965 2.38-0.64965 3.5706 0 3.5175 4.4364 5.8432 7.1425 2.7048 3.1371 6.2755 4.4896 6.2755 8.6555 0 1.3536-0.21615 2.2726-1.0819 3.247m1.0819-1.2993c9.7386 3.8955 8.0614 14.609 8.8728 24.888-2.0552 0-4.3278 0.91893-4.3278 2.9753v2.8666m3.6793-4.1116c0.86579 2.5974 1.9477 4.0041 1.9477 6.709 0 1.4068-1.0819 2.0564-1.0819 3.4632 0 2.0009 1.0819 2.9753 1.0819 4.9774 0 0.97326-0.97447 1.1894-1.7316 1.7304m-4.7612-30.513c0.37916 2.38 2.1095 3.1915 3.8955 4.76m-18.828-9.089c-1.1363-1.4611-1.9477-2.6505-3.7868-2.8135l-5.3022 1.0819c-2.2182-0.32482-2.7592-2.2182-4.7612-3.0297-4.0573-1.6772-7.5748 0.75832-11.253-1.7304-4.5994-3.1383-2.3269-9.1433-6.709-12.552-2.0564-1.5698-4.0573-0.86579-6.709-0.86579-1.7847 0-2.4344 1.5686-3.6793 2.8135-1.8934-2.3812-4.5052-3.1746-7.5736-2.5974-2.1204 0.39848-1.7859 2.8135-4.7612 2.8135-5.9519 0-5.3022-2.5974-11.254-2.5974-2.7048 0-4.3821-1.6772-6.2755 0.21735-1.3524 1.3524-1.4068 3.1915-3.2458 3.6781-8.9272 2.4344-22.507 6.168-22.507 15.366 0 0.86579 0.43229 1.2981 0.43229 2.1639 0 2.8135-1.2981 3.6793-1.2981 6.4928 0 5.6258 4.6538 8.1121 8.2232 9.9548 1.6772 0.86579 2.4887 0.97326 4.329 1.0819m43.931-36.79c-0.0543 1.0276-0.21615 1.6229-0.43229 2.5962m-6.2767 3.4632v1.5142c0.27169 0.10868 0.54218 0.21615 0.86579 0.21615m-20.558-6.2755v2.5974c0.54097-0.5953 0.91893-0.97446 1.5142-1.5154m-24.887 16.88c0.54097 0.97447 1.2437 1.7316 2.38 1.7316 0.92013 0 1.4611-0.37916 2.1639-0.86579m48.693-4.3278-1.2981-1.7316c1.0819-3.2458 3.462-4.5982 3.462-8.0071m10.604 4.3278c-0.54097 0.32482-0.86579 0.59531-1.2993 1.0819m3.6793 12.336c1.9477-2.7048 3.9498-3.4632 6.0593-6.0593m-1.7304 1.7304c1.4056-0.26928 2.2182-0.43229 3.6781-0.21615m1.7316 8.8729c1.7316-1.2981 3.0297-2.6505 3.0297-4.8687 0-2.4344-1.0819-3.7336-1.0819-6.168 0-1.0276 0.59531-1.5686 0.64965-2.5974m-65.573 26.836h-2.1095c-4.7069 0-7.0869-2.5974-11.795-2.5974h-4.2191c-3.5706 0-4.1116-4.0573-7.413-5.4097-4.0029-1.6241-8.2232-3.084-8.2232-7.413v-1.0276m-1.9477 2.8135c0.70278-0.21614 1.1906-0.32482 1.9477-0.4335m4.7612 9.0902c-1.4611 0.54097-2.543 0.91892-3.2458 2.38 3.7324 2.4887 6.4373 3.2458 10.874 3.2458h4.2203c1.9477 0 2.6517 1.9477 4.5994 1.9477 0.37796 0 0.54097-0.37795 0.86459-0.43229" stroke="#231f20" stroke-miterlimit="3.864" stroke-width="1.1713" fill="none"/>
    <path id="path200" d="m317.15 541.78h-3.4076c-2.3812 0-3.1927-1.839-5.2479-3.0297l-0.21615-0.86579 1.2981 0.86579m45.013 12.335c-3.8955 0.97447-6.2755 0.64964-10.278 0.64964-2.2726 0-3.4632-1.2981-5.7357-1.2981-1.4599 0-2.2182 1.0819-3.6793 1.0819-2.6505 0-3.8411-1.9477-6.4916-1.9477-2.7592 0-4.2746 1.0819-7.0338 1.0819-7.8452 0-16.987-3.0297-16.987-10.875v-4.8687c0-2.0021 1.4599-3.0297 3.0297-4.1659-0.37916-1.0276-0.64964-1.6772-0.64964-2.8135 0-5.1936 2.5974-7.6291 4.5451-12.552l0.86579-0.21615 0.64844 0.8658c0.21615-0.37917 0.64965-0.59531 0.64965-1.0819 0-1.8934-0.64965-2.9753-0.64965-4.8699 0-4.4364 2.3269-7.3574 6.4928-9.4138l1.7304 0.4335c0.70398-4.9774 4.7069-6.5472 8.8728-9.3064 3.4088-2.2726 4.7612-5.6258 8.8728-5.6258 1.3536 0 2.2182 0.37796 3.4632 0.86459 3.0297-6.1137 8.8185-6.9251 15.364-6.9251 2.1107 0 4.0041-0.1618 5.1948 1.5154 1.2981-1.2981 2.2182-2.1639 4.0029-2.1639 2.0021 0 3.1384 0.64843 5.1404 0.64843h4.6526c2.2182 0 3.3545-0.86458 5.5727-0.86458 3.1915 0 5.0317 0.97326 7.8984 2.38l4.329-0.64965c2.0021 0.27049 3.1371 1.5154 4.1116 3.247 0.75711-0.43349 1.2437-0.86579 2.1639-0.86579 3.8955 0 5.4109 4.5439 5.4109 8.4394 0 1.3524-0.27049 2.2182-0.8658 3.4632m7.3574-6.709c-2.0552-1.5154-3.2458-3.2458-5.8432-3.2458-0.86579 0-1.3524 0.27049-2.1639 0.64844m-6.0593-1.7304c0.32482 2.3257 0.21614 3.6781 0.21614 6.005 0 2.2182-1.839 3.0297-2.8135 5.0317-1.1363 2.2726-0.81145 4.2734-2.5962 6.0593m-6.709-12.984c-1.5686 0.75711-2.1639 1.5686-3.2458 2.8135 0.64844 0.86579 1.1363 1.5686 1.5142 2.5962m-1.7316-2.8135c-2.1095 1.1906-3.625 1.7316-6.0593 1.7316-3.1915 0-5.9507-1.6772-6.709-4.7612m1.7316 6.2767c-0.37795-0.54097-0.86579-0.92013-0.86579-1.6229 0-0.75832 0.37916-1.1906 0.64965-1.8403m3.462-6.2755c-0.21615-0.64964-0.64844-1.0276-0.64844-1.7316 0-1.0276 0.91892-1.4068 1.5142-2.1639m-13.201 1.5142c0 3.3002-0.0543 5.1948-0.0543 8.4949 0 3.0297 1.9477 4.3821 3.3002 7.0869m-24-10.8c-0.43229 0.75712-0.86579 1.245-0.86579 2.1639 0 2.4887 2.5974 3.3545 2.5974 5.8432 0 1.7316-1.7316 2.3812-1.7316 4.1116 0 4.2203 5.8975 3.3014 8.8728 6.2767m-18.828-3.0297c0.43229 0 0.64844-0.21615 1.0819-0.21615 0.70277 0 1.0276 0.64844 1.5142 1.0819m-1.2981 9.3051c-2.2726-5.5727-12.064-3.0297-12.552-9.089m-1.7304 11.037c3.2458 0 4.5439 2.2726 7.7909 2.8135m-14.5-1.5154c0.75712 4.5451 6.3842 4.329 7.7909 8.6567m94.572 57.998c0.0531-0.48663 0.21614-0.81145 0.21614-1.2981 0-0.54097-0.86579-0.54097-0.86579-1.0819 0-1.6772 1.7316-2.0564 3.0297-3.0309m-2.38 1.2993c-0.37916-1.5154-1.5154-2.0564-1.9477-3.4632m8.2232 6.0593c-0.54097-1.1351-1.0819-1.7847-1.0819-3.0297 0-0.86579 0.43229-1.2981 0.43229-2.1639 0-2.3269-2.5418-2.921-3.0297-5.1935m2.8135 3.8955c0.10868-0.70398 0.21615-1.0819 0.4335-1.7316m-0.4335 5.8432c-0.5953-0.10867-1.0819-0.21614-1.7316-0.21614m12.768-11.903c-2.2182-1.245-3.2458-2.8135-5.8432-3.247m3.8954 1.9477c0-0.37796-0.43229-0.48663-0.43229-0.86459 0-0.97446 0.86579-1.4068 0.86579-2.3812m2.1639 10.388c-0.97447-2.0021-2.2182-3.6793-4.4364-3.6793-0.92013 0-1.3524 0.8658-2.2726 0.8658-0.75711 0-0.81145-1.0288-1.5142-1.2993m6.0593 1.2993c-1.245 0.43229-2.0021 1.1363-2.8135 2.1639m-19.693 9.9548c0.43229-2.2182 1.7316-3.1915 1.7316-5.4097m7.7909-32.246c-0.97447 1.3524-1.2993 2.5974-1.2993 4.3278 0 1.8403-2.5962 2.0564-2.5962 3.8955 0 1.245 1.2981 1.7859 1.2981 3.0297 0 0.75832-0.4335 1.1906-0.4335 1.9477 0 0.37916 0.70399 0.16301 0.86579 0.4335m-1.2981-3.8955c-0.43229 0.48663-0.75711 0.91892-1.0819 1.5142m2.38-4.9774c0.54097 1.2993 1.4611 1.7316 1.9477 3.0297m-1.0819-6.0593c-0.32483 0.0543-0.54097 0.21614-0.8658 0.21614-1.0276 0-1.5686-0.21614-2.5962-0.21614m3.2458 3.8954c0.59531 0.27049 1.0819 0.48663 1.7316 0.64965m5.1935-6.0593c-0.37916 2.6505-2.5974 3.625-2.5974 6.2755 0 0.37917 0.37916 0.54097 0.4335 0.8658m0.21614-3.2458c-0.92012-0.10867-1.5154-0.54217-1.9477-1.2993m9.9548 1.7316c-2.1639 1.6772-1.7847 4.1659-4.3278 5.4109m2.1639-2.1651c0 1.0819 0.0543 1.7859 0.43229 2.8135m5.627 2.3812c-0.32482 0-0.48663-0.21736-0.81145-0.21736-0.75711 0-1.0276 0.64965-1.7859 0.64965-1.2437 0-1.7847-0.86579-3.0297-0.86579-1.8934 0-2.6505 1.9477-4.5439 1.9477-1.2981 0-1.9477-0.75712-3.247-0.64965" stroke="#231f20" stroke-miterlimit="3.864" stroke-width="1.1713" fill="none"/>
    <path id="path204" d="m381 550.44c1.6772 0.81145 2.9753 1.1363 4.1116 2.5962l-0.21615 2.5974-0.43229 0.86579c-1.3536-1.839-3.0297-2.8678-3.0297-5.1935 0-0.32482-0.4335-0.54097-0.4335-0.86579z" stroke="#231f20" stroke-miterlimit="3.864" stroke-width="1.1713" fill="#231f20"/>
    <path id="path206" d="m367.16 548.06s2.8002-2.1639 3.4499 0.4335c0.24875 0.99741 0.11472 2.5708 0.0761 4.2275m13.632 12.146c-2.5889-6.2839-4.9303-11.5-6.1342-13.128-4.7226-6.3902-6.2755-7.1413-11.469-6.2755m33.773 40.035s-2.6107-4.1116-3.4764-9.089c-0.89236-5.1344-0.64844-6.0593 2.1651-6.9251 0 0 2.1639-1.5154-0.4335-1.5154s-8.0071 1.5154-10.387-2.5962c-2.3812-4.1116-7.1425-15.798-8.4406-17.53-1.2981-1.7316-4.1116-8.2232 0.86579-8.4394 4.9774-0.21735 4.9774 1.0819 6.709-0.21735 1.7304-1.2981 1.5142-1.5142 2.8135 0.21735 1.2981 1.7304 2.8123-2.1651 1.2981-3.0297m1.7449 1.7304s1.2848 2.3812-0.66293 3.6793-1.5142-1.5154-3.0297-1.0819c-3.0297 0.86579-5.627-1.2981-4.9774 1.0819 0.64964 2.38-0.21615 4.1116-2.5974 3.0297-2.38-1.0819-2.8135 0.86579-0.21614 1.7316 2.5974 0.86579 1.5154-1.5154 5.1935 0.21615 3.6793 1.7316 0.64964 2.5974 2.5974 5.4097 1.9477 2.8135 2.8135 4.7612 1.0819 7.1425-1.7316 2.38-1.9477 6.2755 1.9477 6.9251 3.8955 0.64844 3.8955 0 3.8955 0l-0.8658-0.64965c-1.3524-0.64964-2.8135-1.2981-2.8135-2.8135 0-0.37795 0.4335-0.48663 0.4335-0.86579 0-1.4599-1.0831-2.1095-1.0831-3.5706 0-1.5686 1.0831-2.2726 1.2993-3.7868 0.59531-3.5163 0.64964-6.2767 2.8135-7.1413 0.4009-0.1606 1.7847-0.54096 2.1639-0.43349 0.92013-2.7592 3.3545-4.1116 6.2755-4.1116 0.4335 0 0.48663 0.54097 0.86579 0.64965 0.70399-1.7859 0.4335-3.6793 2.38-3.6793 3.6793 0 8.2244 0.4323 8.8741 3.8955 8.0071 1.0819 12.226 5.7888 15.798 12.984l-0.4335 1.7316c0.97447 1.5142 1.5154 2.7048 1.5154 4.5439 0 1.4068-0.86579 2.2182-1.9477 3.0309l0.43229 3.8942c0 0.4335 0.21615 0.70399 0.21615 1.1363 0 4.2203-3.7324 6.3842-7.7909 7.5204-3.3002 0.92013-4.1116 4.7612-7.5736 4.7612-0.86579 0-1.3524-0.48663-1.7316-1.2981-1.0276 0.75711-1.5154 1.7304-2.8135 1.7304-2.1095 0-2.9753-1.7304-4.9774-2.38-3.084-1.0276-6.9251-1.2981-6.9251-4.5451 0-0.86459 0.70398-1.1363 1.2981-1.7304-0.86458-0.32482-1.4599-0.4335-2.38-0.4335-0.16181-2.3112-4.8482-2.9802 3.305 11.196" stroke="#231f20" stroke-miterlimit="3.864" stroke-width="1.1713" fill="none"/>
  </g>
  <metadata>
    <rdf:RDF>
      <cc:Work>
        <dc:format>image/svg+xml</dc:format>
        <dc:type rdf:resource="http://purl.org/dc/dcmitype/StillImage"/>
        <cc:license rdf:resource="http://creativecommons.org/licenses/publicdomain/"/>
        <dc:publisher>
          <cc:Agent rdf:about="http://openclipart.org/">
            <dc:title>Openclipart</dc:title>
          </cc:Agent>
        </dc:publisher>
        <dc:title>58294main_The.Brain.in.Space-page-157-brain</dc:title>
        <dc:date>2010-04-06T07:38:26</dc:date>
        <dc:description>This is clipart converted and broken apart that has been released into the public domain because the document says so, and its from NASA, a USA government agency. The publication is called "The Brain in Space:"&#xD;\n&#xD;\nhttp://www.nasa.gov/audience/foreducators/topnav/materials/listbytype/The.Brain.in.Space.html</dc:description>
        <dc:source>http://openclipart.org/detail/38533/-by-rejon-38533</dc:source>
        <dc:creator>
          <cc:Agent>
            <dc:title>rejon</dc:title>
          </cc:Agent>
        </dc:creator>
        <dc:subject>
          <rdf:Bag>
            <rdf:li>astronomy</rdf:li>
            <rdf:li>brain</rdf:li>
            <rdf:li>clip art</rdf:li>
            <rdf:li>clipart</rdf:li>
            <rdf:li>converted</rdf:li>
            <rdf:li>government</rdf:li>
            <rdf:li>nasa</rdf:li>
            <rdf:li>science</rdf:li>
            <rdf:li>space</rdf:li>
            <rdf:li>usa</rdf:li>
          </rdf:Bag>
        </dc:subject>
      </cc:Work>
      <cc:License rdf:about="http://creativecommons.org/licenses/publicdomain/">
        <cc:permits rdf:resource="http://creativecommons.org/ns#Reproduction"/>
        <cc:permits rdf:resource="http://creativecommons.org/ns#Distribution"/>
        <cc:permits rdf:resource="http://creativecommons.org/ns#DerivativeWorks"/>
      </cc:License>
    </rdf:RDF>
  </metadata>
</svg>
