
        <svg xmlns:rdf="http://www.w3.org/1999/02/22-rdf-syntax-ns#" xmlns="http://www.w3.org/2000/svg" xmlns:cc="http://creativecommons.org/ns#" xmlns:xlink="http://www.w3.org/1999/xlink" xmlns:dc="http://purl.org/dc/elements/1.1/" x="0px" y="0px" width="500" height="352" viewBox="0 0 500 352" xml:space="preserve">
            <title>Brain coral (Faviidae) 1</title>
            <desc xmlns:ian_image_library="https://ian.umces.edu/media-library/">
                <ian_image_library:title>Brain coral (Faviidae) 1</ian_image_library:title>
                <ian_image_library:descr>Illustration of a brain coral, family Faviidae</ian_image_library:descr>
                <ian_image_library:scene>
                    <ian_image_library:contains>brain, coral, Faviidae, Cnidaria, Anthozoa, Scleractinia, Faviina, Platygyra</ian_image_library:contains>
                    <ian_image_library:when>2004-01-08</ian_image_library:when>
                </ian_image_library:scene>
            </desc>
            <metadata id="metadata-iil-2191b2eaa275a4c469385c3ecfc31a38">
                <rdf:RDF>
                <cc:Work
                rdf:about="">
                <dc:format>image/svg+xml</dc:format>
                <dc:type
                rdf:resource="http://purl.org/dc/dcmitype/StillImage" />
                <cc:license
                rdf:resource="http://creativecommons.org/licenses/by-sa/3.0/" />
                <dc:title>Brain coral (Faviidae) 1</dc:title>
                <dc:date>2004-01-08</dc:date>
                <dc:creator>
                    <cc:Agent>
                        <dc:title></dc:title>
                    </cc:Agent>
                </dc:creator>
                <dc:rights>
                <cc:Agent>
                    <dc:title></dc:title>
                </cc:Agent>
                </dc:rights>
                <dc:publisher>
                <cc:Agent>
                    <dc:title>Integration and Application Network</dc:title>
                </cc:Agent>
                </dc:publisher>
                <dc:identifier>https://ian.umces.edu/media-library/brain-coral-faviidae-1/</dc:identifier>
                <dc:source>https://ian.umces.edu/media-library/brain-coral-faviidae-1/</dc:source>
                <dc:language>en-US</dc:language>
                <dc:subject>
                <rdf:Bag>
                    <rdf:li>brain, coral, Faviidae, Cnidaria, Anthozoa, Scleractinia, Faviina, Platygyra</rdf:li>
                </rdf:Bag>
                </dc:subject>
                <dc:coverage></dc:coverage>
                <dc:description>Illustration of a brain coral, family Faviidae</dc:description>
                <dc:contributor>
                <cc:Agent>
                    <dc:title></dc:title>
                </cc:Agent>
                </dc:contributor>
            </cc:Work>
            <cc:License
                rdf:about="http://creativecommons.org/licenses/by-sa/3.0/">
                <cc:permits
                rdf:resource="http://creativecommons.org/ns#Reproduction" />
                <cc:permits
                rdf:resource="http://creativecommons.org/ns#Distribution" />
                <cc:requires
                rdf:resource="http://creativecommons.org/ns#Notice" />
                <cc:requires
                rdf:resource="http://creativecommons.org/ns#Attribution" />
                <cc:permits
                rdf:resource="http://creativecommons.org/ns#DerivativeWorks" />
                <cc:requires
                rdf:resource="http://creativecommons.org/ns#ShareAlike" />
            </cc:License>
            </rdf:RDF>
            </metadata>
            
<g id="ian_symbols_bc550d4269cd3914010d273893294f02">
	<g>
			<radialGradient id="ian_symbols_d30b8a69f08d35d41580b02cf5d792d6" cx="2714.4893" cy="2232.6199" r="216.0797" gradientTransform="matrix(0.1992 0 0 -0.1992 -136.1606 574.4916)" gradientUnits="userSpaceOnUse">
			<stop  offset="0" style="stop-color:#9D8673"/>
			<stop  offset="1" style="stop-color:#837566"/>
		</radialGradient>
		<path fill="url(#ian_symbols_d30b8a69f08d35d41580b02cf5d792d6)" d="M390.236,177.347c5.084-1.942,22.644-4.613,26.355-9.231c3.863-4.853,25.576,10.54,25.86,4.25
			c0.605-13.472-3.223-21.762-1.941-33.645c0.645-6.054-10.717-38.096-16.038-42.023c-1.888-1.412-6.849-1.127-9.503-2.186
			c-3.358-1.372-4.559-3.388-6.971-5.648c-5.172-4.824-10.518-6.005-17.7-6.638c-7.635-0.672-21.129,3.8-23.159,11.834
			c-1.92,7.673,1.672,17.305,6.89,25.007c4.75,6.981,7.182,13.731,12.21,21.105c2.635,3.838-6.27,16.094-4.005,20.163
			c2.696,4.853,3.755,4.873,5.723,9.113l2.28,7.888V177.347z"/>
			<radialGradient id="ian_symbols_72c9007af2d0d2747dcb72816ca8a9a6" cx="2741.3291" cy="2248.2842" r="89.1896" gradientTransform="matrix(0.1992 0 0 -0.1992 -136.1606 574.4916)" gradientUnits="userSpaceOnUse">
			<stop  offset="0" style="stop-color:#D3C2C6"/>
			<stop  offset="0.4607" style="stop-color:#CBB3B0"/>
			<stop  offset="1" style="stop-color:#BA9A81"/>
		</radialGradient>
		<path fill="url(#ian_symbols_72c9007af2d0d2747dcb72816ca8a9a6)" d="M403.477,141.903c-1.316-8.652-4.623-21.722-5.674-28.125c-0.476-2.981,1.431-8.682,6.278-9.118
			c1.65-0.152,6.942,5.99,7.765,6.721c5.621,5.103,9.17,10.805,10.079,18.722c0.687,6.035-0.659,6.839-5.613,10.673
			c-3.598,2.819-7.425,5.555-11.342,7.834l-1.49-6.687L403.477,141.903z"/>
			<radialGradient id="ian_symbols_b09ce927937fcfd469673731112bf8de" cx="1200.0732" cy="2285.4795" r="313.8549" gradientTransform="matrix(0.1992 0 0 -0.1992 -136.1606 574.4916)" gradientUnits="userSpaceOnUse">
			<stop  offset="0" style="stop-color:#BA9A81"/>
			<stop  offset="0.8708" style="stop-color:#A58B77"/>
		</radialGradient>
		<path fill="url(#ian_symbols_b09ce927937fcfd469673731112bf8de)" d="M150.938,165.567c11.476,2.583,14.251-24.394,15.509-32.454c1.154-7.211,2.022-15.109-0.99-21.908
			c-4.363-9.918-14.675-12.128-22.771-18.477c-12.443-9.736-25.875-21.864-40.121-29.125c-9.876-5.015-28.431-7.687-37.915,0.554
			c-9.332,8.113-14.001,25.296-18.298,35.66c-4.662,11.222-11.035,24.174-6.55,37.949c4.153,12.825,18.448,18.222,28.051,25.728
			c8.479,6.638,15.761,13.408,26.335,15.491c9.631,1.888,15.521-1.059,22.546-4.863c7.413-4.025,15.688-3.329,25.242-3.329
			l8.962-5.221V165.567z"/>
			<radialGradient id="ian_symbols_0bc7f72b7744af24cde6df263cb39afe" cx="1194.4734" cy="2271.9548" r="183.5472" gradientTransform="matrix(0.1992 0 0 -0.1992 -136.1606 574.4916)" gradientUnits="userSpaceOnUse">
			<stop  offset="0" style="stop-color:#D3C2C6"/>
			<stop  offset="0.4607" style="stop-color:#CBB3B0"/>
			<stop  offset="1" style="stop-color:#BA9A81"/>
		</radialGradient>
		<path fill="url(#ian_symbols_0bc7f72b7744af24cde6df263cb39afe)" d="M71.742,94.595c7.922-1.172,16.739-5.108,25.272-2.824c4.927,1.324,8.158,5.892,12.266,8.613
			c9.957,6.594,22.695,4.579,30.265,15.119c9.285,12.888-0.233,22.87-12.369,28.586c-5.971,2.833-12.121,5.285-18.455,7.103
			c-8.998,2.579-12.827,2.49-19.418-4.132c-9.942-10.03-39.712-27.478-25.024-43.508l7.469-8.947L71.742,94.595z"/>
			<radialGradient id="ian_symbols_5e7ab349d78725345d9f15cabc9d8013" cx="1188.3485" cy="2268.0168" r="89.1377" gradientTransform="matrix(0.1992 0 0 -0.1992 -136.1606 574.4916)" gradientUnits="userSpaceOnUse">
			<stop  offset="0" style="stop-color:#B8C3D2"/>
			<stop  offset="1" style="stop-color:#B5B9C3"/>
		</radialGradient>
		<path fill="url(#ian_symbols_5e7ab349d78725345d9f15cabc9d8013)" d="M81.462,112.533c6.415,0,13.06-1.642,15.802,5.089c7.505,0.466,19.778-2.093,24.74,5.167
			c7.704,11.27-18.102,10.57-18.428,9.986c-4.101-1.692-30.752-4.53-25.12-14.276l3.005-5.981V112.533z"/>
			<radialGradient id="ian_symbols_26f08d8bf0fd1984dd9361f6c38d367c" cx="893.6312" cy="1934.5753" r="260.6221" gradientTransform="matrix(0.1992 0 0 -0.1992 -136.1606 574.4916)" gradientUnits="userSpaceOnUse">
			<stop  offset="0" style="stop-color:#BA9A81"/>
			<stop  offset="1" style="stop-color:#837566"/>
		</radialGradient>
		<path fill="url(#ian_symbols_26f08d8bf0fd1984dd9361f6c38d367c)" d="M83.701,177.514c-8.177-13.418-14.937-26.213-26.728-38.136
			c-6.204-6.26-10.454-12.02-19.962-10.256c-6.028,1.133-13.303,4.559-17.864,7.878c-9.428,6.858-19.813,19.33-19.114,32.13
			c0.679,12.56,5.385,23.678,9.687,35.258c4.412,11.854,6.062,19.967,16.413,29.135c7.267,6.412,25.1,17.629,35.733,15.707
			c13.398-2.441,17.499-12.266,18.136-26.193c0.26-5.966,0.978-13.535-0.007-19.413c-1.086-6.466-4.878-11.128-1.398-18.55
			c0.733-0.171,1.393,0.044,2.111-0.083l2.992-7.481V177.514z"/>
			<radialGradient id="ian_symbols_3b6efffc3122f404cdd2a3d9e07a62a6" cx="876.4955" cy="1952.8608" r="140.2692" gradientTransform="matrix(0.1992 0 0 -0.1992 -136.1606 574.4916)" gradientUnits="userSpaceOnUse">
			<stop  offset="0" style="stop-color:#D3C2C6"/>
			<stop  offset="0.4607" style="stop-color:#CBB3B0"/>
			<stop  offset="1" style="stop-color:#BA9A81"/>
		</radialGradient>
		<path fill="url(#ian_symbols_3b6efffc3122f404cdd2a3d9e07a62a6)" d="M31.398,152.855c-12.82,3.539-16.165,16.501-14.883,29.095c1.105,11.084-1.819,25.041,8.897,32.35
			c3.115,2.118,11.945,4.78,15.881,3.593c4.875-1.49,9.285-10.957,11.825-14.167c3.978-5.01,8.954-9.673,7.093-17.08
			c-1.779-7-6.657-12.942-8.633-19.605c-1.561-5.295,0.297-6.79-4.853-10.868c-3.836-3.025-7.336-3.648-12.334-3.319H31.398z"/>
			<radialGradient id="ian_symbols_b8d5899aac39c5b419448c9ac978de56" cx="3023.5317" cy="1543.9063" r="231.7232" gradientTransform="matrix(0.1992 0 0 -0.1992 -136.1606 574.4916)" gradientUnits="userSpaceOnUse">
			<stop  offset="0" style="stop-color:#907D6D"/>
			<stop  offset="1" style="stop-color:#837566"/>
		</radialGradient>
		<path fill="url(#ian_symbols_b8d5899aac39c5b419448c9ac978de56)" d="M433.308,320.207c6.454,0.887,9.101,4.206,15.643,1.5c6.876-2.868,8.986-8.187,12.91-14.629
			c8.395-13.79,25.289-3.535,33.48-15.271c4.17-5.966,6.366-33.365,3.042-40.567c-1.189-2.564-6.564-5.123-8.714-7.77
			c-2.758-3.388-2.846-6.182-4.074-9.937c-2.667-8.045-7.589-12.364-14.748-17.178c-7.643-5.103-24.387-8.182-31.162-0.912
			c-6.427,6.942-8.197,19.134-7.152,30.238c0.966,10.055,4.976,20.722,6.015,31.35c0.542,5.559-0.057,11.418-0.015,17.016
			c0.04,6.618-2.62,10.839-2.985,16.438l-2.25,9.721H433.308z"/>
			<radialGradient id="ian_symbols_9f6442940d6e53d4c58fbb4a0033d8d8" cx="3071.1741" cy="1537.4951" r="101.7518" gradientTransform="matrix(0.1992 0 0 -0.1992 -136.1606 574.4916)" gradientUnits="userSpaceOnUse">
			<stop  offset="0" style="stop-color:#D3C2C6"/>
			<stop  offset="0.4607" style="stop-color:#CBB3B0"/>
			<stop  offset="1" style="stop-color:#BA9A81"/>
		</radialGradient>
		<path fill="url(#ian_symbols_9f6442940d6e53d4c58fbb4a0033d8d8)" d="M463.188,285.826c0.745-10.452,0.292-26.6,0.745-34.346c0.225-3.603,3.944-9.775,9.734-9.025
			c1.968,0.26,6.542,8.829,7.305,9.913c5.211,7.422,7.878,15.011,6.861,24.502c-0.76,7.216-2.547,7.809-9.32,11.01
			c-4.954,2.348-10.153,4.564-15.325,6.172v-8.221V285.826z"/>
			<radialGradient id="ian_symbols_ae986e77409f26b47d9a4ec5191248c7" cx="2501.3381" cy="2580.4465" r="270.1967" gradientTransform="matrix(0.1992 0 0 -0.1992 -136.1606 574.4916)" gradientUnits="userSpaceOnUse">
			<stop  offset="0" style="stop-color:#BA9A81"/>
			<stop  offset="1" style="stop-color:#988371"/>
		</radialGradient>
		<path fill="url(#ian_symbols_ae986e77409f26b47d9a4ec5191248c7)" d="M309.948,28.497c9.27-7.486,18.413-12.869,29.843-7.564c5.689,2.638,9.998,8.3,15.374,10.192
			c5.064,1.775,10.555,2.515,16.479,4.226c13.467,3.922,24.488,6.138,35.993,16.805c5.927,5.495,13.866,16.58,15.205,24.718
			c0.99,5.942,5.03,15.398,1.628,19.821c-4.866,6.363-14.469,0.353-22.235,0.029c-2.552-0.108-6.013-0.657-8.319,0.235
			c-2.643,1.01-4.143,3.829-6.66,4.731c-4.562,1.608-12.8-1.564-17.489-3.201c-10.937-3.829-23.73-6.942-33.116-14.197
			c-6.204-4.795-10.033-7.113-11.927-14.359c-1.839-6.986-22.656-4.687-25.887-10.437c-3.169-5.672,12.209-18.81,9.408-24.286
			l1.699-6.711H309.948z"/>
			<radialGradient id="ian_symbols_ff535e9d3d24caa4f1819fc6a0fde721" cx="-2799.5442" cy="3704.4626" r="119.3945" gradientTransform="matrix(0.0417 0.1609 0.2289 0.0271 -357.2733 405.253)" gradientUnits="userSpaceOnUse">
			<stop  offset="0" style="stop-color:#D3C2C6"/>
			<stop  offset="0.4607" style="stop-color:#CBB3B0"/>
			<stop  offset="1" style="stop-color:#BA9A81"/>
		</radialGradient>
		<path fill="url(#ian_symbols_ff535e9d3d24caa4f1819fc6a0fde721)" d="M348.176,47.65c1.792-9.275,9.871-12.594,22.154-4.299c5.383,3.618,9.952,8.373,15.131,10.275
			c4.689,1.701,8.836,1.922,12.575,7.584c2.897,4.348,2.24,7.785-0.86,9.849c-3.353,2.231-7.52,1.049-13.175-0.176
			c-10.141-2.211-23.708-2.903-31.29-13.197c-0.924-1.26-1.453-2.706-2.314-3.961L348.176,47.65z"/>
			<radialGradient id="ian_symbols_08e2dfa7c049c4842df70069b28910e0" cx="2633.7141" cy="1866.4512" r="298.0599" gradientTransform="matrix(0.1992 0 0 -0.1992 -136.1606 574.4916)" gradientUnits="userSpaceOnUse">
			<stop  offset="0" style="stop-color:#BA9A81"/>
			<stop  offset="1" style="stop-color:#837566"/>
		</radialGradient>
		<path fill="url(#ian_symbols_08e2dfa7c049c4842df70069b28910e0)" d="M325.736,238.033c-10.832-8.658-5.591-30.095-0.561-40.88c5.41-11.619-6.4-28.287,4.295-34.571
			c10.758-6.324,49.244,0.294,60.505-3.726c9.685-3.461,29.47-6.368,39.42-0.583c7.033,4.083,15.124,15.094,19.065,22.188
			c4.29,7.746,10.493,25.389,8.832,34.282c-1.554,8.305-17.337,22.727-25.826,26.85c-12.553,6.113-29.152,8.408-42.998,8.393
			c-11.011-0.02-22.012,0-33.022,0c-5.103,0-11.268,0.956-16.261,0c-6.523-1.255-9.645-5.937-14.192-9.717l0.75-2.24
			L325.736,238.033z"/>
			<radialGradient id="ian_symbols_449803a2b4313214f50577f910488632" cx="-379.7722" cy="2795.9329" r="323.9641" gradientTransform="matrix(0.048 0.1852 0.2188 -0.0521 -200.9882 508.1033)" gradientUnits="userSpaceOnUse">
			<stop  offset="0" style="stop-color:#907D6D"/>
			<stop  offset="1" style="stop-color:#837566"/>
		</radialGradient>
		<path fill="url(#ian_symbols_449803a2b4313214f50577f910488632)" d="M336.686,259.971c3.223-13.001,18.107-19.33,30.046-19.33c6.552,0,15.163,1.456,21.509,0.064
			c6.522-1.417,9.721-6.378,16.393-7.226c14.109-1.755,32.694-2.122,43.555,7.02c8.552,7.187,12.665,18.148,10.268,29.448
			c-1.417,6.667-5.253,8.898-10.459,13.628c-6.692,6.05-5.648,9.957-5.245,17.894c0.414,7.702,1.066,13.148-4.133,18.055
			c-4.446,4.157-9.408,8.089-13.378,12.187c-7.692,7.981-23.627,14.354-35.321,17.722c-5.878,1.677-13.921,3.122-20.377,2.128
			c-8.491-1.319-12.347-6.486-18.264-12.53c-9.395-9.618-22.46-21.57-25.046-34.008c-2.341-11.29,5.675-24.723,8.967-35.057
			l1.48-9.976L336.686,259.971z"/>
			<radialGradient id="ian_symbols_4f189d3d1c547204bdea95d13cc701ff" cx="2642.8733" cy="1837.1854" r="154.1452" gradientTransform="matrix(0.1992 0 0 -0.1992 -136.1606 574.4916)" gradientUnits="userSpaceOnUse">
			<stop  offset="0" style="stop-color:#D3C2C6"/>
			<stop  offset="0.4607" style="stop-color:#CBB3B0"/>
			<stop  offset="1" style="stop-color:#BA9A81"/>
		</radialGradient>
		<path fill="url(#ian_symbols_4f189d3d1c547204bdea95d13cc701ff)" d="M363.847,190.956c3.564-19.129,52.901,3.079,59.554,13.643
			c9.317,14.81-11.356,21.369-22.031,25.394c-13.479,5.108-28.115,5.716-38.643-4.29c-8.464-8.045-10.893-17.482-3.388-26.527
			l4.51-8.221H363.847z"/>
			<radialGradient id="ian_symbols_2c3a243fad261774797becb80974ecff" cx="2636.8066" cy="1421.1261" r="176.0246" gradientTransform="matrix(0.1992 0 0 -0.1992 -136.1606 574.4916)" gradientUnits="userSpaceOnUse">
			<stop  offset="0" style="stop-color:#CBB3B0"/>
			<stop  offset="1" style="stop-color:#BA9A81"/>
		</radialGradient>
		<path fill="url(#ian_symbols_2c3a243fad261774797becb80974ecff)" d="M366.556,266.388c3.353-18.928,56.267-15.551,55.281,8.05c-0.265,6.471-4.263,9.829-5.974,15.815
			c-2.137,7.466-0.84,14.756-4.152,21.732c-5.165,10.942-18.923,18.055-32.429,16.408c-11.479-1.388-13.9-14.148-17.994-23.683
			c-3.226-7.555-8.077-21.242-2.192-29.36l7.449-8.962H366.556z"/>
			<radialGradient id="ian_symbols_8f93d51d588df484d975b209228cce66" cx="2650.9751" cy="1838.8922" r="70.2557" gradientTransform="matrix(0.1992 0 0 -0.1992 -136.1606 574.4916)" gradientUnits="userSpaceOnUse">
			<stop  offset="0" style="stop-color:#B8C3D2"/>
			<stop  offset="1" style="stop-color:#B5B9C3"/>
		</radialGradient>
		<path fill="url(#ian_symbols_8f93d51d588df484d975b209228cce66)" d="M374.286,203.663c9.81-5.427,23.695-2.162,34.251,1.633c1.735,2.995,2.145,6.814,1.343,10.25
			c-7.8,0.27-11.837-1.397-18.42-3.289c-4.535-1.29-16.188,3.059-17.906-1.127l0.73-7.462L374.286,203.663z"/>
			<radialGradient id="ian_symbols_9ce28a389bb34c8491256459e84a387a" cx="-1048.3358" cy="1991.2457" r="55.7872" gradientTransform="matrix(0.0613 0.2363 0.1021 -0.0412 -107.5384 518.8445)" gradientUnits="userSpaceOnUse">
			<stop  offset="0" style="stop-color:#B8C3D2"/>
			<stop  offset="1" style="stop-color:#B5B9C3"/>
		</radialGradient>
		<path fill="url(#ian_symbols_9ce28a389bb34c8491256459e84a387a)" d="M29.281,173.033c5.341,0,9.055-0.088,10.8,6.486c0.853,3.191,0.5,6.76-0.206,9.505
			c-0.372,1.451-1.735,2.382-2.138,3.947c-0.483,1.799,0.407,4.177,0.02,6.03c-0.603,2.844-2.299,5.854-5.403,6.197
			c-4.37,0.466-3.645-3.093-5.172-6.78c-1.593-3.843-4.302-5.348-4.498-10.108c-0.165-3.947,1.708-5.991,3.304-8.829l3.292-6.442
			V173.033z"/>
			<radialGradient id="ian_symbols_805c14ddca7eb934d57083e416026f50" cx="64.3589" cy="3466.3618" r="82.0263" gradientTransform="matrix(0.0613 0.2363 0.1021 -0.0412 28.3016 421.4694)" gradientUnits="userSpaceOnUse">
			<stop  offset="0" style="stop-color:#B8C3D2"/>
			<stop  offset="1" style="stop-color:#B5B9C3"/>
		</radialGradient>
		<path fill="url(#ian_symbols_805c14ddca7eb934d57083e416026f50)" d="M382.876,270.221c7.881,0,13.33-0.118,15.903,9.535c1.228,4.711,0.718,9.937-0.306,13.996
			c-0.557,2.093-2.559,3.495-3.157,5.795c-0.691,2.642,0.617,6.137,0.027,8.844c-0.902,4.187-3.38,8.613-7.934,9.113
			c-6.42,0.696-5.356-4.535-7.589-9.957c-2.353-5.667-6.332-7.853-6.638-14.864c-0.23-5.79,2.513-8.8,4.865-12.967l4.841-9.501
			L382.876,270.221z"/>
			<radialGradient id="ian_symbols_30b3894f8219c204d515e3bbed0fb103" cx="2173.9189" cy="1462.7783" r="264.2538" gradientTransform="matrix(0.1992 0 0 -0.1992 -136.1606 574.4916)" gradientUnits="userSpaceOnUse">
			<stop  offset="0" style="stop-color:#9D8673"/>
			<stop  offset="1" style="stop-color:#837566"/>
		</radialGradient>
		<path fill="url(#ian_symbols_30b3894f8219c204d515e3bbed0fb103)" d="M266.726,244.754c7.827,0,13.521,1.02,19.399-3.363c6.123-4.584,7.444-7.79,15.121-8.594
			c7.005-0.74,13.778-0.907,19.97-1.495c6.278-0.588,11.187,1.064,15.163,5.79c7.182,8.531,8.871,21.301,10.29,31.542
			c2.015,14.492-17.614,19.291-11.221,35.866c3.165,8.221,23.887,16.075,10.106,25.615c-7.255,5.045-13.337,0.633-19.453-2.074
			c-2.878-1.284-6.501-3.064-10.111-1.867c-5.018,1.672-2.336,2.794-5.579,5.422c-7.086,5.702-11.935,3.236-18.864,0.196
			c-7.606-3.388-11.646-0.216-20.34,0.367c-17.295,1.128-26.88-6.637-27.647-23.884c-0.427-9.819,4.277-19.698,5.824-29.159
			c1.643-10.241,3.184-19.438,9.121-28.399l8.212-5.956L266.726,244.754z"/>
			<radialGradient id="ian_symbols_43cb494d8f888cc4558f691a36516528" cx="2178.9797" cy="1457.0729" r="183.136" gradientTransform="matrix(0.1992 0 0 -0.1992 -136.1606 574.4916)" gradientUnits="userSpaceOnUse">
			<stop  offset="0.0056" style="stop-color:#CBB3B0"/>
			<stop  offset="1" style="stop-color:#BA9A81"/>
		</radialGradient>
		<path fill="url(#ian_symbols_43cb494d8f888cc4558f691a36516528)" d="M287.618,256.707c-10.251,0.215-21.47,19.109-22.392,26.923
			c-1.169,9.78-3.287,30.434,5.238,36.381c15.611,10.888,21.666-8.741,31.373-15.511c9.4-6.525,20.896-14.992,26.7-27.208
			c5.62-11.775,3.949-21.541-7.106-28.438c-10.282-6.412-19.703-3.627-29.328,3.363l-4.481,4.491H287.618z"/>
			<radialGradient id="ian_symbols_0aa839fd4e97b8445557ce42ecfac071" cx="2193.7478" cy="1474.9042" r="86.7739" gradientTransform="matrix(0.1992 0 0 -0.1992 -136.1606 574.4916)" gradientUnits="userSpaceOnUse">
			<stop  offset="0" style="stop-color:#B8C3D2"/>
			<stop  offset="1" style="stop-color:#B5B9C3"/>
		</radialGradient>
		<path fill="url(#ian_symbols_0aa839fd4e97b8445557ce42ecfac071)" d="M286.897,295.543c0.821-7.378,4.603-17.977,8.015-24.688c2.302-4.481,12.741-14.751,18.72-8.025
			c6.878,7.746-19.404,34.665-25.255,37.944L286.897,295.543L286.897,295.543z"/>
			<radialGradient id="ian_symbols_9eb68fc2535072f4313f8b9884153bd9" cx="1283.1805" cy="1759.7097" r="311.9659" gradientTransform="matrix(0.1992 0 0 -0.1992 -136.1606 574.4916)" gradientUnits="userSpaceOnUse">
			<stop  offset="0" style="stop-color:#BA9A81"/>
			<stop  offset="1" style="stop-color:#837566"/>
		</radialGradient>
		<path fill="url(#ian_symbols_9eb68fc2535072f4313f8b9884153bd9)" d="M94.161,167.057c8.16,0,16.521,0.598,24.639,0c10.798-0.794,7.459-5.035,15.156-10.815
			c10.616-7.962,22.345,0.108,25.779,10.976c2.998,9.545,6.096,19.222,8.553,28.968c3.169,12.628,2.064,27.022,2.816,40.341
			c0.372,6.79,0.664,14.599-1.826,20.002c-2.213,4.814-7.033,9.81-9.802,14.521c-2.79,4.785-3.684,10.967-8.165,15.359
			c-4.444,4.309-12.32,5.377-18.129,7.064c-18.053,5.226-26.613-4.848-38.653-18.139c-4.78-5.285-9.53-11.908-10.915-18.438
			c-0.638-3.103,0.848-6.765,0.081-9.873c-1.059-4.285-3.591-6.638-6.344-10.305c-7.888-10.481-12.871-23.968-7.665-37.895
			c2.662-7.099,8.153-33.626,17.749-31.022l6.721-0.76L94.161,167.057z"/>
			<radialGradient id="ian_symbols_6b49ed7e59361f64a92f796207b0bf32" cx="1257.848" cy="1759.4702" r="206.2827" gradientTransform="matrix(0.1992 0 0 -0.1992 -136.1606 574.4916)" gradientUnits="userSpaceOnUse">
			<stop  offset="0" style="stop-color:#D3C2C6"/>
			<stop  offset="0.4607" style="stop-color:#CBB3B0"/>
			<stop  offset="1" style="stop-color:#BA9A81"/>
		</radialGradient>
		<path fill="url(#ian_symbols_6b49ed7e59361f64a92f796207b0bf32)" d="M88.923,220.846c1.9-9.545-8.214-17.246-5.858-26.791c11.918,0.083,16.418-5.598,25.12-12.344
			c7.25-5.642,21.762-8.898,31.412-4.059c2.635,12.521,1.208,25.12,4.8,37.033c4.182,13.928-0.61,25.605-0.936,39.787
			c-0.326,14.815-20.254,23.841-31.963,14.335c-5.361-4.338-10.459-12.428-12.435-18.634c-0.948-2.946-0.208-6.702-1.093-9.932
			c-0.914-3.255-4.417-6.51-6.052-9.687l-2.993-9.702V220.846z"/>
			<radialGradient id="ian_symbols_8462e721e50c9a44b50167cc94aeb37e" cx="1258.4592" cy="1760.2588" r="117.7367" gradientTransform="matrix(0.1992 0 0 -0.1992 -136.1606 574.4916)" gradientUnits="userSpaceOnUse">
			<stop  offset="0" style="stop-color:#B8C3D2"/>
			<stop  offset="1" style="stop-color:#B5B9C3"/>
		</radialGradient>
		<path fill="url(#ian_symbols_8462e721e50c9a44b50167cc94aeb37e)" d="M123.146,195.726c-4.927,0.628-23.355,6.27-25.929,17.227
			c-1.853,7.927,8.241,16.639,10.577,24.022c3.027,9.584,4.27,16.349,17.342,14.81c7.086-0.838,8-5.226,5.985-11.555
			c-1.833-5.755-2.505-10.163-1.853-16.8c0.76-7.515-0.652-12.496-1.807-19.066c0,0,0.601-9.241-4.319-8.643L123.146,195.726z"/>
			<radialGradient id="ian_symbols_af9d1975835bc6843da8a0ed88853770" cx="2212.5432" cy="2407.6616" r="220.9799" gradientTransform="matrix(0.1992 0 0 -0.1992 -136.1606 574.4916)" gradientUnits="userSpaceOnUse">
			<stop  offset="0" style="stop-color:#BA9A81"/>
			<stop  offset="1" style="stop-color:#927F6E"/>
		</radialGradient>
		<path fill="url(#ian_symbols_af9d1975835bc6843da8a0ed88853770)" d="M275.288,62.107c5.456-7.682,16.445-8.06,23.931-5.035c4.101,1.662,9.116,4.795,13.467,5.49
			c4.461,0.726,7.777-1.716,12.178-0.578c9.293,2.412,21.021,6.868,25.431,15.604c3.456,6.873,3.138,15.065-1.343,21.84
			c-2.652,4.015-5.64,4.515-10.168,6.28c-5.804,2.27-6.177,5.088-8,10.383c-1.787,5.128-2.804,8.863-7.366,10.761
			c-3.875,1.583-8.03,2.897-11.587,4.574c-6.937,3.275-18.59,3.417-26.823,2.648c-4.118-0.363-9.535-1.466-13.322-3.75
			c-4.961-3.02-6.015-7.354-8.125-12.81c-3.353-8.667-8.368-19.795-6.707-28.58c1.508-7.981,10.075-14.732,14.859-20.654
			l3.559-6.177L275.288,62.107z"/>
			<radialGradient id="ian_symbols_3b90a03b8a376bf4f5e1c89831788f44" cx="2197.4026" cy="2398.1199" r="119.4215" gradientTransform="matrix(0.1992 0 0 -0.1992 -136.1606 574.4916)" gradientUnits="userSpaceOnUse">
			<stop  offset="0" style="stop-color:#D3C2C6"/>
			<stop  offset="0.4607" style="stop-color:#CBB3B0"/>
			<stop  offset="1" style="stop-color:#BA9A81"/>
		</radialGradient>
		<path fill="url(#ian_symbols_3b90a03b8a376bf4f5e1c89831788f44)" d="M291.358,76.217c6.887-11.006,39.175,4.495,32.598,19.026c-1.804,3.981-5.157,5.079-7.738,8.398
			c-3.228,4.142-4.26,9.025-8.103,12.57c-6.001,5.544-16.418,6.52-24.468,2.073c-6.829-3.775-5.118-12.388-5.275-19.393
			c-0.113-5.545,0.306-15.35,6.042-18.943l6.939-3.73H291.358z"/>
			<radialGradient id="ian_symbols_ef16b854dfcff6a411e8169d07ec452e" cx="2194.0364" cy="2402.4307" r="60.435" gradientTransform="matrix(0.1992 0 0 -0.1992 -136.1606 574.4916)" gradientUnits="userSpaceOnUse">
			<stop  offset="0" style="stop-color:#B8C3D2"/>
			<stop  offset="1" style="stop-color:#B5B9C3"/>
		</radialGradient>
		<path fill="url(#ian_symbols_ef16b854dfcff6a411e8169d07ec452e)" d="M302.496,82.359c5.322,2.138,9.028,3.559,8.653,9.501c-0.182,2.888-1.694,5.579-3.27,7.481
			c-0.833,1.01-2.498,1.206-3.407,2.299c-1.037,1.25-0.924,3.495-1.9,4.795c-1.527,2.044-4.189,3.755-7.371,2.78
			c-4.481-1.368-2.627-3.927-2.959-7.461c-0.34-3.711-2.539-6-1.215-9.873c1.112-3.211,3.618-4.089,6.123-5.706l5.358-3.814H302.496
			z"/>
			<radialGradient id="ian_symbols_59dd74d067f41914ad23c22fd7af40f0" cx="-1389.9056" cy="3045.363" r="241.2764" gradientTransform="matrix(0.0527 0.2031 0.1631 -0.049 -153.5783 463.8565)" gradientUnits="userSpaceOnUse">
			<stop  offset="0" style="stop-color:#BA9A81"/>
			<stop  offset="1" style="stop-color:#927F6E"/>
		</radialGradient>
		<path fill="url(#ian_symbols_59dd74d067f41914ad23c22fd7af40f0)" d="M279.337,64.843c13.906-5.314,27.073-9.579,39.712-17.845c6.625-4.348,12.631-7.201,11.479-14.795
			c-0.74-4.814-3.699-10.78-6.726-14.624c-6.238-7.918-18.009-17.05-30.814-17.526c-12.572-0.475-23.956,2.314-35.765,4.74
			c-12.089,2.495-20.274,3.138-30.074,10.515c-6.848,5.148-19.161,18.193-17.91,26.689c1.586,10.672,11.131,14.672,24.955,16.295
			c5.932,0.691,13.452,1.853,19.364,1.545c6.522-0.319,11.39-2.927,18.578,0.407c0.122,0.593-0.138,1.069-0.054,1.657l7.238,2.941
			H279.337z"/>
			<radialGradient id="ian_symbols_dafa9c3c91ed75d4f1ecf20dfa7f1ff7" cx="2061.7607" cy="2749.6084" r="130.0958" gradientTransform="matrix(0.1992 0 0 -0.1992 -136.1606 574.4916)" gradientUnits="userSpaceOnUse">
			<stop  offset="0" style="stop-color:#D3C2C6"/>
			<stop  offset="0.4607" style="stop-color:#CBB3B0"/>
			<stop  offset="1" style="stop-color:#BA9A81"/>
		</radialGradient>
		<path fill="url(#ian_symbols_dafa9c3c91ed75d4f1ecf20dfa7f1ff7)" d="M307.327,24.516c-2.735-9.755-15.469-13.265-28.1-13.329c-11.104-0.069-24.848-3.363-32.775,3.966
			c-2.302,2.127-5.491,8.437-4.516,11.442c1.194,3.701,10.352,7.711,13.398,9.849c4.773,3.353,9.116,7.388,16.602,6.608
			c7.079-0.74,13.31-3.858,20.078-4.799c5.349-0.716,6.731,0.784,11.111-2.692c3.238-2.598,4.064-5.128,4.03-8.834l0.162-2.211
			H307.327z"/>
			<radialGradient id="ian_symbols_c9b6045046e7660451f2021472005fe9" cx="1485.6268" cy="2596.0339" r="279.7373" gradientTransform="matrix(0.1992 0 0 -0.1992 -136.1606 574.4916)" gradientUnits="userSpaceOnUse">
			<stop  offset="0" style="stop-color:#BA9A81"/>
			<stop  offset="1" style="stop-color:#A58B77"/>
		</radialGradient>
		<path fill="url(#ian_symbols_c9b6045046e7660451f2021472005fe9)" d="M92.17,64.972c3.054-13.594,7.425-25.149,20.92-28.385c6.704-1.603,14.246,0.588,20.163-1.5
			c5.606-1.961,10.881-5.202,17.158-7.829c14.354-5.995,25.433-11.8,42.562-10.084c8.812,0.868,23.127,5.51,29.743,12.124
			c4.814,4.848,4.665,11.216,4.665,17.746c0,9.393-2.35,10.241-9.341,15.482c-2.302,1.721-5.68,3.696-7.086,6.182
			c-1.615,2.819-1.037,6.505-2.625,9.143c-2.893,4.775-12.204,7.726-17.369,9.52c-12.068,4.255-25.284,10.501-38.288,10.481
			c-8.606-0.034-13.474,0.52-19.982-4.863c-6.258-5.202-11.81-8.153-18.455-11.212c-6.557-3.02-12.991-6.236-19.075-9.329
			l-2.973-7.476H92.17z"/>
			<radialGradient id="ian_symbols_3b1d2712e4ff6364a9669bf731d27b1b" cx="2430.3076" cy="2223.0215" r="211.0741" gradientTransform="matrix(0.1992 0 0 -0.1992 -136.1606 574.4916)" gradientUnits="userSpaceOnUse">
			<stop  offset="0" style="stop-color:#BA9A81"/>
			<stop  offset="1" style="stop-color:#927F6E"/>
		</radialGradient>
		<path fill="url(#ian_symbols_3b1d2712e4ff6364a9669bf731d27b1b)" d="M368.669,171.494c4.893-2.667,13.77-10.996,16.825-16.105c5.986-9.957,4.805-21.467,4.351-33.081
			c-0.196-4.858,1.23-14.089-0.883-18.648c-1.75-3.814-9.074-7.849-12.55-9.673c-9.395-4.927-23.24-5.858-31.745-0.461
			c-8.43,5.363-13.398,14.658-20.374,21.835c-5.106,5.241-16.84,11.687-18.523,19.948c-1.16,5.672,7.658,11.923,9.564,19.31
			c2.179,8.545,4.846,15.227,14.232,13.697c-0.883-1.51,18.85,6.108,31.826,5.045l7.27-1.858L368.669,171.494z"/>
			<radialGradient id="ian_symbols_703b822f1bc52cd43510d350794b22a0" cx="1878.3691" cy="2537.5107" r="174.3343" gradientTransform="matrix(0.1992 0 0 -0.1992 -136.1606 574.4916)" gradientUnits="userSpaceOnUse">
			<stop  offset="0" style="stop-color:#BA9A81"/>
			<stop  offset="1" style="stop-color:#A58B77"/>
		</radialGradient>
		<path fill="url(#ian_symbols_703b822f1bc52cd43510d350794b22a0)" d="M228.436,99.213c-8.288-3.882-19.492-6.378-24.928-13.658c-6.26-8.383,4.098-16.384,9.439-24.389
			c4.478-6.75,6.005-16.888,12.888-21.438c5.533-3.643,13.271-5.29,19.257-1.328c2.39,1.569,4.711,5.799,6.552,8.059
			c2.699,3.319,5.373,6.515,9.793,8.555c3.015,1.397,9.307,2.971,11.518,5.373c2.539,2.721,1.311,7.677,0.348,10.977
			c-1.316,4.593-3.882,8.241-6.197,12.148c-2.152,3.574-3.035,8.069-5.383,11.515c-3.794,5.51-19.487,8.697-25.507,5.834
			c-0.571-0.255-1.147-0.539-1.718-0.804l-6.059-0.848L228.436,99.213z"/>
			<radialGradient id="ian_symbols_de09ba1694130934bd93bfa3f85ddef5" cx="2434.8892" cy="2222.7153" r="121.8507" gradientTransform="matrix(0.1992 0 0 -0.1992 -136.1606 574.4916)" gradientUnits="userSpaceOnUse">
			<stop  offset="0" style="stop-color:#D3C2C6"/>
			<stop  offset="0.4607" style="stop-color:#CBB3B0"/>
			<stop  offset="1" style="stop-color:#BA9A81"/>
		</radialGradient>
		<path fill="url(#ian_symbols_de09ba1694130934bd93bfa3f85ddef5)" d="M354.167,154.683c-4.128,0.348-9.013,1.588-13.03,0.304c-1.427-6.755-6.327-5.378-11.433-7.957
			c-5.076-2.564-5.978-8.569-5.38-15.016c1.167-12.844,10.824-10.173,18.786-13.815c6.38-2.931,14.18-13.908,22.697-9.103
			c3.25,1.843,5.572,11.51,6.469,15.251c1.647,6.726,2.199,11.555-1.201,17.104c-3.089,5.035-7.8,8.829-11.126,14.06l-5.799-0.824
			L354.167,154.683z"/>
			<radialGradient id="ian_symbols_eea0f0239e68f21435b0403b840d08d9" cx="1906.5103" cy="2531.2017" r="83.1937" gradientTransform="matrix(0.1992 0 0 -0.1992 -136.1606 574.4916)" gradientUnits="userSpaceOnUse">
			<stop  offset="0" style="stop-color:#D3C2C6"/>
			<stop  offset="0.4607" style="stop-color:#CBB3B0"/>
			<stop  offset="1" style="stop-color:#BA9A81"/>
		</radialGradient>
		<path fill="url(#ian_symbols_eea0f0239e68f21435b0403b840d08d9)" d="M230.738,79.413c-0.213-2.495,1.078-6.447,0.591-9.217c-0.348-1.99-1.915-3.23-2.628-5.02
			c-1.262-3.309-1.86-7.569,1.547-10.457c5.655-4.814,16.08,2.172,21.72,4.819c4.439,2.074,7.935,2.775,7.528,8.349
			c-0.314,4.127-3.022,8.505-4.765,12.315c-2.343,5.064-5.158,5.952-10.508,6.78c-2.701,0.412-11.342,1.838-10.555-3.211
			l-2.939-4.358H230.738z"/>
			<radialGradient id="ian_symbols_086d55f86ab587b41507eeb594cf690c" cx="1533.0798" cy="2593.8677" r="134.5809" gradientTransform="matrix(0.1992 0 0 -0.1992 -136.1606 574.4916)" gradientUnits="userSpaceOnUse">
			<stop  offset="0" style="stop-color:#D3C2C6"/>
			<stop  offset="0.4607" style="stop-color:#CBB3B0"/>
			<stop  offset="1" style="stop-color:#C0A491"/>
		</radialGradient>
		<path fill="url(#ian_symbols_086d55f86ab587b41507eeb594cf690c)" d="M140.718,70.203c-4.635-14.545,0.184-27.556,16.42-29.135c7.079-0.682,14.246,1.03,20.021-1.833
			c5.221-2.569,8.959-6.618,16.006-2.839c5.429,2.927,7.145,8.339,5.829,14.384c-1.444,6.593-5.843,9.344-11.587,13.599
			c-10.29,7.613-22.568,20.909-36.054,14.786c-1.635-0.75-3.054-2.138-4.662-2.986l-5.961-5.976H140.718z"/>
			<radialGradient id="ian_symbols_cbb1d92f77e23d34cd65f53c669edbe7" cx="-1326.0129" cy="2738.6355" r="262.6252" gradientTransform="matrix(0.0497 0.1917 0.1585 -0.0467 -158.0448 496.8516)" gradientUnits="userSpaceOnUse">
			<stop  offset="0" style="stop-color:#BA9A81"/>
			<stop  offset="0.8708" style="stop-color:#A58B77"/>
		</radialGradient>
		<path fill="url(#ian_symbols_cbb1d92f77e23d34cd65f53c669edbe7)" d="M149.155,101.317c3.084-17.227,16.448-16.619,33.621-13.448
			c7.322,1.348,10.763-3.388,17.938-5.329c7.839-2.122,11.016-4.76,18.754-0.814c16.099,8.221,44.265,12.393,49.798,33.518
			c1.316,5.03,2.069,12.908,1.338,18.266c-0.973,7.05-4.745,9.589-11.337,12.222c-11.891,4.745-23.815,6.437-36.447,5.393
			c-15.396-1.27-38.268-1.975-51.251-10.957c-12.013-8.319-12.388-15.78-17.323-29.953l-5.101-8.902L149.155,101.317z"/>
			<radialGradient id="ian_symbols_25fd078bab90b1148d86656e24f1600d" cx="-2334.6987" cy="-1527.6556" r="50.7883" gradientTransform="matrix(-0.1992 0.0034 0.0034 0.1992 -106.2264 447.0812)" gradientUnits="userSpaceOnUse">
			<stop  offset="0" style="stop-color:#B8C3D2"/>
			<stop  offset="1" style="stop-color:#B5B9C3"/>
		</radialGradient>
		<path fill="url(#ian_symbols_25fd078bab90b1148d86656e24f1600d)" d="M356.778,143.535c-2.601-0.103-4.317,1.363-6.483,1.476c-2.204,0.128-4.363-0.937-6.473-1.314
			c-1.235-5.064,5.407-6.932,5.137-12.3c-0.142-2.828-1.405-2.897,1.635-4.632c1.468-0.853,4.826-2.103,6.442-2.113
			c4.853-0.054,8.125,6.28,6.054,10.486c-0.561,1.133-3.142,4.23-4.228,5.123l-2.091,3.26L356.778,143.535z"/>
			<radialGradient id="ian_symbols_6f80c38c25b289448de936fcac81cf0f" cx="1759.796" cy="2315.2283" r="124.6055" gradientTransform="matrix(0.1992 0 0 -0.1992 -136.1606 574.4916)" gradientUnits="userSpaceOnUse">
			<stop  offset="0" style="stop-color:#D3C2C6"/>
			<stop  offset="0.4607" style="stop-color:#CBB3B0"/>
			<stop  offset="1" style="stop-color:#BA9A81"/>
		</radialGradient>
		<path fill="url(#ian_symbols_6f80c38c25b289448de936fcac81cf0f)" d="M182.308,109.665c0.883-7.03,3.807-9.687,13.141-8.981c3.995,0.309,7.547,0.936,11.293-0.083
			c4.113-1.118,5.694-2.28,10.025-0.956c8.979,2.78,24.259,3.515,28.166,11.834c0.924,1.98,1.672,5.128,1.522,7.3
			c-0.196,2.872-2.117,4.01-5.532,5.295c-6.17,2.309-12.462,3.392-19.296,3.392c-8.302,0-15.938,0.745-23.313-2.427
			c-6.79-2.941-11.969-6.216-15.254-11.751l-0.75-3.608L182.308,109.665z"/>
			<radialGradient id="ian_symbols_8c88aa6210d96e04996fec5c0760e4ae" cx="2130.1443" cy="1950.0995" r="285.9566" gradientTransform="matrix(0.1992 0 0 -0.1992 -136.1606 574.4916)" gradientUnits="userSpaceOnUse">
			<stop  offset="0" style="stop-color:#BA9A81"/>
			<stop  offset="1" style="stop-color:#837566"/>
		</radialGradient>
		<path fill="url(#ian_symbols_8c88aa6210d96e04996fec5c0760e4ae)" d="M333.207,193.946c-0.843-3.971,5.802-5.03,3.733-8.211c-1.819-2.79-3.081-11.099-3.733-14.198
			c-1.405-6.628-10.398-12.104-11.871-18.698c-2.117-9.442-24.305-30.35-34.434-30.61c-6.285-0.152-13.146,5.554-17.938,8.971
			c-6.204,4.437-6.99,8.834-11.959,13.437c-4.785,4.452-12.726,7.069-16.107,12.883c-3.297,5.687-1.397,13.801-1.078,19.982
			c0.664,13.016,0.99,40.131,3.809,52.235c2.919,12.52,2.74,7.986,15.44,15.947c9.658,6.05,25.718,5.271,33.809-0.931
			c5.633-4.343,9.699-4.49,17.756-4.49c6.883,0,13.874,1.569,18.678-3.319c6.707-6.839,6.849-18.462,6.89-27.316l-3-15.688
			L333.207,193.946z"/>
			<radialGradient id="ian_symbols_9ad91e70b8c9012455e74b57159cca2d" cx="-939.869" cy="2503.4414" r="261.4722" gradientTransform="matrix(0.0534 0.2058 0.1572 -0.0469 -136.2286 498.9858)" gradientUnits="userSpaceOnUse">
			<stop  offset="0" style="stop-color:#BA9A81"/>
			<stop  offset="1" style="stop-color:#917E6D"/>
		</radialGradient>
		<path fill="url(#ian_symbols_9ad91e70b8c9012455e74b57159cca2d)" d="M156.156,191.956c0-16.295-4.141-36.209,2.995-50.46c8.192-16.408,27.529-5.76,43.303-3.192
			c13.283,2.148,29.601-3.049,41.273,4.618c9.373,6.168,17.288,17.379,15.55,30.008c-0.691,5.074-5.41,11.996-7.493,16.638
			c-3.081,6.854-6.013,13.599-5.978,22.247c0.027,5.922,2.064,17.232,0.034,22.615c-2.314,6.137-10.616,7.897-16.264,8.839
			c-7.846,1.333-15.116-0.03-22.622-0.833c-6.897-0.75-14.246,1.191-21.088,0c-10.964-1.951-26.806-24.841-26.716-36.675v-3.382
			l-2.98-10.452L156.156,191.956z"/>
			<radialGradient id="ian_symbols_48921eb7190d68141d8f68ed94730b37" cx="1718.4091" cy="1948.871" r="137.1415" gradientTransform="matrix(0.1992 0 0 -0.1992 -136.1606 574.4916)" gradientUnits="userSpaceOnUse">
			<stop  offset="0" style="stop-color:#D3C2C6"/>
			<stop  offset="0.4607" style="stop-color:#CBB3B0"/>
			<stop  offset="1" style="stop-color:#BA9A81"/>
		</radialGradient>
		<path fill="url(#ian_symbols_48921eb7190d68141d8f68ed94730b37)" d="M187.526,177.514c3.625-2.084,10.466-2.942,14.268-5.599c2.763-1.931,3.507-5.177,5.721-7.471
			c4.059-4.255,10.06-8.138,16.786-5.06c11.234,5.123,8.05,25.708,8.05,36.047c0,8.123,1.397,13.893-7.27,17.188
			c-6.427,2.427-14.917,1.456-21.855,1.5c-9.251,0.044-12.55-3.559-17.553-11.02c-2.537-3.775-10.785-15.771-2.64-18.114l4.49-7.476
			L187.526,177.514z"/>
			<radialGradient id="ian_symbols_53f6cd3fc16205a459b3d6edcc2ce1cd" cx="1737.3344" cy="1928.2018" r="80.7874" gradientTransform="matrix(0.1992 0 0 -0.1992 -136.1606 574.4916)" gradientUnits="userSpaceOnUse">
			<stop  offset="0" style="stop-color:#B8C3D2"/>
			<stop  offset="1" style="stop-color:#B5B9C3"/>
		</radialGradient>
		<path fill="url(#ian_symbols_53f6cd3fc16205a459b3d6edcc2ce1cd)" d="M197.998,188.716c1.919-7.55,5.741-17.614,15.371-14.785c5.927,1.73,9.775,10.623,10.778,15.526
			c2.186,10.359,1.243,15.457-9.515,17.354c-7.479,1.319-22.065,1.02-19.629-10.623l3-7.481L197.998,188.716z"/>
			<radialGradient id="ian_symbols_05ec48d029d5c8d4e1751d48bae528f3" cx="2133.1631" cy="1906.5084" r="176.1179" gradientTransform="matrix(0.1992 0 0 -0.1992 -136.1606 574.4916)" gradientUnits="userSpaceOnUse">
			<stop  offset="0" style="stop-color:#CBB3B0"/>
			<stop  offset="1" style="stop-color:#BA9A81"/>
		</radialGradient>
		<path fill="url(#ian_symbols_05ec48d029d5c8d4e1751d48bae528f3)" d="M265.967,167.057c5.233-2.245,7.236,1.907,9.008,0.814c4.459-2.735,1.263-6.947,3.101-10.354
			c3.468-6.461,11.43-6.138,14.621-0.01c2.763,5.305,0.061,13.246,2.211,18.693c1.768,4.441,5.282,7.525,8.248,11.192
			c6.434,7.962,11.653,16.502,12.106,26.679c0.522,11.393-4.9,7.594-12.731,11.197c-6.51,2.99-10.947,7.618-18.237,9.564
			c-5.92,1.574-13.175,4.05-17.232-2.407c-3.238-5.143,0.316-13.07,1.873-18.354c1.907-6.437,3.169-11.079,0.392-17.109
			c-3.27-7.084-9.19-10.109-6.339-18.703c0,0.01-2.24-8.947,2.981-11.197L265.967,167.057z"/>
			<radialGradient id="ian_symbols_ad03e1450986d49401de965db29aa988" cx="1717.2319" cy="1502.5686" r="311.2394" gradientTransform="matrix(0.1992 0 0 -0.1992 -136.1606 574.4916)" gradientUnits="userSpaceOnUse">
			<stop  offset="0" style="stop-color:#BA9A81"/>
			<stop  offset="1" style="stop-color:#837566"/>
		</radialGradient>
		<path fill="url(#ian_symbols_ad03e1450986d49401de965db29aa988)" d="M153.165,266.911c1.596-7.996-5.821-10.937-0.012-18.713c2.905-3.882,9.258-8.197,12.91-11.54
			c4.75-4.358,9.378-8.589,13.417-13.491c5.452-6.618,7.248-7.486,16.438-7.05c12.381,0.559,23.968,4.731,35.677,5.986
			c13.158,1.436,21.583,0.76,31.953,9.883c4.405,3.868,6.189,6.961,6.917,12.471c1.228,9.579-4.814,10.854-8.647,17.389
			c-1.934,3.299-1.135,5.75-1.819,9.525c-0.686,3.794-2.098,7.75-2.652,10.652c-1.243,6.397-3.287,12.408-4.488,17.918
			c-1.35,6.206-0.745,14.403-1.858,19.977c-1.588,7.853-4.032,9.652-12.469,11.388c-12.964,2.687-27.691,2.853-41.273,2.853
			c-7.155-0.03-15.305,0.97-21.489-1.51c-7.099-2.843-14.112-10.015-20.158-14.943c-6.51-5.295-15.033-11.947-14.381-20.756
			c0.508-6.966,6.398-13.276,5.971-20.335l5.971-9.702L153.165,266.911z"/>
			<radialGradient id="ian_symbols_579de398eeb5c434adb330d8010629a1" cx="1718.1903" cy="1433.6725" r="198.3829" gradientTransform="matrix(0.1992 0 0 -0.1992 -136.1606 574.4916)" gradientUnits="userSpaceOnUse">
			<stop  offset="0" style="stop-color:#CBB3B0"/>
			<stop  offset="1" style="stop-color:#BA9A81"/>
		</radialGradient>
		<path fill="url(#ian_symbols_579de398eeb5c434adb330d8010629a1)" d="M199.498,253.454c5.714-9.163,22.492,3.093,29.856,3.75c5.77,0.525,11.364-1.03,15.155,4.265
			c3.035,4.221,1.265,13.58,1.299,18.835c0.047,8.78-4.738,10.5-5.981,17.957c-1.044,6.314,2.336,15.163-1.819,20.002
			c-3.454,4.04-14.116,5.711-18.876,7.113c-6.515,1.917-13.533,2.917-20.551,2.049c-9.38-1.191-14.334-10.329-22.06-15.751
			c-8.015-5.618-11.131-8.854-10.533-20.002c6.401-1.888,9.062-10.849,12.388-16.188c3.731-5.986,11.565-6.858,12.9-16.056
			l8.212-5.966L199.498,253.454z"/>
			<radialGradient id="ian_symbols_c3de17efe4a3c4a41d169adb85f891f5" cx="1721.4021" cy="1429.6453" r="110.6839" gradientTransform="matrix(0.1992 0 0 -0.1992 -136.1606 574.4916)" gradientUnits="userSpaceOnUse">
			<stop  offset="0" style="stop-color:#B8C3D2"/>
			<stop  offset="1" style="stop-color:#B5B9C3"/>
		</radialGradient>
		<path fill="url(#ian_symbols_c3de17efe4a3c4a41d169adb85f891f5)" d="M200.226,270.642c5.667,0.314,9.469-2.809,14.2-2.985c4.804-0.196,9.454,2.201,14.062,3.103
			c2.505,11.089-12.052,14.893-11.652,26.605c0.203,6.182,2.939,6.348-3.733,10.045c-3.235,1.799-10.621,4.373-14.163,4.358
			c-10.501-0.068-17.43-13.976-12.734-23.065c1.247-2.427,6.983-9.104,9.38-11.001l4.641-7.069V270.642z"/>
			<radialGradient id="ian_symbols_19f35eeb9aeda78401c4bc7def4de49e" cx="-1128.8752" cy="1912.2108" r="55.8016" gradientTransform="matrix(0.0517 0.1994 0.2489 -0.1052 -250.1835 485.7477)" gradientUnits="userSpaceOnUse">
			<stop  offset="0" style="stop-color:#B8C3D2"/>
			<stop  offset="1" style="stop-color:#B5B9C3"/>
		</radialGradient>
		<path fill="url(#ian_symbols_19f35eeb9aeda78401c4bc7def4de49e)" d="M156.599,71.625c-3.436-4.123-5.878-6.917-1.949-12.472c1.915-2.691,4.875-4.706,7.44-5.922
			c1.343-0.652,2.951-0.196,4.398-0.892c1.684-0.799,2.931-2.99,4.603-3.882c2.593-1.343,5.986-1.985,8.219,0.186
			c3.17,3.044-0.027,4.77-1.872,8.295c-1.929,3.711-1.358,6.75-4.887,9.957c-2.912,2.648-5.682,2.52-8.885,3.118l-7.06,1.613
			H156.599z"/>
			<radialGradient id="ian_symbols_c51f5d7dd503773409610167a4676e3d" cx="-545.5986" cy="3147.0771" r="49.2262" gradientTransform="matrix(0.0609 0.2349 0.1039 -0.0414 -3.8027 454.9963)" gradientUnits="userSpaceOnUse">
			<stop  offset="0" style="stop-color:#B8C3D2"/>
			<stop  offset="1" style="stop-color:#B5B9C3"/>
		</radialGradient>
		<path fill="url(#ian_symbols_c51f5d7dd503773409610167a4676e3d)" d="M286.507,211.213c2.042-0.304,9.753-3.24,10.827-8.918c0.78-4.093-3.422-8.608-4.407-12.437
			c-1.27-4.976-1.785-8.471-7.248-7.668c-2.973,0.422-3.353,2.691-2.517,5.966c0.772,2.99,1.051,5.27,0.772,8.707
			c-0.319,3.897,0.279,6.481,0.76,9.883c0,0-0.26,4.79,1.812,4.471L286.507,211.213z"/>
			<radialGradient id="ian_symbols_c1f6e86ebd8703c421fa5f675912fb60" cx="-1415.8766" cy="2486.2278" r="43.2072" gradientTransform="matrix(0.05 0.1928 0.1928 -0.05 -189.1556 513.002)" gradientUnits="userSpaceOnUse">
			<stop  offset="0" style="stop-color:#B8C3D2"/>
			<stop  offset="1" style="stop-color:#B5B9C3"/>
		</radialGradient>
		<path fill="url(#ian_symbols_c1f6e86ebd8703c421fa5f675912fb60)" d="M210.506,110.847c3.653-0.525,9.231-0.025,12.896,0.799c2.439,0.544,8.689,4.285,6.204,8.005
			c-2.877,4.275-19.134-5.01-21.44-7.427l2.341-1.383V110.847z"/>
			<radialGradient id="ian_symbols_9ceb677698c71114996113de3eca0acf" cx="-1518.7262" cy="10232.8203" r="43.1671" gradientTransform="matrix(0.05 0.1928 0.0217 -0.0056 221.7797 406.9858)" gradientUnits="userSpaceOnUse">
			<stop  offset="0" style="stop-color:#B8C3D2"/>
			<stop  offset="1" style="stop-color:#B5B9C3"/>
		</radialGradient>
		<path fill="url(#ian_symbols_9ceb677698c71114996113de3eca0acf)" d="M362.947,50.793c1.922-0.073,5.003,1.064,7.086,2.304c1.393,0.799,5.219,5.182,4.302,8.501
			c-1.037,3.794-10.947-7.138-12.486-9.756L362.947,50.793L362.947,50.793z"/>
	</g>
</g>
</svg>
