<svg id="Layer_1" data-name="Layer 1" xmlns="http://www.w3.org/2000/svg" xmlns:xlink="http://www.w3.org/1999/xlink" viewBox="0 0 121.063 90.08"><defs><style>.cls-1{fill:url(#radial-gradient);}.cls-2{fill:#5e4838;}.cls-3{fill:url(#radial-gradient-2);}.cls-16,.cls-17,.cls-19,.cls-20,.cls-22,.cls-23,.cls-25,.cls-26,.cls-27,.cls-28,.cls-29,.cls-30,.cls-31,.cls-32,.cls-34,.cls-36,.cls-37,.cls-38,.cls-39,.cls-4,.cls-40,.cls-41,.cls-42,.cls-5,.cls-52,.cls-53,.cls-6,.cls-7,.cls-8,.cls-9{fill:none;stroke-linecap:round;stroke-linejoin:round;}.cls-4{stroke:url(#linear-gradient);}.cls-5{stroke:url(#linear-gradient-2);}.cls-6{stroke:url(#linear-gradient-3);}.cls-7{stroke:url(#linear-gradient-4);}.cls-8{stroke:url(#linear-gradient-5);}.cls-9{stroke:url(#linear-gradient-6);}.cls-10{fill:url(#linear-gradient-7);}.cls-11{fill:url(#linear-gradient-8);}.cls-12{fill:url(#linear-gradient-9);}.cls-13{fill:url(#linear-gradient-10);}.cls-14{fill:url(#linear-gradient-11);}.cls-15{fill:url(#linear-gradient-12);}.cls-16{stroke:url(#linear-gradient-13);}.cls-17{stroke:url(#linear-gradient-14);}.cls-18{fill:url(#linear-gradient-15);}.cls-19{stroke:url(#linear-gradient-16);}.cls-20{stroke:url(#linear-gradient-17);}.cls-21{fill:url(#linear-gradient-18);}.cls-22{stroke:url(#linear-gradient-19);}.cls-23{stroke:url(#linear-gradient-20);}.cls-24{fill:url(#linear-gradient-21);}.cls-25{stroke:url(#linear-gradient-22);}.cls-26{stroke:url(#linear-gradient-23);}.cls-27{stroke:url(#linear-gradient-24);}.cls-28{stroke:url(#linear-gradient-25);}.cls-29{stroke:url(#linear-gradient-26);}.cls-30{stroke:url(#linear-gradient-27);}.cls-31{stroke:url(#linear-gradient-28);}.cls-32{stroke:url(#linear-gradient-29);}.cls-33{fill:url(#linear-gradient-30);}.cls-34{stroke:url(#linear-gradient-31);}.cls-35{fill:url(#linear-gradient-32);}.cls-36{stroke:url(#linear-gradient-33);}.cls-37{stroke:url(#linear-gradient-34);}.cls-38{stroke:url(#linear-gradient-35);}.cls-39{stroke:url(#linear-gradient-36);}.cls-40{stroke:url(#linear-gradient-37);}.cls-41{stroke:url(#linear-gradient-38);}.cls-42{stroke:url(#linear-gradient-39);}.cls-43{fill:url(#linear-gradient-40);}.cls-44{fill:url(#linear-gradient-41);}.cls-45{fill:url(#linear-gradient-42);}.cls-46{fill:url(#linear-gradient-43);}.cls-47{fill:url(#linear-gradient-44);}.cls-48{fill:url(#linear-gradient-45);}.cls-49{fill:url(#linear-gradient-46);}.cls-50{fill:url(#linear-gradient-47);}.cls-51{fill:url(#linear-gradient-48);}.cls-52{stroke:url(#linear-gradient-49);}.cls-53{stroke:url(#linear-gradient-50);}.cls-54{fill:url(#linear-gradient-51);}</style><radialGradient id="radial-gradient" cx="69.336" cy="136.33" r="16.981" gradientTransform="translate(5.648 68.319) rotate(4.966) scale(1 0.457)" gradientUnits="userSpaceOnUse"><stop offset="0" stop-color="#d4a18c"/><stop offset="0.402" stop-color="#b58a72"/><stop offset="0.761" stop-color="#a07b61"/><stop offset="1" stop-color="#99755b"/></radialGradient><radialGradient id="radial-gradient-2" cx="75.264" cy="78.712" r="52.523" gradientUnits="userSpaceOnUse"><stop offset="0.194" stop-color="#f7dbcf"/><stop offset="1" stop-color="#d4a18c"/></radialGradient><linearGradient id="linear-gradient" x1="71.2" y1="69.072" x2="77.135" y2="63.137" gradientUnits="userSpaceOnUse"><stop offset="0" stop-color="#d4a18c"/><stop offset="1" stop-color="#a86a52"/></linearGradient><linearGradient id="linear-gradient-2" x1="129.82" y1="110.467" x2="129.82" y2="113.869" xlink:href="#linear-gradient"/><linearGradient id="linear-gradient-3" x1="50.927" y1="121.754" x2="65.148" y2="121.754" xlink:href="#linear-gradient"/><linearGradient id="linear-gradient-4" x1="63.96" y1="123.404" x2="69.369" y2="123.404" xlink:href="#linear-gradient"/><linearGradient id="linear-gradient-5" x1="72.777" y1="126.45" x2="78.021" y2="126.45" xlink:href="#linear-gradient"/><linearGradient id="linear-gradient-6" x1="98.607" y1="126.033" x2="100.037" y2="126.033" xlink:href="#linear-gradient"/><linearGradient id="linear-gradient-7" x1="61.361" y1="117.007" x2="81.11" y2="117.007" xlink:href="#linear-gradient"/><linearGradient id="linear-gradient-8" x1="77.84" y1="131.995" x2="113.535" y2="131.995" xlink:href="#linear-gradient"/><linearGradient id="linear-gradient-9" x1="111.964" y1="128.39" x2="123.86" y2="128.39" xlink:href="#linear-gradient"/><linearGradient id="linear-gradient-10" x1="40.277" y1="124.007" x2="58.007" y2="124.007" xlink:href="#linear-gradient"/><linearGradient id="linear-gradient-11" x1="39.196" y1="116.906" x2="50.373" y2="116.906" xlink:href="#linear-gradient"/><linearGradient id="linear-gradient-12" x1="37.743" y1="107.316" x2="49.82" y2="107.316" xlink:href="#linear-gradient"/><linearGradient id="linear-gradient-13" x1="95.336" y1="89.705" x2="105.887" y2="89.705" xlink:href="#linear-gradient"/><linearGradient id="linear-gradient-14" x1="77.021" y1="69.071" x2="84.752" y2="69.071" xlink:href="#linear-gradient"/><linearGradient id="linear-gradient-15" x1="53.754" y1="72.351" x2="70.708" y2="72.351" xlink:href="#linear-gradient"/><linearGradient id="linear-gradient-16" x1="59.257" y1="118.978" x2="59.257" y2="102.376" xlink:href="#linear-gradient"/><linearGradient id="linear-gradient-17" x1="63.819" y1="112.699" x2="66.324" y2="110.194" xlink:href="#linear-gradient"/><linearGradient id="linear-gradient-18" x1="50.166" y1="93.961" x2="67.22" y2="93.961" xlink:href="#linear-gradient"/><linearGradient id="linear-gradient-19" x1="101.018" y1="75.217" x2="115.004" y2="75.217" xlink:href="#linear-gradient"/><linearGradient id="linear-gradient-20" x1="105.52" y1="58.888" x2="105.52" y2="64.636" xlink:href="#linear-gradient"/><linearGradient id="linear-gradient-21" x1="128.82" y1="91.903" x2="159.559" y2="91.903" xlink:href="#linear-gradient"/><linearGradient id="linear-gradient-22" x1="146.851" y1="99.218" x2="154.527" y2="99.218" xlink:href="#linear-gradient"/><linearGradient id="linear-gradient-23" x1="141.153" y1="105.346" x2="149.802" y2="105.346" xlink:href="#linear-gradient"/><linearGradient id="linear-gradient-24" x1="113.952" y1="88.063" x2="113.952" y2="97.587" xlink:href="#linear-gradient"/><linearGradient id="linear-gradient-25" x1="118.743" y1="68.06" x2="118.743" y2="84.779" xlink:href="#linear-gradient"/><linearGradient id="linear-gradient-26" x1="61.861" y1="77.444" x2="65.148" y2="77.444" xlink:href="#linear-gradient"/><linearGradient id="linear-gradient-27" x1="49.281" y1="84.117" x2="55.254" y2="84.117" xlink:href="#linear-gradient"/><linearGradient id="linear-gradient-28" x1="125.691" y1="107.512" x2="125.691" y2="114.421" xlink:href="#linear-gradient"/><linearGradient id="linear-gradient-29" x1="114.004" y1="127.289" x2="119.243" y2="127.289" xlink:href="#linear-gradient"/><linearGradient id="linear-gradient-30" x1="110.946" y1="120.186" x2="116.578" y2="120.186" xlink:href="#linear-gradient"/><linearGradient id="linear-gradient-31" x1="79.409" y1="116.668" x2="89.102" y2="116.668" xlink:href="#linear-gradient"/><linearGradient id="linear-gradient-32" x1="93.6" y1="66.327" x2="107.439" y2="66.327" xlink:href="#linear-gradient"/><linearGradient id="linear-gradient-33" x1="132.852" y1="114.092" x2="145.555" y2="114.092" xlink:href="#linear-gradient"/><linearGradient id="linear-gradient-34" x1="142.261" y1="117.887" x2="154.497" y2="117.887" xlink:href="#linear-gradient"/><linearGradient id="linear-gradient-35" x1="138.704" y1="72.452" x2="144.009" y2="72.452" xlink:href="#linear-gradient"/><linearGradient id="linear-gradient-36" x1="111.609" y1="130.116" x2="119.243" y2="130.116" xlink:href="#linear-gradient"/><linearGradient id="linear-gradient-37" x1="107.511" y1="128.024" x2="113.03" y2="128.024" xlink:href="#linear-gradient"/><linearGradient id="linear-gradient-38" x1="112.904" y1="61.113" x2="121.841" y2="61.113" xlink:href="#linear-gradient"/><linearGradient id="linear-gradient-39" x1="124.701" y1="66.056" x2="135.319" y2="66.056" xlink:href="#linear-gradient"/><linearGradient id="linear-gradient-40" x1="121.087" y1="103.84" x2="154.997" y2="103.84" xlink:href="#linear-gradient"/><linearGradient id="linear-gradient-41" x1="67.869" y1="122.808" x2="102.518" y2="122.808" xlink:href="#linear-gradient"/><linearGradient id="linear-gradient-42" x1="54.979" y1="103.124" x2="75.234" y2="103.124" xlink:href="#linear-gradient"/><linearGradient id="linear-gradient-43" x1="120.517" y1="77.313" x2="130.615" y2="77.313" xlink:href="#linear-gradient"/><linearGradient id="linear-gradient-44" x1="105.439" y1="75.034" x2="156.383" y2="75.034" xlink:href="#linear-gradient"/><linearGradient id="linear-gradient-45" x1="82.249" y1="84.218" x2="113.242" y2="84.218" xlink:href="#linear-gradient"/><linearGradient id="linear-gradient-46" x1="41.461" y1="86.002" x2="96.877" y2="86.002" xlink:href="#linear-gradient"/><linearGradient id="linear-gradient-47" x1="66.816" y1="99.501" x2="113.964" y2="99.501" xlink:href="#linear-gradient"/><linearGradient id="linear-gradient-48" x1="112.762" y1="94.769" x2="123.091" y2="94.769" xlink:href="#linear-gradient"/><linearGradient id="linear-gradient-49" x1="111.446" y1="61.041" x2="115.361" y2="61.041" xlink:href="#linear-gradient"/><linearGradient id="linear-gradient-50" x1="97.436" y1="96.74" x2="100.131" y2="99.435" xlink:href="#linear-gradient"/><linearGradient id="linear-gradient-51" x1="82.774" y1="103.026" x2="131.589" y2="103.026" gradientUnits="userSpaceOnUse"><stop offset="0" stop-color="#d4a18c"/><stop offset="0.508" stop-color="#a86a52"/></linearGradient></defs><title>brain</title><g id="BRAIN"><g id="CEREBELLUM"><path class="cls-1" d="M91.188,134.941a13.351,13.351,0,0,1-1.661,3.591c-.339.61.136,3.93-2.846,4.879s-2.271-.01-3.576.53a15.071,15.071,0,0,1-10.413,1.231c-5.525-1.287-19.14-3.319-21.381-14.975C50.971,128.436,92.239,129.452,91.188,134.941Z" transform="translate(-38.653 -55.521)"/><path class="cls-2" d="M86.266,131.855A44.123,44.123,0,0,1,77.5,133.2c-2.95.235-5.909.312-8.868.352-2.958-.025-5.92-.086-8.873-.361-1.475-.146-2.949-.322-4.408-.606a17.423,17.423,0,0,1-2.156-.576,5.931,5.931,0,0,1-1.024-.454,1.5,1.5,0,0,1-.747-.8,1.449,1.449,0,0,0,.8.7,5.913,5.913,0,0,0,1.03.364,17.16,17.16,0,0,0,2.159.4c1.452.207,2.92.318,4.389.393,2.937.154,5.883.221,8.828.187,2.946.022,5.892-.066,8.836-.177,1.472-.052,2.944-.13,4.412-.244A31.73,31.73,0,0,0,86.266,131.855Z" transform="translate(-38.653 -55.521)"/><path class="cls-2" d="M90.573,133.628a59.055,59.055,0,0,1-9.7,1.772c-3.27.386-6.556.606-9.847.748a86.116,86.116,0,0,1-9.884-.213,35.689,35.689,0,0,1-4.9-.781,13.031,13.031,0,0,1-2.345-.828,3.718,3.718,0,0,1-1.867-1.581,3.835,3.835,0,0,0,1.947,1.4,12.764,12.764,0,0,0,2.345.651,35.939,35.939,0,0,0,4.859.564c3.264.175,6.542.179,9.815.039,3.275-.079,6.547-.31,9.815-.571q2.452-.193,4.9-.475A45.775,45.775,0,0,0,90.573,133.628Z" transform="translate(-38.653 -55.521)"/><path class="cls-2" d="M90.9,135.891a57.353,57.353,0,0,1-9.421,1.744c-3.174.382-6.365.608-9.56.764a88.845,88.845,0,0,1-9.6-.124,37.514,37.514,0,0,1-4.766-.67,13.481,13.481,0,0,1-2.3-.727,3.563,3.563,0,0,1-1.87-1.463,3.676,3.676,0,0,0,1.943,1.278,13.217,13.217,0,0,0,2.3.552,37.9,37.9,0,0,0,4.731.455c3.172.128,6.356.106,9.534-.049,3.181-.092,6.357-.329,9.531-.587q2.381-.191,4.754-.467A44.734,44.734,0,0,0,90.9,135.891Z" transform="translate(-38.653 -55.521)"/><path class="cls-2" d="M89.527,138.532a52.405,52.405,0,0,1-8.476,1.843c-2.864.429-5.752.68-8.645.845a59.111,59.111,0,0,1-8.7-.227,27.147,27.147,0,0,1-4.284-.833,8.868,8.868,0,0,1-3.8-2.065,9.272,9.272,0,0,0,3.9,1.71,27.208,27.208,0,0,0,4.245.614,68.247,68.247,0,0,0,8.608.053c2.874-.1,5.743-.361,8.606-.666q2.149-.222,4.287-.536C86.694,139.079,88.117,138.847,89.527,138.532Z" transform="translate(-38.653 -55.521)"/><path class="cls-2" d="M89.177,140.526a52.673,52.673,0,0,1-7.395,1.977,62.051,62.051,0,0,1-7.608.988,41,41,0,0,1-7.683-.247,17.913,17.913,0,0,1-7.234-2.47l1.757.738c.61.178,1.212.37,1.819.534l1.852.388,1.877.238a46.251,46.251,0,0,0,7.568.072c2.527-.119,5.045-.435,7.554-.806S86.689,141.083,89.177,140.526Z" transform="translate(-38.653 -55.521)"/><path class="cls-2" d="M88.6,141.967c-1.607.543-3.192,1.121-4.819,1.616a38.079,38.079,0,0,1-4.964,1.194,25.362,25.362,0,0,1-5.112.337,18.786,18.786,0,0,1-5.03-.846,31.5,31.5,0,0,0,5.033.269,38,38,0,0,0,4.988-.5c1.654-.263,3.291-.637,4.936-1.009S86.919,142.211,88.6,141.967Z" transform="translate(-38.653 -55.521)"/></g><path id="BG" class="cls-3" d="M130.751,121.77c2.907-1.42,9.333,2.252,17.442-1.879s9.027-7.038,8.874-10.557c0,0,5.291-4.867.918-18.054-5.026-15.158-8.924-17.311-9.971-17.369s-1.105.291-1.338,0-.116-1.338-.814-2.269S131.847,60.2,121.193,57.97c-18.908-3.956-18.908.116-20.595-.989-.837-.549-7.389-2.7-14.486-.475s-4.829,2.453-6.458,2.395-8.727,2.84-10.065,4.125-1.218,2.154-2.527,2.042c-2.709-.233-9.109,5.178-12.308,10.53-2.909,1.28-3.922,7.434-5.643,8.669-5.76,4.131-5.178,8.959-5.992,10.588s-6.69,12.392-3.549,18.152c0,0,1.09,13.846,6.8,16.057s13.214,4.131,19.614,2.269,14.486,3.432,17.628,3.723,10.3.023,15.068,3.1,20.081,6.248,27.984-.652C136.669,128.763,130.751,121.77,130.751,121.77Z" transform="translate(-38.653 -55.521)"/><g id="LINES"><path class="cls-4" d="M79.909,67.84c-.333-1.92-1.234-3.284-4.51-3.284S70.2,66.9,69.169,66.2s-.6-1.307-1.354-1.218" transform="translate(-38.653 -55.521)"/><path class="cls-5" d="M133.948,110.967c-1.889,1.139-6.239,2.667-8.257,2.363" transform="translate(-38.653 -55.521)"/><path class="cls-6" d="M51.427,120.713c1.067-.21,2.108.373,4.426,1.087,7.033,2.167,8.8.27,8.8.27" transform="translate(-38.653 -55.521)"/><path class="cls-7" d="M68.869,129.407c-2.2-1.451-7.164-2.93-2.427-12.005" transform="translate(-38.653 -55.521)"/><path class="cls-8" d="M73.277,128.41c1.575-1.084,3.292-4.127,4.243-3.909" transform="translate(-38.653 -55.521)"/><path class="cls-9" d="M99.184,130.265c.125-1.784.771-6.224-.077-8.465" transform="translate(-38.653 -55.521)"/><path class="cls-10" d="M62.361,115.13a14.449,14.449,0,0,0,4.288,1.519,15.2,15.2,0,0,0,2.168.255c.361.011.719.02,1.077.008l1.15-.055a39.827,39.827,0,0,1,4.723.253c.766.062,1.525.142,2.268.14a2.7,2.7,0,0,0,2.075-.581,1.727,1.727,0,0,1-.753,1.012,5.136,5.136,0,0,1-1.163.538,11.947,11.947,0,0,1-2.415.451c-1.6.155-3.172.149-4.674.185l-1.2.029a10.811,10.811,0,0,1-1.269-.1,10.5,10.5,0,0,1-2.435-.645A7.736,7.736,0,0,1,62.361,115.13Z" transform="translate(-38.653 -55.521)"/><path class="cls-11" d="M78.84,131.525c1.521-.076,3.032-.154,4.5-.352a6.765,6.765,0,0,0,1.973-.456l.335-.282.469-.369a5.255,5.255,0,0,1,1.131-.676,2.152,2.152,0,0,1,.852-.178,1.512,1.512,0,0,1,1.075.45,7.7,7.7,0,0,0,.773.69,7.2,7.2,0,0,0,1.719,1.017,3.808,3.808,0,0,0,.836.224,1.806,1.806,0,0,0,.739-.059,2.537,2.537,0,0,0,.729-.364,9.168,9.168,0,0,1,1.061-.717,1.7,1.7,0,0,1,.6-.168,1.336,1.336,0,0,1,.386.013l.194.041.1.031.559.2c.344.127.679.241,1.015.342a8.459,8.459,0,0,0,1.976.366,3.665,3.665,0,0,0,.9-.053,3.049,3.049,0,0,0,.4-.1,4.337,4.337,0,0,1,.7-.2,3.272,3.272,0,0,1,1.5.047,4.463,4.463,0,0,1,1.248.589,18.324,18.324,0,0,1,1.806,1.493l.194.161a1.308,1.308,0,0,1,.136.1,2.09,2.09,0,0,0,.407.147,5.6,5.6,0,0,0,1.027.145c.732.068,1.5.061,2.28.177a5.343,5.343,0,0,1,1.15.286,2.17,2.17,0,0,1,.921.714,2.9,2.9,0,0,0-2.094-.446c-.733.051-1.472.174-2.25.252a6.167,6.167,0,0,1-1.231,0,3.293,3.293,0,0,1-.685-.144l-.363-.172c-.107-.058-.178-.109-.269-.164-.675-.433-1.248-.915-1.829-1.208a2.118,2.118,0,0,0-1.578-.262,2.629,2.629,0,0,0-.377.134,4.784,4.784,0,0,1-.678.231,5.485,5.485,0,0,1-1.349.172,9.347,9.347,0,0,1-2.482-.381c-.39-.108-.773-.23-1.14-.357l-.51-.174c-.011,0-.052-.018-.038-.011a.2.2,0,0,0,.055.016c.04,0,.072.007.1,0,.063-.007.083-.02.061-.008-.1.034-.455.316-.814.551a4.486,4.486,0,0,1-1.309.6,3.759,3.759,0,0,1-1.506.088,4.764,4.764,0,0,1-1.333-.4,8.979,8.979,0,0,1-2.091-1.41,8.016,8.016,0,0,1-.86-.877c.016,0,.1.028.066.009a.5.5,0,0,0-.254.028,3.8,3.8,0,0,0-.854.405l-.454.288a4.272,4.272,0,0,1-.6.353,4.373,4.373,0,0,1-1.3.237c-.4.025-.791.026-1.18.014A23.765,23.765,0,0,1,78.84,131.525Z" transform="translate(-38.653 -55.521)"/><path class="cls-12" d="M118.308,117.9a17.655,17.655,0,0,0,1.926,2.839,5.155,5.155,0,0,0,1.258.958,4.473,4.473,0,0,1,1.555,1.313,4.149,4.149,0,0,1,.667,2.031c.058.647.058,1.248.061,1.84a29.548,29.548,0,0,1-.258,3.6,14.7,14.7,0,0,1-.976,3.613,5.127,5.127,0,0,1-1.234,1.737,3.984,3.984,0,0,1-.39.3l-.345.251-.724.51a10.961,10.961,0,0,1-3.284,1.661,8.4,8.4,0,0,1-3.6.224,11.8,11.8,0,0,0,3.236-1.136,12.989,12.989,0,0,0,2.678-1.972l.638-.591.339-.3a2.18,2.18,0,0,0,.28-.258,3.487,3.487,0,0,0,.663-1.175,14.17,14.17,0,0,0,.742-3.164c.182-1.109.275-2.237.348-3.379a6.547,6.547,0,0,0-.161-2.979,3.466,3.466,0,0,0-.983-1.065,6.06,6.06,0,0,1-1.285-1.432A10.644,10.644,0,0,1,118.308,117.9Z" transform="translate(-38.653 -55.521)"/><path class="cls-13" d="M57.007,125.542a6.7,6.7,0,0,1-4.33.595,10.131,10.131,0,0,1-4.066-1.788,6.831,6.831,0,0,0-.718-.479.918.918,0,0,0-.517-.1,9.8,9.8,0,0,1-2.2-.1,8.876,8.876,0,0,1-2.134-.584,3.839,3.839,0,0,1-1.762-1.329,5.622,5.622,0,0,0,1.993.374,17.556,17.556,0,0,0,1.984-.02,15.838,15.838,0,0,0,1.952-.229,2.774,2.774,0,0,1,1.515.2,7.178,7.178,0,0,1,1.037.635,16.8,16.8,0,0,0,3.338,1.928A13.449,13.449,0,0,0,57.007,125.542Z" transform="translate(-38.653 -55.521)"/><path class="cls-14" d="M40.2,117.4a4.548,4.548,0,0,0,2.157-.608q.477-.239.939-.506l.452-.271a4.9,4.9,0,0,1,.638-.363,3.589,3.589,0,0,1,1.562-.146c.42.04.8.1,1.163.157a5.214,5.214,0,0,0,2.267,0,2.855,2.855,0,0,1-2.189,1.568,9.632,9.632,0,0,1-1.249.17,4.258,4.258,0,0,0-.824.111c.108-.068-.246.143-.413.227a6.327,6.327,0,0,1-.627.269,5.328,5.328,0,0,1-1.332.3,3.915,3.915,0,0,1-1.4-.122A2.026,2.026,0,0,1,40.2,117.4Z" transform="translate(-38.653 -55.521)"/><path class="cls-15" d="M48.82,108.012a1.764,1.764,0,0,1-1.543.229c-.507-.173-.979-.345-.986-.216a.285.285,0,0,1-.046.062c-.028.037-.05.049-.2.137a3.858,3.858,0,0,1-.729.374,3.224,3.224,0,0,1-1.8.206A3.384,3.384,0,0,1,41.9,108c-.189-.173-.376-.356-.487-.481l-.071-.078c-.01-.014-.049-.051-.015-.036a.852.852,0,0,0,.322-.061c.022-.01.079-.06.055-.053l-.114.054a1.484,1.484,0,0,1-.221.086,2.249,2.249,0,0,1-.413.1,4.991,4.991,0,0,1-.767.049,4.7,4.7,0,0,1-1.449-.276c.429-.26.848-.454,1.232-.681a4.573,4.573,0,0,0,.537-.323c.075-.061.154-.111.21-.166a.365.365,0,0,0,.076-.078l.031-.035a1.444,1.444,0,0,1,.209-.123,1.212,1.212,0,0,1,.971-.027,1.588,1.588,0,0,1,.279.131c.087.046.15.086.2.121l.567.374a2.217,2.217,0,0,0,.814.344,1.956,1.956,0,0,0,.866-.04,4.108,4.108,0,0,0,.522-.145c.058-.009.244-.088.423-.141a1.893,1.893,0,0,1,.618-.054,1.658,1.658,0,0,1,.962.437c.2.186.336.344.475.485A1.99,1.99,0,0,0,48.82,108.012Z" transform="translate(-38.653 -55.521)"/><path class="cls-16" d="M105.387,88.563c-1.04.135-2.929-.66-5.134,0a8.247,8.247,0,0,0-4.418,2.549" transform="translate(-38.653 -55.521)"/><path class="cls-17" d="M84.252,64.136C81.99,65.71,78.51,67.5,77.521,74.007" transform="translate(-38.653 -55.521)"/><path class="cls-18" d="M54.754,75.6c1.316-.777,2.908-1.115,3.886-1.821a4.494,4.494,0,0,0,.632-.642l.791-.828A17.29,17.29,0,0,1,61.806,70.8a8.479,8.479,0,0,1,2.146-1.223,3.229,3.229,0,0,1,.772-.168,1.694,1.694,0,0,1,1.13.278,2.8,2.8,0,0,1,.5.491c.113.138.217.262.306.357s.183.145.081.143a.394.394,0,0,0-.231.092c-.028.031-.033.047-.028.047s0,.014.011.007l.066-.079a4.047,4.047,0,0,1,1.022-.789,10.016,10.016,0,0,1,2.124-.886c-.505.579-1.042,1.1-1.508,1.65a3.085,3.085,0,0,0-.553.76l-.014.034-.072.118a.86.86,0,0,1-.218.245,1.065,1.065,0,0,1-.749.236,1.894,1.894,0,0,1-.9-.351c-.2-.133-.364-.265-.515-.385-.129-.1-.319-.283-.32-.244.229.125.023.047-.227.209A10.772,10.772,0,0,0,63,72.4c-.563.414-1.118.864-1.679,1.31l-.835.677a4.044,4.044,0,0,1-1.086.742A11.032,11.032,0,0,1,54.754,75.6Z" transform="translate(-38.653 -55.521)"/><path class="cls-19" d="M61.647,118.478c-3.3-2.146-4.4-3.092-4.64-6.31s-.346-7.984,1.154-9.292" transform="translate(-38.653 -55.521)"/><path class="cls-20" d="M66.664,114.838c-1.854-2.461-4.123-5.569-3.186-6.783" transform="translate(-38.653 -55.521)"/><path class="cls-21" d="M65.865,92.473c.145.646.36,1.256.535,1.9a4.17,4.17,0,0,1,.136,2.139,3.1,3.1,0,0,1-1.476,1.793A6.076,6.076,0,0,1,63,99.123a2.864,2.864,0,0,1-1.321-.063,2.968,2.968,0,0,1-1.162-.681,7.354,7.354,0,0,1-1.325-1.814c-.343-.61-.595-1.236-.865-1.841-.253-.583-.515-1.159-.8-1.711a12.074,12.074,0,0,0-.891-1.559,2.754,2.754,0,0,0-.974-.952.542.542,0,0,0-.358-.04,1.016,1.016,0,0,0-.425.24,2.838,2.838,0,0,0-.494,1.365,14.469,14.469,0,0,1-1.091,3.888,12.06,12.06,0,0,1-2.127,3.373,18.892,18.892,0,0,0,1.2-3.693,18.063,18.063,0,0,0,.472-3.769,3.893,3.893,0,0,1,.71-2.3,2.77,2.77,0,0,1,1.184-.832,2.428,2.428,0,0,1,1.56-.016,4.2,4.2,0,0,1,1.927,1.591,13.465,13.465,0,0,1,1.1,1.811c.3.617.563,1.237.815,1.858.241.6.487,1.18.744,1.73a5.82,5.82,0,0,0,.859,1.417,1.281,1.281,0,0,0,1.09.455,5.446,5.446,0,0,0,1.631-.427,2.027,2.027,0,0,0,1.163-.963C66.083,95.235,65.707,93.766,65.865,92.473Z" transform="translate(-38.653 -55.521)"/><path class="cls-22" d="M114.5,75.6c-1.714,1.98-1.714-1.736-5.009-1.592s-5.8.356-7.977,2.425" transform="translate(-38.653 -55.521)"/><path class="cls-23" d="M108.8,59.388c-2.068.923-5.5,2.641-6.55,4.748" transform="translate(-38.653 -55.521)"/><path class="cls-24" d="M129.82,90.233a2.205,2.205,0,0,0,1.964-.21,3.557,3.557,0,0,0,.772-.595,4,4,0,0,1,.911-.781,12.21,12.21,0,0,1,2.2-.647,15.358,15.358,0,0,1,2.207-.4,4.812,4.812,0,0,1,2.506.346,7.356,7.356,0,0,1,1.972,1.431,4.651,4.651,0,0,0,1.352,1.047,1.908,1.908,0,0,0,1.344-.269c.6-.268,1.207-.6,1.884-.944a7.111,7.111,0,0,1,1.158-.475,2.533,2.533,0,0,1,1.675.028,2.481,2.481,0,0,1,.739.505c.155.158.289.312.415.464.246.3.473.6.685.9.435.595.826,1.2,1.217,1.789a9.128,9.128,0,0,0,1.224,1.586c.364.382.488.659.688.881a.924.924,0,0,0,.561.372,2.644,2.644,0,0,0,1.651-.7,18.181,18.181,0,0,0,1.616-1.4,11.225,11.225,0,0,1-1.239,1.809,3.194,3.194,0,0,1-2.056,1.276c-1.121.032-1.734-1.024-2.085-1.248a9.145,9.145,0,0,1-1.609-1.635L150.212,91.7c-.221-.272-.446-.529-.668-.769-.111-.118-.221-.227-.324-.318a.527.527,0,0,0-.15-.089,2.532,2.532,0,0,0-1.254.425c-.6.315-1.239.7-1.942,1.021a5.286,5.286,0,0,1-1.253.406,3.066,3.066,0,0,1-1.557-.11,5.6,5.6,0,0,1-2.037-1.544,5.736,5.736,0,0,0-1.4-1.2,3.682,3.682,0,0,0-1.69-.37,19.153,19.153,0,0,0-2.059.136,13.956,13.956,0,0,0-2,.248,3.223,3.223,0,0,0-.82.482,3.6,3.6,0,0,1-1.06.515A2.309,2.309,0,0,1,129.82,90.233Z" transform="translate(-38.653 -55.521)"/><path class="cls-25" d="M150.909,94.952c-2.754,1.262-2.869,2.3-3.557,2.639a2.663,2.663,0,0,1,3.1,1.136c1.377,1.847,3.882,2.616,3.547,4.756" transform="translate(-38.653 -55.521)"/><path class="cls-26" d="M149.3,102.638c-1.262,2.527-5.695,5.319-6.973,4.681s-.352.736-.352.736" transform="translate(-38.653 -55.521)"/><path class="cls-27" d="M115.8,88.563c-.8,3.176-2.209,7.56-3.686,8.523" transform="translate(-38.653 -55.521)"/><path class="cls-28" d="M119.467,68.56a59.932,59.932,0,0,0,0,7.872c.344,2.455-.127,6.468-1.555,7.847" transform="translate(-38.653 -55.521)"/><path class="cls-29" d="M62.361,75.217a8.328,8.328,0,0,0,2.287,4.454" transform="translate(-38.653 -55.521)"/><path class="cls-30" d="M54.754,79.671c-2.416,2.314-6.533,7.208-4.36,8.892" transform="translate(-38.653 -55.521)"/><path class="cls-31" d="M126.181,108.012c-.84,1.05-1.365,3.044-.63,4.094a1.293,1.293,0,0,1-.35,1.815" transform="translate(-38.653 -55.521)"/><path class="cls-32" d="M118.743,126.166a5.347,5.347,0,0,1-4.239,2.245" transform="translate(-38.653 -55.521)"/><path class="cls-33" d="M111.946,126.45a13.37,13.37,0,0,0,2.008-2.942,5.82,5.82,0,0,0,.6-3,6.59,6.59,0,0,0-.094-.764c-.06-.276-.113-.561-.183-.838-.123-.561-.29-1.108-.459-1.663a17.83,17.83,0,0,0-1.424-3.319,6.558,6.558,0,0,1,2.847,2.649,9.582,9.582,0,0,1,.853,1.787c.119.31.2.628.292.947a7.747,7.747,0,0,1,.162,1.063,5.647,5.647,0,0,1-1.287,4A6.028,6.028,0,0,1,111.946,126.45Z" transform="translate(-38.653 -55.521)"/><path class="cls-34" d="M88.6,121.8c-4.03-.754-11.51-2.963-7.592-10.265" transform="translate(-38.653 -55.521)"/><path class="cls-35" d="M94.6,58.411c.382.888.443,1.97.8,2.677.085.166.184.269.252.276a1.3,1.3,0,0,0,.344-.026l1.366-.233a7.735,7.735,0,0,1,3.168.029,3.789,3.789,0,0,1,1.65.89,3.729,3.729,0,0,1,.969,1.65c.109.334.125.474.188.713l.179.636a11.021,11.021,0,0,0,.442,1.2,9.659,9.659,0,0,0,1.429,2.184A4.769,4.769,0,0,1,106.61,71.3a9.724,9.724,0,0,1-.171,2.944,21.586,21.586,0,0,0-.786-2.723,5.154,5.154,0,0,0-.57-1.154,6.286,6.286,0,0,0-.856-.91,9.051,9.051,0,0,1-1.965-2.382,10.3,10.3,0,0,1-.628-1.442c-.077-.244-.156-.49-.222-.735-.062-.22-.132-.549-.186-.664a1.766,1.766,0,0,0-1.242-1.291,7.759,7.759,0,0,0-2.5-.289c-.466-.009-.929.03-1.48-.012a1.808,1.808,0,0,1-1.02-.348,1.543,1.543,0,0,1-.516-.9A13.837,13.837,0,0,1,94.6,58.411Z" transform="translate(-38.653 -55.521)"/><path class="cls-36" d="M133.352,117.7c3.1-.031,6.426.063,7.688-1.189s5.122-3.586,3.708-6.034" transform="translate(-38.653 -55.521)"/><path class="cls-37" d="M154,114.092c-1.941.941-2.379.446-3.308,1.038s-4.371,5.876-7.928,6.551" transform="translate(-38.653 -55.521)"/><path class="cls-38" d="M139.2,67.84c.23,1.178,1.341,1.752,2.449,3.129s2.871,4.336,1.109,6.095" transform="translate(-38.653 -55.521)"/><path class="cls-39" d="M118.743,131.9c-1.456-1.492-3.005-3.311-4.239-3.491a9.062,9.062,0,0,0-2.4,0" transform="translate(-38.653 -55.521)"/><path class="cls-40" d="M110.976,124.49c1.148,2.937,2.151,2.724,1.133,3.921a25.8,25.8,0,0,1-4.1,3.147" transform="translate(-38.653 -55.521)"/><path class="cls-41" d="M119.575,59.953c.81.918,3.533,2.39,0,1.088-2.951-1.088-6.171,1.23-6.171,1.23" transform="translate(-38.653 -55.521)"/><path class="cls-42" d="M125.2,60.527c.348,1.262.118,2.41,2.069,2.754s5.783,2,6.678,4.559,1.4,3.444,0,3.745" transform="translate(-38.653 -55.521)"/><path class="cls-43" d="M122.087,96.151a40.519,40.519,0,0,0,8.8,3.308,26.793,26.793,0,0,0,4.52.885,20.277,20.277,0,0,1,2.464.371,4.117,4.117,0,0,1,1.4.6,3.368,3.368,0,0,1,1.091,1.223,4.038,4.038,0,0,1,.291.691l.19.607a8.882,8.882,0,0,0,.363,1.012,13.11,13.11,0,0,0,1.034,1.949,8.315,8.315,0,0,0,2.938,3.016,1.769,1.769,0,0,0,.435.177,1.525,1.525,0,0,0,.435.092,1.5,1.5,0,0,0,.43,0,5.22,5.22,0,0,0,.562-.088c.8-.137,1.59-.248,2.377-.353s1.573-.195,2.349-.314a11.613,11.613,0,0,0,1.152-.227,2.7,2.7,0,0,0,1.073-.454,4.892,4.892,0,0,1-2.083,1.217c-.757.285-1.528.505-2.29.739s-1.527.43-2.27.666a4.417,4.417,0,0,1-.6.172,3.459,3.459,0,0,1-1.488.014,3.108,3.108,0,0,1-.69-.2,9.143,9.143,0,0,1-3.909-3.406,13.107,13.107,0,0,1-1.249-2.218,10.838,10.838,0,0,1-.464-1.217l-.176-.524a2.426,2.426,0,0,0-.174-.4,1.651,1.651,0,0,0-1.227-.881c-.642-.175-1.437-.251-2.23-.389a22.6,22.6,0,0,1-4.732-1.274A24.293,24.293,0,0,1,122.087,96.151Z" transform="translate(-38.653 -55.521)"/><path class="cls-44" d="M68.869,123.4a29.5,29.5,0,0,1,8.944.366,40.638,40.638,0,0,1,4.4.991c.346.083.777.255,1.05.316a3.469,3.469,0,0,0,.826.109,8.492,8.492,0,0,0,1.935-.294,35.366,35.366,0,0,0,4.073-1.367c.7-.249,1.4-.51,2.159-.732.2-.051.389-.106.6-.15a5.4,5.4,0,0,1,.64-.092l1.111-.065a9.68,9.68,0,0,0,4.011-.953,7.117,7.117,0,0,0,2.9-3.058,6.508,6.508,0,0,1-2.36,3.88,9.579,9.579,0,0,1-4.365,1.681l-1.091.181c-.19.026-.306.067-.451.1l-.464.149c-.644.233-1.316.531-1.991.822a32.645,32.645,0,0,1-4.291,1.548,10.332,10.332,0,0,1-2.445.306,5.351,5.351,0,0,1-1.358-.216c-.442-.125-.695-.24-1.059-.361-1.354-.486-2.767-.864-4.167-1.274A69.858,69.858,0,0,0,68.869,123.4Z" transform="translate(-38.653 -55.521)"/><path class="cls-45" d="M55.979,97.087a10.064,10.064,0,0,1,1.717,3.027,22.337,22.337,0,0,0,1.435,2.971,5.432,5.432,0,0,0,.44.6c.16.174.289.319.528.558l1.177,1.233a9.815,9.815,0,0,0,1.138,1.005,4.244,4.244,0,0,0,1.221.581c1.716.509,3.755-.521,5.786-1.465,1.957-1,4.054-1.939,4.813-4.207a4.729,4.729,0,0,1-1.289,3.293,13.232,13.232,0,0,1-2.756,2.272,19.615,19.615,0,0,1-3.145,1.706,6.536,6.536,0,0,1-3.942.327,6.933,6.933,0,0,1-3.215-2.234L58.8,105.418c-.149-.18-.393-.468-.581-.745a7.07,7.07,0,0,1-.46-.852,15.234,15.234,0,0,1-1-3.418A16.652,16.652,0,0,0,55.979,97.087Z" transform="translate(-38.653 -55.521)"/><path class="cls-46" d="M124.158,67.84a12.961,12.961,0,0,1,2.637,1.8,7.938,7.938,0,0,1,1.94,2.71,15.988,15.988,0,0,1,.918,3.1c.219.943.549,1.9.794,3a6.806,6.806,0,0,1,.138,1.823,4.131,4.131,0,0,1-.646,1.874,7.116,7.116,0,0,1-2.665,2.241A14.426,14.426,0,0,1,124.3,85.64c-1.041.31-2.029.363-2.788,1.146a2.7,2.7,0,0,1,1.041-1.247c.459-.312.93-.537,1.365-.8a22.739,22.739,0,0,0,2.5-1.665,6.534,6.534,0,0,0,1.888-1.905,3.164,3.164,0,0,0,.174-2.314c-.194-.926-.519-1.944-.689-3.037a23.234,23.234,0,0,0-.526-2.935C126.822,71.037,125.512,69.469,124.158,67.84Z" transform="translate(-38.653 -55.521)"/><path class="cls-47" d="M106.439,64.424a15.343,15.343,0,0,0,.63,2.067,6.337,6.337,0,0,0,.982,1.839,1.455,1.455,0,0,0,.724.525.991.991,0,0,0,.769-.164c.6-.356,1.2-.773,1.81-1.165a20.591,20.591,0,0,1,3.963-2.039,8.035,8.035,0,0,1,2.292-.507A6.583,6.583,0,0,1,120,65.3a31.284,31.284,0,0,1,4.122,1.58,4.12,4.12,0,0,0,.839.276c.039,0,.1.018.118.007a.151.151,0,0,1,.037,0l.132-.016.576-.059a6.605,6.605,0,0,1,2.48.281,17.72,17.72,0,0,1,3.992,2.162c1.206.72,2.491,1.34,3.8,2.14a8.724,8.724,0,0,1,.989.706,3.049,3.049,0,0,1,.974,1.266,2.308,2.308,0,0,1-.2,1.792,6.291,6.291,0,0,1-.69,1.09,14.95,14.95,0,0,1-1.58,1.7c-.275.259-.555.509-.837.752l-.171.147c-.007.005.008-.008.036-.042a.81.81,0,0,0,.129-.248.877.877,0,0,0,0-.553.946.946,0,0,0-.331-.461.726.726,0,0,0-.316-.139c-.12-.013,0,0,.047-.005l.237-.012a11.991,11.991,0,0,1,2.341-.006,4.809,4.809,0,0,1,1.294.335,11.431,11.431,0,0,1,1.046.534,3.219,3.219,0,0,0,.591.3c-.051.035.161-.045.388-.245a14.766,14.766,0,0,0,1.431-1.5,2.505,2.505,0,0,1,1.3-.8,2.728,2.728,0,0,1,1.447.15,8.952,8.952,0,0,1,2.085,1.089,14.681,14.681,0,0,1,3.092,3.226,2.707,2.707,0,0,0,.737.618c.3.214.6.432.889.657.58.448,1.143.916,1.684,1.414a6.045,6.045,0,0,1,1.433,1.725c.06.149.123.26.232.249a.785.785,0,0,0,.39-.261,4.654,4.654,0,0,0,.627-.871,4.722,4.722,0,0,1-.512.968.942.942,0,0,1-.458.385c-.282.073-.478-.19-.557-.352a5.939,5.939,0,0,0-1.495-1.436c-.572-.426-1.167-.825-1.775-1.2-.3-.189-.611-.37-.918-.542a3.7,3.7,0,0,1-.988-.68,14.026,14.026,0,0,0-3.1-2.8,8.7,8.7,0,0,0-1.8-.81,1.316,1.316,0,0,0-.683-.062,1.073,1.073,0,0,0-.472.386,15.454,15.454,0,0,1-1.483,1.711,3.2,3.2,0,0,1-.57.431,1.835,1.835,0,0,1-.939.268,3.136,3.136,0,0,1-1.411-.475,9.7,9.7,0,0,0-.9-.424,3.058,3.058,0,0,0-.807-.173,10.392,10.392,0,0,0-1.988.082l-.3.025a1.991,1.991,0,0,1-.494-.018,1.065,1.065,0,0,1-.442-.185,1,1,0,0,1-.372-1.131,1.186,1.186,0,0,1,.2-.362,1.249,1.249,0,0,1,.129-.14l.236-.21c.263-.232.52-.466.768-.705a13.1,13.1,0,0,0,1.356-1.486,4.409,4.409,0,0,0,.465-.741c.124-.208.111-.472.116-.3a1.722,1.722,0,0,0-.383-.4,7.49,7.49,0,0,0-.781-.543c-1.151-.724-2.466-1.382-3.736-2.156-.634-.376-1.3-.849-1.828-1.187a8.878,8.878,0,0,0-1.737-.851,4.721,4.721,0,0,0-1.8-.265l-.5.035-.138.012-.234,0a2.429,2.429,0,0,1-.42-.046,5.668,5.668,0,0,1-1.208-.425,39.138,39.138,0,0,0-3.9-1.7,5.009,5.009,0,0,0-1.864-.364,7.513,7.513,0,0,0-1.952.312,20.233,20.233,0,0,0-3.874,1.641c-.643.323-1.27.67-1.954.989a1.684,1.684,0,0,1-1.314.1,2.024,2.024,0,0,1-.94-.811A9.509,9.509,0,0,1,106.439,64.424Z" transform="translate(-38.653 -55.521)"/><path class="cls-48" d="M110.751,106.582c-.115-.306-.257-.595-.381-.9a1.379,1.379,0,0,1-.013-1.028c.223-.639.6-1.208.833-1.774a8.313,8.313,0,0,0,.559-3.662,26.518,26.518,0,0,0-1.662-7.38,12.466,12.466,0,0,0-4.129-5.864,8.61,8.61,0,0,0-3.172-1.442c-.283-.079-.579-.111-.869-.162-.309-.055-.676-.093-1.035-.174a3.58,3.58,0,0,1-1.264-.473c-.067-.045-.128-.084-.2-.139a2.148,2.148,0,0,1-.245-.293,1.355,1.355,0,0,1-.237-.838,1.733,1.733,0,0,1,.2-.643,2.612,2.612,0,0,1,.246-.357,7.97,7.97,0,0,1,.8-.771c.213-.176.42-.437.371-.368-.052.256.028-.166.051-.3l.1-.486a7.361,7.361,0,0,0,.133-.853,4.443,4.443,0,0,0-.818-3.038,11,11,0,0,0-2.62-2.424,35.041,35.041,0,0,0-3.206-2.035c-1.11-.637-2.267-1.184-3.434-1.832A5.191,5.191,0,0,1,89,67.992a4.414,4.414,0,0,1-.565-2.118,4.977,4.977,0,0,0-.379-1.748,3.4,3.4,0,0,0-1.17-1.3,5.164,5.164,0,0,0-3.642-.685,5.164,5.164,0,0,1,3.92.205,3.876,3.876,0,0,1,1.571,1.405,5.788,5.788,0,0,1,.672,1.983,3.579,3.579,0,0,0,.523,1.584,4.5,4.5,0,0,0,1.42.854c1.156.52,2.374,1.036,3.563,1.617A27.453,27.453,0,0,1,98.4,71.767a12.694,12.694,0,0,1,3.159,2.758,6.291,6.291,0,0,1,1.228,4.311,9.3,9.3,0,0,1-.153,1.075l-.093.469a3.622,3.622,0,0,1-.145.65,3.218,3.218,0,0,1-.869,1.115,7.991,7.991,0,0,0-.6.58c-.044.043-.014.03-.035.041a.367.367,0,0,0,.043-.187.675.675,0,0,0-.09-.387.284.284,0,0,0-.1-.1c0-.007.009-.007.009-.007a2.382,2.382,0,0,0,.561.177c.274.066.556.1.886.158.349.064.7.11,1.044.208a10.085,10.085,0,0,1,3.847,1.826,13.558,13.558,0,0,1,4.47,6.871,24.608,24.608,0,0,1,1.169,7.9,8.757,8.757,0,0,1-1.044,3.9c-.349.6-.763,1.078-1.048,1.64C110.275,105.3,110.636,105.949,110.751,106.582Z" transform="translate(-38.653 -55.521)"/><path class="cls-49" d="M92.333,97.726a3.765,3.765,0,0,0,2.347-1.082,4.5,4.5,0,0,0,.689-2.461l.064-2.706a9.873,9.873,0,0,0-.147-2.585A15.259,15.259,0,0,0,92.854,84.3a44.6,44.6,0,0,0-3.179-4.27A11.9,11.9,0,0,0,87.845,78.3a3.826,3.826,0,0,0-.955-.514,1.957,1.957,0,0,0-.468-.095l-.7-.075a14.735,14.735,0,0,1-5.512-1.68,7.418,7.418,0,0,1-.65-.435,1.942,1.942,0,0,0-.375-.193A4.8,4.8,0,0,0,78.1,75.04a13.912,13.912,0,0,0-2.521-.079,15.3,15.3,0,0,0-2.512.324,5.156,5.156,0,0,0-.544.155,1.179,1.179,0,0,0-.2.081,1.039,1.039,0,0,0-.193.111L71,76.376c-1.5.986-3.012,1.98-4.449,3.013-.349.257-.716.524-1.01.777a6.33,6.33,0,0,0-.769.849,2.561,2.561,0,0,0-.446.814.852.852,0,0,0,0,.316,2.889,2.889,0,0,1,.061.977,2.006,2.006,0,0,1-.612,1.136,1.859,1.859,0,0,1-1.19.466c-.641.022-1.023-.058-1.454-.069a7.632,7.632,0,0,0-2.417.245c-.37.1-.861.254-1.314.363s-.911.212-1.355.3a12.773,12.773,0,0,0-2.454.655,4.506,4.506,0,0,0-1.82,1.417,10.552,10.552,0,0,0-1.219,2.211,33.4,33.4,0,0,0-1.648,5.065,20.879,20.879,0,0,1-.834,2.65,2.658,2.658,0,0,1-.987,1.181,1.551,1.551,0,0,1-1.585.088,1.959,1.959,0,0,1-.84-1.252,12.592,12.592,0,0,0-.279-1.317c-.12-.4-.351-.841-.788-.768a2.591,2.591,0,0,0-1.135.657,2.639,2.639,0,0,1,1.107-.805.732.732,0,0,1,.707.2,1.94,1.94,0,0,1,.391.61,11.443,11.443,0,0,1,.4,1.306,1.5,1.5,0,0,0,.688.9c.664.3,1.4-.353,1.626-1.089a20.606,20.606,0,0,0,.576-2.581,33.538,33.538,0,0,1,1.386-5.334,10.9,10.9,0,0,1,1.276-2.584A6.034,6.034,0,0,1,52.945,84.8a14.121,14.121,0,0,1,2.738-.873c.437-.109.869-.206,1.282-.325s.79-.247,1.29-.393a9.448,9.448,0,0,1,2.947-.376c.472.008.99.063,1.253.038.153-.014.1-.028.053.007-.029.03.028-.066.01-.039,0,.03-.009-.071-.071-.365a2.744,2.744,0,0,1,0-1.031,4.254,4.254,0,0,1,.778-1.581c.157-.2.314-.408.479-.586L63.952,79c.1-.1.221-.219.316-.3.39-.339.755-.6,1.13-.887,1.489-1.09,2.991-2.1,4.5-3.106l1.142-.74a3.446,3.446,0,0,1,.4-.223,2.9,2.9,0,0,1,.426-.172,7.039,7.039,0,0,1,.76-.211,17.171,17.171,0,0,1,2.862-.348,15.771,15.771,0,0,1,2.89.121,6.616,6.616,0,0,1,1.537.4,3.6,3.6,0,0,1,.809.458,5.511,5.511,0,0,0,.468.33,13.049,13.049,0,0,0,4.764,1.559l.641.085a3.887,3.887,0,0,1,.851.2,5.16,5.16,0,0,1,1.4.8,13.415,13.415,0,0,1,2.013,2.073,40.871,40.871,0,0,1,3.09,4.57,15.855,15.855,0,0,1,2.29,5.105,10.67,10.67,0,0,1-.062,2.82l-.289,2.7a4.825,4.825,0,0,1-.987,2.606A3.9,3.9,0,0,1,92.333,97.726Z" transform="translate(-38.653 -55.521)"/><path class="cls-50" d="M112.964,113.161A6.8,6.8,0,0,1,109.52,116c-1.367.645-2.794,1.136-4.12,1.745-.679.284-1.218.664-2.042.993a6.487,6.487,0,0,1-2.425.374,15.383,15.383,0,0,1-4.56-1.008c-.72-.252-1.427-.523-2.125-.8s-1.4-.586-2.025-.808a15.6,15.6,0,0,0-4.167-.672,11.473,11.473,0,0,1-4.73-.968,7.372,7.372,0,0,1-1.1-.71c-.311-.268-.631-.535-.9-.819-.573-.557-1.071-1.144-1.57-1.732a64.182,64.182,0,0,1-5.089-7.525c-.376-.656-.745-1.314-1.1-1.993a8.25,8.25,0,0,1-.813-2.346,25.008,25.008,0,0,1-.332-4.6,31.811,31.811,0,0,0-.186-4.344c-.052-.338-.139-.589-.259-1.059a5.947,5.947,0,0,1-.132-1.234,19.174,19.174,0,0,1,.183-2.293c.189-1.444.285-2.922-.63-4.035a7.072,7.072,0,0,0-1.545-1.52,3.439,3.439,0,0,0-2.038-.719,3.588,3.588,0,0,1,2.2.461,7.356,7.356,0,0,1,1.79,1.433,4.125,4.125,0,0,1,1.075,2.126,10.911,10.911,0,0,1,.13,2.323,20.365,20.365,0,0,0-.014,2.173,4.752,4.752,0,0,0,.175.976c.08.247.261.7.35,1.091a28.993,28.993,0,0,1,.464,4.567,28.877,28.877,0,0,0,.487,4.293,6.361,6.361,0,0,0,.7,1.843c.355.634.735,1.265,1.12,1.891a66.326,66.326,0,0,0,5.009,7.228c.459.553.922,1.109,1.415,1.6.241.258.5.469.744.693a5.449,5.449,0,0,0,.771.508,10.271,10.271,0,0,0,3.964.814,17.369,17.369,0,0,1,4.609.907c.767.3,1.431.614,2.1.919s1.343.609,2.018.885a15.014,15.014,0,0,0,4.084,1.16,5.272,5.272,0,0,0,1.986-.155c.581-.168,1.322-.585,2.045-.815,1.445-.495,2.89-.834,4.281-1.328a12.066,12.066,0,0,0,2.005-.9A4.577,4.577,0,0,0,112.964,113.161Z" transform="translate(-38.653 -55.521)"/><path class="cls-51" d="M118.664,108.012a1.365,1.365,0,0,1-.435-.908,5.443,5.443,0,0,1-.031-1.023,19.4,19.4,0,0,1,.249-1.985c.234-1.3.494-2.571.688-3.821a32.659,32.659,0,0,1,.859-3.9c.345-1.26.735-2.5.945-3.688a7.308,7.308,0,0,0,.167-1.731c-.011-.689.013-1.357.013-1.953a2.973,2.973,0,0,0-1.189-2.734,37.541,37.541,0,0,0-3.212-2.064,9.175,9.175,0,0,1-2.955-2.683c2.071,1.68,4.642,1.983,7.064,3.47a4.348,4.348,0,0,1,1.635,1.693,5.577,5.577,0,0,1,.55,2.251c.045.709.016,1.345.048,1.961a9.185,9.185,0,0,1-.156,2.16c-.583,2.729-1.608,5.066-2.247,7.532-.341,1.3-.816,2.538-1.266,3.758-.237.607-.459,1.214-.649,1.823a5.351,5.351,0,0,0-.212.923A1.228,1.228,0,0,0,118.664,108.012Z" transform="translate(-38.653 -55.521)"/><path class="cls-52" d="M111.946,57.658c1.554,1.377,3.792,2.639,2.558,3.557s-2.23,2.286-1.1,3.208" transform="translate(-38.653 -55.521)"/><path class="cls-53" d="M96.811,101.464c2.857-1.571,4.834-4.257,3.653-7.045" transform="translate(-38.653 -55.521)"/><path class="cls-54" d="M83.774,85.969a55.461,55.461,0,0,0,1.97,6.2,12.371,12.371,0,0,1,.672,3.3,14.357,14.357,0,0,0,.391,3.09,4.7,4.7,0,0,0,1.348,2.431,4.22,4.22,0,0,0,2.506.979,9.77,9.77,0,0,0,5.689-1.339.941.941,0,0,1,.962.022l.005,0c2.919,1.834,5.8,3.684,8.557,5.783a39.2,39.2,0,0,1,4.016,3.4c.3.311.652.737.891,1.008a5.712,5.712,0,0,0,.767.782,3,3,0,0,0,1.834.694c1.445.031,3.218-.429,4.949-.575a15.207,15.207,0,0,1,2.691-.079,8.144,8.144,0,0,1,2.652.758,11.968,11.968,0,0,1,4.072,3.362,28.225,28.225,0,0,1,2.845,4.3,40.115,40.115,0,0,0-3.31-3.876,12.206,12.206,0,0,0-4.053-2.748,6.91,6.91,0,0,0-2.293-.471,15.9,15.9,0,0,0-2.416.223c-.822.13-1.637.3-2.475.479a12.234,12.234,0,0,1-2.71.361,4.823,4.823,0,0,1-2.9-.989,7.5,7.5,0,0,1-1.062-1c-.334-.361-.536-.588-.835-.884a38.223,38.223,0,0,0-3.84-3.166c-2.724-1.982-5.531-3.922-8.387-5.733l.967.026a11.505,11.505,0,0,1-6.823,1.347,5.735,5.735,0,0,1-3.347-1.559,6.029,6.029,0,0,1-1.6-3.247,15.516,15.516,0,0,1-.172-3.374,13.543,13.543,0,0,0-.333-3.107A39.319,39.319,0,0,1,83.774,85.969Z" transform="translate(-38.653 -55.521)"/></g></g></svg>