<?xml version="1.0" encoding="UTF-8"?>
<!-- Created with Inkscape (http://www.inkscape.org/) -->
<svg width="162.91mm" height="136.24mm" version="1.1" viewBox="0 0 162.91 136.24" xmlns="http://www.w3.org/2000/svg" xmlns:xlink="http://www.w3.org/1999/xlink">
 <defs>
  <linearGradient id="a" x1="88.692" x2="84.739" y1="26.169" y2="89.68" gradientUnits="userSpaceOnUse">
   <stop stop-color="#999" offset="0"/>
   <stop stop-color="#f2f2f2" offset="1"/>
  </linearGradient>
 </defs>
 <g transform="translate(-13.375 -23.263)">
  <g fill-rule="evenodd">
   <path d="m13.375 52.569c0.52109 106.1 0.4116 106.94 0.4116 106.94l162.41-0.61429 0.093-101.57-2.5996-6.3838-56.815-8.7061-77.717-7.2073z" fill="#f9f9f9"/>
   <path d="m13.468 35.826c5.3137-3.2685 5.9317-6.4481 10.72-7.6029 4.7885-1.1548 16.541-0.87243 16.541-0.87243s5.6726 0.2819 9.0622-2.5452c3.3896-2.8271 17.963-1.1356 22.9 0.09132 4.937 1.2269 19.858-0.08275 34.302 4.2701 7.4745 2.2526 15.587 10.334 21.827 9.4415 2.6957-0.38548 14.393-6.733 19.546-7.2853 8.9209-0.95613 20.394 5.0622 23.84 7.6589 2.7005 2.0352 3.927 4.3221 3.927 4.3221l-0.30295 44.982s-9.7814-5.551-18.603-9.0222c-6.6059-2.5995-11.666-1.5042-16.595 1.602-4.9282 3.1061 0.50197 7.4716-20.06 7.9793-8.9456-2.1712-12.763-9.0675-20.903-10.908-7.5987-1.7186-17.072-0.26637-27.93-3.7692-11.394-3.6246-19.672-1.9762-25.068 0.35797-5.143 2.2245-16.444 1.6497-20.933 4.9542-5.9591 4.3867-12.039 10.553-12.039 10.553z" fill="url(#a)"/>
  </g>
 </g>
</svg>
