<svg id="Brain" xmlns="http://www.w3.org/2000/svg" xmlns:xlink="http://www.w3.org/1999/xlink" viewBox="0 0 150 142.749"><defs><style>.cls-1{fill:url(#radial-gradient);}.cls-2{fill:url(#linear-gradient);}.cls-3{fill:url(#linear-gradient-2);}.cls-4{fill:url(#radial-gradient-2);}.cls-5{fill:url(#linear-gradient-3);}.cls-6{fill:url(#linear-gradient-4);}.cls-7{fill:url(#radial-gradient-3);}.cls-8{fill:url(#radial-gradient-4);}.cls-9{fill:url(#linear-gradient-5);}.cls-10{fill:url(#linear-gradient-6);}.cls-11{fill:url(#radial-gradient-5);}.cls-12{fill:url(#radial-gradient-6);}.cls-13{fill:url(#linear-gradient-7);}.cls-14{fill:#eca285;}.cls-15{fill:url(#linear-gradient-8);}.cls-16{fill:url(#linear-gradient-9);}.cls-17{fill:url(#linear-gradient-10);}.cls-18{fill:url(#linear-gradient-11);}.cls-19{fill:url(#radial-gradient-7);}.cls-20{fill:url(#linear-gradient-12);}.cls-21{fill:url(#linear-gradient-13);}.cls-22{fill:url(#radial-gradient-8);}.cls-23{fill:url(#radial-gradient-9);}.cls-24{fill:url(#radial-gradient-10);}.cls-25{fill:url(#linear-gradient-14);}.cls-26{fill:url(#linear-gradient-15);}.cls-27{fill:url(#linear-gradient-16);}.cls-28{fill:url(#linear-gradient-17);}.cls-29{fill:url(#linear-gradient-18);}.cls-30{fill:url(#linear-gradient-19);}.cls-31{fill:url(#radial-gradient-11);}.cls-32{fill:url(#radial-gradient-12);}.cls-33{fill:url(#linear-gradient-20);}.cls-34{fill:url(#linear-gradient-21);}.cls-35{fill:url(#linear-gradient-22);}.cls-36{fill:url(#linear-gradient-23);}.cls-37{fill:url(#linear-gradient-24);}.cls-38{fill:url(#linear-gradient-25);}.cls-39{fill:url(#linear-gradient-26);}.cls-40{fill:url(#linear-gradient-27);}.cls-41{opacity:0.7;isolation:isolate;fill:url(#radial-gradient-13);}</style><radialGradient id="radial-gradient" cx="-352.22" cy="382.201" r="5.586" gradientTransform="matrix(2.873, -0.053, -0.037, -2.013, 1128.042, 806.153)" gradientUnits="userSpaceOnUse"><stop offset="0" stop-color="#763f28"/><stop offset="1" stop-color="#010200" stop-opacity="0.962"/></radialGradient><linearGradient id="linear-gradient" x1="-652.662" y1="399.81" x2="-654.02" y2="401.599" gradientTransform="translate(-1637.609 1188.691) rotate(180) scale(2.681)" gradientUnits="userSpaceOnUse"><stop offset="0" stop-color="#762728"/><stop offset="1" stop-color="#010200" stop-opacity="0.962"/></linearGradient><linearGradient id="linear-gradient-2" x1="-344.69" y1="400.566" x2="-346.495" y2="402.521" gradientTransform="matrix(2.681, 0, 0, -2.681, 1013.088, 1192.274)" xlink:href="#linear-gradient"/><radialGradient id="radial-gradient-2" cx="-345.832" cy="370.907" r="10.905" gradientTransform="matrix(2.788, 0.032, 0.02, -1.772, 1056.886, 787.538)" xlink:href="#radial-gradient"/><linearGradient id="linear-gradient-3" x1="-364.103" y1="417.811" x2="-367.958" y2="419.611" gradientTransform="matrix(2.681, 0, 0, -2.681, 1013.088, 1192.274)" gradientUnits="userSpaceOnUse"><stop offset="0" stop-color="#cf6349" stop-opacity="0.71"/><stop offset="1" stop-color="#320a00"/></linearGradient><linearGradient id="linear-gradient-4" x1="-347.749" y1="392.271" x2="-351.556" y2="394.766" xlink:href="#linear-gradient-3"/><radialGradient id="radial-gradient-3" cx="-426.632" cy="380.524" r="5.872" gradientTransform="matrix(6.17, -0.007, -0.002, -1.942, 2734.181, 864.528)" gradientUnits="userSpaceOnUse"><stop offset="0" stop-color="#f58d74"/><stop offset="1" stop-color="#0a0a02"/></radialGradient><radialGradient id="radial-gradient-4" cx="-340.957" cy="392.414" r="4.643" gradientTransform="matrix(2.68, -0.089, -0.147, -4.407, 1072.194, 1850.716)" gradientUnits="userSpaceOnUse"><stop offset="0" stop-color="#cb772d"/><stop offset="1" stop-color="#66360c"/></radialGradient><linearGradient id="linear-gradient-5" x1="-331.687" y1="392.827" x2="-330.158" y2="394.561" xlink:href="#linear-gradient-3"/><linearGradient id="linear-gradient-6" x1="-671.881" y1="417.739" x2="-675.736" y2="419.539" gradientTransform="translate(-1638.326 1192.01) rotate(180) scale(2.681)" xlink:href="#linear-gradient-3"/><radialGradient id="radial-gradient-5" cx="-592.617" cy="283.145" r="4.474" gradientTransform="matrix(-0.166, -5.56, -2.626, 0.079, 700.009, -3220.111)" gradientUnits="userSpaceOnUse"><stop offset="0" stop-color="#571807"/><stop offset="1" stop-color="#cf6349" stop-opacity="0.71"/></radialGradient><radialGradient id="radial-gradient-6" cx="-584.754" cy="599.683" r="4.474" gradientTransform="matrix(0.364, -6.132, 2.622, 0.155, -1213.563, -3584.725)" gradientUnits="userSpaceOnUse"><stop offset="0" stop-color="#571807"/><stop offset="1" stop-color="#cf6349" stop-opacity="0.555"/></radialGradient><linearGradient id="linear-gradient-7" x1="-340.3" y1="414.997" x2="-340.494" y2="385.741" gradientTransform="matrix(2.681, 0, 0, -2.681, 1013.088, 1192.274)" gradientUnits="userSpaceOnUse"><stop offset="0" stop-color="#f6d8cb"/><stop offset="1" stop-color="#e7d5a8"/></linearGradient><linearGradient id="linear-gradient-8" x1="-320.145" y1="436.056" x2="-340.771" y2="404.371" gradientTransform="matrix(2.681, 0, 0, -2.681, 1009.132, 1200.403)" gradientUnits="userSpaceOnUse"><stop offset="0" stop-color="#daa739"/><stop offset="1" stop-color="#79551e" stop-opacity="0"/></linearGradient><linearGradient id="linear-gradient-9" x1="-627.668" y1="435.918" x2="-647.475" y2="405.149" gradientTransform="translate(-1632.462 1200.403) rotate(180) scale(2.681)" xlink:href="#linear-gradient-8"/><linearGradient id="linear-gradient-10" x1="-641.407" y1="415.594" x2="-644.374" y2="411.582" gradientTransform="translate(-1631.678 1193.525) rotate(180) scale(2.681)" gradientUnits="userSpaceOnUse"><stop offset="0" stop-color="#daa739" stop-opacity="0.929"/><stop offset="1" stop-color="#79551e" stop-opacity="0"/></linearGradient><linearGradient id="linear-gradient-11" x1="-335.054" y1="414.236" x2="-336.782" y2="411.472" gradientTransform="matrix(2.681, 0, 0, -2.681, 1007.095, 1193.157)" gradientUnits="userSpaceOnUse"><stop offset="0" stop-color="#daa739" stop-opacity="0.801"/><stop offset="1" stop-color="#79551e" stop-opacity="0"/></linearGradient><radialGradient id="radial-gradient-7" cx="-413.645" cy="431.547" r="5.784" gradientTransform="matrix(4.93, -0.332, -0.277, -4.111, 2259.346, 1728.333)" gradientUnits="userSpaceOnUse"><stop offset="0" stop-color="#4a1905"/><stop offset="1" stop-color="#010200" stop-opacity="0.785"/></radialGradient><linearGradient id="linear-gradient-12" x1="-333.343" y1="391.815" x2="-331.248" y2="393.186" gradientTransform="matrix(2.681, 0, 0, -2.681, 1013.088, 1192.274)" gradientUnits="userSpaceOnUse"><stop offset="0" stop-color="#e5775d"/><stop offset="1" stop-color="#cf6349" stop-opacity="0.943"/></linearGradient><linearGradient id="linear-gradient-13" x1="-346.658" y1="389.2" x2="-350.078" y2="393.417" gradientTransform="matrix(2.681, 0, 0, -2.681, 1013.088, 1192.274)" gradientUnits="userSpaceOnUse"><stop offset="0" stop-color="#e5775d"/><stop offset="1" stop-color="#cf6349"/></linearGradient><radialGradient id="radial-gradient-8" cx="-338.811" cy="391.73" r="1.508" gradientTransform="matrix(2.677, -0.154, -0.129, -2.252, 1074.727, 910.089)" gradientUnits="userSpaceOnUse"><stop offset="0" stop-color="#dbb970" stop-opacity="0.758"/><stop offset="1" stop-color="#79551e" stop-opacity="0"/></radialGradient><radialGradient id="radial-gradient-9" cx="-645.728" cy="413.262" r="1.508" gradientTransform="matrix(-2.677, -0.154, 0.129, -2.252, -1698.76, 911.863)" gradientUnits="userSpaceOnUse"><stop offset="0" stop-color="#dbb970" stop-opacity="0.749"/><stop offset="1" stop-color="#79551e" stop-opacity="0"/></radialGradient><radialGradient id="radial-gradient-10" cx="-417.425" cy="418.317" r="1.455" gradientTransform="matrix(5.43, 0.065, 0.043, -3.57, 2349.367, 1633.579)" xlink:href="#radial-gradient"/><linearGradient id="linear-gradient-14" x1="-340.785" y1="402.01" x2="-333.009" y2="405.864" gradientTransform="matrix(2.681, 0, 0, -2.681, 1009.794, 1197.721)" xlink:href="#linear-gradient-8"/><linearGradient id="linear-gradient-15" x1="-649.495" y1="402.459" x2="-640.494" y2="405.989" gradientTransform="translate(-1633.975 1198.566) rotate(180) scale(2.681)" xlink:href="#linear-gradient-8"/><linearGradient id="linear-gradient-16" x1="-319.874" y1="413.662" x2="-334.044" y2="405.63" gradientTransform="matrix(2.681, 0, 0, -2.681, 1013.594, 1193.287)" xlink:href="#linear-gradient-8"/><linearGradient id="linear-gradient-17" x1="-625.733" y1="413.859" x2="-640.663" y2="407.395" gradientTransform="translate(-1633.975 1198.566) rotate(180) scale(2.681)" xlink:href="#linear-gradient-8"/><linearGradient id="linear-gradient-18" x1="-325.63" y1="409.157" x2="-329.48" y2="408.029" gradientTransform="matrix(2.681, 0, 0, -2.681, 1013.088, 1192.274)" xlink:href="#linear-gradient-8"/><linearGradient id="linear-gradient-19" x1="-632.991" y1="409.941" x2="-636.841" y2="408.814" gradientTransform="translate(-1636.789 1195.163) rotate(180) scale(2.681)" xlink:href="#linear-gradient-8"/><radialGradient id="radial-gradient-11" cx="-496.775" cy="482.579" r="3.236" gradientTransform="matrix(-4.892, -3.522, -3.912, 5.434, -393.905, -4278.616)" xlink:href="#linear-gradient-8"/><radialGradient id="radial-gradient-12" cx="-386.058" cy="554.539" r="3.236" gradientTransform="matrix(4.892, -3.522, 3.912, 5.434, -228.396, -4280.132)" xlink:href="#linear-gradient-8"/><linearGradient id="linear-gradient-20" x1="-336.645" y1="407.43" x2="-330.542" y2="403.016" gradientTransform="matrix(2.681, 0, 0, -2.681, 1013.848, 1197.975)" xlink:href="#linear-gradient-8"/><linearGradient id="linear-gradient-21" x1="-330.549" y1="400.695" x2="-325.328" y2="401.753" gradientTransform="matrix(2.681, 0, 0, -2.681, 1010.681, 1197.468)" xlink:href="#linear-gradient-8"/><linearGradient id="linear-gradient-22" x1="-332.138" y1="403.037" x2="-326.982" y2="404.021" gradientTransform="matrix(2.681, 0, 0, -2.681, 1011.947, 1199.368)" xlink:href="#linear-gradient-8"/><linearGradient id="linear-gradient-23" x1="-323.88" y1="405.713" x2="-329.374" y2="400.273" gradientTransform="matrix(2.681, 0, 0, -2.681, 1009.794, 1199.875)" xlink:href="#linear-gradient-8"/><linearGradient id="linear-gradient-24" x1="-643.468" y1="407.721" x2="-637.364" y2="403.308" gradientTransform="translate(-1635.567 1199.05) rotate(180) scale(2.681)" xlink:href="#linear-gradient-8"/><linearGradient id="linear-gradient-25" x1="-639.308" y1="403.547" x2="-634.114" y2="404.381" gradientTransform="translate(-1634.821 1200.852) rotate(180) scale(2.681)" xlink:href="#linear-gradient-8"/><linearGradient id="linear-gradient-26" x1="-630.486" y1="405.778" x2="-635.981" y2="400.338" gradientTransform="translate(-1630.716 1200.112) rotate(180) scale(2.681)" xlink:href="#linear-gradient-8"/><linearGradient id="linear-gradient-27" x1="-638.855" y1="402.773" x2="-632.466" y2="401.882" gradientTransform="translate(-1633.424 1199.202) rotate(180) scale(2.681)" xlink:href="#linear-gradient-8"/><radialGradient id="radial-gradient-13" cx="378.689" cy="-82.185" r="23.257" gradientTransform="matrix(0.709, 0, 0, -1.212, -168.055, 43.607)" gradientUnits="userSpaceOnUse"><stop offset="0" stop-color="#d43c20"/><stop offset="1" stop-color="#490c06"/></radialGradient></defs><title>R-ICO-013680</title><path id="path1008" class="cls-1" d="M100.244,38.756l-15.9,16.579,15.86,18.175,9.886-4.056L114.3,49.18Z" transform="translate(-25 -28.626)"/><path id="path1004" class="cls-2" d="M113.214,116.14l1.268-.732,1.414-1.365-2.389-.878Z" transform="translate(-25 -28.626)"/><path id="path988" class="cls-3" d="M86.981,117.115l-1.268-.732L84.3,115.018l2.389-.877Z" transform="translate(-25 -28.626)"/><path id="path966" class="cls-4" d="M93.406,129.034,75.546,122,74.1,105.243l15.584-2.689,8.275,6.551,3.379,1.448,8.551-8.068,11.1,2,11.585,12.688L130.23,126.9Z" transform="translate(-25 -28.626)"/><path id="path1530" class="cls-5" d="M100.244,38.756c-6.184-12.08-15.826-9.957-18.627-9.85a1.854,1.854,0,0,0-1.365,1.658c-5.812-.859-11.366-.371-14.921,2.633-1.378,2.256-4.3,3.383-6.534,3.609-2.39.287-3.883,1.078-4.194,2.535a5.782,5.782,0,0,0-4.681,4.779c-3.2,1.087-5.3,2.883-5.266,6.046-2.409.156-3.857.793-4.738,1.713a4.906,4.906,0,0,0-1.211,2.578c-5.249,2.823-6.045,7.053-6.436,11.41-1.93,1.465-3.869,4.716-5.111,8.37-1.832,5.386-2.149,11.648,1.308,14.353a26.887,26.887,0,0,0-1.658,22.917c-3.065,9.25-1.275,15.522,5.656,18.432.426,3.406,3.535,6.656,6.34,6.7-.181,3.383,2.211,4.837,4.973,6.274,3.458.373,7.166.44,9.414-1.563.6,2.22,3.375,2.056,5.506,2.635L44.656,109.557l6.211-23.14c-1.3-13.065,5.691-10.737,8.818-15.584L69.719,40.9c4.6.4,7.92,2.865,11.672,4.164C85.977,46.653,91.214,46.507,100.244,38.756Z" transform="translate(-25 -28.626)"/><path id="path875" class="cls-6" d="M90.924,152.411c-13.043-.029-23.594-2.724-32.225-8.429l7.124-16.6L84.1,124.827l1.172,1.931C85.111,135.8,85.807,144.64,90.924,152.411Z" transform="translate(-25 -28.626)"/><path id="path924" class="cls-7" d="M115.749,139.929l-29.17-.965-1.31-12.206,2.069-1.31c-.123-6.21.918-5.907,1.655-7.31a9.435,9.435,0,0,1,7.516-.689,19.672,19.672,0,0,0,7.241.138c1.877-.217,2.653-1.3,6.9.345,1.974,2.276,3.137,5.275,1.931,8.275l4.172,1.275Z" transform="translate(-25 -28.626)"/><path id="path914" class="cls-8" d="M93.468,171.045a40.822,40.822,0,0,0-.549-10.21c-.333-4.685-.947-5.284-1.444-7.6-2.936-2.593-4.082-8.42-3.1-13.386,1.519-11.208,23.737-11.071,24.838-.746.577,5.453-1.231,12.654-3.713,14.341l.008,3.6c-.658,4.668-1.508,9.273-1.508,13.926Z" transform="translate(-25 -28.626)"/><path id="path849" class="cls-9" d="M139.012,145.892l3.906-2.653-8.689-15.033-19.515-4.965.414,3.931,1.655,3.379c1.509,8.291-3.1,14.032-5.617,20.648,12.228,1.471,21.13-.715,27.846-5.307Z" transform="translate(-25 -28.626)"/><path id="path885" class="cls-10" d="M99.756,38.684c6.184-12.08,15.826-9.957,18.627-9.85a1.854,1.854,0,0,1,1.365,1.658c5.812-.859,11.366-.371,14.921,2.633,1.378,2.256,4.295,3.383,6.534,3.609,2.39.287,3.883,1.078,4.194,2.535a5.782,5.782,0,0,1,4.681,4.779c3.2,1.087,5.3,2.883,5.266,6.046,2.409.156,3.857.793,4.738,1.713a4.906,4.906,0,0,1,1.211,2.578c5.249,2.823,6.045,7.053,6.436,11.41,1.93,1.465,3.869,4.716,5.111,8.37,1.832,5.386,2.149,11.648-1.308,14.353a26.887,26.887,0,0,1,1.658,22.917c3.065,9.25,1.275,15.522-5.656,18.432-.426,3.406-3.535,6.656-6.34,6.7.181,3.383-2.211,4.837-4.973,6.274-3.458.373-7.166.44-9.414-1.563-.6,2.22-3.375,2.056-5.506,2.635l14.043-34.425-6.211-23.139c1.3-13.066-5.691-10.738-8.818-15.585L130.281,40.829c-4.6.405-7.92,2.865-11.672,4.164C114.023,46.581,108.786,46.435,99.756,38.684Z" transform="translate(-25 -28.626)"/><path id="path1024" class="cls-11" d="M46.509,79.52l-1.853,30.037L58.6,115.9,68.647,90.93,63.088,77.472Z" transform="translate(-25 -28.626)"/><path id="path1042" class="cls-12" d="M153.686,76.815l1.853,30.037-13.946,6.339L131.548,88.225l5.559-13.458Z" transform="translate(-25 -28.626)"/><path id="path948" class="cls-13" d="M80.1,112.9c-.965-1.076-2.356-1.087-3.551-1.586-.858-.814.536-1.17.536-1.17.977.282,1.957.591,2.926.78,1.017-.029.729-.533.341-1.072a5.407,5.407,0,0,1-1.365-.586c-1.119-1.331.566-1.665,1.56-1.17,3.6,3.311,4.145,6.046,7.425,9.215,3.2-.32,5.668-1.181,5.741-4.436-.185-1.294-.165-2.624-3.121-3.414a8.851,8.851,0,0,1-4.681-2.34c-.641-.778-1.085-2.348,1.365-2.243,2.759.511,3.853.792,9.07,4.779.68.659.919,1.782-.1,1.852-.638-.794-.974.526-1.365,1.463-.4,2.276.384,3.49,1.629,3.772a18.78,18.78,0,0,0,8.075-.09c1.284-.319.927-1.9.828-3.194.012-1.328-.206-2.75-1.755-1.951-.712-.309-.714-.8-.39-1.365a22.294,22.294,0,0,1,9.46-4.973c2.54-.425,1.56,2.438,1.56,2.438l-3.413,2.048c-2.524.023-3.815.594-4,1.657-.412,2.173-.531,4.182,1.366,5.072,2.405,1.548,3.015.351,4.158.335,2.712-2.386,4.563-7.143,6.862-8.43,2.419-1.042,3.065.084,1.853,1.073a2.915,2.915,0,0,0-1.268.683c-1.024,1.117.072.873.78.877.652-.233.363-.176,2.535-.877,0,0,1.66-.246.586,1.462-4.59.409-5.173,1.436-6.55,2.356l.5,3.691,6.827,2.438-.127,3.174-2.433-.556-6.3-2.028.927,3.155,6.371,5.91c1.075.989,2.022,5.309,3.333,2.4,1.549,3.628,5.28-2.936,7.93-3.84,3.357,4.919-2.57,8.424-3.841,13.343l12.53,1.69,2.6-14.941,6.315,11.686,5.3-1.458c-1.142-3.974-1.872-6.48-1.592-10.6,2.894,1.733,7.433,3.221,7.19,6.837l.405-6.969c2.223-.721-.006-3.06,8.594-1.462L173.169,116l-9.649,4.612c-4.414-2.419-.15-3.816,1.576-5.513,5.247-2.4.579-3.426-2.2-5.459l-1.517-8.876c2.842,1.514,5.906.949,8.4,5.731.609-4.245,5.482-8.49-2.342-12.735-4.317-2.856-7.794-1.2-11.081,1.485l-1.632,3.788-2.554,2.557c-1.011,9.578-3.571,10.909-6.237,10.428l-3.443-1.827L146.1,98.021l1.8-1.707-9.2-13.92c5.771-5.9,11.384-1.005,17.033,1.417l14.591,2.2.138-11.957-5.456-4.4-5.751-2.407c-.1.115,2.162-2.194,3.633-3.8l1.317-.536-1.664-4.4c-2.031,1.3-4.063,2.269-6.095,4.288a1.763,1.763,0,1,1-2.4-2.582l-.39-2.291-5.209,1.448-.4,7.488-6.411,3.1.823-7.406L149.7,52.9c-1.287-7.125-4.828-2.492-7.823-.71l-8.83-3.085-1.673-3.14c3.7-1.738,7.4-1.861,11.1-2.532l-17.965-9.669-7.976,6.743-.913,8.23-5.133-6.279,4.886-6.994c-4.614-8.572-8.859-4.637-13.089-.218l2.509,19.027c2.99.658,5.98.32,8.97,2.874l-3.285,3.5-6.862-.558.4,12.768c-2.516,0-5.031.272-7.547-.456l2.359-4.746-3.3-3.854c.748-2.1,3-4.208,3.127-6.312-.029-7.037-5.376-2.465-9.729,1.247,0,0-2.729-3.209,1.517-6.556L98.586,48.9l-.1-8.654-2.391.274-1.452-.636c-.334-2.824,5.011-6.391-2.825-8.235l-7.736.148L90,41.487c.3,2.973-1.37,4.5-3.66,6.766l-1.031-3.785c-1.583-5.812-5.624-9-12.083-9.613L58.992,43.242l8.8,1.962,2.073,4.023-17.046.145L51.091,53l9.955,13.211-4.127,3.8-5.025-2.6.71-4.815-4.593-6-.947,5.345c-.831,4.51-3.827-.64-6.231-3.151-2.647.808-6.068,1.286-2.834,4.6l3.145,3.852L36.125,69.7c-5.072,4.956-9.3,9.923-4.649,15.007l9.572,1.637c6.139-3.244,12.1-8.621,18.724-6.047l.975,9.363c-3.059,2.494-7.715,3.686-7.563,8.8l3.747,4.248.785,8.31-3.833.364-4.1-6c-.774-2.044-.743-4.167-3.689-5.745l1.792-5.646L31.869,91.547c-5.151,6.226-3.825,10.872-.223,16.068L35.4,101.1l4.447,1.029L37.8,108.077l-.9,3.053-2.855,2.358,5.843,6.134-4.444.116-7.784-4.695c.353,4.218.351,8.435,3.839,12.653l4.573-2.185c2.378,3.253.834,5.223-.73,7.4l9.48-4.353,1.638,2.85c-1.561,2.584-3.256,5.168-3.182,7.751l8.071,1.554,1.56-7.649,1.219-2.828c1.553,2.805,3.057,5.624,3.21,8.811l7.092,3.514,5.785-1.11c-3.51-5.134-5.259-10.321-4.482-15.585,2.92,2.892,8.279,5.287,7.276,9.4l7.446-8.551,5.288-4.7-2.229-1.46c-3.389,1.23-5.8,4.056-9.192.254,1.487-1.309,3.577-1.756,5.971-1.768,1.441-1.276,5.186.387,3.26-5.185Z" transform="translate(-25 -28.626)"/><path id="path1528" class="cls-14" d="M31.964,82.418c-1.44-1.954,2.693-10.646,4.551-11.447C40.159,70.519,42.3,69.4,43,67.247c.171-2.179-2.258-3.591-4.413-4.827-1.105-1.943-.315-2.466,1.517-2.207,1.371,1.269,4.619,5.68,6.9,4.827,2.164-1.184.965-4.827.965-4.827-.116-.759-.38-1.667,1.1-.827a6.405,6.405,0,0,1,2.758,4c.09,1.435-1.144,2.026-2.758,2.621-2.483,1.453-1.372,2.347.276,3.034,2.331.842,6.744,3.91,10.343,1.793a5.158,5.158,0,0,0,2.483-6.62c-2.578-3.138-5.76-7.773-9.516-11.309-.939-2.253.073-2.316,2.068-2.069,1.43.566,2.548,2.376,4,3.31.987.877,2.345-.552,2.345-.552l2.206-2.482c1.085-1.465,5.1-.046,7.861-1.1,2.853-1.811.138-4.965.138-4.965a14.046,14.046,0,0,0-5.792-2.206c-2.624-.182-.276-1.931-.276-1.931A23.946,23.946,0,0,1,76.235,37.6c5.466.358,6.776,4.014,6.345,6.62a10.3,10.3,0,0,0-.414,4.275c.606,2.462,2.966,1.469,4.275.69,4.248-1.966,5.392-4.729,5.1-7.861-.325-2.442-1.736-4.068-2.482-6.069-.7-2.043.336-2.933,2.758-2.9a4.944,4.944,0,0,1,3.862,2.9c-.059,1.511-2.532,2.871-1.793,4.827a4.28,4.28,0,0,0,3.586,2.345s.078,1.589,0,2.62a21.9,21.9,0,0,1-7.034,4.414c-2.837,1.808-3.733,3.87-3.586,6.068.064,2.405.579,4.237,2.069,4.827a5.212,5.212,0,0,0,5.516-2.206l1.38-1.655c1.808-.814,1.419,1,1.419,1a18.832,18.832,0,0,1-2.385,2.718c-2.193,2.232-.613,3.964.69,4.689a2.389,2.389,0,0,1,1.379,2.759c.131,1.983-1.229,1.524-2.483,1.241-.954-.506-1.928-1.011-2.758-1.517-3.021-1.231-2.756.793-1.655,1.793a18.582,18.582,0,0,0,6.62,3.586,22.014,22.014,0,0,0,3.887.746V72.35a16.226,16.226,0,0,1-2.508-.138c-.624-.552.138-1.655.138-1.655,2.025-.554,2.346-1.428,2.483-2.207a5.21,5.21,0,0,0-1.127-4.4c-.714-.875-2.873-.291-2.873-.291-.673-.822,3.739-2.96,4-7.585.525-4.883-2.312-4.581-4.7-3.927a7.415,7.415,0,0,0-4.787,4.1c-.852.586-1.347.244-1.549-.86.887-2.017,2.939-3.049,5.25-4.031,6.7.292,6.012-3.637,5.508-8.243.135-2.8.086-5.349-2.207-4.828a3.546,3.546,0,0,1-2.9.966c-.391-.677.741-1.685,1.379-2.483.373-1.794.081-3.583-1.793-4.689-4.107-2.982-9.533-2.991-12.55-.965-1.343,2.055.742,4.1,2.385,5.232,2.3,2.888,3.369,6.069,2.9,9.1-1.5.418-1.248-1.687-1.248-1.687,1.44-5.358-2.85-6.882-4.309-8.787-.811-1.6-1.487-2.64-5.793-2.62-9.849,2.061-19.58,6.452-22.139,12-.617,2.758,6.032,3.292,6.969,2.758a8.208,8.208,0,0,1,5.654-1.517c.9.6,1.082,2.007-.827,2.345a50.93,50.93,0,0,1-12.413-.828c-3.354-.209-5.555,2.227-5.6,5.655.08,1.1,6.2,3.771,8.493,9.93.5,1.839,1.055,3.921.446,5.175-1.109.153-1.849-.017-2.133-1.5.868-4.382-.591-7.186-1.663-7.683a44.258,44.258,0,0,0-4.965-4.965c-2.437-2.27-6.007,1.651-4.649,3.87q1.518,2.227,2.483,3.724s-.023,1.3-.966.551c-1.079-2.672-1.517-4.275-4-4.965-2.5-.418-5.79,1.459-6.482,6.482-.477,2.683.61,2.894,2.206,3.172,1.227-.088,2.68.339,2.621.828-.635.556-1.672.112-2.759-.138-3.258-.15-3.222.54-4.527,2.832a20.8,20.8,0,0,1-2.782,3.926,21.589,21.589,0,0,0,.138,12.688c1.1,1.963,2.666,2.161,4.275,2.207,3.349.171,7.273.15,9.93.552,6.707,1.464,6.976-.933,7.318-3.035-.452-4.959,1.052-4.825,3.44-5.24,4.229-.16,5.487.912,3.448,3.448-2.406,1.923-2.687,2.435-3.448,5.1-.951,2.009-4.52,4.747-2.468,10.789,4.372,1.927,2.689,3.452,1.931,5.517.111,1.977,1.983,3.022,2.532,3.667.3.5-.119,1.631-1.444.852-.709-1.318-1.063-2.536-1.931-2.62-2.505-.413-.012-2.375-.121-3.627,1.413-3.029-3.361-4.715-5.395-5.062-1.167-.377,4.336-.479,2.62-5.793-.432-3.679-5.138-1.187-8.275-2.068-3.358-2.748-9.518-2.061-11.447-1.1-2.811,2.931-4.934,11.989-2.482,20.136,2.48,2.683,4.253-.429,4.551-2.069.658-2.314,1.982-4.832,4-5.93,1.036.157,1.3,1.172.414,2.207-2.825,1.109-3.4,2.251-2.9,3.861.509.864,1.456.273,2.02.576,0,0,.478.927-.828,1.242-3.929-.754-3.289,2.184-2.847,3.009a8.143,8.143,0,0,0,4.689,4.276c.864.642-.031.961-1.493.786A33.423,33.423,0,0,1,29.9,112.9c-.947-.9-2.659-.944-3.31,1.379-.741,2.315-1.878,8.465,1.242,11.861,1.451,1.718,2.888,3.067,4.275,3.172,1.894.173,1.584-1.558,2.207-2.483,1.075-.255,1.836.448.275,2.069-2.415.707-1.563,2.266-1.1,3.724a14.188,14.188,0,0,0,3.862,3.723,1.592,1.592,0,0,0,1.988-1.533c.618-2.076,2.165-2.521,3.155-4.722,1.052-1.1,2.989-.293,2.028,1.29a11.233,11.233,0,0,0-4.413,3.586c-2.1,2.639-.905,3.7-.138,4.965,2.015,2.524,4.676,2.881,7.448,2.759,4.231.035,5.971-.649,5.654-3.862.114-2.516.228-5.032,1.1-5.517.994-.012.751,1.086.689,1.931-1.4,1.759-1.441,5.4-.689,7.034,1.582,2.087,14.728,2.2,16.136.689,2.4-1.752,2.948-4.3,1.379-7.545a12.222,12.222,0,0,0-4.827-4.551c-1.025-1.359-.342-1.364,1.1-1.144,2.477,1.691,3.418,4.5,4.69,6.758,1.214,1.545,2.219.418,2.758.138,2.162-2.461,3.3-5.736,10.619-13.378,1.214-2.025,1.25-5.239-2.758-3.585-2.2.727-3.777,1.871-4.689,1.93a.911.911,0,0,1-.276-1.793c4.006-.5,5.993-.822,6.726-1.614,2.044-1.986-.28-3.059-1.485-4.316A4.136,4.136,0,0,0,80.1,112.9c-.808.547.845,2.156,1.517,3.31.4.8-.853,1.869-2.207,2.206a12.4,12.4,0,0,0-4.689.414c-1.34.317-1.45,1.027-1.379,1.793,1.428,4.338,2.008,3.59,2.758,3.862,1.5.225,3.8-1.28,6.483-2.9,1.449-.683,1.629.466.689,1.517-3.887,1.945-7.711,4.257-8.827,7.724a1.7,1.7,0,0,1-2.344-.414c-2.118-4.725-4.434-5.006-6.9-5.1-3.648.389-4.068,3.291-1.931,6.482,1.922,2.028,3.586,4.194,1.931,8.137-1.469,1.259-4.475,1.375-6.068-2.344-.829-4.688-.728-10.261-3.862-10.9-1.74-.079-3.438.071-4.413,4.138-1.518,5.028-3.314,8.486-5.931,7.309-.929-1.891.915-3.854,2.207-5.654,1.432-3.176,1.124-5.464-1.931-6.069-4.149-.029-4.745,1.652-6.206,3.035-.483.14-.71-.417-.414-1.655.2-2.679-1.684-3.915-5.1-3.586-3.384.8-4.111-1.781-4.689-4.551-.091-2.12,1.357-1.08,2.62,0,3.573,2.264,7.121,4.334,9.93.551,1.2-2.394-1.014-4.73-4.965-5.792-1.547-.58-.712-1.321.138-1.1,3.192.7,4.87.232,4.552-1.793-.04-1.448-2.8-2.043-2.345-2.758,2.517-2.249,5.726-5.337,1.517-8.827-3.147-1.944-5.908-.672-7.585,1.38-.877,1.119-2.062,1.142-1.931-.828.452-3.605,2-6.456,7.034-6.9,1.024-.018,1.321.01,1.8.755a4.946,4.946,0,0,0,2.612,1.728h1.241c.564.66-.139,3.094.414,4.275,1.2.958,2.634-.028,3.724,1.241,1.191.641,1.025,3.881.965,7.31.4,3.59,4.385,5.455,8.275,4.551,3.8-1.551,4.951-3.883,1.931-7.447a5.382,5.382,0,0,1,.552-3.586c1.076-5.65-2.367-5.031-4.138-5.517-2.084-2.363,3.3-2.939,6.482-4.413C65.955,90.3,65.564,85.954,65.064,82c-2.3-5.124-9.018-3.094-13.654-3.31C45.44,80.077,39.669,85,31.964,82.418Z" transform="translate(-25 -28.626)"/><path id="path1588" class="cls-14" d="M168.778,82.418c1.44-1.954-2.693-10.646-4.552-11.447-3.644-.452-5.78-1.571-6.482-3.724-.171-2.179,2.259-3.591,4.414-4.827,1.1-1.943.314-2.466-1.517-2.207-1.371,1.269-4.619,5.68-6.9,4.827-2.164-1.184-.966-4.827-.966-4.827.116-.759.38-1.667-1.1-.827a6.4,6.4,0,0,0-2.758,4c-.09,1.435,1.144,2.026,2.758,2.621,2.483,1.453,1.372,2.347-.276,3.034-2.331.842-6.744,3.91-10.344,1.793a5.158,5.158,0,0,1-2.482-6.62c2.578-3.138,5.76-7.773,9.516-11.309.939-2.253-.073-2.316-2.069-2.069-1.429.566-2.547,2.376-4,3.31-.987.877-2.345-.552-2.345-.552l-2.206-2.482c-1.085-1.465-5.1-.046-7.862-1.1-2.852-1.811-.138-4.965-.138-4.965a14.055,14.055,0,0,1,5.793-2.206c2.623-.182.276-1.931.276-1.931a23.953,23.953,0,0,0-11.034-3.31c-5.465.358-6.775,4.014-6.344,6.62a10.315,10.315,0,0,1,.414,4.275c-.606,2.462-2.966,1.469-4.276.69-4.247-1.966-5.391-4.729-5.1-7.861.324-2.442,1.735-4.068,2.482-6.069.456-2.043-.129-2.484-2.551-2.448-1.805.238-3.512.412-4.069,2.448.181,1.594.426,7.3-.138,7.448,0,0-.01,5.072.379,6.1,2.273,2.117,8.011,5.325,10.068,7.033,2.544,3.537-1.444,5.377-3.723,4.965-.754,2.371.283,4.341-1.655,4.655-2.984.492-3.392-2.608-4.586-4.034l-1.207.138c.13,2.8.007,1.108,1,3.62,1.232,1.421,5.471,2.771,4.9,4.276.375,4.159-5.446,4.277-6.425,4.268a18.945,18.945,0,0,0-3.461-.212V72.35c2.317.075,1.681-.538,1.611-1.827-.591-1.648,1.558-3.271-.6-6.571-.373-.678-1.16-1.355.114-5.118,1.3-3.71,5.932-1.1,8.318-.548,1.209-.727,1.21-1.624-.146-2.245a20.862,20.862,0,0,1-4.767-.2c-4.665-1.26-3.047-7.4-3.163-12.725-.136-2.8-1.466-5.384-1.138-7.793-.366-4,1.313-4.7,4.655-5.723a16.576,16.576,0,0,1,13.343,1.517c1.343,2.055-.742,4.1-2.385,5.232a11.378,11.378,0,0,0-2.689,9c1.5.419,1.041-1.583,1.041-1.583-1.44-5.358,2.849-6.882,4.309-8.787.811-1.6,1.487-2.64,5.792-2.62,9.85,2.061,19.58,6.452,22.139,12,.618,2.758-6.031,3.292-6.968,2.758a8.209,8.209,0,0,0-5.654-1.517c-.9.6-1.082,2.007.827,2.345a50.93,50.93,0,0,0,12.413-.828c3.354-.209,5.555,2.227,5.6,5.655-.081,1.1-6.2,3.771-8.494,9.93-.5,1.839-1.054,3.921-.445,5.175,1.109.153,1.849-.017,2.132-1.5-.868-4.382.592-7.186,1.664-7.683a44.091,44.091,0,0,1,4.965-4.965c2.437-2.27,6.007,1.651,4.649,3.87q-1.519,2.227-2.483,3.724s.023,1.3.965.551c1.079-2.672,1.518-4.275,4-4.965,2.5-.418,5.79,1.459,6.482,6.482.476,2.683-.61,2.894-2.206,3.172-1.227-.088-2.68.339-2.621.828.635.556,1.672.112,2.758-.138,3.259-.15,3.223.54,4.527,2.832a20.858,20.858,0,0,0,2.783,3.926,21.589,21.589,0,0,1-.138,12.688c-1.1,1.963-2.666,2.161-4.275,2.207-3.349.171-7.274.15-9.93.552-6.707,1.464-6.976-.933-7.318-3.034.452-4.96-1.052-4.826-3.44-5.241-4.229-.16-5.487.912-3.448,3.448,2.406,1.923,2.687,2.435,3.448,5.1.951,2.009,4.519,4.747,2.467,10.789-4.371,1.927-2.688,3.452-1.93,5.517-.111,1.977-1.983,3.022-2.532,3.667-.3.5.119,1.631,1.443.852.709-1.318,1.063-2.536,1.931-2.62,2.506-.413.013-2.375.121-3.627-1.412-3.029,3.361-4.715,5.4-5.062,1.166-.377-4.337-.478-2.62-5.793.432-3.679,5.138-1.187,8.275-2.068,3.358-2.748,9.518-2.061,11.447-1.1,2.811,2.931,4.934,11.989,2.482,20.136-2.48,2.683-4.253-.429-4.551-2.069-.658-2.314-1.982-4.832-4-5.93-1.036.157-1.3,1.172-.413,2.207,2.825,1.109,3.4,2.251,2.9,3.861-.509.864-1.457.273-2.02.576,0,0-.479.927.827,1.242,3.929-.754,3.29,2.184,2.848,3.009a8.143,8.143,0,0,1-4.689,4.276c-.865.642.031.961,1.492.786a33.346,33.346,0,0,0,5.541-5.475c.948-.9,2.66-.944,3.31,1.379.742,2.315,1.879,8.465-1.241,11.861-1.451,1.718-2.888,3.067-4.275,3.172-1.894.173-1.584-1.558-2.207-2.483-1.075-.255-1.836.448-.276,2.069,2.416.707,1.564,2.266,1.1,3.724a14.2,14.2,0,0,1-3.862,3.723,1.592,1.592,0,0,1-1.988-1.533c-.618-2.076-2.165-2.521-3.155-4.722-1.053-1.1-2.989-.293-2.029,1.29a11.23,11.23,0,0,1,4.414,3.586c2.1,2.639.905,3.7.138,4.965-2.015,2.524-4.676,2.881-7.448,2.759-4.232.035-5.971-.649-5.655-3.862-.114-2.516-.227-5.032-1.1-5.517-.994-.012-.752,1.086-.69,1.931,1.4,1.759,1.442,5.4.69,7.034-1.583,2.087-14.728,2.2-16.136.689-2.4-1.752-2.948-4.3-1.379-7.545a12.215,12.215,0,0,1,4.827-4.551c1.025-1.359.341-1.364-1.1-1.144-2.476,1.691-3.418,4.5-4.689,6.758-1.214,1.545-2.219.418-2.758.138-2.162-2.461-3.3-5.736-10.62-13.378-1.213-2.025-1.25-5.239,2.759-3.585,2.2.727,3.777,1.871,4.689,1.93a.911.911,0,0,0,.276-1.793c-4.007-.5-5.993-.822-6.726-1.614-2.044-1.986.28-3.059,1.485-4.316a4.136,4.136,0,0,1,3.448-.965c.808.547-.845,2.156-1.517,3.31-.4.8.853,1.869,2.206,2.206a12.393,12.393,0,0,1,4.689.414c1.341.317,1.45,1.027,1.38,1.793-1.428,4.338-2.008,3.59-2.759,3.862-1.5.225-3.8-1.28-6.482-2.9-1.449-.683-1.629.466-.689,1.517,3.887,1.945,7.71,4.257,8.826,7.724a1.7,1.7,0,0,0,2.345-.414c2.118-4.725,4.434-5.006,6.9-5.1,3.647.389,4.067,3.291,1.931,6.482-1.922,2.028-3.586,4.194-1.931,8.137,1.469,1.259,4.475,1.375,6.068-2.344.829-4.688.727-10.261,3.862-10.9,1.74-.079,3.438.071,4.413,4.138,1.518,5.028,3.314,8.486,5.93,7.309.93-1.891-.915-3.854-2.206-5.654-1.432-3.176-1.124-5.464,1.931-6.069,4.148-.029,4.744,1.652,6.206,3.035.482.14.709-.417.414-1.655-.2-2.679,1.683-3.915,5.1-3.586,3.384.8,4.11-1.781,4.689-4.551.091-2.12-1.357-1.08-2.621,0-3.572,2.264-7.121,4.334-9.93.551-1.2-2.394,1.015-4.73,4.965-5.792,1.548-.58.713-1.321-.138-1.1-3.191.7-4.869.232-4.551-1.793.039-1.448,2.8-2.043,2.345-2.758-2.517-2.249-5.726-5.337-1.517-8.827,3.147-1.944,5.907-.672,7.585,1.38.876,1.119,2.061,1.142,1.931-.828-.452-3.605-2-6.456-7.034-6.9-1.025-.018-1.321.01-1.8.755a4.953,4.953,0,0,1-2.612,1.728h-1.241c-.564.66.138,3.094-.414,4.275-1.2.958-2.635-.028-3.724,1.241-1.191.641-1.026,3.881-.965,7.31-.4,3.59-4.385,5.455-8.275,4.551-3.8-1.551-4.952-3.883-1.931-7.447a5.382,5.382,0,0,0-.552-3.586c-1.077-5.65,2.366-5.031,4.138-5.517,2.084-2.363-3.3-2.939-6.483-4.413-4.338-2.191-3.948-6.532-3.447-10.482,2.3-5.124,9.018-3.094,13.653-3.31,5.97,1.383,11.742,6.31,19.447,3.724Z" transform="translate(-25 -28.626)"/><path id="path1091" class="cls-15" d="M100.26,109.317v3.448c1.959-1.421,2.779-7.886,6.368-9.09,2.143-.273,1.84-.127,2.182,1.022a25.452,25.452,0,0,0-4.474,4.342,13.1,13.1,0,0,1,5.9-3.267s8.738-6.993,8.533-13.312c-.822-7.838-7.607-5.395-9.362-3.267-3.355,3.67-2.9,8.347-3.608,12.142-.315.943-1.747,1.321-2.536,1.755.5-4.836,1.135-4.148,1.853-5.656,1-1.856-.192-2.862-1.268-3.8l-2.266-1.611c-2.385,1.056-.093,7.139.023,10.193-.279,2.436-2.186,4.628-1.345,7.1Z" transform="translate(-25 -28.626)"/><path id="path1103" class="cls-16" d="M100.26,109.317v3.448c-1.959-1.421-2.78-7.886-6.368-9.09-2.144-.273-1.841-.127-2.183,1.022a25.418,25.418,0,0,1,4.474,4.342,13.093,13.093,0,0,0-5.9-3.267S81.545,98.779,81.75,92.46c.822-7.839,7.607-5.395,9.362-3.267,3.356,3.67,2.9,8.347,3.609,12.142.315.943,1.747,1.321,2.535,1.755-.5-4.836-1.134-4.148-1.853-5.656-1-1.856.193-2.862,1.268-3.8l2.267-1.611c2.385,1.056.092,7.139-.024,10.193.279,2.436,1.905,4.269,1.346,7.1Z" transform="translate(-25 -28.626)"/><path id="path1119" class="cls-17" d="M95.08,91.563l2.634-2.291c-1.489-2.3-4.278-4.262-6.339-4.1-.523.894,2.6,3.054,3.7,6.387Z" transform="translate(-25 -28.626)"/><path id="path1123" class="cls-18" d="M105.1,91.463l-2.633-2.291c1.488-2.3,4.278-4.262,6.339-4.1.522.894-2.6,3.054-3.706,6.387Z" transform="translate(-25 -28.626)"/><path id="path27" class="cls-19" d="M87.269,82.418c.724,1.662,7.506,3.3,8.413,4.689,1.549,1.862,1.426,3.409,2.344,4.138,1.564.935.927,2.821,1.242,4.275-.749,4.031-1.256,7.839-.138,11.585.646,1.6,1.491,1.67,2.206,0,1.079-3.862.679-7.723-.138-11.585.143-1.614-.277-3.455,1.509-4.64.893-1.178.353-2.98,2.215-3.911,1.338-.91,1.929-1.658,7.31-3.448,1.289-1.01,1.105-2.512,1.379-3.861.4-1.152.579-2.335,2.207-3.31.219-.968.369-1.906-1.931-1.793-7.164,5.146-12.551,5-12.551,5-.122,1.365.532,2.937-.1,4.276a2.276,2.276,0,0,0,1.345,3.551c-.354,2.91-.927,3.516-2.305,3.48,0,0-2.247.347-2.336-3.563,1.748-1.036,2.051-2.375,1.089-3.434-.686-1.414.388-3.276.1-4.344-.689-.412-3.7,1.018-12.413-4.552-1.666-.776-2.183.166-1.517,1.655,1.175,1.856,2.184,3.789,2.069,5.793Z" transform="translate(-25 -28.626)"/><path id="path845" class="cls-20" d="M115.249,136.391c.549-.58-.282-1.831.542-2.534.8-.824.208-3.533-.287-4.21-.767-2.565-.543-3.123,1.416-1.463a18.845,18.845,0,0,1,4.291,5.949,10.275,10.275,0,0,0,5.014,4.652c.218,6.776,5.417,7.786,12.787,7.107-6,3.649-13.49,6.742-27.846,5.307,3.156-5.084.224-15.024,4.083-14.808Z" transform="translate(-25 -28.626)"/><path id="path847" class="cls-21" d="M90.924,152.411c-1.507-3.068-3.22-7.442-1.931-16.964a11.4,11.4,0,0,1-3.724-8.689c-1.531.651-2.874.693-6,6.482a9.385,9.385,0,0,1-5.517,4.9c.839,7.971-8.061,7.065-12.344,7.241C72.236,151.5,79.474,151.786,90.924,152.411Z" transform="translate(-25 -28.626)"/><path id="path1067" class="cls-22" d="M113.059,81.935c4.408-10.872,12.423-2.189,5.162-.042C115.462,83.787,113.511,84.412,113.059,81.935Z" transform="translate(-25 -28.626)"/><path id="path1077" class="cls-23" d="M87.269,82.418c-4.408-10.872-12.423-2.19-5.162-.042C84.866,84.269,86.817,84.894,87.269,82.418Z" transform="translate(-25 -28.626)"/><path id="path1081" class="cls-24" d="M98.293,114.433c-1.124-.3-2.482-1.635-.1-3.023a9.351,9.351,0,0,1,5.461.1c.983.076,1.755,1.951-.146,2.634a11.31,11.31,0,0,1-5.218.292Z" transform="translate(-25 -28.626)"/><path id="path1127" class="cls-25" d="M109.977,111.137c-4.934,1.363-1.033,4.828.5,4.334,3.525-.45,4.634-5.616,7.446-6.918l-1.219-2c-2.108,1.652-3,4.432-6.729,4.583Z" transform="translate(-25 -28.626)"/><path id="path1137" class="cls-26" d="M90.31,111.367c4.934,1.363,1.033,4.828-.5,4.334-3.526-.45-4.635-5.616-7.447-6.918l1.219-2c2.109,1.652,3,4.432,6.729,4.583Z" transform="translate(-25 -28.626)"/><path id="path1151" class="cls-27" d="M118.96,107.346l-1.219-2a28.184,28.184,0,0,0,6.875-10.874c4.857,3.717,4.957,8.3,2.682,13.312-3.169-1.625-6.429-3.6-8.338-.439Z" transform="translate(-25 -28.626)"/><path id="path1155" class="cls-28" d="M82.362,108.783l1.219-2A28.184,28.184,0,0,1,76.706,95.91c-4.857,3.717-4.957,8.3-2.682,13.312C77.193,107.6,80.453,105.622,82.362,108.783Z" transform="translate(-25 -28.626)"/><path id="path1159" class="cls-29" d="M125.8,92.393a9.7,9.7,0,0,1,2.048-4.876c.542-1.051,1.431-1.911,3.023-.195,3.406,4.113,5.709,10.339,3.462,20.382-.289,1.974-1.738,1.629-3.023,1.609a3.653,3.653,0,0,1-1.9-1.024C132.026,94.512,127.085,93.9,125.8,92.393Z" transform="translate(-25 -28.626)"/><path id="path1169" class="cls-30" d="M74.624,93.179A9.716,9.716,0,0,0,72.576,88.3c-.543-1.051-1.431-1.91-3.024-.195-3.406,4.114-5.709,10.339-3.462,20.382.289,1.975,1.738,1.629,3.024,1.61a3.657,3.657,0,0,0,1.9-1.024C68.392,95.3,73.333,94.688,74.624,93.179Z" transform="translate(-25 -28.626)"/><path id="path1173" class="cls-31" d="M135.057,79.9c-.735-2.176-1.754-1.3-1.793-.069-.326,7.121,1.141,11.552,3.379,14.826.874,1.827,2.023,2.87.414,11.792-.491,2.119-1.579,4.078.551,6.9a10.34,10.34,0,0,0,8.138,4.827,34.408,34.408,0,0,1-5.394-4.12c5.291,2.146,7.959.687,10.221-.018-4.15.039-10.7,1.039-11.172-6.758.524-1.6,3.417-2.383.138-5.309a3.923,3.923,0,0,1,.966-3.586c-.116-.506.159-.914-.621-1.586-5.3-5.045-7.171-11.274-4.827-16.9Z" transform="translate(-25 -28.626)"/><path id="path1183" class="cls-32" d="M65.742,79.488c.735-2.176,1.754-1.3,1.793-.069.327,7.121-1.14,11.553-3.379,14.826-.874,1.828-2.023,2.87-.413,11.792.49,2.119,1.579,4.078-.552,6.9a10.337,10.337,0,0,1-8.137,4.827,34.4,34.4,0,0,0,5.393-4.12c-5.29,2.146-7.959.688-10.22-.017,4.15.038,10.7,1.038,11.171-6.758-.523-1.6-3.417-2.384-.138-5.31a3.92,3.92,0,0,0-.965-3.586c.115-.506-.16-.914.62-1.586,5.3-5.045,7.172-11.274,4.827-16.895Z" transform="translate(-25 -28.626)"/><path id="path1187" class="cls-33" d="M126.23,117.966a12.28,12.28,0,0,1,3.1-1.448c-.3-3.062-1.777-4.618-5.38-3.459-3.1.779-4.1,1.879-3.308,3.252C121.373,118.11,123.688,118.163,126.23,117.966Z" transform="translate(-25 -28.626)"/><path id="path1201" class="cls-34" d="M136.884,123.138c.264-1.782,1.465-.514,2.414-.069a25.05,25.05,0,0,0-5.1-4.758c-.758-.288-2.276.276-1.31,1.31,2.294.887,3.124,4.3,4,3.517Z" transform="translate(-25 -28.626)"/><path id="path1215" class="cls-35" d="M132.264,119.1a8.12,8.12,0,0,1-2-2.31,6.348,6.348,0,0,1-.172-1.655c-.053-1.1,1.138-.414,1.138-.414,2.226,1.181,3.624,2.059,4.034,3.069-1.87.07-2.877.5-3,1.31Z" transform="translate(-25 -28.626)"/><path id="path1229" class="cls-36" d="M127.816,128.482a24.9,24.9,0,0,1,3.586-3.31c.888-.365,2.5.165,3.414-.345.569-.637-4.651-6.323-6.379-6.24-.6.425.1,2.826-.31,4.068a16.3,16.3,0,0,1-2.793,3.172Z" transform="translate(-25 -28.626)"/><path id="path1285" class="cls-37" d="M74.728,118.259a12.238,12.238,0,0,0-3.1-1.449c.3-3.062,1.778-4.617,5.38-3.458,3.1.778,4.1,1.878,3.309,3.252C79.585,118.4,77.27,118.455,74.728,118.259Z" transform="translate(-25 -28.626)"/><path id="path1289" class="cls-38" d="M68.379,119.508a8.087,8.087,0,0,0,2-2.31,6.385,6.385,0,0,0,.173-1.655c.053-1.1-1.138-.414-1.138-.414-2.226,1.181-3.625,2.059-4.034,3.069,1.869.07,2.877.5,3,1.31Z" transform="translate(-25 -28.626)"/><path id="path1293" class="cls-39" d="M73.358,128.547a24.731,24.731,0,0,0-3.586-3.31c-.887-.365-2.5.165-3.413-.345-.57-.638,4.651-6.323,6.379-6.241.6.426-.1,2.826.31,4.069a16.333,16.333,0,0,0,2.793,3.172Z" transform="translate(-25 -28.626)"/><path id="path1297" class="cls-40" d="M63.8,123.61c-.264-1.782-1.465-.514-2.414-.069a25.077,25.077,0,0,1,5.1-4.758c.758-.289,2.276.276,1.31,1.31-2.294.887-3.124,4.3-4,3.517Z" transform="translate(-25 -28.626)"/><path id="path901" class="cls-41" d="M111.765,115.012c-2.166,2.47-3.673,7.979-4.4,8.393a21.125,21.125,0,0,0-3.706,3.413c-1.633.651-2.392,1.51-4.887-.085-1.789-1.46-2.4-2.238-5.4-3.161-1.071,0-1.9-5.9-3.557-7.871l-4.1.682a12.1,12.1,0,0,1,4.681,6.242c.573,2.012-.31,2.112-1.17,2.243a11.393,11.393,0,0,1-5.127-.04l1.172,1.93c14.058-2.337,12.13,3.118,12.617,4.9.312,1.442-.207,1.691-1.033.98-2.447-4.212-10.443-1.511-12.3-1.806l.872,1.64c5.725-.841,9.644.531,11.622,3.643.262.467,1.066.886-.309.94L94,137.351c-1.357.513.075,1.537.075,1.537a23.779,23.779,0,0,0,3.54.207,19.919,19.919,0,0,0-.006,3.315c-.922.4-2.243-.32-3.316-.768a.841.841,0,0,0-.682.975c.866.933,2.5,1.211,3.923,1.377l-.069,2.065a6.013,6.013,0,0,0-2.254.166c-.684.476-.9,1.367.069,1.475a5.879,5.879,0,0,1,2.524.476s.506,1.516-.614,2.059c-2.924-.213-6.268,2.176-6.115,4.182a4.244,4.244,0,0,0,1.463,3.9v-2.731a2.976,2.976,0,0,1,3.511-2.81c1.387-.064.62,1.481.182,2.461-3.143,5.71-7.76,10.561-11.92,15.678l5.283.3c1.3-1.662,2.582-3.33,3.9-5.006a13,13,0,0,1,5.8,5.131l1.9.034c1.349-1.7,2.678-4.24,5.016-4.954a48.255,48.255,0,0,0,3.235,4.625l5.228.146c-5.2-4.833-8.21-10.662-10.3-17.233-.269-1.4.3-1.378,1.4-1.331,2.985.469,3.112,2.587,3.734,4.423a5.03,5.03,0,0,0,.683-3.12c-1.259-3.247-4.153-3.672-6.485-4.1l.049-2.975a7.624,7.624,0,0,0,2.779.244c1.209.278,0-1.121,0-1.121a4.006,4.006,0,0,0-2.682-.732v-1.56l3.706.487s1.031-.09,0-.78a31.507,31.507,0,0,0-3.365-.877v-2.39a19.472,19.472,0,0,1,2.975-.048c1.125-.026.821-1.039.1-1.268a15.406,15.406,0,0,0-3.315-.195c1.41-6.434,9.091-8.38,12.14-9.662l-.443-1.251c-2.421-.491-7.079,1.574-9.19,3.454-1.7,1.032-2.518-.212-1.922-1.611.884-1.432,2.057-2.936,4.067-3.046a46.01,46.01,0,0,1,8.147.979c1.078-.616-.7-.512-.8-1.54-1.663-.212-3.321-.419-4.893-.54-1.805-.188-1.041-1.427-.958-2.387a22.775,22.775,0,0,1,4.388-7.607ZM100.816,158c.5-.017,1.035.4,1.671,1.586.869,1.768,1.779,3.52,2.772,5.239a17.528,17.528,0,0,0-4.923,5.239,21.24,21.24,0,0,0-5.709-5.277c1.325-1.659,2.694-3.327,4.154-5.006C99.467,158.973,100.093,158.025,100.816,158Z" transform="translate(-25 -28.626)"/></svg>