<svg id="Layer_1" data-name="Layer 1" xmlns="http://www.w3.org/2000/svg" xmlns:xlink="http://www.w3.org/1999/xlink" viewBox="0 0 183.342 119.154"><defs><style>.cls-1{fill:url(#linear-gradient);}.cls-2{fill:url(#linear-gradient-2);}.cls-3{fill:url(#linear-gradient-3);}.cls-4{fill:#8c2783;}.cls-5{fill:url(#linear-gradient-4);}.cls-6{fill:url(#linear-gradient-5);}.cls-7{fill:url(#linear-gradient-6);}.cls-8{fill:url(#linear-gradient-7);}.cls-9{mask:url(#mask);}.cls-10{fill:url(#radial-gradient);}.cls-11{fill:url(#linear-gradient-8);}.cls-12{fill:url(#radial-gradient-2);}.cls-13{opacity:0.7;fill:url(#radial-gradient-3);}.cls-14{fill:url(#linear-gradient-9);}.cls-15{fill:url(#radial-gradient-4);}.cls-16{fill:url(#radial-gradient-5);}.cls-17{fill:#c263b9;}</style><linearGradient id="linear-gradient" x1="166.786" y1="80.003" x2="231.125" y2="80.003" gradientTransform="translate(-422.802 26.89) scale(2.71 1.141)" gradientUnits="userSpaceOnUse"><stop offset="0" stop-color="#fff"/><stop offset="0.133" stop-color="#fbfbfb"/><stop offset="0.26" stop-color="#f0f0f0"/><stop offset="0.384" stop-color="#ddd"/><stop offset="0.506" stop-color="#c2c2c2"/><stop offset="0.627" stop-color="#9f9f9f"/><stop offset="0.748" stop-color="#747474"/><stop offset="0.868" stop-color="#414141"/><stop offset="0.984" stop-color="#080808"/><stop offset="1"/></linearGradient><linearGradient id="linear-gradient-2" x1="74.451" y1="72.619" x2="97.212" y2="72.619" gradientTransform="translate(1.718 -7.338) rotate(0.251)" gradientUnits="userSpaceOnUse"><stop offset="0" stop-color="#8c2783"/><stop offset="0.555" stop-color="#8e2985"/><stop offset="0.755" stop-color="#94308b"/><stop offset="0.897" stop-color="#9e3b95"/><stop offset="1" stop-color="#ab4aa2"/></linearGradient><linearGradient id="linear-gradient-3" x1="114.983" y1="51.071" x2="130.181" y2="57.33" gradientTransform="translate(1.718 -7.338) rotate(0.251)" gradientUnits="userSpaceOnUse"><stop offset="0.626" stop-color="#8c2783"/><stop offset="0.728" stop-color="#902c87"/><stop offset="0.847" stop-color="#9d3a94"/><stop offset="0.974" stop-color="#b251a9"/><stop offset="1" stop-color="#b757ae"/></linearGradient><linearGradient id="linear-gradient-4" x1="11.548" y1="102.733" x2="154.798" y2="82.549" gradientTransform="translate(1.718 -7.338) rotate(0.251)" gradientUnits="userSpaceOnUse"><stop offset="0" stop-color="#701f69"/><stop offset="0.048" stop-color="#782170"/><stop offset="0.166" stop-color="#83257b"/><stop offset="0.331" stop-color="#8a2681"/><stop offset="0.789" stop-color="#8c2783"/><stop offset="0.915" stop-color="#8e2985"/><stop offset="0.961" stop-color="#94308b"/><stop offset="0.993" stop-color="#9e3b95"/><stop offset="1" stop-color="#a13f98"/></linearGradient><linearGradient id="linear-gradient-5" x1="8.411" y1="97.168" x2="170.751" y2="97.168" gradientTransform="translate(1.718 -7.338) rotate(0.251)" gradientUnits="userSpaceOnUse"><stop offset="0" stop-color="#701f69"/><stop offset="0.041" stop-color="#782170"/><stop offset="0.142" stop-color="#83257b"/><stop offset="0.282" stop-color="#8a2681"/><stop offset="0.674" stop-color="#8c2783"/><stop offset="0.863" stop-color="#8e2985"/><stop offset="0.932" stop-color="#94308b"/><stop offset="0.98" stop-color="#9e3b95"/><stop offset="1" stop-color="#a5439c"/></linearGradient><linearGradient id="linear-gradient-6" x1="11.243" y1="139.368" x2="194.988" y2="96.666" gradientTransform="translate(1.718 -7.338) rotate(0.251)" gradientUnits="userSpaceOnUse"><stop offset="0" stop-color="#701f69"/><stop offset="0.076" stop-color="#83247b"/><stop offset="0.135" stop-color="#8c2783"/><stop offset="0.558" stop-color="#8e2985"/><stop offset="0.71" stop-color="#94308b"/><stop offset="0.819" stop-color="#9e3b95"/><stop offset="0.906" stop-color="#ad4ca4"/><stop offset="0.95" stop-color="#b858af"/><stop offset="0.973" stop-color="#b656ad"/><stop offset="0.982" stop-color="#b04fa7"/><stop offset="0.988" stop-color="#a5439c"/><stop offset="0.993" stop-color="#96328d"/><stop offset="0.995" stop-color="#8c2783"/></linearGradient><linearGradient id="linear-gradient-7" x1="40.049" y1="122.976" x2="195.511" y2="122.152" gradientTransform="translate(1.718 -7.338) rotate(0.251)" gradientUnits="userSpaceOnUse"><stop offset="0" stop-color="#701f69"/><stop offset="0.104" stop-color="#7d2375"/><stop offset="0.245" stop-color="#882680"/><stop offset="0.401" stop-color="#8c2783"/><stop offset="0.619" stop-color="#8e2985"/><stop offset="0.722" stop-color="#95318c"/><stop offset="0.801" stop-color="#a03e97"/><stop offset="0.867" stop-color="#b150a8"/><stop offset="0.89" stop-color="#b858af"/><stop offset="0.923" stop-color="#b555ac"/><stop offset="0.953" stop-color="#ab4aa2"/><stop offset="0.981" stop-color="#9b3892"/><stop offset="1" stop-color="#8c2783"/></linearGradient><mask id="mask" x="16.15" y="21.53" width="183.862" height="112.457" maskUnits="userSpaceOnUse"><g transform="translate(-8.338 -40.421)"><rect class="cls-1" x="29.23" y="89.009" width="174.376" height="58.338" transform="translate(-32.398 44.877) rotate(-19.207)"/></g></mask><radialGradient id="radial-gradient" cx="68.362" cy="102.429" r="63.182" gradientTransform="translate(1.718 -7.338) rotate(0.251)" gradientUnits="userSpaceOnUse"><stop offset="0.432" stop-color="#8c2783" stop-opacity="0"/><stop offset="0.548" stop-color="#8b2782" stop-opacity="0.032"/><stop offset="0.654" stop-color="#882680" stop-opacity="0.131"/><stop offset="0.756" stop-color="#84257b" stop-opacity="0.296"/><stop offset="0.855" stop-color="#7d2375" stop-opacity="0.528"/><stop offset="0.951" stop-color="#75206e" stop-opacity="0.824"/><stop offset="1" stop-color="#701f69"/></radialGradient><linearGradient id="linear-gradient-8" x1="81.353" y1="130.188" x2="187.577" y2="118.739" gradientTransform="translate(1.718 -7.338) rotate(0.251)" gradientUnits="userSpaceOnUse"><stop offset="0" stop-color="#701f69"/><stop offset="0.438" stop-color="#8c2783"/><stop offset="0.535" stop-color="#a03d97"/><stop offset="0.682" stop-color="#b959b0"/><stop offset="0.767" stop-color="#c263b9"/><stop offset="0.84" stop-color="#bf60b6"/><stop offset="0.894" stop-color="#b757ae"/><stop offset="0.942" stop-color="#a947a0"/><stop offset="0.985" stop-color="#94308b"/><stop offset="1" stop-color="#8c2783"/></linearGradient><radialGradient id="radial-gradient-2" cx="140.945" cy="111.453" r="42.149" gradientTransform="translate(1.718 -7.338) rotate(0.251)" gradientUnits="userSpaceOnUse"><stop offset="0.415" stop-color="#8c2783" stop-opacity="0.3"/><stop offset="1" stop-color="#701f69"/></radialGradient><radialGradient id="radial-gradient-3" cx="138.039" cy="149.704" r="44.629" gradientTransform="matrix(1, 0.004, -0.003, 0.765, 1.564, 27.803)" gradientUnits="userSpaceOnUse"><stop offset="0" stop-color="#8c2783" stop-opacity="0"/><stop offset="0.549" stop-color="#701f69"/><stop offset="1" stop-color="#8c2783" stop-opacity="0"/></radialGradient><linearGradient id="linear-gradient-9" x1="74.461" y1="140.134" x2="89.724" y2="140.134" gradientTransform="translate(1.718 -7.338) rotate(0.251)" gradientUnits="userSpaceOnUse"><stop offset="0" stop-color="#701f69"/><stop offset="0.111" stop-color="#8c2783"/><stop offset="1" stop-color="#c263b9"/></linearGradient><radialGradient id="radial-gradient-4" cx="-18.421" cy="-177.396" r="346.014" gradientUnits="userSpaceOnUse"><stop offset="0.711" stop-color="#c263b9"/><stop offset="0.75" stop-color="#c06fbc"/><stop offset="0.821" stop-color="#bc8ec2"/><stop offset="0.914" stop-color="#b6c0cd"/><stop offset="0.938" stop-color="#b4ced0"/></radialGradient><radialGradient id="radial-gradient-5" cx="-18.421" cy="-177.396" r="346.014" gradientUnits="userSpaceOnUse"><stop offset="0.814" stop-color="#c263b9"/><stop offset="0.999" stop-color="#b4ced0"/></radialGradient></defs><title>R-ICO-013593</title><g id="R-ICO-012786"><g id="_3D" data-name="3D"><path class="cls-2" d="M75.937,58.673l22.7.118s.351,13.795-12.489,13.795C74.434,72.586,75.937,58.673,75.937,58.673Z" transform="translate(-8.338 -40.421)"/><path class="cls-3" d="M116.488,44.258l16.383.17s1.5,8.54-9.9,8.49C115.265,52.885,116.488,44.258,116.488,44.258Z" transform="translate(-8.338 -40.421)"/><path class="cls-4" d="M28.064,78.2c36.266-.846,69.616-9.187,100.38-27.958,0,0,8.472,51.444-68.526,59.756C26.809,113.568,28.064,78.2,28.064,78.2Z" transform="translate(-8.338 -40.421)"/><path class="cls-5" d="M10.375,89.834c46.965,1.542,113.871-23.3,144.635-42.076,0,0,7.171,49.379-111.956,71.79C10.328,125.705,10.375,89.834,10.375,89.834Z" transform="translate(-8.338 -40.421)"/><path class="cls-6" d="M9.655,101.427c46.965,1.542,131.563-29.146,162.327-47.917,0,0,11.186,58.409-130.323,73.251C8.54,130.234,9.655,101.427,9.655,101.427Z" transform="translate(-8.338 -40.421)"/><path class="cls-7" d="M8.346,113.9c46.965,1.542,149.013-36.154,179.777-54.925,0,0,7.812,45.714-40.579,73.353-19.9,11.365-54.067,6.6-94.673,14.963C6.649,156.8,8.346,113.9,8.346,113.9Z" transform="translate(-8.338 -40.421)"/><path class="cls-8" d="M36.213,121.054C70.92,103.414,152.386,78.609,191,71.9c0,0,7.981,36.9-30.857,42-53.025,6.962-41.544,39.252-82.663,45.021C30.75,165.471,36.213,121.054,36.213,121.054Z" transform="translate(-8.338 -40.421)"/><g class="cls-9"><path class="cls-10" d="M36.213,121.054C70.92,103.414,152.386,78.609,191,71.9c0,0,7.981,36.9-30.857,42-53.025,6.962-41.544,39.252-82.663,45.021C30.75,165.471,36.213,121.054,36.213,121.054Z" transform="translate(-8.338 -40.421)"/></g><path class="cls-11" d="M78.744,118.679c37.306-17.957,51.172-29.139,106.39-31.447,0,0,5.383,72.515-24.8,47.551-20.818-17.216-34.9-6.6-57.279-1.093C75.1,140.564,78.744,118.679,78.744,118.679Z" transform="translate(-8.338 -40.421)"/><path class="cls-12" d="M78.744,118.679c37.306-17.957,51.172-29.139,106.39-31.447,0,0,5.383,72.515-24.8,47.551-20.818-17.216-34.9-6.6-57.279-1.093C75.1,140.564,78.744,118.679,78.744,118.679Z" transform="translate(-8.338 -40.421)"/><path class="cls-13" d="M78.744,118.679c37.306-17.957,51.172-29.139,106.39-31.447,0,0,5.383,72.515-24.8,47.551-20.818-17.216-34.9-6.6-57.279-1.093C75.1,140.564,78.744,118.679,78.744,118.679Z" transform="translate(-8.338 -40.421)"/><path class="cls-14" d="M75.6,129.57l15.233-.76s.667,8.1-7.682,8.689S75.6,129.57,75.6,129.57Z" transform="translate(-8.338 -40.421)"/></g><g id="FILL"><path class="cls-15" d="M189.937,71.9c-.794-1.92-5.024-2.749-9.448-1.849-16.114,3.276-37.57,9.286-59.366,16.321,26.863-9.028,50.822-17.919,63.009-23.784,3.529-1.7,4.136-4.1,1.349-5.376s-7.9-.924-11.431.774c-7.335,3.53-20.589,8.281-36.71,13.722,14.068-5.707,25.337-11.18,31.839-15.584,2.85-1.931,2.345-4.208-1.132-5.086a16.184,16.184,0,0,0-11.454,1.908c-7.71,5.223-24.256,12.553-44.187,19.757,18.06-7.016,32.544-15.063,40.672-22.72,2.183-2.056.77-4.144-3.16-4.663s-8.884.729-11.068,2.786c-7.37,6.942-22.041,14.69-39.86,21.134,12.149-4.648,21.664-10.476,27.983-17.25,3.432-3.679-4.058-3.922-3.582-4.442.532-.581,7.009.869,8.467-2.089.923-1.872-1.673-3.663-6.349-4.012-4.289-.321-7.376.631-8.187,2.15-1.49,2.79,4.377,3.242,4.139,3.61-.46.712-5.487-.887-8,2a51.823,51.823,0,0,1-16.373,11.92,3.409,3.409,0,0,0,1.046-2.338c0-2.993-4.794-5.419-10.708-5.419s-10.708,2.426-10.708,5.419,4.794,5.419,10.708,5.419a20.582,20.582,0,0,0,3.043-.223L90.433,64q-2,.757-4.121,1.457c-6.6,2.186-32.779,7.523-47.895,8.026-4.452.148-8.579,2.152-9.226,4.259a1.908,1.908,0,0,0,.887,2.186c1.181.854,3.346,1.33,5.995,1.184,19.5-1.076,36.942-3.866,51.57-8.088a286.677,286.677,0,0,1-66.9,12.1c-4.449.247-8.577,2.155-9.22,4.262a1.908,1.908,0,0,0,.888,2.183c1.182.855,3.349,1.331,6,1.184A323.322,323.322,0,0,0,89.026,80.579C64.862,88.156,39.013,94.549,19,96.678c-4.493.478-8.256,2.541-8.406,4.607a2,2,0,0,0,.966,1.766c1.33.962,3.9,1.431,6.9,1.112,13.852-1.473,31.007-4.849,49.59-9.68C48.424,100.751,29.8,106.35,15.59,109.559c-4.382.989-7.122,3.313-6.121,5.189a2.538,2.538,0,0,0,.772.844c1.694,1.226,5.329,1.586,8.976.762,22.118-4.994,56.476-15.093,88.795-25.641-26.82,9.106-52.63,19.255-68.019,27.239-2.923,1.517-3.588,3.5-1.821,4.779a4.832,4.832,0,0,0,1.031.553c2.953,1.186,8.094.723,11.483-1.035,12.762-6.621,33.766-15.022,56.3-22.917-11.642,5.505-20.812,11.972-26.4,17.7-1.248,1.278-1.118,2.542.1,3.426a7.417,7.417,0,0,0,3.49,1.123c4.012.437,8.907-.892,10.935-2.968,6.057-6.2,17.279-12.544,30.788-17.4a157.536,157.536,0,0,1,48.491-9.09c4.4-.117,8.711-1.929,9.627-4.047s-1.907-3.74-6.309-3.623a218.158,218.158,0,0,0-38.6,4.314c16.514-5.075,32.151-9.3,44.254-11.757C187.787,76.107,190.73,73.82,189.937,71.9Z" transform="translate(-8.338 -40.421)"/><path class="cls-16" d="M83.6,126c-3.13-.014-5.588.159-6.881,2.443s1.45,3.579,5.206,3.6,7.058-.977,7.8-2.256S89.834,126.025,83.6,126Z" transform="translate(-8.338 -40.421)"/></g><g id="STROKE"><path class="cls-17" d="M89.81,127.042c-2.1-1.961-6.464-1.764-9.161-1.471-2.314.251-6.647,2.67-4.446,5.509,1.9,2.454,6.529,2.2,9.216,1.7C87.67,132.372,93.083,129.983,89.81,127.042Zm-.643,2.1c-.571,1.652-4.576,1.729-5.9,1.819-1.264.087-6.24.486-6.084-1.74C77.516,124.524,90.225,126.374,89.168,129.142Z" transform="translate(-8.338 -40.421)"/><path class="cls-17" d="M191.042,72.33c0-2.5-3.495-3.36-5.389-3.56a21.3,21.3,0,0,0-6.707.6c-5.425,1.155-10.808,2.5-16.163,3.942-3.418.921-6.824,1.885-10.226,2.862a315.053,315.053,0,0,0,30.061-11.79,23.292,23.292,0,0,0,3.365-1.743c1.829-1.258,3.156-3.7,1.148-5.467-2.043-1.794-5.457-1.782-7.994-1.459-3.039.387-5.59,1.695-8.341,2.937-6.267,2.829-12.735,5.212-19.2,7.544,4.875-2.179,9.739-4.435,14.387-7.069,2.008-1.138,5.621-2.7,5.969-5.218.358-2.59-2.663-3.719-4.688-4.047a17.168,17.168,0,0,0-7.462.579c-2.934.858-5.382,2.806-8,4.324a171.487,171.487,0,0,1-16.306,8.13c6.375-3.349,12.808-7.1,18.107-12.046,1.726-1.611,2.086-4-.135-5.421a10.963,10.963,0,0,0-6.29-1.188,15.99,15.99,0,0,0-7.7,2.23,50.961,50.961,0,0,0-4.127,3.46,93.889,93.889,0,0,1-16.5,10.252,53.414,53.414,0,0,0,7.128-6.2c.869-.894,2.161-1.981,2.427-3.258.321-1.542-1.133-2.38-2.377-2.8,2.265.068,6.7,0,6.849-3.193.143-2.965-4.122-3.943-6.341-4.183-2.773-.3-6.353-.188-8.692,1.547a3.027,3.027,0,0,0-1.361,2.281c-.019,1.354,1.282,2.089,2.4,2.484a8.254,8.254,0,0,0-5.59,1.391c-1.418,1.149-2.673,2.533-4.039,3.747a59.5,59.5,0,0,1-10.806,7.859c1.015-2.962-2.1-5.079-4.432-6.048a18.981,18.981,0,0,0-8.625-1.325c-2.727.205-5.73.963-7.813,2.835a4.211,4.211,0,0,0,.01,6.671c2.476,2.112,6.163,2.712,9.312,2.738a63.2,63.2,0,0,1-6.844,1.85q-5.869,1.346-11.8,2.377-7.938,1.391-15.936,2.365c-3.851.462-7.723.869-11.6,1.062a29.864,29.864,0,0,0-6.136.646c-2.481.648-8.185,3.17-6.042,6.674,1.774,2.9,6.451,2.422,9.3,2.22q10.026-.712,19.985-2.135c-7.773,1.43-15.612,2.51-23.477,3.291-3.5.347-7,.646-10.511.862a33.754,33.754,0,0,0-7.352.885c-2.478.714-7.982,3.394-5.465,6.759,1.916,2.562,6.128,2.234,8.927,2.034,4.144-.3,8.281-.659,12.411-1.118Q45.8,91.007,59.079,88.349a356.51,356.51,0,0,1-39.827,7.3,15.648,15.648,0,0,0-7.662,2.6,4.412,4.412,0,0,0-1.921,2.873,3.313,3.313,0,0,0,2.266,3.193c2.475,1.136,5.322.86,7.938.535q4.738-.59,9.447-1.38c7.658-1.272,15.268-2.825,22.833-4.564-11.313,3.411-22.7,6.645-34.236,9.232-3.025.679-6.7,1.18-8.774,3.727-1.765,2.163-.37,4.366,1.917,5.242a14.952,14.952,0,0,0,8.193.266c8.78-1.83,17.469-4.282,26.091-6.729,10.781-3.06,21.506-6.31,32.2-9.658-7.789,2.892-15.541,5.881-23.185,9.137q-4.957,2.112-9.819,4.45a59.147,59.147,0,0,0-5.71,2.894c-1.362.847-2.841,2.24-2.591,4,.268,1.89,2.336,2.774,3.973,3.143A16.9,16.9,0,0,0,51.2,123.005q10.937-5.532,22.217-10.275c8.66-3.644,17.432-7.007,26.253-10.237a95.479,95.479,0,0,0-17.208,11.518c-1.48,1.284-4.286,3.2-3.617,5.534.889,3.1,5.63,3.254,8.184,3.065,2.935-.217,6.231-1.052,8.461-3.081.915-.832,1.751-1.739,2.684-2.555a74.734,74.734,0,0,1,17.574-11.013A135.952,135.952,0,0,1,156.3,94.509c4.372-.559,8.76-.913,13.158-1.172,4.492-.264,9.279.042,13.229-2.525a4.691,4.691,0,0,0,2.439-3.3c.115-1.6-1.183-2.678-2.531-3.223-2.209-.894-4.615-.715-6.941-.6-7.372.351-14.737,1.04-22.047,2.053q-2.654.368-5.3.807c6.759-1.947,13.555-3.767,20.4-5.4q4.909-1.171,9.848-2.209c2.076-.437,4.211-.75,6.263-1.3C187.227,76.994,191.184,75.393,191.042,72.33ZM123.748,47.876h0Zm65.224,25.08c-.68,1.474-2.789,2.251-4.219,2.7-1.032.327-2.1.54-3.151.774-3.26.723-6.5,1.522-9.734,2.367-7.6,1.985-15.146,4.149-22.67,6.394q-2.827.843-5.649,1.7-1.323.4-2.645.807a6.923,6.923,0,0,0-2.056.652c-.577.487.02.9.538.847,1.9-.182,3.828-.745,5.713-1.064q2.865-.485,5.744-.88,5.895-.812,11.828-1.279c3.969-.31,7.944-.5,11.924-.607,2.359-.061,5-.347,7.222.573.553.229,1.411.644,1.414,1.349,0,.741-.868,1.378-1.41,1.749a12.485,12.485,0,0,1-4.773,1.786,45.127,45.127,0,0,1-6.092.423,147.978,147.978,0,0,0-31.017,5.092c-13.63,3.617-27.45,8.571-39.2,16.519a43.073,43.073,0,0,0-5.49,4.34,12.37,12.37,0,0,1-6.9,3.253,13.712,13.712,0,0,1-5.519-.141c-1.2-.316-2.789-1.068-1.731-2.433a40.045,40.045,0,0,1,6.533-6.015,96.66,96.66,0,0,1,18.634-11.648c.327-.16,1.468-.447,1.16-1.1-.253-.532-.949-.13-1.3-.009q-5.584,1.931-11.138,3.947c-14.57,5.287-29.29,10.688-43.176,17.613-3.259,1.625-6.636,2.675-10.327,2.177-.929-.125-3.461-.556-3.272-1.926.156-1.127,1.807-1.865,2.69-2.312,6.491-3.286,13.107-6.3,19.781-9.2,14.435-6.258,29.131-11.891,43.994-17.045.508-.176,4.552-1.144,3.677-2-.356-.348-1.035.052-1.38.163q-1.5.482-3.006.961Q98.4,93.272,92.815,95.01q-11.345,3.533-22.753,6.856-14.972,4.337-30.047,8.3c-5.139,1.342-10.284,2.656-15.449,3.9-3.5.84-7.195,2.063-10.808,1.658-1.035-.116-4.134-.636-3.382-2.286.664-1.458,2.823-2.235,4.217-2.681,2.1-.671,4.3-1.082,6.43-1.633,15.295-3.96,30.351-8.827,45.4-13.617.058-.018,3.195-.795,1.8-1.476-.2-.1-.486.03-.658.072-.956.234-1.908.485-2.863.723q-2.866.714-5.74,1.39c-7.662,1.8-15.37,3.417-23.131,4.734q-5.814.987-11.666,1.722-2.791.348-5.592.617a12.5,12.5,0,0,1-5.36-.424c-.573-.206-1.411-.544-1.627-1.175-.23-.672.435-1.316.905-1.7a11.436,11.436,0,0,1,4.967-2.077c3.11-.621,6.332-.78,9.469-1.248,15.566-2.321,30.851-6.354,45.956-10.711q5.686-1.64,11.343-3.377,1.414-.434,2.827-.873a8.252,8.252,0,0,0,2.2-.7.494.494,0,0,0-.173-.911c-.438-.1-1.192.3-1.608.415-6.538,1.827-13.134,3.411-19.766,4.856a307.687,307.687,0,0,1-39.654,5.774,102.01,102.01,0,0,1-10.9.654c-1.268-.031-3.9-.159-4.6-1.476-.68-1.268,1.778-2.486,2.629-2.873,2.536-1.152,5.253-1.31,7.985-1.5A276.833,276.833,0,0,0,67.1,79.073q5.758-1.34,11.46-2.906,2.85-.783,5.685-1.619,1.329-.391,2.655-.793c.3-.09.894-.133,1.117-.425a.5.5,0,0,0,.005-.609C87.7,72.308,87,72.7,86.639,72.8q-5.576,1.545-11.246,2.72a252.02,252.02,0,0,1-38.722,4.623,11.232,11.232,0,0,1-5.463-.687c-.61-.3-1.281-.751-1.041-1.5a3.621,3.621,0,0,1,1.6-1.605,15.293,15.293,0,0,1,7.425-1.916,172.1,172.1,0,0,0,20.349-2.546c7.681-1.36,15.366-2.871,22.922-4.818,1.532-.395,3.061-.818,4.554-1.342.737-.259,1.472-.522,2.208-.784.418-.148,1.77-.378,1.722-1-.06-.772-1.527-.324-2-.3a19.76,19.76,0,0,1-3.083-.054,15.34,15.34,0,0,1-5.235-1.355c-1.318-.637-3.184-1.825-3.042-3.523.131-1.557,1.907-2.542,3.177-3.088a19.669,19.669,0,0,1,10.915-1.053,9.75,9.75,0,0,1,4.787,2.041,3.159,3.159,0,0,1,1.154,2.033c.075.983-.515,1.361-.887,2.142-.179.376-.133.787.377.819.535.034,1.367-.616,1.828-.841q1.311-.64,2.594-1.334a46.358,46.358,0,0,0,9.362-6.206,28.677,28.677,0,0,0,3.115-3.381,5.146,5.146,0,0,1,3.6-1.857,20.935,20.935,0,0,1,2.531-.086c.482,0,1.43.1,1.723-.435.422-.765-.717-.974-1.193-1.117-.964-.29-3.782-1.014-2.758-2.523.878-1.293,3.06-1.448,4.46-1.509,1.26-.055,9.859.272,8.709,2.91-.632,1.451-2.978,1.578-4.3,1.643-.986.049-2.046-.088-3.025.059-.463.07-1.132.34-.793.949.324.583,1.888.737,2.435.927a3.35,3.35,0,0,1,1.755,1.014c.425.7-.326,1.432-.791,1.894a45.338,45.338,0,0,1-4.224,3.7,90.687,90.687,0,0,1-8.179,5.55,95.252,95.252,0,0,1-13.845,7.3c-.342.139-2.13.562-1.493,1.286.38.432,1.175-.092,1.541-.225q5.392-1.954,10.685-4.168A139.381,139.381,0,0,0,130.92,55.081c1.287-.808,2.57-1.625,3.807-2.509s2.459-1.8,3.61-2.8a15.084,15.084,0,0,1,2.355-1.848,14.564,14.564,0,0,1,10.261-1.387c1.229.331,2.828,1.1,1.675,2.456a15.625,15.625,0,0,1-1.456,1.372,78.82,78.82,0,0,1-10.322,7.686,145.275,145.275,0,0,1-19.84,10.537q-2.576,1.144-5.184,2.214-1.3.536-2.613,1.055c-.323.128-.987.217-1.2.55a.5.5,0,0,0,.025.61c.385.436,1.205-.106,1.571-.238,7.418-2.675,14.8-5.46,22.083-8.479,6.824-2.827,13.835-5.728,20.1-9.683a16.8,16.8,0,0,1,7.452-2.824,12.044,12.044,0,0,1,5.225.41c.6.212,1.547.6,1.588,1.353s-.86,1.415-1.385,1.8A98.318,98.318,0,0,1,154,63.74c-3.425,1.693-6.9,3.284-10.4,4.8q-2.548,1.106-5.115,2.166c-.4.164-1.57.336-1.626.953a.494.494,0,0,0,.455.527c.435.075,1.181-.358,1.589-.5l2.811-.943c3.748-1.259,7.493-2.527,11.227-3.827s7.463-2.636,11.168-4.028c3.624-1.362,7.151-2.909,10.724-4.392,2.975-1.235,7.431-1.95,10.42-.377,2.754,1.45-1.076,3.362-2.524,4.035-5.131,2.384-10.373,4.538-15.625,6.64-14.661,5.869-29.426,11.429-44.379,16.513-.482.164-1.984.288-2.079.992a.493.493,0,0,0,.331.524c.2.083.481-.059.649-.111.939-.287,1.872-.6,2.809-.89q2.811-.883,5.629-1.741,11.272-3.434,22.652-6.49c7.168-1.911,14.382-3.684,21.634-5.247,2.347-.506,4.7-1.095,7.078-1.467a14.285,14.285,0,0,1,4.912.012C187.309,71.089,189.414,71.589,188.972,72.956Z" transform="translate(-8.338 -40.421)"/></g></g></svg>