<svg id="Layer_1" data-name="Layer 1" xmlns="http://www.w3.org/2000/svg" viewBox="0 0 93.507 41.311"><defs><style>.cls-1{fill:#a87a29;}.cls-2{fill:#705c09;}</style></defs><title>R-ICO-014178</title><g id="R-ICO-014178"><path class="cls-1" d="M132.358,117.626c-1.379,0-2.237-1.436-3.476-1.865a10.667,10.667,0,0,1-2-.668c-.77-.429-1.153-.916-2.1-.966-1.523-.08-2.939,1.532-4.459.785-1.189-.585-1.244-2.348-2.445-2.908-1.578-.734-2.171.837-3.334,1.423-1.561.787-2.949-.308-4.508-.3-1.905,0-2,1.636-3.565,2.125-1.871.582-2.137-1.33-3.394-2.051-1.366-.783-2.67.163-4.006.459-.947.211-1.439.114-2.212.751-.538.444-.735,1.27-1.363,1.634-1.519.881-2.124-.234-3.079-1.178-1.207-1.194-2.452-1.15-4.124-1.292a12.08,12.08,0,0,0-4.792.74c-1.463.461-1.659,1-2.3,2.445-.439.989-.81,2.508-2.154,2.372-1.463-.148-1.612-2.218-2.806-2.8-2.514-1.221-4.484,3.037-5.96-.812-.615-1.605-.98-6.218-3.43-4.259-.852.681-1.143,2.227-2.293,2.551a12.317,12.317,0,0,1-4.543-.342c-2.07-1.46,2.291-4.235,1.146-6.052-.945-1.5-5.975-.507-6.318-2.418-.388-2.166,5.054-1.354,4.773-3.651-.153-1.251-2.019-1.326-2.749-2.067-.5-.505-.4-.8-.676-1.415-.309-.673-.912-1.321-1.161-2.007-.934-2.573,4.053-2.185,5.638-2.648,2.809-.82.514-2.91-.639-4.534-.352-.5-1.748-2.019-1.569-2.728.313-1.238,2.207-.513,3.11-.338,1.516.292,2.356.6,3.5-.555.952-.966,1.543-3,3.162-2.864,1.212.1,2.033,1.661,3.161,2.094a18.61,18.61,0,0,1,2,.681c.738.375,1.3,1.213,2.276.944,2.313-.636,1.389-4.471,4.015-5.082,1.287-.3,3.441-.514,4.63.07.579.285.961.862,1.563,1.127.867.383,1.446.164,2.181.811.881.775,1.059,1.943,2.111,2.6.573.359,1.025.129,1.6.653a8.2,8.2,0,0,1,1.009,1.728c1.823,2.8,2.77.3,3.262-1.77.284-1.192.585-5.87,2.349-5.786,2.13.1,1.342,4.895,3.456,5.244s3.192-5.474,5.131-1.985c.625,1.125.937,5.945,2.867,5.574,1.561-.3,1.826-5.148,2.34-6.316.56-1.275.866-1.534,2.31-1.309,1.042.163,2.756.368,3.533,1.041,1.092.946,1.191,6,3.337,5.188,1.913-.725,1.212-4.977,2.56-6.289,1.913-1.862,2.5,2.54,2.8,3.775.22.908.354,2.434,1,3.163,1.046,1.183,1.788.317,2.942-.353,1.2-.694,2.643-1.222,3.918-1.826,1.939-.918,3.474.361,5.218,1.272s6.035.642,5.247,3.364a28.8,28.8,0,0,1-1.977,3.876c-.706,1.471-1.529,1.324-2.729,2.344-2.768,2.351,2.5,2.605,3.58,3.773.428.465.226.828.51,1.3.374.625.9.879,1.322,1.433,1.037,1.375.528,1.937-.824,2.691-1.062.592-2.664.838-3.544,1.706-1.334,1.314-.658,3.5-2.4,4.655-1.363.907-2.858.673-3.952,2C134.364,115.405,133.643,117.626,132.358,117.626Z" transform="translate(-53.247 -79.344)"/><path class="cls-2" d="M132.358,117.776c-1.38,0-1.957-1.257-3.1-1.767-.549-.245-1.209-.085-1.783-.321-.485-.2-.809-.651-1.268-.874-2.534-1.231-4.925,1.914-6.992-.57-1.017-1.223-1.28-2.615-3.121-1.629-1.269.68-1.4,1.587-3.113,1.6-1.064.009-2.171-.7-3.224-.507-1.45.26-1.824,1.881-3.249,2.275-1.826.5-2.276-.887-3.481-1.677-1.077-.707-1.412-.462-2.554-.108a8.794,8.794,0,0,0-2.878.979c-1.179.883-1.1,2.189-2.948,2.345-2.138.181-2.752-2.076-4.525-2.459a11.3,11.3,0,0,0-3.482-.184,21.287,21.287,0,0,0-3.432.879c-.682.088-1.521,4.288-3.21,4.783a2.941,2.941,0,0,1-2.753-.646c-.512-.416-.9-1.6-1.432-1.887-1.32-.707-2.512,1.114-4.192.911-3.555-.43-2.438-4.881-4.21-6.883a.845.845,0,0,0,.776.15c-.992.878-1.431,2.414-2.714,2.981-.973.43-2.541.076-3.611.074-1.57,0-3.492-.161-3.957-1.977s1.2-3.8,1.875-5.345c-.065.2.186.565.329.659-1.849-1.212-5.387-.467-6.56-2.733-1.537-2.97,3.121-3.841,4.75-4.665-.142.042-.1.471-.076.525-.589-1.071-2.506-1.078-3.146-2.429-.205-.433-.11-.942-.3-1.351-.342-.733-.985-1.153-1.22-1.988-1.275-4.535,5.667-2.682,7.576-4.242a.864.864,0,0,0-.27.654c-.388-2.114-5.112-5.231-3.232-7.55,1.609-1.984,4.305.6,6.1.017.855-.279,1.567-1.972,2.189-2.583,1.7-1.673,2.952-.993,4.549.321a24.5,24.5,0,0,0,3.734,1.975c1.06.6,1.026.739,1.792.1,1.213-1.007.826-3.232,2.355-4.153.987-.594,2.747-.511,3.872-.527,1.927-.026,2.605.922,4.2,1.683.829.394,1.448.294,2.148,1.016.588.606.761,1.629,1.46,2.139,1.18.862,1.925.741,2.838,2.2.855,1.366,1.29,2.439,2.223.691.727-1.363,1.185-10.074,4.292-7.359,1.112.972.953,3.977,2.293,4.554,1.271.546,1.773-1.667,2.481-2.3,3.707-3.32,5.213,5.893,5.375,5.77,1.069-.359,1.376-5.069,1.824-6.107.92-2.13,2.181-1.959,4.146-1.56a8.233,8.233,0,0,1,2.994.759c1.591,1.157,1.5,3.7,2.629,5.185-.043-.109-.48.04-.437.031-.279-.386,1.877-5.748,2.253-6.177,3.977-4.53,5.017,5.895,5.988,7.281a1.527,1.527,0,0,0-.378-.087c1.123-.194,2.17-1.21,3.308-1.6a8.51,8.51,0,0,0,1.609-.682c2.787-1.565,4.271-.336,6.949,1.036,1.673.857,5.439.859,5.856,3.143.3,1.63-1.381,3.1-2.013,4.444-.437.929-.515,1.854-1.349,2.556-.412.348-2.774.956-2.737,1.7.041.824,3.015,1.347,3.588,1.777,1,.749,1.14,1.741,1.805,2.734.739,1.1,1.74,1.689.779,2.991-.975,1.322-3.318,1.222-4.54,2.229-1.311,1.079-.84,2.877-1.949,4.137-1.131,1.286-3.06,1.011-4.3,2.066C134.522,115.089,134.01,117.707,132.358,117.776Zm0-.3c1.559-.059,2.611-3.456,4.055-4.17.941-.465,2.065-.436,2.866-1.2.9-.857.8-1.905,1.161-2.994.736-2.216,3.042-2.085,4.681-3.407,1.354-1.092.658-1.2-.4-2.415-1.281-1.471-.672-1.962-2.632-2.7-1.513-.571-4.347-1.333-2.92-3.5.789-1.2,2.373-1.308,3.042-2.532.536-.979,2.061-3.48,2.064-4.644a.1.1,0,0,0,.037.09,16.049,16.049,0,0,1-5.185-1.593c-1.092-.581-2.4-.884-3.459-1.49a20.273,20.273,0,0,1-1.659,1.219,17.649,17.649,0,0,1-1.837.521c-.7.277-1.161.864-1.838,1.212-1.862.956-3.337.216-4.151-1.649-.612-1.4-.556-5.281-1.82-6.179.137.182.589.121.708.034-1.315,1.332-1.037,4.142-2.111,5.691-3.269,4.712-4.731-3.14-5.871-4.643,0,0,.1.021.087,0-1.312-.037-2.468-.738-3.763-.76-1.523.436-.9,6.373-3.071,7.385-3.509,1.634-2.7-5.545-4.24-6.472-1.87-1.127-3.093,5.472-5.733,1.538-.435-.649-1.006-4.058-2.081-4.085-.977-.025-1.39,3.5-1.537,4.17-.272,1.229-.519,4.245-1.982,4.686-2.018.607-2.259-2.189-3.312-3.1-1.1-.949-2.121-.889-3.088-2.22-1.048-1.442-1.668-1.177-3.176-1.969a5.424,5.424,0,0,0-3.935-.94c-.9.088-1.76-.051-2.4.544-1.081,1.008-.826,3.077-1.935,4.154-1.264,1.228-2.5.479-3.825-.213a27.177,27.177,0,0,1-4.04-2.009c-1.165-.839-1.127-.819-2.047.347-1,1.268-1.579,2.692-3.342,2.886-.5.055-4.057-.219-4.382-.6.2-.019.45-.556.364-.671,1.118,1.5,4.23,4.872,3.761,6.833-.689,2.874-5.48,1.851-7.534,2.94.167-.025.3-.6.292-.685.258,1.121,1.163,2.109,1.49,3.323a.813.813,0,0,0-.026-.146c1.422,1.272,4.537,1.886,3.187,4.578-.447.893-3.727,2.947-4.637,2.642.265-.223.128-.925-.152-1.105,1.8,1.443,5.458.277,6.649,2.754.841,1.749-.86,4.332-1.654,5.806.037-.157-.2-.775-.407-.747,1.277.016,2.969-.264,4.178.278a.864.864,0,0,0-.8.063c1.346-1.532,2.629-4.28,5.12-2.971,2.513,1.322,1.32,4.913,3.054,6.568a.809.809,0,0,0-.435-.149c1.89.03,3.087-1.9,5.178-.846a6.971,6.971,0,0,1,2.383,2.724.305.305,0,0,0-.222.053c1.267-2,1.385-4.094,3.976-4.8a15.839,15.839,0,0,1,7.778-.406c1.693.375,1.706,1.219,2.931,2.125,1.449,1.072,1.392-.287,2.6-1.217,1.595-1.232,5.812-1.842,7.389-.733s1.437,2.753,3.481,1.084a3.848,3.848,0,0,1,3.87-1.08c1.161.223,2.089.821,3.286.282,1.685-.759,2.244-2.421,4.21-.8,1.234,1.021.972,2.616,2.863,2.625,1.4.006,2.406-1.191,3.918-.814a34.7,34.7,0,0,1,3.365,1.565C129.926,116,131.1,117.457,132.358,117.476Z" transform="translate(-53.247 -79.344)"/></g></svg>