<svg id="Layer_1" data-name="Layer 1" xmlns="http://www.w3.org/2000/svg" xmlns:xlink="http://www.w3.org/1999/xlink" viewBox="0 0 150 133.785"><defs><style>.cls-1{fill:url(#linear-gradient);}.cls-2{fill:url(#linear-gradient-2);}.cls-3{fill:url(#linear-gradient-3);}.cls-4{fill:#fadecd;}.cls-5{fill:url(#linear-gradient-4);}.cls-6{opacity:0.3;}.cls-7{isolation:isolate;}.cls-8{fill:url(#radial-gradient);}.cls-9{fill:#5656a5;}.cls-10{fill:url(#radial-gradient-2);}.cls-11{fill:#4b4b96;}.cls-12{fill:url(#linear-gradient-5);}.cls-13{fill:#ad342d;}.cls-14{fill:url(#radial-gradient-3);}</style><linearGradient id="linear-gradient" x1="96.295" y1="165.508" x2="96.295" y2="34.074" gradientTransform="translate(11.609 -0.523)" gradientUnits="userSpaceOnUse"><stop offset="0.044" stop-color="#bf7041"/><stop offset="0.759" stop-color="#fabd96"/><stop offset="0.811" stop-color="#f7b992"/><stop offset="0.864" stop-color="#efae86"/><stop offset="0.916" stop-color="#e19c71"/><stop offset="0.969" stop-color="#cd8255"/><stop offset="1" stop-color="#bf7041"/></linearGradient><linearGradient id="linear-gradient-2" x1="92.006" y1="165.508" x2="92.006" y2="41.26" xlink:href="#linear-gradient"/><linearGradient id="linear-gradient-3" x1="85.47" y1="170.642" x2="85.47" y2="46.394" xlink:href="#linear-gradient"/><linearGradient id="linear-gradient-4" x1="80.547" y1="167.025" x2="80.547" y2="46.013" xlink:href="#linear-gradient"/><radialGradient id="radial-gradient" cx="-382.078" cy="1146.699" r="28.518" gradientTransform="translate(124.751 -1105.211) rotate(-15.515)" gradientUnits="userSpaceOnUse"><stop offset="0" stop-color="#afbaf7"/><stop offset="0.311" stop-color="#6d96ce"/><stop offset="0.803" stop-color="#285fcc"/></radialGradient><radialGradient id="radial-gradient-2" cx="-387.456" cy="1155.627" r="5.5" gradientTransform="translate(129.874 -1098.518) rotate(-15.515)" gradientUnits="userSpaceOnUse"><stop offset="0" stop-color="#afbaf7"/><stop offset="0.312" stop-color="#b898ce"/><stop offset="0.803" stop-color="#515181"/></radialGradient><linearGradient id="linear-gradient-5" x1="419.629" y1="580.207" x2="387.086" y2="586.662" gradientTransform="matrix(-0.909, -0.418, 0.418, -0.909, 233.82, 832.09)" gradientUnits="userSpaceOnUse"><stop offset="0" stop-color="#d86e66"/><stop offset="1" stop-color="#a33029"/></linearGradient><radialGradient id="radial-gradient-3" cx="-1337.382" cy="275.555" r="14.685" gradientTransform="matrix(0.754, 0.657, 1.279, -1.467, 756.91, 1418.738)" gradientUnits="userSpaceOnUse"><stop offset="0.782" stop-color="#fff" stop-opacity="0"/><stop offset="0.852" stop-color="#ffba94"/><stop offset="0.9" stop-color="#fff" stop-opacity="0"/></radialGradient></defs><title>ENTEROCYTE</title><g id="ENTEROCYTE"><path id="BASE" class="cls-1" d="M145.248,165.559c3.553,0,10.3-.264,14.576-4.238,4.1-3.811,6.129-6.067,7.437-7.1a70.956,70.956,0,0,0,5.694-4.88c2.047-1.994,2.044-4.7,2.02-7.384l-.023-.955c-.014-.651-.028-1.3-.066-1.94-.074-1.83-.166-3.78-.373-5.755.207-2.954.3-5.945.373-8.52.051-1.845.068-3.689.082-5.534q.013-1.517.032-3.034V116.2q-.019-1.453-.029-2.906c-.015-1.887-.032-3.774-.083-5.662-.075-2.714-.167-5.607-.374-8.53.207-2.589.3-5.209.373-7.465.051-1.615.066-3.231.082-4.847.009-.884.018-1.769.032-2.679q-.019-1.271-.029-2.542c-.015-1.653-.032-3.305-.083-4.958-.075-2.367-.166-4.888-.371-7.438.2-1.463.3-2.934.369-4.2.088-1.387.1-2.755.115-4.284a8.783,8.783,0,0,0-1.4-4.668,11.038,11.038,0,0,0-3.726-3.575,10.985,10.985,0,0,0-3.068-2.025,14.256,14.256,0,0,0-1.947-.717,1.078,1.078,0,0,1-.55-.329c-.1-.11-.165-.212-.156-.61l-.024-.49c-.014-.324-.029-.649-.057-.953a23.156,23.156,0,0,0-.37-2.837c.181-1.191.305-2.393.368-3.561.032-.419.046-.839.061-1.258l.022-.576a5.029,5.029,0,0,0-.414-2.31,6.325,6.325,0,0,0-4.227-3.328,7.713,7.713,0,0,0-5.687.672,5.362,5.362,0,0,0-3.462,3.411,5.185,5.185,0,0,0-.185,1.49c0,.167-.006.332-.023.552l-.027,1.783a46.6,46.6,0,0,0,.475,7.031,1.034,1.034,0,0,1-.516.615,1.688,1.688,0,0,1-1.067.146,1.629,1.629,0,0,0-.2,0A1.223,1.223,0,0,1,148,48.92a.636.636,0,0,1-.263-.569,47.154,47.154,0,0,0-.475-7.073,17.434,17.434,0,0,0,.363-2.378,4.578,4.578,0,0,0-.928-3.128,6.322,6.322,0,0,0-3.06-2.125,7.011,7.011,0,0,0-2.123-.368,10.906,10.906,0,0,0-1.639.17l-.129.022a7.558,7.558,0,0,0-3.481,1.072,5.566,5.566,0,0,0-2.2,2.525,4.361,4.361,0,0,0-.318,1.544l-.061,3.578c.011,1.547.023,3.148.115,4.77l.069,1.212a1.123,1.123,0,0,1-.073.68,1.224,1.224,0,0,1-.938.586c-.1-.01-.211-.017-.315-.025a3.577,3.577,0,0,1-.6-.073,1.189,1.189,0,0,1-.507-.271.824.824,0,0,1-.262-.384,1.64,1.64,0,0,1,0-.479l.013-.2c.091-1.449.1-2.912.116-4.34-.011-1.4-.023-2.854-.114-4.3a5.388,5.388,0,0,0-.591-2.568,5.694,5.694,0,0,0-1.984-2.037,6.472,6.472,0,0,0-4.072-1.623,7.856,7.856,0,0,0-4.62,1.1,5.113,5.113,0,0,0-2.437,3.312,7.437,7.437,0,0,0,.16,2.551l.017.953a54.392,54.392,0,0,0-.412,6.974v.172a1.58,1.58,0,0,1-.024.411.643.643,0,0,1-.183.279,1.122,1.122,0,0,1-.77.27l-.356.014a3.861,3.861,0,0,1-.536,0,1.377,1.377,0,0,1-.483-.154,1,1,0,0,1-.506-.608,34.632,34.632,0,0,0,.472-5.99c-.009-.967-.028-2.007-.11-3.055l-.011-.161a5.367,5.367,0,0,0-.3-1.622,4.812,4.812,0,0,0-1.04-1.612,6.216,6.216,0,0,0-3.237-2.4,8.463,8.463,0,0,0-4.7-.106,6.708,6.708,0,0,0-3.714,2.382,4.592,4.592,0,0,0-.831,1.823,5.993,5.993,0,0,0-.109,1.329l0,.343c.011,1.876.023,3.816.115,5.781l.142,2.947a1.394,1.394,0,0,1-.057.833,1.212,1.212,0,0,1-.525.471,4.012,4.012,0,0,1-.858,0l-.364-.019a1.238,1.238,0,0,1-.719-.29.774.774,0,0,1-.292-.471l.059-1.473c.091-2.009.1-4.044.116-6.022l-.014-1.88a6.156,6.156,0,0,0-.1-1.325,5.47,5.47,0,0,0-2.357-3.363,7.8,7.8,0,0,0-4.656-1.291,7.426,7.426,0,0,0-4.255,1.487A5.452,5.452,0,0,0,85.11,36.6a4.794,4.794,0,0,0-.611,2.384c-.091,1.334-.1,2.677-.116,3.991.011,1.289.023,2.622.114,3.948.008.241.029.493.051.745a6.346,6.346,0,0,1,.037,1.046.952.952,0,0,1-.472.61,3.75,3.75,0,0,1-.726-.058,2.874,2.874,0,0,1-.78-.128.9.9,0,0,1-.6-.627,2.238,2.238,0,0,1-.024-.444c0-.136,0-.275-.013-.421l-.024-.358c-.014-.249-.029-.5-.059-.719a13.322,13.322,0,0,0-.355-2.074A21.876,21.876,0,0,0,82,39.783l-.034-1.243a4.275,4.275,0,0,0-.414-1.505,5.133,5.133,0,0,0-2.281-2.313,7.6,7.6,0,0,0-10.293.962A4.7,4.7,0,0,0,68.01,38a11.716,11.716,0,0,0,.022,1.531l.023.394a35.631,35.631,0,0,0,.374,3.549c-.185,1.557-.281,3.094-.366,4.9a.809.809,0,0,1-.655.67,3.169,3.169,0,0,1-.668.028l-.269,0a1.04,1.04,0,0,1-.537-.115.761.761,0,0,1-.326-.3,1.464,1.464,0,0,1-.07-.673l-.024-.819c-.013-.563-.028-1.126-.065-1.673-.07-1.488-.162-3.216-.371-4.945l.02-.269c.042-.547.084-1.092.1-1.659a4.62,4.62,0,0,0-.645-2.386A6.761,6.761,0,0,0,59.637,33.2a8.03,8.03,0,0,0-6.078,1.517,5.361,5.361,0,0,0-1.7,2.185,5.616,5.616,0,0,0-.35,2.273v.107c.014.9.022,1.8.031,2.695.015,1.7.032,3.406.083,5.112l.069,1.977a.789.789,0,0,1-.438.684,2.741,2.741,0,0,1-.694.266c-.425.139-.844.292-1.241.458a13.778,13.778,0,0,0-2.238,1.169,12.841,12.841,0,0,0-4.465,3.782,9.613,9.613,0,0,0-1.808,5.083v84.508c0,5.229-.178,19.569,6.479,19.569l92.127,1.166Z" transform="translate(-25 -33.107)"/><path id="INTERMEDIUM" class="cls-2" d="M165.754,64.6c0-2.691-2.194-5.087-3.728-5.992a10.95,10.95,0,0,0-3.068-2.026,14.291,14.291,0,0,0-1.945-.717,1.069,1.069,0,0,1-.55-.33c-.1-.109-.165-.212-.157-.607l-.022-.458c-.015-.337-.031-.674-.06-.987a23.121,23.121,0,0,0-.369-2.837c.183-1.2.305-2.4.366-3.559.032-.42.047-.84.061-1.259l.022-.576a5.008,5.008,0,0,0-.412-2.309,6.32,6.32,0,0,0-4.227-3.328,7.7,7.7,0,0,0-5.688.672,5.365,5.365,0,0,0-3.462,3.412,5.2,5.2,0,0,0-.184,1.487c0,.168-.006.334-.023.554l-.027,1.783a46.6,46.6,0,0,0,.475,7.031,1.036,1.036,0,0,1-.516.615,1.7,1.7,0,0,1-1.068.146,1.637,1.637,0,0,0-.2,0,1.178,1.178,0,0,1-.814-.231.636.636,0,0,1-.263-.569,46.978,46.978,0,0,0-.474-7.073,17.209,17.209,0,0,0,.361-2.377,4.566,4.566,0,0,0-.928-3.129,6.332,6.332,0,0,0-3.061-2.127,7.047,7.047,0,0,0-2.12-.366,9.853,9.853,0,0,0-1.637.17l-.133.022a7.544,7.544,0,0,0-3.479,1.072,5.552,5.552,0,0,0-2.2,2.523,4.279,4.279,0,0,0-.319,1.546l-.061,3.578c.011,1.547.023,3.147.114,4.771l.07,1.209a1.145,1.145,0,0,1-.073.683,1.225,1.225,0,0,1-.938.586c-.1-.01-.211-.017-.315-.025a3.577,3.577,0,0,1-.6-.073,1.189,1.189,0,0,1-.507-.271.829.829,0,0,1-.262-.381,1.722,1.722,0,0,1,0-.49l.013-.2c.092-1.474.1-2.925.115-4.34-.009-1.327-.02-2.831-.112-4.3a5.4,5.4,0,0,0-.592-2.566,5.681,5.681,0,0,0-1.983-2.038,6.472,6.472,0,0,0-4.072-1.623,7.849,7.849,0,0,0-4.621,1.1,5.107,5.107,0,0,0-2.436,3.312,7.373,7.373,0,0,0,.156,2.527c.031.167.061.334.089.5a52.048,52.048,0,0,0-.48,7.444v.185a1.6,1.6,0,0,1-.024.4.663.663,0,0,1-.185.28,1.115,1.115,0,0,1-.767.269l-.357.014a4.2,4.2,0,0,1-.536,0,1.361,1.361,0,0,1-.481-.154,1,1,0,0,1-.506-.608,34.424,34.424,0,0,0,.471-5.989c-.006-.9-.026-1.975-.11-3.056l-.011-.168a5.34,5.34,0,0,0-.3-1.617,4.837,4.837,0,0,0-1.039-1.607,6.2,6.2,0,0,0-3.239-2.4,8.468,8.468,0,0,0-4.7-.106A6.7,6.7,0,0,0,93.917,42a4.6,4.6,0,0,0-.831,1.823,6.032,6.032,0,0,0-.109,1.342l0,.33c.011,1.876.023,3.816.114,5.781l.143,2.953a1.369,1.369,0,0,1-.06.829,1.218,1.218,0,0,1-.522.47,4.064,4.064,0,0,1-.859,0l-.361-.019a1.241,1.241,0,0,1-.721-.291.769.769,0,0,1-.291-.47l.059-1.474c.092-2.041.1-4.059.115-6.021l-.013-1.88a6.177,6.177,0,0,0-.1-1.327,5.479,5.479,0,0,0-2.358-3.362,7.749,7.749,0,0,0-4.654-1.29,7.433,7.433,0,0,0-4.256,1.487,5.454,5.454,0,0,0-1.94,1.88,4.752,4.752,0,0,0-.61,2.384c-.092,1.313-.1,2.635-.117,3.992.011,1.289.023,2.621.112,3.949.009.238.029.486.051.735a6.316,6.316,0,0,1,.037,1.055.952.952,0,0,1-.472.61,3.682,3.682,0,0,1-.728-.059,2.894,2.894,0,0,1-.777-.127.9.9,0,0,1-.6-.629,2.147,2.147,0,0,1-.023-.434c0-.14,0-.283-.014-.427l-.022-.334c-.015-.259-.031-.518-.061-.746a13.438,13.438,0,0,0-.354-2.074,21.755,21.755,0,0,0,.465-4.713L74.12,44.7a4.19,4.19,0,0,0-.412-1.5,5.131,5.131,0,0,0-2.281-2.314,7.6,7.6,0,0,0-10.293.961,4.706,4.706,0,0,0-.966,2.315,11.45,11.45,0,0,0,.022,1.528l.023.4a34.869,34.869,0,0,0,.374,3.55c-.206,1.719-.3,3.434-.366,4.9a.814.814,0,0,1-.657.672,3.269,3.269,0,0,1-.666.028l-.269,0a.953.953,0,0,1-.537-.116.75.75,0,0,1-.326-.3,1.473,1.473,0,0,1-.07-.67l-.023-.831c-.014-.559-.028-1.118-.065-1.662-.071-1.494-.165-3.227-.371-4.944l.018-.238c.042-.558.086-1.113.1-1.689a4.617,4.617,0,0,0-.643-2.388,6.759,6.759,0,0,0-4.912-3.036,8.031,8.031,0,0,0-6.078,1.517,5.354,5.354,0,0,0-1.7,2.187,5.624,5.624,0,0,0-.349,2.271v.107q.019,1.323.029,2.646c.015,1.719.032,3.438.083,5.162l.07,1.976a.787.787,0,0,1-.439.684,2.762,2.762,0,0,1-.692.265c-.428.139-.844,9.47-1.241,9.636C41.478,65.81,165.757,73.169,165.754,64.6Z" transform="translate(-25 -33.107)"/><path id="FRONT_SHAPE" class="cls-3" d="M159.217,69.736c0-2.691-2.194-5.087-3.728-5.992a10.95,10.95,0,0,0-3.068-2.026A14.291,14.291,0,0,0,150.477,61a1.069,1.069,0,0,1-.55-.33c-.1-.109-.165-.212-.157-.607l-.022-.458c-.015-.337-.031-.674-.06-.987a23.121,23.121,0,0,0-.369-2.837c.183-1.2.305-2.4.366-3.559.032-.42.047-.84.061-1.259l.022-.576a5.008,5.008,0,0,0-.412-2.309,6.32,6.32,0,0,0-4.227-3.328,7.7,7.7,0,0,0-5.688.672,5.365,5.365,0,0,0-3.462,3.412,5.2,5.2,0,0,0-.184,1.487c0,.168-.006.334-.023.554l-.027,1.783a46.6,46.6,0,0,0,.475,7.031,1.036,1.036,0,0,1-.516.615,1.7,1.7,0,0,1-1.068.146,1.637,1.637,0,0,0-.2,0,1.178,1.178,0,0,1-.814-.231.636.636,0,0,1-.263-.569,46.978,46.978,0,0,0-.474-7.073,17.209,17.209,0,0,0,.361-2.377,4.566,4.566,0,0,0-.928-3.129,6.332,6.332,0,0,0-3.061-2.127,7.047,7.047,0,0,0-2.12-.366,9.853,9.853,0,0,0-1.637.17l-.133.022a7.544,7.544,0,0,0-3.479,1.072,5.552,5.552,0,0,0-2.2,2.523,4.279,4.279,0,0,0-.319,1.546l-.061,3.578c.011,1.547.023,3.147.114,4.771l.07,1.209a1.145,1.145,0,0,1-.073.683,1.225,1.225,0,0,1-.938.586c-.1-.01-.211-.017-.315-.025a3.577,3.577,0,0,1-.6-.073,1.189,1.189,0,0,1-.507-.271.829.829,0,0,1-.262-.381,1.722,1.722,0,0,1,0-.49l.013-.2c.092-1.474.1-2.925.115-4.34-.009-1.327-.02-2.831-.112-4.3a5.4,5.4,0,0,0-.592-2.566,5.681,5.681,0,0,0-1.983-2.038,6.472,6.472,0,0,0-4.072-1.623,7.849,7.849,0,0,0-4.621,1.1,5.107,5.107,0,0,0-2.436,3.312,7.373,7.373,0,0,0,.156,2.527c.031.167.061.334.089.5a52.048,52.048,0,0,0-.48,7.444V59.5a1.6,1.6,0,0,1-.024.4.663.663,0,0,1-.185.28,1.115,1.115,0,0,1-.767.269l-.357.014a4.2,4.2,0,0,1-.536,0,1.361,1.361,0,0,1-.481-.154,1,1,0,0,1-.506-.608,34.424,34.424,0,0,0,.471-5.989c-.006-.9-.026-1.975-.11-3.056l-.011-.168a5.34,5.34,0,0,0-.3-1.617,4.837,4.837,0,0,0-1.039-1.607,6.2,6.2,0,0,0-3.239-2.4,8.468,8.468,0,0,0-4.7-.106,6.7,6.7,0,0,0-3.714,2.383,4.6,4.6,0,0,0-.831,1.823,6.032,6.032,0,0,0-.109,1.342l0,.33c.011,1.876.023,3.816.114,5.781l.143,2.953a1.369,1.369,0,0,1-.06.829,1.218,1.218,0,0,1-.522.47,4.064,4.064,0,0,1-.859,0l-.361-.019a1.241,1.241,0,0,1-.721-.291.769.769,0,0,1-.291-.47l.059-1.474c.092-2.041.1-4.059.115-6.021l-.013-1.88a6.177,6.177,0,0,0-.1-1.327,5.479,5.479,0,0,0-2.358-3.362,7.749,7.749,0,0,0-4.654-1.29,7.433,7.433,0,0,0-4.256,1.487,5.454,5.454,0,0,0-1.94,1.88,4.752,4.752,0,0,0-.61,2.384c-.092,1.313-.1,2.635-.117,3.992.011,1.289.023,2.621.112,3.949.009.238.029.486.051.735a6.316,6.316,0,0,1,.037,1.055.952.952,0,0,1-.472.61A3.682,3.682,0,0,1,69,60.563a2.894,2.894,0,0,1-.777-.127.9.9,0,0,1-.6-.629,2.147,2.147,0,0,1-.023-.434c0-.14,0-.283-.014-.427l-.022-.334c-.015-.259-.031-.518-.061-.746a13.438,13.438,0,0,0-.354-2.074,21.755,21.755,0,0,0,.465-4.713l-.034-1.242a4.19,4.19,0,0,0-.412-1.5,5.131,5.131,0,0,0-2.281-2.314,7.6,7.6,0,0,0-10.293.961,4.706,4.706,0,0,0-.966,2.315,11.45,11.45,0,0,0,.022,1.528l.023.4a34.869,34.869,0,0,0,.374,3.55c-.206,1.719-.3,3.434-.366,4.9a.814.814,0,0,1-.657.672,3.269,3.269,0,0,1-.666.028l-.269,0a.953.953,0,0,1-.537-.116.75.75,0,0,1-.326-.3,1.473,1.473,0,0,1-.07-.67l-.023-.831c-.014-.559-.028-1.118-.065-1.662C51,55.3,50.9,53.561,50.7,51.845l.018-.238c.042-.558.086-1.113.1-1.689a4.617,4.617,0,0,0-.643-2.388,6.759,6.759,0,0,0-4.912-3.036,8.031,8.031,0,0,0-6.078,1.517,5.354,5.354,0,0,0-1.7,2.187,5.624,5.624,0,0,0-.349,2.271v.107q.019,1.323.029,2.646c.015,1.719.032,3.438.083,5.162l.07,1.976a.787.787,0,0,1-.439.684,2.762,2.762,0,0,1-.692.265c-.428.139-.844,9.47-1.241,9.636C34.941,70.944,159.22,78.3,159.217,69.736Z" transform="translate(-25 -33.107)"/><path id="FRONT" class="cls-4" d="M158.006,128.533c-.038-2.852-.034-5.7-.112-8.557s-.173-5.7-.377-8.557c.2-2.5.3-4.992.375-7.487s.073-4.992.114-7.487c-.038-2.5-.034-4.992-.112-7.487s-.173-4.992-.377-7.487c.2-1.408.3-2.816.375-4.223s.1-2.814.113-4.225a7.915,7.915,0,0,0-1.266-4.219,9.921,9.921,0,0,0-3.465-3.283l.04.039-.08-.058.04.019a9.63,9.63,0,0,0-2.831-1.894,12.716,12.716,0,0,0-1.71-.63,2.361,2.361,0,0,1-1.187-.712,1.5,1.5,0,0,1-.389-1.148c-.027-.479-.036-.958-.082-1.437a22.359,22.359,0,0,0-.382-2.874,35.891,35.891,0,0,0,.381-3.637c.045-.606.055-1.212.082-1.818a4.188,4.188,0,0,0-.337-1.918,5.142,5.142,0,0,0-3.418-2.7,6.1,6.1,0,0,0-4.6.589l.031-.008c-.013.006-.027.009-.04.015l.01-.007a4.305,4.305,0,0,0-2.861,2.761,7.944,7.944,0,0,0-.172,1.815l-.027,1.766a44.85,44.85,0,0,0,.49,7.065,2.034,2.034,0,0,1-1.075,1.419,3.269,3.269,0,0,1-1.956.335c-1.41.062-2.52-.807-2.457-1.82a45.374,45.374,0,0,0-.49-7.1,16.372,16.372,0,0,0,.381-2.431,3.691,3.691,0,0,0-.743-2.516,5.076,5.076,0,0,0-2.472-1.719,5.42,5.42,0,0,0-1.6-.279,15.941,15.941,0,0,0-4.422,1.041,4.46,4.46,0,0,0-1.773,2.042,3.5,3.5,0,0,0-.253,1.248l-.034,1.183-.027,2.365c.011,1.577.024,3.154.113,4.731l.067,1.183a1.883,1.883,0,0,1-.137,1.081,2.544,2.544,0,0,1-2.168,1.3,9.1,9.1,0,0,1-1.327-.157,2.513,2.513,0,0,1-1.051-.541,1.8,1.8,0,0,1-.579-.833,2.732,2.732,0,0,1-.032-.992c.09-1.428.1-2.855.115-4.283-.011-1.428-.024-2.855-.113-4.283a4.682,4.682,0,0,0-.478-2.175,5.584,5.584,0,0,0-4.988-3.058,6.283,6.283,0,0,0-3.69.883,4.092,4.092,0,0,0-1.943,2.62,9.278,9.278,0,0,0,.264,2.911,50.388,50.388,0,0,0-.49,7.447,2.547,2.547,0,0,1-.061.83,1.6,1.6,0,0,1-.432.675,2.54,2.54,0,0,1-1.747.656,8.365,8.365,0,0,1-1.114.008,2.818,2.818,0,0,1-.982-.294,2.044,2.044,0,0,1-1.153-1.467,32.877,32.877,0,0,0,.49-6c-.009-1-.03-2-.107-3a5.274,5.274,0,0,0-.25-1.531,3.833,3.833,0,0,0-.9-1.364l.006.014c-.005-.007-.008-.014-.013-.021l.007.007c0-.007-.011-.014-.015-.021h0a4.878,4.878,0,0,0-2.622-1.991,6.88,6.88,0,0,0-3.8-.075,5.446,5.446,0,0,0-2.991,1.932,3.711,3.711,0,0,0-.664,1.469,7.374,7.374,0,0,0-.092,1.494c.011,1.916.024,3.832.113,5.749l.137,2.874a2.08,2.08,0,0,1-.161,1.355,2.42,2.42,0,0,1-1.195,1.007h0a5.928,5.928,0,0,1-1.87.056,2.677,2.677,0,0,1-1.549-.609,1.682,1.682,0,0,1-.645-1.207l.058-1.477c.09-1.993.1-3.986.115-5.98l-.011-1.495a8.134,8.134,0,0,0-.087-1.546,4.5,4.5,0,0,0-1.932-2.762A6.234,6.234,0,0,0,75.7,46.581a5.891,5.891,0,0,0-3.471,1.241c.022-.014.047-.022.069-.035-.025.017-.055.03-.08.047l.011-.012a4.325,4.325,0,0,0-1.62,1.541,4.119,4.119,0,0,0-.487,2c-.09,1.31-.1,2.619-.115,3.929.011,1.31.024,2.619.113,3.929a15.557,15.557,0,0,1,.082,1.921,2.1,2.1,0,0,1-1.3,1.5h0a4.3,4.3,0,0,1-1.334-.026,4.142,4.142,0,0,1-1.209-.223,1.977,1.977,0,0,1-1.315-1.354,6.913,6.913,0,0,1-.06-1c-.027-.356-.036-.713-.082-1.069a12.65,12.65,0,0,0-.382-2.138,20.306,20.306,0,0,0,.49-4.7l-.031-1.186a3.444,3.444,0,0,0-.338-1.232,4.087,4.087,0,0,0-1.926-1.886c.018.02.032.04.05.06-.04-.03-.077-.062-.118-.091.022.012.046.018.068.031a5.575,5.575,0,0,0-4.267-1.3,5.749,5.749,0,0,0-4.034,2.013,3.785,3.785,0,0,0-.78,1.838,14.655,14.655,0,0,0,.045,1.829,34.33,34.33,0,0,0,.382,3.578c-.2,1.655-.3,3.31-.375,4.964A1.872,1.872,0,0,1,52.2,62.324a4.728,4.728,0,0,1-1.4.1,2.616,2.616,0,0,1-1.243-.266,1.9,1.9,0,0,1-.834-.75,1.952,1.952,0,0,1-.188-1.07c-.029-.827-.032-1.655-.087-2.482-.079-1.655-.173-3.31-.377-4.965.049-.651.105-1.3.121-1.951a3.762,3.762,0,0,0-.524-1.953A5.459,5.459,0,0,0,43.7,46.529a6.52,6.52,0,0,0-4.9,1.232,4.369,4.369,0,0,0-1.389,1.791,5.12,5.12,0,0,0-.28,2.038c.038,2.6.034,5.194.113,7.792l.067,1.948a1.711,1.711,0,0,1-.9,1.526,3.775,3.775,0,0,1-1.035.429c-.388.126-.768.265-1.136.42a12.326,12.326,0,0,0-2.07,1.088h0a11.638,11.638,0,0,0-4.1,3.453,8.733,8.733,0,0,0-1.641,4.607c-.1,3.155-.078,6.29-.123,9.436.038,3.144.034,6.287.113,9.431s.173,6.287.377,9.431c-.2,2.3-.3,4.592-.375,6.888s-.073,4.592-.114,6.888c.038,2.3.034,4.592.113,6.888s.173,4.592.377,6.888c-.2,4.088-.3,8.176-.375,12.264l-.114,12.264a28.748,28.748,0,0,0,.107,3.1,9.511,9.511,0,0,0,1.055,3.052,11.818,11.818,0,0,0,5.2,4.707,16.469,16.469,0,0,0,7.607,1.576c2.6-.064,5.2-.1,7.806-.189,3.1.159,6.209.233,9.313.295s6.209.058,9.313.09c3.1-.03,6.209-.027,9.313-.088s6.209-.136,9.313-.3c2.009.159,4.019.233,6.028.295s4.019.08,6.028.09c2.009-.009,4.019-.019,6.028-.089s4.019-.136,6.028-.3c3.189.159,6.379.233,9.568.295s6.379.058,9.568.09c3.189-.03,6.379-.027,9.568-.088l4.784-.107a19.81,19.81,0,0,0,4.748-.518c-.051.008-.1.011-.152.018l.252-.051c-.034.01-.066.024-.1.033a13.807,13.807,0,0,0,6.511-2.709,9.7,9.7,0,0,0,3.545-5.186,10.653,10.653,0,0,0,.246-2.949c-.029-.962-.032-1.925-.087-2.887-.079-1.925-.173-3.85-.377-5.774.2-2.852.3-5.7.375-8.557S157.965,131.385,158.006,128.533Z" transform="translate(-25 -33.107)"/><path id="MEMBRANE" class="cls-5" d="M97.394,166.893c-2-.01-4.043-.019-6.094-.091-2.219-.068-4.1-.143-5.992-.29-3.189.162-6.448.236-9.256.292-2.046.041-4.093.053-6.138.066q-1.6.01-3.193.024c-1.139-.012-2.243-.019-3.346-.025-2.005-.012-4.011-.025-6.018-.066-3.456-.068-6.362-.144-9.292-.293-1.68.056-3.359.091-5.037.126l-2.715.061a18.138,18.138,0,0,1-8.341-1.732,13.021,13.021,0,0,1-5.7-5.156,10.423,10.423,0,0,1-1.16-3.35A21.8,21.8,0,0,1,25,153.885l0-.645.114-12.28c.071-3.706.166-8,.374-12.241-.209-2.382-.3-4.8-.375-6.876-.051-1.522-.068-3.043-.083-4.564q-.011-1.169-.029-2.338c.014-.841.023-1.655.032-2.468.015-1.487.031-2.974.082-4.461.071-2.075.166-4.486.373-6.869-.208-3.255-.3-6.558-.374-9.4-.051-2.079-.068-4.158-.083-6.237q-.011-1.6-.029-3.2c.015-1.134.023-2.245.031-3.356.014-2.036.028-4.072.092-6.116a9.612,9.612,0,0,1,1.806-5.082,12.843,12.843,0,0,1,4.462-3.78,13.655,13.655,0,0,1,2.244-1.171c.394-.165.813-.319,1.241-.458a2.764,2.764,0,0,0,.691-.265.79.79,0,0,0,.439-.687l-.069-1.974c-.051-1.723-.068-3.442-.083-5.162q-.011-1.324-.029-2.646a5.818,5.818,0,0,1,.349-2.378,5.355,5.355,0,0,1,1.7-2.186,8.03,8.03,0,0,1,6.079-1.517,6.757,6.757,0,0,1,4.911,3.036,4.622,4.622,0,0,1,.645,2.386c-.013.568-.055,1.113-.1,1.66l-.02.268c.208,1.716.3,3.45.373,4.945.037.543.051,1.1.064,1.66l.024.832a1.486,1.486,0,0,0,.07.672.75.75,0,0,0,.324.3.967.967,0,0,0,.54.117l.268,0a3.169,3.169,0,0,0,.668-.028.809.809,0,0,0,.655-.67c.07-1.476.163-3.195.366-4.9a35.136,35.136,0,0,1-.373-3.55l-.023-.4a11.444,11.444,0,0,1-.022-1.527,4.7,4.7,0,0,1,.965-2.313,7.6,7.6,0,0,1,10.293-.963,5.128,5.128,0,0,1,2.282,2.314,4.19,4.19,0,0,1,.412,1.5l.034,1.242a21.708,21.708,0,0,1-.466,4.712,13.223,13.223,0,0,1,.355,2.075c.029.22.045.471.06.722l.023.355c.009.146.011.285.013.421a2.225,2.225,0,0,0,.024.443.9.9,0,0,0,.6.629,2.894,2.894,0,0,0,.777.127,3.843,3.843,0,0,0,.728.058.95.95,0,0,0,.472-.61,6.316,6.316,0,0,0-.037-1.055c-.022-.248-.042-.5-.051-.735-.092-1.349-.1-2.731-.112-3.95.011-1.3.023-2.636.115-3.991a4.8,4.8,0,0,1,.613-2.385,5.443,5.443,0,0,1,1.94-1.878,7.419,7.419,0,0,1,4.255-1.488,7.771,7.771,0,0,1,4.656,1.291,5.469,5.469,0,0,1,2.357,3.362,6.088,6.088,0,0,1,.1,1.318l.014,1.888v.106c-.013,1.936-.026,3.939-.116,5.916l-.056,1.472a.765.765,0,0,0,.29.473,1.248,1.248,0,0,0,.721.289l.364.019a4.051,4.051,0,0,0,.855,0,1.216,1.216,0,0,0,.525-.471,1.393,1.393,0,0,0,.057-.833l-.142-2.947c-.093-1.995-.1-4.008-.114-5.782l0-.334a5.918,5.918,0,0,1,.107-1.338,4.607,4.607,0,0,1,.832-1.824,6.7,6.7,0,0,1,3.712-2.381,8.467,8.467,0,0,1,4.7.106,6.206,6.206,0,0,1,3.24,2.4,4.8,4.8,0,0,1,1.038,1.61,5.328,5.328,0,0,1,.3,1.622l.011.161c.082,1.048.1,2.088.11,3.055a34.5,34.5,0,0,1-.472,5.99,1,1,0,0,0,.507.609,1.372,1.372,0,0,0,.481.154,4.112,4.112,0,0,0,.536,0l.356-.014a1.125,1.125,0,0,0,.77-.27.658.658,0,0,0,.184-.279,1.668,1.668,0,0,0,.024-.406v-.179a52.13,52.13,0,0,1,.479-7.444c-.028-.169-.059-.336-.089-.5a7.373,7.373,0,0,1-.156-2.527,5.119,5.119,0,0,1,2.436-3.312,7.88,7.88,0,0,1,4.622-1.1,6.469,6.469,0,0,1,4.071,1.624,5.692,5.692,0,0,1,1.984,2.037,5.42,5.42,0,0,1,.592,2.567c.089,1.451.1,2.9.112,4.3-.013,1.474-.026,2.914-.116,4.34l-.013.2a1.736,1.736,0,0,0,.005.487.819.819,0,0,0,.258.378,1.2,1.2,0,0,0,.509.274,3.629,3.629,0,0,0,.6.073q.157.011.314.024a1.225,1.225,0,0,0,.94-.586,1.146,1.146,0,0,0,.073-.683l-.07-1.209c-.093-1.649-.1-3.308-.114-4.772l.061-3.577a4.279,4.279,0,0,1,.319-1.546,5.545,5.545,0,0,1,2.2-2.523,7.542,7.542,0,0,1,3.48-1.072l.119-.02a9.4,9.4,0,0,1,1.611-.172h.037a7.057,7.057,0,0,1,2.123.367,6.318,6.318,0,0,1,3.061,2.127,4.569,4.569,0,0,1,.928,3.127,17.139,17.139,0,0,1-.363,2.378,47.143,47.143,0,0,1,.475,7.072.636.636,0,0,0,.263.569,1.216,1.216,0,0,0,.813.231,1.65,1.65,0,0,1,.2,0,1.687,1.687,0,0,0,1.067-.146,1.036,1.036,0,0,0,.516-.614,46.334,46.334,0,0,1-.474-7.032l.027-1.783c.015-.216.018-.38.022-.547a5.219,5.219,0,0,1,.185-1.495,5.363,5.363,0,0,1,3.461-3.411,7.708,7.708,0,0,1,5.688-.673,6.323,6.323,0,0,1,4.228,3.329,5.041,5.041,0,0,1,.412,2.309l-.022.575c-.015.42-.029.839-.061,1.258-.063,1.179-.186,2.381-.366,3.561a23.218,23.218,0,0,1,.369,2.837c.029.3.043.629.057.955l.024.488c-.009.4.059.5.156.608a1.075,1.075,0,0,0,.55.331,14.458,14.458,0,0,1,1.945.717,10.95,10.95,0,0,1,3.069,2.026,11.041,11.041,0,0,1,3.726,3.575,8.761,8.761,0,0,1,1.4,4.668c-.011,1.529-.027,2.9-.115,4.283-.07,1.257-.162,2.723-.369,4.2.208,2.575.3,5.187.373,7.437.051,1.653.068,3.306.083,4.958q.011,1.271.029,2.542c-.014.9-.023,1.781-.032,2.659-.015,1.622-.031,3.244-.083,4.867-.07,2.246-.163,4.859-.373,7.466.209,2.95.3,5.948.375,8.53.051,1.888.068,3.774.083,5.662q.011,1.453.029,2.906v.023c-.014,1-.023,2.007-.032,3.01-.015,1.853-.031,3.7-.083,5.557-.07,2.565-.162,5.547-.373,8.52.209,1.994.3,4.015.374,5.755.037.633.051,1.28.064,1.925l.024.971a11.209,11.209,0,0,1-.272,3.174,10.7,10.7,0,0,1-3.9,5.711,15.258,15.258,0,0,1-7.1,2.978,21.561,21.561,0,0,1-4.994.549l-4.839.109c-2.106.041-4.208.053-6.309.066q-1.641.01-3.279.024c-1.168-.012-2.3-.019-3.438-.025-2.06-.012-4.119-.025-6.18-.066-3.536-.068-6.513-.143-9.51-.291-2.074.162-4.182.236-6,.292C101.373,166.876,99.259,166.885,97.394,166.893Zm-49.315-2.439.086,0c2.911.149,5.806.225,9.26.293,1.991.041,3.98.053,5.969.065q1.664.011,3.328.025c1.034-.011,2.1-.017,3.171-.024,2.031-.012,4.061-.025,6.092-.065,2.944-.059,6.084-.13,9.26-.295a1.65,1.65,0,0,1,.217,0c1.865.148,3.726.223,5.948.291,2.008.07,4.03.08,5.985.089,1.827-.008,3.914-.017,5.964-.088,1.9-.059,3.919-.129,5.953-.292a1.553,1.553,0,0,1,.216,0c2.991.149,5.968.225,9.517.293,2.046.041,4.09.053,6.135.065q1.708.011,3.417.025c1.065-.011,2.162-.017,3.259-.024,2.087-.012,4.173-.025,6.26-.065l4.778-.107a20.8,20.8,0,0,0,3.991-.368,1.492,1.492,0,0,1,.336-.1l.216-.044a1.634,1.634,0,0,1,.332-.036,12.3,12.3,0,0,0,5.5-2.375,8.725,8.725,0,0,0,3.188-4.655,9.659,9.659,0,0,0,.222-2.727l-.023-.988c-.014-.627-.027-1.253-.063-1.88-.071-1.749-.166-3.766-.374-5.735a.758.758,0,0,1,0-.142c.211-2.964.3-5.953.373-8.521.052-1.843.068-3.685.083-5.526.009-1,.018-2.006.032-3.009q-.019-1.452-.029-2.9c-.015-1.877-.032-3.754-.083-5.63-.071-2.582-.166-5.583-.375-8.521a.663.663,0,0,1,0-.123c.211-2.59.3-5.2.373-7.447.052-1.611.068-3.221.083-4.832.009-.881.018-1.762.032-2.643-.013-.825-.022-1.676-.029-2.526-.015-1.641-.032-3.282-.083-4.923-.071-2.257-.165-4.879-.375-7.446a.859.859,0,0,1,.005-.181c.208-1.439.3-2.9.369-4.153.086-1.352.1-2.7.112-4.187a7.035,7.035,0,0,0-1.126-3.749,8.772,8.772,0,0,0-2.872-2.8,1.327,1.327,0,0,1-.286-.162,1.167,1.167,0,0,1-.158-.141h0a8.378,8.378,0,0,0-2.454-1.643,11.756,11.756,0,0,0-1.543-.568,3.587,3.587,0,0,1-1.8-1.1,2.345,2.345,0,0,1-.605-1.736l-.023-.441c-.014-.3-.027-.6-.055-.895a21.707,21.707,0,0,0-.371-2.792.821.821,0,0,1-.005-.285,35.227,35.227,0,0,0,.373-3.555c.031-.415.045-.814.059-1.212l.023-.6a3.4,3.4,0,0,0-.263-1.538A3.94,3.94,0,0,0,143,47.726a4.563,4.563,0,0,0-3.251.342,1.139,1.139,0,0,1-.116.079,1.4,1.4,0,0,1-.246.117l-.052.019-.083.025a3.16,3.16,0,0,0-2.025,2,3.837,3.837,0,0,0-.121,1.077c0,.2-.009.4-.024.594l-.024,1.713a44.18,44.18,0,0,0,.479,6.921.839.839,0,0,1,0,.277,3.055,3.055,0,0,1-1.64,2.127,4.735,4.735,0,0,1-2.717.511,4.291,4.291,0,0,1-2.7-.827,2.458,2.458,0,0,1-1.035-2.072c-.014-2.025-.582-5.592-.47-7.241.053-.773.3-1.538.363-2.309a2.445,2.445,0,0,0-.573-1.942c-2.088-2.261-6.032-.98-6.562-.656a3.387,3.387,0,0,0-1.331,1.55,2.64,2.64,0,0,0-.189.952l-.061,3.535c.009,1.43.02,3.068.111,4.676l.068,1.182a2.664,2.664,0,0,1-.222,1.494,3.841,3.841,0,0,1-3.258,1.95,1.645,1.645,0,0,1-.318-.006c-.124-.014-.249-.022-.373-.031a5.985,5.985,0,0,1-1.2-.172,3.846,3.846,0,0,1-1.6-.834,2.726,2.726,0,0,1-.863-1.259,2.8,2.8,0,0,1-.082-1.1l.011-.185c.088-1.393.1-2.81.114-4.181-.011-1.435-.023-2.864-.111-4.294a6.115,6.115,0,0,0-.365-1.8c-1.072-3.022-5.885-2.278-6.678-1.788a3.112,3.112,0,0,0-1.459,1.969,7.321,7.321,0,0,0,.152,1.958c.248,1.916-.347,6.064-.361,8.248V60.5a2.6,2.6,0,0,1-.11.943,2.55,2.55,0,0,1-.683,1.055,4.018,4.018,0,0,1-2.722,1.029l-.286.011a6.2,6.2,0,0,1-1.062-.015,4.343,4.343,0,0,1-1.5-.45,3.046,3.046,0,0,1-1.731-2.181.811.811,0,0,1,0-.3,32.342,32.342,0,0,0,.475-5.855c-.009-.925-.027-1.931-.1-2.932l-.013-.171a4.008,4.008,0,0,0-.184-1.126c-.154-.379-1.324-3.836-5.673-2.774a4.132,4.132,0,0,0-2.277,1.484,2.809,2.809,0,0,0-.5,1.118,4.485,4.485,0,0,0-.069.987l0,.348c.009,1.738.02,3.732.111,5.694l.137,2.874a2.76,2.76,0,0,1-.283,1.83,3.585,3.585,0,0,1-1.762,1.475,1.455,1.455,0,0,1-.17.059,5.851,5.851,0,0,1-2.031.136l-.35-.019a4.215,4.215,0,0,1-2.461-.95,2.575,2.575,0,0,1-.977-1.864l.057-1.537c.089-1.95.1-3.937.115-5.858l-.01-1.579c0-.121,0-.262,0-.406a4.731,4.731,0,0,0-.066-.977A3.523,3.523,0,0,0,78.561,48.4a4.681,4.681,0,0,0-2.8-.792c-3.073.141-3.729,1.787-3.98,2.2a3.268,3.268,0,0,0-.36,1.578c-.091,1.34-.1,2.648-.114,3.914.009,1.183.02,2.539.111,3.867.008.239.027.459.046.68a7.294,7.294,0,0,1,.032,1.383,3.125,3.125,0,0,1-1.942,2.293,1.547,1.547,0,0,1-.439.127,5.965,5.965,0,0,1-1.818-.033,5.086,5.086,0,0,1-1.533-.311,3.071,3.071,0,0,1-2.021-2.113,3.6,3.6,0,0,1-.064-.78c0-.11,0-.222-.01-.329l-.024-.375c-.013-.214-.024-.428-.052-.641a11.833,11.833,0,0,0-.361-2.03.814.814,0,0,1,0-.407,19.7,19.7,0,0,0,.466-4.513l-.031-1.157a2.555,2.555,0,0,0-.245-.873c-.236-.508-.764-2.69-4.818-2.547a4.188,4.188,0,0,0-3.08,1.532,2.894,2.894,0,0,0-.592,1.4,10.2,10.2,0,0,0,.026,1.277l.024.415a34.064,34.064,0,0,0,.373,3.49.786.786,0,0,1,0,.226c-.206,1.691-.3,3.419-.37,4.905A2.95,2.95,0,0,1,52.615,63.3a5.071,5.071,0,0,1-1.592.153l-.22,0a3.94,3.94,0,0,1-1.942-.428,3.047,3.047,0,0,1-1.324-1.194,2.693,2.693,0,0,1-.3-1.491l-.023-.821c-.014-.536-.027-1.072-.063-1.607-.071-1.5-.165-3.232-.373-4.919a.832.832,0,0,1,0-.159l.027-.35c.04-.518.08-1.035.092-1.559a2.937,2.937,0,0,0-.4-1.5,4.192,4.192,0,0,0-3.006-1.877,5,5,0,0,0-3.747.936,3.354,3.354,0,0,0-1.076,1.375,4.286,4.286,0,0,0-.222,1.661c.013.95.022,1.835.029,2.719.015,1.708.032,3.416.083,5.125l.068,1.943a2.655,2.655,0,0,1-1.4,2.36,5.061,5.061,0,0,1-1.374.581c-.318.1-.66.228-.989.367a10.914,10.914,0,0,0-1.85.971c-.04.026-.084.051-.126.074a10.458,10.458,0,0,0-3.677,3.1,7.852,7.852,0,0,0-1.468,4.136c-.063,2.016-.077,4.039-.091,6.062-.008,1.115-.015,2.23-.031,3.346.013,1.049.022,2.12.029,3.191.015,2.069.032,4.139.083,6.208.071,2.845.166,6.153.375,9.4a.985.985,0,0,1,0,.123c-.208,2.364-.3,4.773-.373,6.845-.052,1.475-.068,2.949-.083,4.423q-.011,1.226-.031,2.452c.013.755.022,1.538.029,2.32.015,1.509.032,3.017.083,4.526.071,2.074.165,4.484.374,6.844a.8.8,0,0,1,0,.111c-.208,4.233-.3,8.537-.374,12.24l-.114,12.256,0,.643a20.2,20.2,0,0,0,.1,2.36,8.667,8.667,0,0,0,.956,2.746,10.691,10.691,0,0,0,4.671,4.228,14.823,14.823,0,0,0,6.883,1.428l2.732-.061c1.689-.036,3.377-.071,5.065-.128Z" transform="translate(-25 -33.107)"/><g id="NUCLEUS" class="cls-6"><g id="NUCLEUS-2" data-name="NUCLEUS" class="cls-7"><circle class="cls-8" cx="71.167" cy="109.148" r="21.7" transform="translate(-81.335 49.184) rotate(-45)"/><path class="cls-9" d="M90.754,120.212a22.5,22.5,0,1,1-8.513-30.66A22.533,22.533,0,0,1,90.754,120.212ZM52.976,98.851a20.9,20.9,0,1,0,28.479-7.9A20.918,20.918,0,0,0,52.976,98.851Z" transform="translate(-25 -33.107)"/></g><g id="NUCLEOLUS"><circle class="cls-10" cx="65.649" cy="118.677" r="4.431" transform="translate(-89.689 48.073) rotate(-45)"/><path class="cls-11" d="M69.716,120.97a4.646,4.646,0,1,1-1.784-6.332A4.641,4.641,0,0,1,69.716,120.97Zm-7.746-4.381a4.226,4.226,0,1,0,5.759-1.6A4.237,4.237,0,0,0,61.97,116.588Z" transform="translate(-25 -33.107)"/></g></g><g id="MITOCHONDRION" class="cls-6"><path class="cls-12" d="M82.428,151.956c2.166,3.947,10.521,5.179,17.044,4.128,9.8-1.605,20.993-18.351,24.39-32.162,2.068-8.383.093-12.447-1.922-14.334a7.538,7.538,0,0,0-2-1.329,10.694,10.694,0,0,0-7.539-.171c-4.475,1.375-9.529,5.5-10.756,11.458C99.708,129.29,94.868,134,89.3,139.537c-1.648,1.645-3.379,3.32-5.074,5.217C81.242,148.117,81.572,150.533,82.428,151.956Z" transform="translate(-25 -33.107)"/><path class="cls-13" d="M88.9,142.508c.616.9,4.416,2.785,6.486,3.8,3.8,1.884,5.021,2.514,5.249,3.511a1.445,1.445,0,0,1-.247.985c-.969,1.064-2.87.122-7.468-2.266-2.214-1.155-5.819-3.018-6.794-2.985a2.234,2.234,0,0,1-.513.519c-1.748,2.01-2.307,3.675-1.564,5.046,1.542,2.767,8.6,4.294,15.087,3.16,2.525-.418,5.371-2.129,8.293-4.9a34.534,34.534,0,0,0-5.8-3.353C97,143.693,95.008,142.5,94.714,141.2a1.32,1.32,0,0,1,.268-1.181c1.126-1.4,3.375-.027,6.762,2.01,3.217,1.959,8.143,4.978,9.477,3.121a58.7,58.7,0,0,0,6.916-11.164c-.528-.792-3.954-2.3-6.019-3.178-4.615-2.053-7.984-3.532-7.243-5.593a1.3,1.3,0,0,1,.865-.838c1.158-.429,2.831.409,6.009,2.007.937.5,2.044,1.077,3.121,1.572,2.04.937,3.988,1.627,5.006,1.2a1.2,1.2,0,0,0,.617-.746c.585-1.721,1.118-3.329,1.486-4.876,1.627-6.527.831-11.216-2.19-13.153-2.908-1.885-7.623-1.033-11.486,2a.086.086,0,0,0-.052.113c.25.8,4.428,2.31,6.433,3.025,3.7,1.357,5.761,2.1,5.362,3.563a1.563,1.563,0,0,1-.778.946c-1.262.655-3.493-.164-7.337-1.656-2.092-.824-6.415-2.468-7.15-1.914a12.624,12.624,0,0,0-1.336,3.5,32.733,32.733,0,0,1-3.4,9.486.526.526,0,0,0-.069.449c.464,1.38,4.4,3.259,7.067,4.483,3.286,1.51,5.017,2.374,5.332,3.48a1.417,1.417,0,0,1-.185,1.15c-1.169,1.8-4.15.22-8.321-1.9-1.844-.916-6.612-3.382-7.2-2.693-1.878,2.294-3.9,4.313-6.065,6.477C90.007,141.439,89.494,141.958,88.9,142.508Z" transform="translate(-25 -33.107)"/><path id="LIGHT" class="cls-14" d="M88.855,153.949c1.856.441,11.168,3.623,18.6-4.629,6.6-7.331,9.824-11.818,13.574-22.516,0,0-11.966,20.51-21.062,23.878S88.855,153.949,88.855,153.949Z" transform="translate(-25 -33.107)"/></g></g></svg>