
        <svg xmlns:rdf="http://www.w3.org/1999/02/22-rdf-syntax-ns#" xmlns="http://www.w3.org/2000/svg" xmlns:cc="http://creativecommons.org/ns#" xmlns:xlink="http://www.w3.org/1999/xlink" xmlns:dc="http://purl.org/dc/elements/1.1/" x="0px" y="0px" width="425" height="500" viewBox="0 0 425 500" xml:space="preserve">
            <title>Lobophyllia spp. (Brain Coral)</title>
            <desc xmlns:ian_image_library="https://ian.umces.edu/media-library/">
                <ian_image_library:title>Lobophyllia spp. (Brain Coral)</ian_image_library:title>
                <ian_image_library:descr>Illustration of Lobophyllia, a brain coral</ian_image_library:descr>
                <ian_image_library:scene>
                    <ian_image_library:contains>Lobophyllia, coral, Cnidaria, Anthozoa, Scleractinia, Mussidae, Lobed, Brain, Coral, Flat, Brain, Coral, Open, Brain, Coral, Meat, Coral, Modern, Coral, Large, Flower, Coral, Lobed, Cactus, coral</ian_image_library:contains>
                    <ian_image_library:when>2004-01-08</ian_image_library:when>
                </ian_image_library:scene>
            </desc>
            <metadata id="metadata-iil-722d073351a518b421beff19f68bb7b8">
                <rdf:RDF>
                <cc:Work
                rdf:about="">
                <dc:format>image/svg+xml</dc:format>
                <dc:type
                rdf:resource="http://purl.org/dc/dcmitype/StillImage" />
                <cc:license
                rdf:resource="http://creativecommons.org/licenses/by-sa/3.0/" />
                <dc:title>Lobophyllia spp. (Brain Coral)</dc:title>
                <dc:date>2004-01-08</dc:date>
                <dc:creator>
                    <cc:Agent>
                        <dc:title></dc:title>
                    </cc:Agent>
                </dc:creator>
                <dc:rights>
                <cc:Agent>
                    <dc:title></dc:title>
                </cc:Agent>
                </dc:rights>
                <dc:publisher>
                <cc:Agent>
                    <dc:title>Integration and Application Network</dc:title>
                </cc:Agent>
                </dc:publisher>
                <dc:identifier>https://ian.umces.edu/media-library/lobophyllia-spp-brain-coral/</dc:identifier>
                <dc:source>https://ian.umces.edu/media-library/lobophyllia-spp-brain-coral/</dc:source>
                <dc:language>en-US</dc:language>
                <dc:subject>
                <rdf:Bag>
                    <rdf:li>Lobophyllia, coral, Cnidaria, Anthozoa, Scleractinia, Mussidae, Lobed, Brain, Coral, Flat, Brain, Coral, Open, Brain, Coral, Meat, Coral, Modern, Coral, Large, Flower, Coral, Lobed, Cactus, coral</rdf:li>
                </rdf:Bag>
                </dc:subject>
                <dc:coverage></dc:coverage>
                <dc:description>Illustration of Lobophyllia, a brain coral</dc:description>
                <dc:contributor>
                <cc:Agent>
                    <dc:title></dc:title>
                </cc:Agent>
                </dc:contributor>
            </cc:Work>
            <cc:License
                rdf:about="http://creativecommons.org/licenses/by-sa/3.0/">
                <cc:permits
                rdf:resource="http://creativecommons.org/ns#Reproduction" />
                <cc:permits
                rdf:resource="http://creativecommons.org/ns#Distribution" />
                <cc:requires
                rdf:resource="http://creativecommons.org/ns#Notice" />
                <cc:requires
                rdf:resource="http://creativecommons.org/ns#Attribution" />
                <cc:permits
                rdf:resource="http://creativecommons.org/ns#DerivativeWorks" />
                <cc:requires
                rdf:resource="http://creativecommons.org/ns#ShareAlike" />
            </cc:License>
            </rdf:RDF>
            </metadata>
            
<g id="ian_symbols_aca2062e41d6640475787b921beed72b">
	<g>
			<linearGradient id="ian_symbols_d37746e04d93c2a475c3fb15f5cff7aa" gradientUnits="userSpaceOnUse" x1="969.7335" y1="1551.3613" x2="2577.2131" y2="1551.3613" gradientTransform="matrix(0.1992 0 0 -0.1992 -148.9922 553.5913)">
			<stop  offset="0" style="stop-color:#BFE4EE"/>
			<stop  offset="0.4775" style="stop-color:#E6E0D2"/>
			<stop  offset="1" style="stop-color:#8CA182"/>
		</linearGradient>
		<path fill="url(#ian_symbols_d37746e04d93c2a475c3fb15f5cff7aa)" d="M238.439,46.005c23.337,4.809,24.484,26.825,29.252,46.812c2.927,12.212,5.262,25.276,6.388,37.89
			c1.235,13.477-5.31,27.512-6.022,41.062c-0.304,5.721,1.515,12.114,1.237,18.148c-0.367,7.668-3.098,15.982-4.701,23.546
			c-4.527,21.384-4.961,44.268-10.687,65.177c-3.944,14.349,114.44,97.62,110.381,111.66c-1.189,4.025-29.382,41.807-51.443,34.037
			c-37.767-13.3-77.68-76.814-79.173-69.633c-4.794,23.286,1.446,49.225-12.964,69.579c-5.934,8.402-15.413,14.967-25.171,17.678
			c-11.474,3.191-19.786-0.402-28.191-8.712c-10.66-10.51-14.334-28.477-17.423-42.356c-5.02-22.384-11.937-45.626-15.266-68.27
			c-2.934-19.992-9.817-42.881-20.281-60.539c-8.861-14.996-26.284-23.673-39.341-34.782c-11.734-9.996-27.054-24.375-30.169-39.802
			c-2.757-13.741,3.233-23.492,10.138-34.66c7.457-12.084,12.677-27.35,23.644-36.959c7.219-6.305,13.688-12.599,21.857-17.854
			c7.163-4.613,20.281-7.628,25.544-13.241L238.419,46.01L238.439,46.005z"/>
			<linearGradient id="ian_symbols_65ee0725414d0744316c05d1a66737e0" gradientUnits="userSpaceOnUse" x1="1095.7483" y1="2502.6736" x2="1977.9965" y2="2502.6736" gradientTransform="matrix(0.1992 0 0 -0.1992 -148.9922 553.5913)">
			<stop  offset="0" style="stop-color:#E39877"/>
			<stop  offset="0.6236" style="stop-color:#D77B65"/>
			<stop  offset="1" style="stop-color:#CF7E66"/>
		</linearGradient>
		<path fill="url(#ian_symbols_65ee0725414d0744316c05d1a66737e0)" d="M79.328,101.406c-17.619-12.011-8.27-34.257-0.556-49.857c7.584-15.364,28.561-33.11,44.006-40.459
			c18.803-8.927,35.304-13.065,57.262-10.182c19.577,2.579,37.204,10.055,52.719,22.923c31.071,25.855-7.435,53.568-1.304,83.943
			c-1.189,0.426-3.035,2.064-4.093,2.343l-148.041-8.707L79.328,101.406z"/>
			<linearGradient id="ian_symbols_4ad4f5435c3c4a64d9d9ab5f849f99cb" gradientUnits="userSpaceOnUse" x1="1233.5533" y1="2552.1167" x2="1838.0892" y2="2552.1167" gradientTransform="matrix(0.1992 0 0 -0.1992 -148.9922 553.5913)">
			<stop  offset="0" style="stop-color:#B86D66"/>
			<stop  offset="1" style="stop-color:#A35F43"/>
		</linearGradient>
		<path fill="url(#ian_symbols_4ad4f5435c3c4a64d9d9ab5f849f99cb)" d="M96.747,66.59c9.41-2.603,14.19-14.119,24.668-15.83c6.084-0.985,10.312,1.29,15.345-2.392
			c2.988-2.201,5.522-7.922,8.277-10.839c6.552-6.996,14.07-13.55,23.563-13.697c6.491-0.083,8.018,3.147,13.112,5.637
			c7.005,3.422,8.223,0.79,15.033-0.735c12.474-2.795,9.18,7.118,13.947,14.908c1.976,3.25,7.116,4.873,6.395,9.491
			c-0.713,4.682-8.04,6.77-12.248,6.324c-5.317-0.583-7.844-6.638-12.67-7.212c-4.611-0.544-8.29,4.505-11.53,7.04
			c-2.993,2.343-6.361,5.613-10.28,5.745c-6.253,0.182-6.165-6.437-11.236-7.844c-6.601-1.824-17.335,6.937-24.424,7.844
			c-8.733,1.103-17.886-1.343-26.056,1.559h-11.91H96.747z"/>
			<linearGradient id="ian_symbols_f5e34f9823a128b45d65e1d01ee5ec17" gradientUnits="userSpaceOnUse" x1="747.9529" y1="1114.1112" x2="1758.6473" y2="1114.1112" gradientTransform="matrix(0.1992 0 0 -0.1992 -148.9922 553.5913)">
			<stop  offset="0" style="stop-color:#E39877"/>
			<stop  offset="0.6236" style="stop-color:#D77B65"/>
			<stop  offset="1" style="stop-color:#CF7E66"/>
		</linearGradient>
		<path fill="url(#ian_symbols_f5e34f9823a128b45d65e1d01ee5ec17)" d="M29.469,243.088c-2.424-8.192-7.307-14.584-6.322-23.727c0.895-8.3,4.942-17.962,8.459-25.679
			c7.591-16.58,37.047-9.927,52.344-7.608c35.555,5.329,76.663,10.976,102.231,40.39c4.665,5.378,15.087,12.938,14.335,20.404
			c-0.687,6.77-8.984,16.33-13.06,21.55c-9.967,12.766-27.684,28.247-24.193,45.548c4.252,21.105,27.48,21.776,35.017,40.542
			c3.253,8.123,2.135,15.835,1.38,24.012c-0.963,10.099,0.983,20.021,1.608,29.816c0.544,8.657-2.682,17.58-4.699,25.325
			c-2.24,8.545-4.434,19.59-8.317,27.836c-8.834,18.712-36.572,18.962-54.342,19.036c-22.467,0.112-33.882-8.515-50.619-21.365
			c-17.07-13.133-35.642-34.062-20.573-54.627c6.491-8.864,12.398-11.83,21.382-18.197c3.822-2.711,12.643-11.869,9.479-22.159
			c-1.691-5.559-16.283,7.496-22.137,9.305c-8.344,2.579-18.673,3.035-26.245-1.388c-15.34-8.986-34.216-26.154-40.714-42.729
			c-5.854-14.913-4.297-32.571-4.297-49.107c0.008-6.647,5.454-15.408,8.704-21.34c3.118-5.667,6.777-14.511,12.658-16.619
			l7.925,0.789L29.469,243.088z"/>
			<linearGradient id="ian_symbols_1095e0a8503786943d0f784d8737afb1" gradientUnits="userSpaceOnUse" x1="882.1398" y1="1173.8068" x2="1621.4139" y2="1173.8068" gradientTransform="matrix(0.1992 0 0 -0.1992 -148.9922 553.5913)">
			<stop  offset="0" style="stop-color:#B86D66"/>
			<stop  offset="1" style="stop-color:#A35F43"/>
		</linearGradient>
		<path fill="url(#ian_symbols_1095e0a8503786943d0f784d8737afb1)" d="M48.475,337.277c-8.846-3.902-12.378-17.55-17.016-25.502c-5.236-8.996-5.512-18.463-3.762-29.282
			c3.944-24.482,37.054,0.049,38.228-27.64c0.191-4.579-2.797-8.608-3.245-13.378c-0.461-5.305,0.449-9.707-1.848-14.212
			c-3.123-6.108-16.195-15.408-8.508-23.781c6.444-7.01,17.975,6.53,23.847,9.393c9.839,4.78,21.757,6.348,32.363,7.863
			c18.041,2.623,35.547,4.648,52.982,10.315c26.801,8.711,3.966,20.933-8.616,30.252c-16.065,11.942-29.157,22.457-32.444,42.689
			c-2.98,18.295,9.969,37.488,19.237,52.063c10.116,15.932,31.385,26.938,24.017,48.42c-1.819,5.324-5.628,9.907-8.033,15.182
			c-1.853,4.084,5.209,11.452,1.807,14.962c-5.765,5.927-22.828,2.353-30.738,2.378c-12.025,0.02-21.538-3.148-30.563-11.467
			c-10.641-9.815,2.206-13.746,11.082-19.418c17.335-11.045,25.205-21.212,21.136-41.145c-2.804-13.785-7.473-32.762-22.955-38.419
			c-18.465-6.736-31.527,6.805-47.477,13.085l-9.506-2.353L48.475,337.277z"/>
			<linearGradient id="ian_symbols_a9237f05f2f22424052f2ef89508e535" gradientUnits="userSpaceOnUse" x1="1956.8832" y1="2275.3547" x2="2510.4626" y2="2275.3547" gradientTransform="matrix(0.1992 0 0 -0.1992 -148.9922 553.5913)">
			<stop  offset="0" style="stop-color:#EB9A7C"/>
			<stop  offset="0.5506" style="stop-color:#C67260"/>
			<stop  offset="1" style="stop-color:#A6645B"/>
		</linearGradient>
		<path fill="url(#ian_symbols_a9237f05f2f22424052f2ef89508e535)" d="M240.819,90.327c0-10.467,2.49-15.678,6.3-24.541c3.559-8.167,2.451-15.751,12.854-19.413
			c7.496-2.642,19.482,2.99,26.889,5.329c9.643,3.054,16.989,9.579,25.524,14.256c17.837,9.819,27.284,20.673,31.922,40.199
			c3.38,14.28,14.91,37.64-2.946,47.518c-9.466,5.255-18.98-6.545-26.909-10.638c-10.037-5.202-21.369-1.843-32.505-2.035
			c-10.361-0.176-19.332-8.657-25.681-16.643c-3.441-4.314-13.498-16.016-12.283-22.149l-3.159-11.878L240.819,90.327z"/>
			<linearGradient id="ian_symbols_b7466a4a926c05948d54472c6543d8fc" gradientUnits="userSpaceOnUse" x1="2083.7668" y1="2324.7104" x2="2418.4543" y2="2324.7104" gradientTransform="matrix(0.1992 0 0 -0.1992 -148.9922 553.5913)">
			<stop  offset="0" style="stop-color:#7E413B"/>
			<stop  offset="1" style="stop-color:#A96B5D"/>
		</linearGradient>
		<path fill="url(#ian_symbols_b7466a4a926c05948d54472c6543d8fc)" d="M268.507,86.37c-6.763-4.623,2.343-13.972,7.111-17.428c9.057-6.579,11.025-1.377,18.225,3.182
			c6.951,4.422,15.812,2.353,22.19,8.702c5.432,5.451,3.809,10.648,6.41,16.619c1.52,3.466,11.224,10.143,10.253,14.261
			c-2.235,9.25-12.787-2.628-16.107-4.618c-6.192-3.745-12.847-5.49-19.543-7.559c-6.091-1.888-17.163-4.206-20.627-8.412
			l-7.9-4.745H268.507z"/>
			<linearGradient id="ian_symbols_2a4ba29e414a923491744bad4043911c" gradientUnits="userSpaceOnUse" x1="1473.1858" y1="2297.4341" x2="1473.1858" y2="1675.0957" gradientTransform="matrix(0.1992 0 0 -0.1992 -148.9922 553.5913)">
			<stop  offset="0.2753" style="stop-color:#B76C5E"/>
			<stop  offset="0.6292" style="stop-color:#B06659"/>
			<stop  offset="1" style="stop-color:#BA6856"/>
		</linearGradient>
		<path fill="url(#ian_symbols_2a4ba29e414a923491744bad4043911c)" d="M45.311,174.23c-20.975-12.839-5.454-35.507,2.405-52.254c8.515-18.075,23.31-30.297,43.342-24.639
			c17.937,5.069,34.811,0.284,53.281,2.294c10.641,1.172,19.073,6.265,29.939,5.736c11.075-0.535,20.35-7.03,31.723-7.913
			c19.582-1.505,34.189,7.074,44.116,23.737c9.839,16.501-0.414,33.655-8.435,48.215c-4.875,8.81-10.721,16.859-15.486,25.419
			c-3.839,6.858-12.381,20.085-19.565,23.531c-12.114,5.785-19.935-6-28.539-11.766c-7.626-5.137-16.737-9.123-24.505-14.54
			c-7.469-5.202-16.513-8.54-25.497-8.32c-6.586,0.152-9.351,0.51-14.749-2.167c-3.544-1.755-5.988-4.942-10.268-5.839
			c-7.733-1.593-17.511,1.245-25.367,1.677c-8.255,0.436-15.155,0.77-22.904-0.804l-9.486-2.368H45.311z"/>
			<linearGradient id="ian_symbols_8e0d09a25bdbe9947943501b2dc103ac" gradientUnits="userSpaceOnUse" x1="1094.7291" y1="2057.7051" x2="1835.4771" y2="2057.7051" gradientTransform="matrix(0.1992 0 0 -0.1992 -148.9922 553.5913)">
			<stop  offset="0" style="stop-color:#7E413B"/>
			<stop  offset="1" style="stop-color:#A96B5D"/>
		</linearGradient>
		<path fill="url(#ian_symbols_8e0d09a25bdbe9947943501b2dc103ac)" d="M91.219,130.697c-6.125,0-26.142-1.255-21.43,10.29c3.708,9.113,22.528,9.461,30.242,8.702
			c21.702-2.143,39.567,7.52,60.909,9.496c6.892,0.647,19.651,5.535,26.188,3.201c4.679-1.643,5.098-5.667,8.719-9.162
			c3.66-3.535,9.873-6.25,14.082-9.06c4.665-3.123,5.012-2.103,6.336-8.104c0.603-2.73,0.779-10.251-1.968-11.594
			c-2.799-1.373-12.415,14.055-17.791,16.521c-9.175,4.196-17.227-0.475-26.149-1.657c-8.745-1.182-16.352-1.201-25.279-0.681
			c-8.626,0.51-14.085-0.074-22.082-2.804c-6.856-2.343-14.619-4.118-22.272-1.971l-9.498-3.172L91.219,130.697z"/>
			<linearGradient id="ian_symbols_07e749e793e75f84dd7c40fa750ef91f" gradientUnits="userSpaceOnUse" x1="1697.1503" y1="1208.3423" x2="2883.0989" y2="1208.3423" gradientTransform="matrix(0.1992 0 0 -0.1992 -148.9922 553.5913)">
			<stop  offset="0" style="stop-color:#DC8F7F"/>
			<stop  offset="0.2753" style="stop-color:#B76C5E"/>
			<stop  offset="0.6292" style="stop-color:#B06659"/>
			<stop  offset="1" style="stop-color:#BA6856"/>
		</linearGradient>
		<path fill="url(#ian_symbols_07e749e793e75f84dd7c40fa750ef91f)" d="M190.538,313.55c-2.873-10.511-1.385-16.467,3.449-26.399c6.92-14.31,23.793-26.953,25.443-43.263
			c0.821-8.172-1.407-19.874,4.005-26.958c2.125-2.755,5.29-2.285,7.258-5.721c1.475-2.54,0.87-3.447,1.365-6.113
			c0.89-4.809,0.456-11.56,3.36-15.653c3.015-4.235,6.439-5.637,9.128-10.422c2.64-4.711,4.48-9.937,6.537-14.943
			c3.62-8.668,6.05-20.952,12.636-27.865c11.68-12.266,32.98-12.094,48.3-7.716c15.102,4.334,20.261,15.187,30.899,24.963
			c13.72,12.633,9.079,29.007,2.662,44.376c-3.53,8.452-5.459,34.326,6.893,37.488c2.513-4.118,3.579-10.119,7.802-13.28
			c7.437-5.55,8.731-0.588,15.062,1.667c6.437,2.304,7.02-1.064,13.565-1.235c4.53-0.133,12.393,4.221,15.835,7.182
			c5.767,4.951,12.834,15.393,13.352,22.923c0.304,4.392-1.949,7.123-1.584,11.52c0.415,4.858,3.187,8.991,4.55,13.869
			c2.255,7.947,4.814,18.33,4.162,26.698c-0.453,5.785-1.949,8.932-4.589,14.256c-3.105,6.285-2.275,8.192-2.52,14.81
			c-0.368,10.241-7.172,19.742-13.045,27.899c-6.084,8.462-10.591,16.492-14.665,26.252c-6.851,16.393-16.229,32.125-36.382,34.076
			c-9.06,0.887-16.146,2.559-22.992-3.77c-7.02-6.481-13.28-15.388-17.79-23.296c-4.765-8.368-7.822-18.266-6.763-28.169
			c0.367-3.535,3.49-8.383,2.432-12.05c-1.105-3.839-5.765-6.868-7.584-10.643c-1.819-3.657-0.958-9.402-6.545-9.986
			c-6.133-0.628-4.875,3.824-4.292,7.971c1.343,9.123,9.295,16.001,12.023,24.531c2.363,7.353,1.108,15.643,3.167,22.972
			c2.125,7.628,7.998,13.03,11.895,19.781c4.469,7.711,15.129,8.922,14.259,18.187c-0.868,9.241-12.501,22.767-17.788,30.267
			c-10.77,15.261-25.87,28.664-43.986,34.473c-13.567,4.329-43.253,14.3-54.391,1.397c-4.731-5.451-4.658-13.77-7.312-19.903
			c-1.88-4.378-1.427-2.927-4.679-5.765c-3.007-2.598-8.005-4.677-8.638-8.8c-0.768-5.035,5.834-15.163,7-20.364
			c1.468-6.427,2.29-13.457,3.199-20.002c0.814-5.907,0.15-11.829,0.706-17.854c0.625-6.849,3.973-13.761,3.204-20.933
			c-0.867-7.932-4.542-10.986-2.966-19.957c1.78-10.109-13.3-37.93-15.641-46.489L190.538,313.55z"/>
			<linearGradient id="ian_symbols_f01924bd583059a45de29b5a0ddde302" gradientUnits="userSpaceOnUse" x1="1841.0669" y1="1257.9645" x2="2679.8823" y2="1257.9645" gradientTransform="matrix(0.1992 0 0 -0.1992 -148.9922 553.5913)">
			<stop  offset="0" style="stop-color:#7E413B"/>
			<stop  offset="1" style="stop-color:#A96B5D"/>
		</linearGradient>
		<path fill="url(#ian_symbols_f01924bd583059a45de29b5a0ddde302)" d="M246.339,437c4.922,9.354,13.695,9.544,23.019,10.898c10.422,1.515,15.773-4.142,12.609-15.825
			c-1.258-4.588-4.875-7.495-7.518-11.849c-3.211-5.353-2.846-7.074-3.924-13.089c-1.819-10.06-7.998-20.281-10.709-30.311
			c-2.79-10.167-4.175-20.374-7.062-30.252c-2.559-8.726-4.53-22.202-1.669-30.718c5.723-16.997,31.27-27.919,48.256-23.59
			c15.585,3.966,38.853,23.928,42.731,39.39c1.174,4.628,0.196,10.393,1.581,14.766c1.63,5.089,5.765,6.564,8.148,10.619
			c1.324,2.235,1.603,9.447,3.105,10.354c5.913,3.647,7.258-7.515,7.969-11.124c1.564-7.814,1.515-15.893,3.167-23.737
			c0.821-3.946,2.252-7.932,2.985-11.873c0.998-5.201-0.169-9.099-0.081-13.438c0.15-9.466,8.06-15.937,12.542-23.727
			c3.488-6.108,6.652-23.536-3.62-25.438c-5.52-1.044-14.864,8.319-19.935,10.574c-7.368,3.28-17.653,8.113-25.96,7.697
			c-14.646-0.73-30.595-16.663-33.76-30.08c-1.841-7.888,0.176-16.619,1.196-25.243c1.275-10.77,4.826-11.506,11.849-19.05
			c6.307-6.78,11.312-44.489-5.589-35.689c-5.37-10.662-11.748-11.157-19.788-1.534c-2.75,3.289-3.809,7.623-6,10.462
			c-3.397,4.393-8.032,4.691-8.991,10.888c-1.493,9.57,4.358,16.825,1.169,26.929c-3.076,9.76-7.844,19.408-8.753,29.345
			c-1.04,11.54,1.385,21.624-8.062,30.002c-8.405,7.496-18.202,12.589-27.105,19.217c-7.04,5.25-16.146,14.408-5.567,21.825
			c8.447,5.937,16.771,3.618,16.295,16.682c-0.284,7.78-3.273,14.536-1.976,23.08c1.037,6.893,2.778,13.805,3.878,20.717
			c1.561,9.594,8.907,33.326,2.41,40.949L246.348,437H246.339z"/>
			<linearGradient id="ian_symbols_409cf722e5c34984b52e18574d7ae391" gradientUnits="userSpaceOnUse" x1="1259.1951" y1="1046.0864" x2="1584.8616" y2="1046.0864" gradientTransform="matrix(0.1992 0 0 -0.1992 -148.9922 553.5913)">
			<stop  offset="0" style="stop-color:#D0E1E1"/>
			<stop  offset="0.9551" style="stop-color:#E6E0D2"/>
		</linearGradient>
		<path fill="url(#ian_symbols_409cf722e5c34984b52e18574d7ae391)" d="M108.637,311.946c-10.714-5.26-7.035-14.535-0.767-21.408c6.206-6.824,12.045-10.403,9.92-20.541
			c-0.691-3.338-4.78-6.069-2.846-10.898c1.909-4.78,3.689-5.27,8.726-4.334c4.461,0.824,6.525,5.702,10.94,6.413
			c6.349,1.034,8.895-5.192,14.72-6.177c2.588,6.775-10.423,20.242-14.21,26.114c-5.915,9.207-3.92,16.295-2.757,26.909
			c0.436,3.937,1.549,8.324,0.883,12.437c-0.76,4.55-3.817,7.565-2.321,12.075c0.936,2.804,5.459,6.515,6.986,9.486
			c1.833,3.578,2.309,6.829,4.726,10.123c10.912,14.79,26.502,26.154,23.759,47.454c-1.255,9.707-3.488,18.81-4.753,28.732
			c-1.527,12.158-10.437,8.668-11.856-1.622c-1.16-8.3,3.071-16.751,2.37-25.335c-0.733-8.839-4.373-16.09-5.9-24.703
			c-1.865-10.614-5.913-19.59-13.077-28.331c-6.145-7.51-15.93-16.609-18.225-26.1l-6.322-10.3L108.637,311.946z"/>
	</g>
</g>
</svg>
