<svg id="Layer_1" data-name="Layer 1" xmlns="http://www.w3.org/2000/svg" xmlns:xlink="http://www.w3.org/1999/xlink" viewBox="0 0 180 146.367"><defs><style>.cls-1,.cls-5{fill:#468ed7;}.cls-2{isolation:isolate;}.cls-3{fill:url(#radial-gradient);}.cls-4{fill:#5656a5;}.cls-5{opacity:0.5;}.cls-6{fill:url(#radial-gradient-2);}.cls-7{fill:url(#radial-gradient-3);}.cls-8{fill:url(#radial-gradient-4);}.cls-9{fill:url(#radial-gradient-5);}.cls-10{fill:url(#radial-gradient-6);}.cls-11{fill:url(#radial-gradient-7);}.cls-12{fill:url(#radial-gradient-8);}</style><radialGradient id="radial-gradient" cx="38.511" cy="893.452" r="10.713" gradientTransform="translate(-86.375 -808.019) rotate(-6.443)" gradientUnits="userSpaceOnUse"><stop offset="0" stop-color="#afbaf7"/><stop offset="0.311" stop-color="#6d96ce"/><stop offset="0.803" stop-color="#285fcc"/></radialGradient><radialGradient id="radial-gradient-2" cx="-480.216" cy="144.792" r="2.265" gradientTransform="matrix(2.055, -1.891, -1.267, -1.376, 1282.938, -589.37)" gradientUnits="userSpaceOnUse"><stop offset="0" stop-color="#d5f6ff"/><stop offset="1" stop-color="#468ed7"/></radialGradient><radialGradient id="radial-gradient-3" cx="-529.117" cy="142.22" r="2.265" gradientTransform="matrix(2.241, -2.899, -1.499, -1.158, 1522.793, -1255.656)" xlink:href="#radial-gradient-2"/><radialGradient id="radial-gradient-4" cx="-579.138" cy="156.135" r="2.265" gradientTransform="matrix(1.567, -4.356, -1.783, -0.64, 1317.598, -2319.504)" xlink:href="#radial-gradient-2"/><radialGradient id="radial-gradient-5" cx="-610.993" cy="209.825" r="2.265" gradientTransform="matrix(0.005, -5.621, -1.895, 0, 535.845, -3344.367)" xlink:href="#radial-gradient-2"/><radialGradient id="radial-gradient-6" cx="-611.13" cy="166.899" r="2.265" gradientTransform="matrix(0.949, -3.873, -1.84, -0.449, 1024.069, -2213.959)" xlink:href="#radial-gradient-2"/><radialGradient id="radial-gradient-7" cx="-569.441" cy="132.935" r="2.265" gradientTransform="matrix(1.491, -2.238, -1.577, -1.049, 1201.516, -1069.632)" xlink:href="#radial-gradient-2"/><radialGradient id="radial-gradient-8" cx="-355.311" cy="271.899" r="2.265" gradientTransform="matrix(2.902, -0.285, -0.184, -1.885, 1181.047, 533.562)" xlink:href="#radial-gradient-2"/></defs><title>Neuron</title><g id="R-ICO-013681"><path id="BG" class="cls-1" d="M188.4,49.728a10.892,10.892,0,0,0-3.248.332,10.029,10.029,0,0,0-3.079,1.85c-2.029,1.493-3.678,3.236-6.263,3.672a12.237,12.237,0,0,1-6.358-.508c-2.3-.9-4.51-1.8-7.049-1.51a27.609,27.609,0,0,0,2.906-1.952c.938-.745,1.6-1.754,2.5-2.5a7.123,7.123,0,0,1,2.955-1.142,19.484,19.484,0,0,1,3.557-.624c3.158-.175,7.592-.692,8.7-4.338.177-.584.143-1.543-.684-1.492-.79.049-1.209,1.243-1.539,1.789-1.178,1.95-3.254,2.631-5.408,2.85-1.739.177-3.464-.047-5.13.59-.944.36-1.88.743-2.818,1.117.012-.042.024-.086.037-.128.616-2.074,1.2-4.034.284-5.918-.7-1.435,2.211-2.974,2.8-3.268a.819.819,0,0,0-.73-1.467c-3.168,1.578-4.459,3.564-3.545,5.449.636,1.313.165,2.9-.381,4.738-.19.639-.385,1.3-.545,1.987a4.1,4.1,0,0,1-.631.9c-1.8,1.73-4.485,2.368-6.819,2.993a5.586,5.586,0,0,0,1.111-3.283,17.675,17.675,0,0,0-1.775-8.818,9.12,9.12,0,0,1,1.827-2.889c1.206-1.492,2.453-3.035,2.232-4.937a19.6,19.6,0,0,0-1.912-5.961.819.819,0,0,0-1.45.762,18.222,18.222,0,0,1,1.735,5.388c.141,1.219-.84,2.433-1.879,3.719a15.293,15.293,0,0,0-1.692,2.391,4.847,4.847,0,0,0-.943-.738c-.572-.339-1.177-.658-1.763-.967-2.668-1.407-5.189-2.736-6.031-6.238a.819.819,0,0,0-1.593.384c1.016,4.221,4.121,5.859,6.86,7.3.594.314,1.155.61,1.692.928,2.572,1.521,3.307,7.285,2.994,10.7a14.622,14.622,0,0,1-2.273,3.393c.309-1.29.273-2.693-1.612-5.059-2.4-3.011-7.062-4.109-11.884-4.739a12.08,12.08,0,0,1-3.578-.931,32.889,32.889,0,0,0-3.434-2.407c-.51-.3-1.25-1.11-1.855-.857-.824.344-.7,1.522-.193,2.056a9.057,9.057,0,0,0,2.147,1.3c.434.237.876.458,1.323.67a12.1,12.1,0,0,0,5.377,1.8c4.463.583,8.907,1.446,10.779,4.086,1.353,1.909,2.047,3.769,1.194,5.538-.6,1.248-2.208,2.254-3.241,3.169-1.231,1.091-2.466,2.179-3.653,3.319a28.435,28.435,0,0,0-7.956,14.032c-1.371,5.8-1.813,11.881-2.7,17.773a47.19,47.19,0,0,1-3.006,9.681,15.047,15.047,0,0,1-1.876,3.684,25.347,25.347,0,0,1-2.827,3.246c-2.45,2.482-4.776,5.247-8.011,6.751-2.423,1.126-5.027,2.119-7.549,3a35.333,35.333,0,0,1-6.91,1.392,17.443,17.443,0,0,1-8.445-.6c-1.277-.48-2.335-2.162-2.933-3.356a10.45,10.45,0,0,1-.834-2.624c-.263-1.3-.555-2.78-.806-3.946a7.279,7.279,0,0,1,.387-5.085,3.4,3.4,0,0,1,6.081.779c.407,1.191-.223,2.228-.607,3.171a3.39,3.39,0,0,0,.841,3.677l.088-.068a4.922,4.922,0,0,1-.156-3.489c.334-1.471,1.662-3.17,3.269-3.245,1.709-.08,3.7.955,5.139,1.778a8.58,8.58,0,0,1,2.988,2.982l.105-.029c-.081-2.3-2.25-3.343-3.946-4.167,2.737-.452,5-2.081,7.689-2.3-1.151-1.246-3.694.229-4.872.709a11.6,11.6,0,0,1-3.391.987,14.166,14.166,0,0,1-3.923-.695c-2.105-.492-4.316-1.875-3.94-4.385.267-1.777,4.234-3.313,4.23-3.277a15.224,15.224,0,0,1,3.353-.921,33.037,33.037,0,0,0,6.08-1.485c1.834-.788,3.741.285,5.5.829.768.237,2.739,1.09,3.428.385a7.415,7.415,0,0,0-2.458-.834c-1.756-.3-3.219-1.261-5.057-1.324,1.331-1.149,2.255-2.693,3.591-3.823a8.529,8.529,0,0,1,3.027-1.473v-.109c-3.423-.827-5.02,3.33-7.306,5.1a11.249,11.249,0,0,1-5,1.817,17.906,17.906,0,0,1-2.272.288,1.9,1.9,0,0,1-.94-.114c-.436-.339.107-1.493.245-1.824a20.6,20.6,0,0,0,1.017-2.684,20.455,20.455,0,0,1,1.38-4.2,4.722,4.722,0,0,1,2.836-2.364c.957-.3,2.232-.827,3.337-1.1l0-.109a6.823,6.823,0,0,0-6.1,2.259c-2.065,2.515-1.673,6.188-3.657,8.758-.585.759-1.654,2.1-2.777,2.025-1.717-.113-1.606-2.721-1.844-3.859a19.58,19.58,0,0,0-.339-1.982c-.216-.693-.587-1.331-.86-2a4.852,4.852,0,0,1,.141-4.614l-.087-.07c-2.89,2.957.571,6.89.689,10.124a4.611,4.611,0,0,1-3.77,4.52c-2.183.577-5.131.98-7.087-.4s-2.543-4.333-2.5-6.572a19.707,19.707,0,0,1,1.354-6.4c1.768-4.685,4.758-9.319,9.3-11.669a18.633,18.633,0,0,1,7.679-1.988,11.746,11.746,0,0,0,6.324-1.727l-.057-.1a11.992,11.992,0,0,1-2.991.924,14.217,14.217,0,0,1-1.555.186c-.39.026-1.508.223-1.831.014-.945-.61.751-3.621.56-4.682a22.168,22.168,0,0,1-.176-2.634,3.028,3.028,0,0,1,.733-1.646l-.064-.089a2.651,2.651,0,0,0-1.438,3.033,4.674,4.674,0,0,1-.419,3.008,5.811,5.811,0,0,1-.906,1.947,11.323,11.323,0,0,1-2.528,1.23,7.243,7.243,0,0,1-1.731.473,5.762,5.762,0,0,1-2.131.329,3.039,3.039,0,0,1-2.183-1.986,42.927,42.927,0,0,0-1.218-5.157,7.353,7.353,0,0,1-.587-2.7,6.043,6.043,0,0,1,.567-2.772c.683-1.3,2.3-2.124,2.68-3.819l-.1-.045c-.81,1.164-2.17,1.9-2.853,3.02a7.13,7.13,0,0,0-.957,4.161,9.495,9.495,0,0,0-3.337-2.294,9.638,9.638,0,0,1-3.3-1.866c-1.041-1.009-1-2.508-1.371-3.846A3.859,3.859,0,0,0,84.113,60.6c2.476,1.807,5.867,2.138,7.027,5.377a13.177,13.177,0,0,1,1.106,4.867,10.861,10.861,0,0,1-1.157,3.926c-.8,1.681-2.3,4.387-4.133,5.027A2.112,2.112,0,0,1,84.3,78.651a6.727,6.727,0,0,0-3.244-2.6,6.078,6.078,0,0,1-.58-2.2c.072-.752.622-1.266.9-1.936a8.561,8.561,0,0,0,.243-1.272,7.971,7.971,0,0,0,.3-.79c.08-.515-.464-1.824-1.157-1.42a2.243,2.243,0,0,0-.349,1.667,4.189,4.189,0,0,1,.439,1.216c-.2.767-.8,1.344-.977,2.127a3.781,3.781,0,0,0,.369,2.3,6.55,6.55,0,0,1-2.971-2.178,4.253,4.253,0,0,1-.792-3.292l-.109-.027c-.306,1.082-.911,1.579-.747,2.775a3.76,3.76,0,0,0,2.386,2.979,1.9,1.9,0,0,0,.674.013,3.283,3.283,0,0,1,.94.225,8.7,8.7,0,0,1,2.527,1.2,5.634,5.634,0,0,1,1.561,1.531,9.7,9.7,0,0,1,1.236,3.594,4.7,4.7,0,0,1-1.124,3.761,13.9,13.9,0,0,1-7.642,5.262c-3.457.988-11.218-1.378-11.128-1.464a12.244,12.244,0,0,1-2.108-1.572c-.408-.405-.678-.9-1.074-1.308-.744-.76-.009-2.5.186-3.36a11.721,11.721,0,0,1,.234-1.651c.035-.085.281-.22.345-.359.311-.664.433-1.383.784-2.043.332-.624.141-.678.551-1.271l-.078-.078a2.553,2.553,0,0,1-.594.391c-.056.016-.2-.235-.255-.215a3.075,3.075,0,0,0-.966.919,3.772,3.772,0,0,0-.788,1.876c-.015.344.131.391.2.655a2.723,2.723,0,0,1-.009,1.221c-.2,1.127-.777,3.2-1.893,3.749-1.424.693-2.385-1.5-2.878-2.453-1.187-2.3-3.423-6.511-1.49-8.95.947-1.194,2.744-2.071,4.051-2.882A11.306,11.306,0,0,1,61.3,71.65a22.575,22.575,0,0,0,3.331-1.826,4.072,4.072,0,0,1,1.779-.291,4.388,4.388,0,0,1,1.26.088c-.355-.255-.231-.681-.548-.994a1.891,1.891,0,0,0-1.774-.357c-.343.14-.295.269-.534.512a3.334,3.334,0,0,1-.7.563c-.641.377-1.247.813-1.888,1.188-.6.35-1.942.992-2.582.392-.605-.567.384-1.24.75-1.678a27.644,27.644,0,0,0,2.084-2.154c.513-.79,1.488-3.894-.127-4.679-.314,1.062-.7,2.349-.937,3.529a4.684,4.684,0,0,1-.294,1.2c-.213.332-.441.655-.678.971A14.216,14.216,0,0,1,58.6,70.2a14.013,14.013,0,0,0-3.144,3.236c-.374.648-.5,1.923-1.509,1.826-.585-.056-1.125-.78-1.362-1.248a11.534,11.534,0,0,1-.445-2.606c-.118-.509-.385-.955-.522-1.447-.157-.563-.042-.682.09-1.292a9.247,9.247,0,0,0,0-3.011c-.288-2.535-.745-6.182-3.468-7.114a3.166,3.166,0,0,0,1.161,1.81,6.751,6.751,0,0,1,1.371,3.462c.19,1.2,1.16,5.187-.334,6.011-.858.474-2.073-.626-2.807-.962-1.01-.461-2.045-.923-3.087-1.3a10.411,10.411,0,0,1-4.678-3.178l-.094.06A6.983,6.983,0,0,0,43.7,68.105a17.924,17.924,0,0,1,3.226,1.187,7,7,0,0,1,3.34,2.752,20.355,20.355,0,0,1,3.4,10.3c.067,2.086-3.645,1.594-5.08,1.443a7.36,7.36,0,0,1-4.049-1.378c-1.247-.958-1.677-2.592-3.071-3.372l-.068.088c1.556,1.593,2.141,4.663,4.668,5.1,1.651.289,3.817.041,5.549.6a4.483,4.483,0,0,1,2.254,1.871c.686,1.128.374,2.621.331,3.886-.079,2.278-.118,5.258-1.95,6.923a24.242,24.242,0,0,1-6.536,4.018,16.281,16.281,0,0,1-6.656,1.457c-5.636-.143-5.3-7.57-5.625-11.644-.22-2.772-1.139-5.738.914-7.984A12.9,12.9,0,0,1,36.8,81.452a1.438,1.438,0,0,0,.739-1.823A26.183,26.183,0,0,1,34.84,82a6.357,6.357,0,0,0-2.307,3.045c-.671-1.12-1.586-2.809-3.039-2.992l-.039.1A5.975,5.975,0,0,1,31.6,84.9a13.327,13.327,0,0,1,.452,1.421c.052.187.594,3.561.711,5.04A8.338,8.338,0,0,0,29.6,90.09a8.12,8.12,0,0,1-1.973-.523c-.442-.255-.5-.672-1-1.015-.6-.41-1.82-.634-1.416.534a2.057,2.057,0,0,0,1,1.007,3.758,3.758,0,0,0,1.109.076,20.019,20.019,0,0,1,3.332.9,5.629,5.629,0,0,1,1.544.707,1.542,1.542,0,0,1,.725,1.438,24.249,24.249,0,0,0,1.242,7.2c-2.024-1.864-4.933-1.723-7.392-1a12.64,12.64,0,0,1-6.873.439c-.846-.232-1.263-.333-1.5-1.2a7.539,7.539,0,0,1-.289-1.517,10.375,10.375,0,0,1,.24-2.112c.216-1.538.428-3.575-1.18-4.362-.275.649.352,1.463.5,1.933a3.9,3.9,0,0,1,.112,1.429c-.125,1.729-.518,3.08-.031,4.823-1.278-.859-1.783-1.838-2.893-2.873a8,8,0,0,0-4.83-2.243l-.019.11c3.584.947,5.2,4.672,8.392,6.2a9.861,9.861,0,0,0,5.584.669c1.593-.225,3.093-.839,4.671-1.063a6.191,6.191,0,0,1,5.007,1.214,2.708,2.708,0,0,1,1.168,2.035c-.085.909-1.037,1.531-1.7,2.025a16.582,16.582,0,0,1-5.028,2.747c-1.764.515-3.424-.2-5.049-.869a10.779,10.779,0,0,0-3.919-.848c-1.514.006-4.033.433-4.469,2.2l.1.05c1.562-1.791,3.622-1.351,5.653-1.291,1.38.041,3.462.57,3.331,2.526-.14,2.117-1.322,3.752-2.279,5.554a15.866,15.866,0,0,1-2.292,3.867,4.987,4.987,0,0,1-2.82,1.1l.005.11a3.622,3.622,0,0,0,3.885-1.657c.144-.224.281-.452.42-.679.913-1.492,1.98-2.983,2.77-4.546.877-1.739,2.985-3.259,4.715-4.416,2.263-1.512,4.8-2.658,7.612-2.036a13.749,13.749,0,0,1,7.29,4.293,12.735,12.735,0,0,1,3.183,8.627,14.2,14.2,0,0,1-1.84,8.079,7.634,7.634,0,0,1-7.116,3.523,6,6,0,0,1-4.169-2.243c-1.035-1.07-2.453-2.76-2.221-4.349.21-1.445,3.084-7.271.227-7.4.022.266.385.408.472.747a3.918,3.918,0,0,1,0,.842,10.82,10.82,0,0,1-.513,2.656,26.635,26.635,0,0,0-.815,2.867,4.4,4.4,0,0,0,.913,3.26c-.468-.984-2.735-.323-3.46-.056-1.365.5-2.927,1.524-3.275,3.038l.1.047c2.136-2.852,5.3-3.362,8.019-1.1,1.082.9,2.4,2.1,4,2.316a10.185,10.185,0,0,0,5.39-.856c-.139.228.35.953.348,1.273a3.869,3.869,0,0,1-.665,1.829,7.355,7.355,0,0,1-4.059,2.645c-1.045.3-2.095.576-3.136.891a16.069,16.069,0,0,0-2.373.9,4.811,4.811,0,0,1-1.777.764c-2.944-.045-5.588-2.035-8.587-1.647a15.576,15.576,0,0,0-3.639,1.092,5.123,5.123,0,0,0-2.247,1.57,3.824,3.824,0,0,0,2.595-.8,9.115,9.115,0,0,1,3.344-1.195c2.721-.361,5.4,1.185,8.056,1.589a5.085,5.085,0,0,0-1.95,2.029,6.764,6.764,0,0,0-.458,2.665l.109.019a8.82,8.82,0,0,1,3.171-4.524,16.9,16.9,0,0,1,5.19-2.191c.632-.18,1.269-.345,1.9-.527a6.6,6.6,0,0,0,1.172-.447c.667-.329.665-.122.991.511a5.919,5.919,0,0,1,.4,3.9,25.112,25.112,0,0,1-2.145,5.8c-.426.908-.86,1.813-1.335,2.7a6.1,6.1,0,0,1-2.409,2.332,11.294,11.294,0,0,1-5.973,1.529c-2.031-.009-3-2.736-4.312-3.927a4.29,4.29,0,0,0-1.935-1.146c-1.26-.2-.262.759.274,1.031a3.669,3.669,0,0,1,1.708,1.222,13.338,13.338,0,0,0,2.74,2.971,4.656,4.656,0,0,0-4.185,4.535l.105.032c1.152-2.12,2.228-3.708,4.777-3.986,2.831-.309,5.292-.38,7.727-2.065-1.088,2.286-.762,5.281-.154,7.659a15.5,15.5,0,0,0,.872,2.717c.581,1.173,1.788,1.854,1.9,3.279l.11.008c.326-1.522-.567-2.709-1.337-3.918a10.553,10.553,0,0,1-1.228-4.079c1.344.838,3.09.353,4.4,1.331a1.815,1.815,0,0,1,.428.5,7.642,7.642,0,0,0,.943,1.21c.727-1.61-1.526-2.747-2.8-3.032-1.192-.266-3.04,0-3.086-1.627a8.332,8.332,0,0,1,.279-3.065,22.185,22.185,0,0,1,1.757-3.187A10.523,10.523,0,0,1,39.952,147c.833-.7,1.374-.816,2.187-.382a6.234,6.234,0,0,0,3.046,1.095l.008-.111a3.373,3.373,0,0,1-2.875-3c-.17-.806-.264-1.645-.36-2.463a8.764,8.764,0,0,0-.073-1.792c1.409-4.286,4.154-8.175,6.783-11.8a6.06,6.06,0,0,1,8.066-1.785,14.835,14.835,0,0,1,6.489,9.162,13.94,13.94,0,0,1,.412,5.742,8.749,8.749,0,0,1-3.134,4.478,25.039,25.039,0,0,1-5.06,2.957c-1.038.533-3.616,1.557-3.494,3.042,1.757-2.52,5.52-2.58,7.834-4.46.448-.365,1.4-1.6,2.069-1.561,1.092.069,1.733,1.773,1.933,2.577a15.546,15.546,0,0,1-.712,8.913c-1.327,3.28-4.578,3.954-7.348,5.661-1.854,1.142-2.432,3.692-2.56,5.924l.108.022a15.779,15.779,0,0,1,2.2-4.625,7.417,7.417,0,0,1,3.017-2.116,10.044,10.044,0,0,0,4.15-2.671c.331-.405.518-1.182,1.031-1.239.481-.055.93.579,1.142.914a13.244,13.244,0,0,1,1.44,4.231,6.643,6.643,0,0,1-.316,3.085c-.6,2.347-1.085,4.391.692,6.4a15.834,15.834,0,0,1-.52-3.643,24.657,24.657,0,0,1,.8-3.768c.613-2.785-1.4-5.089-1.746-7.693-.184-1.365-.1-3.513,1.353-4.13.941-.4,1.244.043,2.1.462a13.533,13.533,0,0,0,2.3.875c1.445.4,3.321.479,4.316,1.823a7.423,7.423,0,0,1,.917,3.744l.111.012c.288-1.225.646-2.984-.25-4.05a7.164,7.164,0,0,0-2.593-1.643c1.76-.663,4.5-1.723,6.318-.764.595.315.732.72,1.464.96a2.307,2.307,0,0,0,2.044-.243c-.3-.268-1.361-.362-1.839-.606s-.749-.335-1.17-.588a4.618,4.618,0,0,0-3.177-.443,18.512,18.512,0,0,0-2.585.617,8.038,8.038,0,0,1-2.553.731,8.439,8.439,0,0,1-4.728-2.173c-2.58-2.719-2.893-6.574-2.134-10.141a2.292,2.292,0,0,1,.416-1.145c.536-.439,1.042.014,1.645.418,1.268.85,2.281,2.483,3.905,2.686l.035-.1a10.674,10.674,0,0,1-3.549-4.131,6.962,6.962,0,0,1-1.474-3.654c0-3.547,3.211-5.625,5.989-7.057,2.382-1.228,5.393-2.158,8.009-1.1,3.2,1.29,3.977,5.356,2.5,8.171-.489.935-1.076,1.511-1.539,2.4a8.394,8.394,0,0,0-.762,4.681l.11.007a20.632,20.632,0,0,1,1.758-4.821c.215-.435.216-.441.4-.858.26-.595.869-2.095,1.435-2.28,1.206-.393,2.513,1.386,3.049,2.115A28.959,28.959,0,0,1,90.07,143.5a17.575,17.575,0,0,1,1.224,10.569,12.3,12.3,0,0,0-.1,4.492,8.791,8.791,0,0,0,2.58,3.924l.088-.07a10.231,10.231,0,0,1-2.088-7.161c.3-2.249.662-6.08,3.132-7.032,1.932.936,4.736,1.542,6.155,3.277-.079.227.458.854.619,1.184a19.1,19.1,0,0,1,.718,1.776c1.464-3.8-3.969-5.349-6.467-6.5a24.864,24.864,0,0,1-3.206-1.719,2.96,2.96,0,0,1-1.586-2.321,3.206,3.206,0,0,1,1.269-3.216l-.118-.063a9.778,9.778,0,0,1,4.569,1.633l.084-.072a3.387,3.387,0,0,0-2.6-1.875c-1.365-.211-3.372-.214-4.28-1.428A11.475,11.475,0,0,1,88,130.074a4.934,4.934,0,0,1,4.382-3.976c3.564-.37,7.173-.1,10.747-.3,5.461-1.2,17.489-3.112,25.051-11.437a37.513,37.513,0,0,0,8-12.444C138.33,96,138.76,89.466,139.4,83.249a24.041,24.041,0,0,1,.766-4.972c.463-1.433.967-2.854,1.451-4.28a25.462,25.462,0,0,1,2.508-5.331,16.973,16.973,0,0,1,1.816-2.174l3.261-3.663a21.426,21.426,0,0,1,1.947-2.187,6.814,6.814,0,0,1,3.648-1.469,6.742,6.742,0,0,1,3.472,1.438c2.027,1.621,2.445,4.277,2.467,6.722.03,3.327-.912,6.548-.771,9.874a22.707,22.707,0,0,0,.679,4.909c.29,1.086.647,2.939,1.809,3.424,1.357.566,1.089-1.118.806-1.878a32.9,32.9,0,0,1-1.633-3.981,20.213,20.213,0,0,1,.475-9.446,13.816,13.816,0,0,0,3.168,3.184c1.023.658,2.008.763,2.307,2.1.468,2.1.187,4.647,1.525,6.469.4.547,1.017,1.291,1.769,1.235,1.7-.127-.376-2.14-.7-2.57a3.156,3.156,0,0,1-.662-2.594,4.3,4.3,0,0,0-.828-3.608,10.715,10.715,0,0,0,4.506.088c.822-.177,3.632-.879,2.988-2.22-.543-1.131-2.629.319-3.414.534a10.974,10.974,0,0,1-4.147.256,5.432,5.432,0,0,1-3.2-1.125,12.869,12.869,0,0,1-2.461-3.385,12.716,12.716,0,0,1-1.423-4.8,5.969,5.969,0,0,0-1.453-3.49c-.672-.746-2.3-1.732-2.42-2.765-.166-1.388,1.94-1.831,2.939-2.05a13.421,13.421,0,0,1,7.109.562,8.6,8.6,0,0,1,5.563,4.963c1.21,3.135,1.749,7.029,5.332,8.375,1.1.413,3.773,1.179,4.716.151,1.235-1.348-1.718-1.449-2.322-1.533-1.793-.249-3.324-.561-4.467-2.083a12.684,12.684,0,0,1-1.734-3.917,13.215,13.215,0,0,0,8.653,2.4c1.151-.079,7.949-1.8,6.3-3.532-.431-.452-1.354-.114-1.818.071-1.053.421-2.027,1.007-3.106,1.382a10.93,10.93,0,0,1-4.846.508,10.425,10.425,0,0,1-4.4-1.592c-1.6-1.023-1.837-3.1-3.363-4.221,4.368.73,7.494-1.619,10.841-4.086a5.061,5.061,0,0,1,2.211-1.3,17.11,17.11,0,0,1,2.279.122c.617.023,1.39.046,1.8-.53C189.849,50.525,189.158,49.767,188.4,49.728Z" transform="translate(-10 -26.816)"/><g id="Nucleus"><g id="NUCLEUS-2" data-name="NUCLEUS" class="cls-2"><circle class="cls-3" cx="54.645" cy="78.602" r="8.151"/><path class="cls-4" d="M65.593,113.816a8.451,8.451,0,1,1,7.45-9.346A8.46,8.46,0,0,1,65.593,113.816Zm-1.829-16.2a7.852,7.852,0,1,0,8.683,6.921A7.86,7.86,0,0,0,63.764,97.616Z" transform="translate(-10 -26.816)"/></g></g><path id="FG" class="cls-5" d="M188.4,49.728a10.892,10.892,0,0,0-3.248.332,10.029,10.029,0,0,0-3.079,1.85c-2.029,1.493-3.678,3.236-6.263,3.672a12.237,12.237,0,0,1-6.358-.508c-2.3-.9-4.51-1.8-7.049-1.51a27.609,27.609,0,0,0,2.906-1.952c.938-.745,1.6-1.754,2.5-2.5a7.123,7.123,0,0,1,2.955-1.142,19.484,19.484,0,0,1,3.557-.624c3.158-.175,7.592-.692,8.7-4.338.177-.584.143-1.543-.684-1.492-.79.049-1.209,1.243-1.539,1.789-1.178,1.95-3.254,2.631-5.408,2.85-1.739.177-3.464-.047-5.13.59-.944.36-1.88.743-2.818,1.117.012-.042.024-.086.037-.128.616-2.074,1.2-4.034.284-5.918-.7-1.435,2.211-2.974,2.8-3.268a.819.819,0,0,0-.73-1.467c-3.168,1.578-4.459,3.564-3.545,5.449.636,1.313.165,2.9-.381,4.738-.19.639-.385,1.3-.545,1.987a4.1,4.1,0,0,1-.631.9c-1.8,1.73-4.485,2.368-6.819,2.993a5.586,5.586,0,0,0,1.111-3.283,17.675,17.675,0,0,0-1.775-8.818,9.12,9.12,0,0,1,1.827-2.889c1.206-1.492,2.453-3.035,2.232-4.937a19.6,19.6,0,0,0-1.912-5.961.819.819,0,0,0-1.45.762,18.222,18.222,0,0,1,1.735,5.388c.141,1.219-.84,2.433-1.879,3.719a15.293,15.293,0,0,0-1.692,2.391,4.847,4.847,0,0,0-.943-.738c-.572-.339-1.177-.658-1.763-.967-2.668-1.407-5.189-2.736-6.031-6.238a.819.819,0,0,0-1.593.384c1.016,4.221,4.121,5.859,6.86,7.3.594.314,1.155.61,1.692.928,2.572,1.521,3.307,7.285,2.994,10.7a14.622,14.622,0,0,1-2.273,3.393c.309-1.29.273-2.693-1.612-5.059-2.4-3.011-7.062-4.109-11.884-4.739a12.08,12.08,0,0,1-3.578-.931,32.889,32.889,0,0,0-3.434-2.407c-.51-.3-1.25-1.11-1.855-.857-.824.344-.7,1.522-.193,2.056a9.057,9.057,0,0,0,2.147,1.3c.434.237.876.458,1.323.67a12.1,12.1,0,0,0,5.377,1.8c4.463.583,8.907,1.446,10.779,4.086,1.353,1.909,2.047,3.769,1.194,5.538-.6,1.248-2.208,2.254-3.241,3.169-1.231,1.091-2.466,2.179-3.653,3.319a28.435,28.435,0,0,0-7.956,14.032c-1.371,5.8-1.813,11.881-2.7,17.773a47.19,47.19,0,0,1-3.006,9.681,15.047,15.047,0,0,1-1.876,3.684,25.347,25.347,0,0,1-2.827,3.246c-2.45,2.482-4.776,5.247-8.011,6.751-2.423,1.126-5.027,2.119-7.549,3a35.333,35.333,0,0,1-6.91,1.392,17.443,17.443,0,0,1-8.445-.6c-1.277-.48-2.335-2.162-2.933-3.356a10.45,10.45,0,0,1-.834-2.624c-.263-1.3-.555-2.78-.806-3.946a7.279,7.279,0,0,1,.387-5.085,3.4,3.4,0,0,1,6.081.779c.407,1.191-.223,2.228-.607,3.171a3.39,3.39,0,0,0,.841,3.677l.088-.068a4.922,4.922,0,0,1-.156-3.489c.334-1.471,1.662-3.17,3.269-3.245,1.709-.08,3.7.955,5.139,1.778a8.58,8.58,0,0,1,2.988,2.982l.105-.029c-.081-2.3-2.25-3.343-3.946-4.167,2.737-.452,5-2.081,7.689-2.3-1.151-1.246-3.694.229-4.872.709a11.6,11.6,0,0,1-3.391.987,14.166,14.166,0,0,1-3.923-.695c-2.105-.492-4.316-1.875-3.94-4.385.267-1.777,4.234-3.313,4.23-3.277a15.224,15.224,0,0,1,3.353-.921,33.037,33.037,0,0,0,6.08-1.485c1.834-.788,3.741.285,5.5.829.768.237,2.739,1.09,3.428.385a7.415,7.415,0,0,0-2.458-.834c-1.756-.3-3.219-1.261-5.057-1.324,1.331-1.149,2.255-2.693,3.591-3.823a8.529,8.529,0,0,1,3.027-1.473v-.109c-3.423-.827-5.02,3.33-7.306,5.1a11.249,11.249,0,0,1-5,1.817,17.906,17.906,0,0,1-2.272.288,1.9,1.9,0,0,1-.94-.114c-.436-.339.107-1.493.245-1.824a20.6,20.6,0,0,0,1.017-2.684,20.455,20.455,0,0,1,1.38-4.2,4.722,4.722,0,0,1,2.836-2.364c.957-.3,2.232-.827,3.337-1.1l0-.109a6.823,6.823,0,0,0-6.1,2.259c-2.065,2.515-1.673,6.188-3.657,8.758-.585.759-1.654,2.1-2.777,2.025-1.717-.113-1.606-2.721-1.844-3.859a19.58,19.58,0,0,0-.339-1.982c-.216-.693-.587-1.331-.86-2a4.852,4.852,0,0,1,.141-4.614l-.087-.07c-2.89,2.957.571,6.89.689,10.124a4.611,4.611,0,0,1-3.77,4.52c-2.183.577-5.131.98-7.087-.4s-2.543-4.333-2.5-6.572a19.707,19.707,0,0,1,1.354-6.4c1.768-4.685,4.758-9.319,9.3-11.669a18.633,18.633,0,0,1,7.679-1.988,11.746,11.746,0,0,0,6.324-1.727l-.057-.1a11.992,11.992,0,0,1-2.991.924,14.217,14.217,0,0,1-1.555.186c-.39.026-1.508.223-1.831.014-.945-.61.751-3.621.56-4.682a22.168,22.168,0,0,1-.176-2.634,3.028,3.028,0,0,1,.733-1.646l-.064-.089a2.651,2.651,0,0,0-1.438,3.033,4.674,4.674,0,0,1-.419,3.008,5.811,5.811,0,0,1-.906,1.947,11.323,11.323,0,0,1-2.528,1.23,7.243,7.243,0,0,1-1.731.473,5.762,5.762,0,0,1-2.131.329,3.039,3.039,0,0,1-2.183-1.986,42.927,42.927,0,0,0-1.218-5.157,7.353,7.353,0,0,1-.587-2.7,6.043,6.043,0,0,1,.567-2.772c.683-1.3,2.3-2.124,2.68-3.819l-.1-.045c-.81,1.164-2.17,1.9-2.853,3.02a7.13,7.13,0,0,0-.957,4.161,9.495,9.495,0,0,0-3.337-2.294,9.638,9.638,0,0,1-3.3-1.866c-1.041-1.009-1-2.508-1.371-3.846A3.859,3.859,0,0,0,84.113,60.6c2.476,1.807,5.867,2.138,7.027,5.377a13.177,13.177,0,0,1,1.106,4.867,10.861,10.861,0,0,1-1.157,3.926c-.8,1.681-2.3,4.387-4.133,5.027A2.112,2.112,0,0,1,84.3,78.651a6.727,6.727,0,0,0-3.244-2.6,6.078,6.078,0,0,1-.58-2.2c.072-.752.622-1.266.9-1.936a8.561,8.561,0,0,0,.243-1.272,7.971,7.971,0,0,0,.3-.79c.08-.515-.464-1.824-1.157-1.42a2.243,2.243,0,0,0-.349,1.667,4.189,4.189,0,0,1,.439,1.216c-.2.767-.8,1.344-.977,2.127a3.781,3.781,0,0,0,.369,2.3,6.55,6.55,0,0,1-2.971-2.178,4.253,4.253,0,0,1-.792-3.292l-.109-.027c-.306,1.082-.911,1.579-.747,2.775a3.76,3.76,0,0,0,2.386,2.979,1.9,1.9,0,0,0,.674.013,3.283,3.283,0,0,1,.94.225,8.7,8.7,0,0,1,2.527,1.2,5.634,5.634,0,0,1,1.561,1.531,9.7,9.7,0,0,1,1.236,3.594,4.7,4.7,0,0,1-1.124,3.761,13.9,13.9,0,0,1-7.642,5.262c-3.457.988-11.218-1.378-11.128-1.464a12.244,12.244,0,0,1-2.108-1.572c-.408-.405-.678-.9-1.074-1.308-.744-.76-.009-2.5.186-3.36a11.721,11.721,0,0,1,.234-1.651c.035-.085.281-.22.345-.359.311-.664.433-1.383.784-2.043.332-.624.141-.678.551-1.271l-.078-.078a2.553,2.553,0,0,1-.594.391c-.056.016-.2-.235-.255-.215a3.075,3.075,0,0,0-.966.919,3.772,3.772,0,0,0-.788,1.876c-.015.344.131.391.2.655a2.723,2.723,0,0,1-.009,1.221c-.2,1.127-.777,3.2-1.893,3.749-1.424.693-2.385-1.5-2.878-2.453-1.187-2.3-3.423-6.511-1.49-8.95.947-1.194,2.744-2.071,4.051-2.882A11.306,11.306,0,0,1,61.3,71.65a22.575,22.575,0,0,0,3.331-1.826,4.072,4.072,0,0,1,1.779-.291,4.388,4.388,0,0,1,1.26.088c-.355-.255-.231-.681-.548-.994a1.891,1.891,0,0,0-1.774-.357c-.343.14-.295.269-.534.512a3.334,3.334,0,0,1-.7.563c-.641.377-1.247.813-1.888,1.188-.6.35-1.942.992-2.582.392-.605-.567.384-1.24.75-1.678a27.644,27.644,0,0,0,2.084-2.154c.513-.79,1.488-3.894-.127-4.679-.314,1.062-.7,2.349-.937,3.529a4.684,4.684,0,0,1-.294,1.2c-.213.332-.441.655-.678.971A14.216,14.216,0,0,1,58.6,70.2a14.013,14.013,0,0,0-3.144,3.236c-.374.648-.5,1.923-1.509,1.826-.585-.056-1.125-.78-1.362-1.248a11.534,11.534,0,0,1-.445-2.606c-.118-.509-.385-.955-.522-1.447-.157-.563-.042-.682.09-1.292a9.247,9.247,0,0,0,0-3.011c-.288-2.535-.745-6.182-3.468-7.114a3.166,3.166,0,0,0,1.161,1.81,6.751,6.751,0,0,1,1.371,3.462c.19,1.2,1.16,5.187-.334,6.011-.858.474-2.073-.626-2.807-.962-1.01-.461-2.045-.923-3.087-1.3a10.411,10.411,0,0,1-4.678-3.178l-.094.06A6.983,6.983,0,0,0,43.7,68.105a17.924,17.924,0,0,1,3.226,1.187,7,7,0,0,1,3.34,2.752,20.355,20.355,0,0,1,3.4,10.3c.067,2.086-3.645,1.594-5.08,1.443a7.36,7.36,0,0,1-4.049-1.378c-1.247-.958-1.677-2.592-3.071-3.372l-.068.088c1.556,1.593,2.141,4.663,4.668,5.1,1.651.289,3.817.041,5.549.6a4.483,4.483,0,0,1,2.254,1.871c.686,1.128.374,2.621.331,3.886-.079,2.278-.118,5.258-1.95,6.923a24.242,24.242,0,0,1-6.536,4.018,16.281,16.281,0,0,1-6.656,1.457c-5.636-.143-5.3-7.57-5.625-11.644-.22-2.772-1.139-5.738.914-7.984A12.9,12.9,0,0,1,36.8,81.452a1.438,1.438,0,0,0,.739-1.823A26.183,26.183,0,0,1,34.84,82a6.357,6.357,0,0,0-2.307,3.045c-.671-1.12-1.586-2.809-3.039-2.992l-.039.1A5.975,5.975,0,0,1,31.6,84.9a13.327,13.327,0,0,1,.452,1.421c.052.187.594,3.561.711,5.04A8.338,8.338,0,0,0,29.6,90.09a8.12,8.12,0,0,1-1.973-.523c-.442-.255-.5-.672-1-1.015-.6-.41-1.82-.634-1.416.534a2.057,2.057,0,0,0,1,1.007,3.758,3.758,0,0,0,1.109.076,20.019,20.019,0,0,1,3.332.9,5.629,5.629,0,0,1,1.544.707,1.542,1.542,0,0,1,.725,1.438,24.249,24.249,0,0,0,1.242,7.2c-2.024-1.864-4.933-1.723-7.392-1a12.64,12.64,0,0,1-6.873.439c-.846-.232-1.263-.333-1.5-1.2a7.539,7.539,0,0,1-.289-1.517,10.375,10.375,0,0,1,.24-2.112c.216-1.538.428-3.575-1.18-4.362-.275.649.352,1.463.5,1.933a3.9,3.9,0,0,1,.112,1.429c-.125,1.729-.518,3.08-.031,4.823-1.278-.859-1.783-1.838-2.893-2.873a8,8,0,0,0-4.83-2.243l-.019.11c3.584.947,5.2,4.672,8.392,6.2a9.861,9.861,0,0,0,5.584.669c1.593-.225,3.093-.839,4.671-1.063a6.191,6.191,0,0,1,5.007,1.214,2.708,2.708,0,0,1,1.168,2.035c-.085.909-1.037,1.531-1.7,2.025a16.582,16.582,0,0,1-5.028,2.747c-1.764.515-3.424-.2-5.049-.869a10.779,10.779,0,0,0-3.919-.848c-1.514.006-4.033.433-4.469,2.2l.1.05c1.562-1.791,3.622-1.351,5.653-1.291,1.38.041,3.462.57,3.331,2.526-.14,2.117-1.322,3.752-2.279,5.554a15.866,15.866,0,0,1-2.292,3.867,4.987,4.987,0,0,1-2.82,1.1l.005.11a3.622,3.622,0,0,0,3.885-1.657c.144-.224.281-.452.42-.679.913-1.492,1.98-2.983,2.77-4.546.877-1.739,2.985-3.259,4.715-4.416,2.263-1.512,4.8-2.658,7.612-2.036a13.749,13.749,0,0,1,7.29,4.293,12.735,12.735,0,0,1,3.183,8.627,14.2,14.2,0,0,1-1.84,8.079,7.634,7.634,0,0,1-7.116,3.523,6,6,0,0,1-4.169-2.243c-1.035-1.07-2.453-2.76-2.221-4.349.21-1.445,3.084-7.271.227-7.4.022.266.385.408.472.747a3.918,3.918,0,0,1,0,.842,10.82,10.82,0,0,1-.513,2.656,26.635,26.635,0,0,0-.815,2.867,4.4,4.4,0,0,0,.913,3.26c-.468-.984-2.735-.323-3.46-.056-1.365.5-2.927,1.524-3.275,3.038l.1.047c2.136-2.852,5.3-3.362,8.019-1.1,1.082.9,2.4,2.1,4,2.316a10.185,10.185,0,0,0,5.39-.856c-.139.228.35.953.348,1.273a3.869,3.869,0,0,1-.665,1.829,7.355,7.355,0,0,1-4.059,2.645c-1.045.3-2.095.576-3.136.891a16.069,16.069,0,0,0-2.373.9,4.811,4.811,0,0,1-1.777.764c-2.944-.045-5.588-2.035-8.587-1.647a15.576,15.576,0,0,0-3.639,1.092,5.123,5.123,0,0,0-2.247,1.57,3.824,3.824,0,0,0,2.595-.8,9.115,9.115,0,0,1,3.344-1.195c2.721-.361,5.4,1.185,8.056,1.589a5.085,5.085,0,0,0-1.95,2.029,6.764,6.764,0,0,0-.458,2.665l.109.019a8.82,8.82,0,0,1,3.171-4.524,16.9,16.9,0,0,1,5.19-2.191c.632-.18,1.269-.345,1.9-.527a6.6,6.6,0,0,0,1.172-.447c.667-.329.665-.122.991.511a5.919,5.919,0,0,1,.4,3.9,25.112,25.112,0,0,1-2.145,5.8c-.426.908-.86,1.813-1.335,2.7a6.1,6.1,0,0,1-2.409,2.332,11.294,11.294,0,0,1-5.973,1.529c-2.031-.009-3-2.736-4.312-3.927a4.29,4.29,0,0,0-1.935-1.146c-1.26-.2-.262.759.274,1.031a3.669,3.669,0,0,1,1.708,1.222,13.338,13.338,0,0,0,2.74,2.971,4.656,4.656,0,0,0-4.185,4.535l.105.032c1.152-2.12,2.228-3.708,4.777-3.986,2.831-.309,5.292-.38,7.727-2.065-1.088,2.286-.762,5.281-.154,7.659a15.5,15.5,0,0,0,.872,2.717c.581,1.173,1.788,1.854,1.9,3.279l.11.008c.326-1.522-.567-2.709-1.337-3.918a10.553,10.553,0,0,1-1.228-4.079c1.344.838,3.09.353,4.4,1.331a1.815,1.815,0,0,1,.428.5,7.642,7.642,0,0,0,.943,1.21c.727-1.61-1.526-2.747-2.8-3.032-1.192-.266-3.04,0-3.086-1.627a8.332,8.332,0,0,1,.279-3.065,22.185,22.185,0,0,1,1.757-3.187A10.523,10.523,0,0,1,39.952,147c.833-.7,1.374-.816,2.187-.382a6.234,6.234,0,0,0,3.046,1.095l.008-.111a3.373,3.373,0,0,1-2.875-3c-.17-.806-.264-1.645-.36-2.463a8.764,8.764,0,0,0-.073-1.792c1.409-4.286,4.154-8.175,6.783-11.8a6.06,6.06,0,0,1,8.066-1.785,14.835,14.835,0,0,1,6.489,9.162,13.94,13.94,0,0,1,.412,5.742,8.749,8.749,0,0,1-3.134,4.478,25.039,25.039,0,0,1-5.06,2.957c-1.038.533-3.616,1.557-3.494,3.042,1.757-2.52,5.52-2.58,7.834-4.46.448-.365,1.4-1.6,2.069-1.561,1.092.069,1.733,1.773,1.933,2.577a15.546,15.546,0,0,1-.712,8.913c-1.327,3.28-4.578,3.954-7.348,5.661-1.854,1.142-2.432,3.692-2.56,5.924l.108.022a15.779,15.779,0,0,1,2.2-4.625,7.417,7.417,0,0,1,3.017-2.116,10.044,10.044,0,0,0,4.15-2.671c.331-.405.518-1.182,1.031-1.239.481-.055.93.579,1.142.914a13.244,13.244,0,0,1,1.44,4.231,6.643,6.643,0,0,1-.316,3.085c-.6,2.347-1.085,4.391.692,6.4a15.834,15.834,0,0,1-.52-3.643,24.657,24.657,0,0,1,.8-3.768c.613-2.785-1.4-5.089-1.746-7.693-.184-1.365-.1-3.513,1.353-4.13.941-.4,1.244.043,2.1.462a13.533,13.533,0,0,0,2.3.875c1.445.4,3.321.479,4.316,1.823a7.423,7.423,0,0,1,.917,3.744l.111.012c.288-1.225.646-2.984-.25-4.05a7.164,7.164,0,0,0-2.593-1.643c1.76-.663,4.5-1.723,6.318-.764.595.315.732.72,1.464.96a2.307,2.307,0,0,0,2.044-.243c-.3-.268-1.361-.362-1.839-.606s-.749-.335-1.17-.588a4.618,4.618,0,0,0-3.177-.443,18.512,18.512,0,0,0-2.585.617,8.038,8.038,0,0,1-2.553.731,8.439,8.439,0,0,1-4.728-2.173c-2.58-2.719-2.893-6.574-2.134-10.141a2.292,2.292,0,0,1,.416-1.145c.536-.439,1.042.014,1.645.418,1.268.85,2.281,2.483,3.905,2.686l.035-.1a10.674,10.674,0,0,1-3.549-4.131,6.962,6.962,0,0,1-1.474-3.654c0-3.547,3.211-5.625,5.989-7.057,2.382-1.228,5.393-2.158,8.009-1.1,3.2,1.29,3.977,5.356,2.5,8.171-.489.935-1.076,1.511-1.539,2.4a8.394,8.394,0,0,0-.762,4.681l.11.007a20.632,20.632,0,0,1,1.758-4.821c.215-.435.216-.441.4-.858.26-.595.869-2.095,1.435-2.28,1.206-.393,2.513,1.386,3.049,2.115A28.959,28.959,0,0,1,90.07,143.5a17.575,17.575,0,0,1,1.224,10.569,12.3,12.3,0,0,0-.1,4.492,8.791,8.791,0,0,0,2.58,3.924l.088-.07a10.231,10.231,0,0,1-2.088-7.161c.3-2.249.662-6.08,3.132-7.032,1.932.936,4.736,1.542,6.155,3.277-.079.227.458.854.619,1.184a19.1,19.1,0,0,1,.718,1.776c1.464-3.8-3.969-5.349-6.467-6.5a24.864,24.864,0,0,1-3.206-1.719,2.96,2.96,0,0,1-1.586-2.321,3.206,3.206,0,0,1,1.269-3.216l-.118-.063a9.778,9.778,0,0,1,4.569,1.633l.084-.072a3.387,3.387,0,0,0-2.6-1.875c-1.365-.211-3.372-.214-4.28-1.428A11.475,11.475,0,0,1,88,130.074a4.934,4.934,0,0,1,4.382-3.976c3.564-.37,7.173-.1,10.747-.3,5.461-1.2,17.489-3.112,25.051-11.437a37.513,37.513,0,0,0,8-12.444C138.33,96,138.76,89.466,139.4,83.249a24.041,24.041,0,0,1,.766-4.972c.463-1.433.967-2.854,1.451-4.28a25.462,25.462,0,0,1,2.508-5.331,16.973,16.973,0,0,1,1.816-2.174l3.261-3.663a21.426,21.426,0,0,1,1.947-2.187,6.814,6.814,0,0,1,3.648-1.469,6.742,6.742,0,0,1,3.472,1.438c2.027,1.621,2.445,4.277,2.467,6.722.03,3.327-.912,6.548-.771,9.874a22.707,22.707,0,0,0,.679,4.909c.29,1.086.647,2.939,1.809,3.424,1.357.566,1.089-1.118.806-1.878a32.9,32.9,0,0,1-1.633-3.981,20.213,20.213,0,0,1,.475-9.446,13.816,13.816,0,0,0,3.168,3.184c1.023.658,2.008.763,2.307,2.1.468,2.1.187,4.647,1.525,6.469.4.547,1.017,1.291,1.769,1.235,1.7-.127-.376-2.14-.7-2.57a3.156,3.156,0,0,1-.662-2.594,4.3,4.3,0,0,0-.828-3.608,10.715,10.715,0,0,0,4.506.088c.822-.177,3.632-.879,2.988-2.22-.543-1.131-2.629.319-3.414.534a10.974,10.974,0,0,1-4.147.256,5.432,5.432,0,0,1-3.2-1.125,12.869,12.869,0,0,1-2.461-3.385,12.716,12.716,0,0,1-1.423-4.8,5.969,5.969,0,0,0-1.453-3.49c-.672-.746-2.3-1.732-2.42-2.765-.166-1.388,1.94-1.831,2.939-2.05a13.421,13.421,0,0,1,7.109.562,8.6,8.6,0,0,1,5.563,4.963c1.21,3.135,1.749,7.029,5.332,8.375,1.1.413,3.773,1.179,4.716.151,1.235-1.348-1.718-1.449-2.322-1.533-1.793-.249-3.324-.561-4.467-2.083a12.684,12.684,0,0,1-1.734-3.917,13.215,13.215,0,0,0,8.653,2.4c1.151-.079,7.949-1.8,6.3-3.532-.431-.452-1.354-.114-1.818.071-1.053.421-2.027,1.007-3.106,1.382a10.93,10.93,0,0,1-4.846.508,10.425,10.425,0,0,1-4.4-1.592c-1.6-1.023-1.837-3.1-3.363-4.221,4.368.73,7.494-1.619,10.841-4.086a5.061,5.061,0,0,1,2.211-1.3,17.11,17.11,0,0,1,2.279.122c.617.023,1.39.046,1.8-.53C189.849,50.525,189.158,49.767,188.4,49.728Z" transform="translate(-10 -26.816)"/><g id="Myelin_shealths"><path id="Path" class="cls-6" d="M111.65,117.852c-2.871,2.671.2,6.99,1.742,7.183,1.806.328,5.638-1.035,7.983-2.678,3.077-1.988.606-6.5-1.51-6.894C117.932,114.844,113.037,116.8,111.65,117.852Z" transform="translate(-10 -26.816)"/><path id="Path-2" data-name="Path" class="cls-7" d="M122.179,112.67c-1.547,3.6,3.008,6.312,4.5,5.866,1.784-.43,4.74-3.224,6.222-5.674,2.012-3.061-2.074-6.191-4.169-5.694-2.019.215-5.706,3.982-6.551,5.5Z" transform="translate(-10 -26.816)"/><path id="Path-3" data-name="Path" class="cls-8" d="M130.035,103.792c.07,3.919,5.338,4.517,6.513,3.5,1.45-1.126,3-4.887,3.341-7.728.577-3.616-4.436-4.79-6.142-3.476-1.753,1.025-3.567,5.973-3.712,7.706Z" transform="translate(-10 -26.816)"/><path id="Path-4" data-name="Path" class="cls-9" d="M133.166,91.906c.989,3.791,6.25,3.136,7.154,1.87,1.145-1.435,1.766-5.453,1.433-8.3-.288-3.65-5.438-3.614-6.788-1.937C133.5,84.952,132.9,90.187,133.166,91.906Z" transform="translate(-10 -26.816)"/><path id="Path-5" data-name="Path" class="cls-10" d="M135.266,78.342c.522,3.883,5.824,3.87,6.874,2.722,1.311-1.285,2.414-5.2,2.427-8.061.157-3.658-4.959-4.245-6.5-2.744C136.442,71.479,135.211,76.6,135.266,78.342Z" transform="translate(-10 -26.816)"/><path id="Path-6" data-name="Path" class="cls-11" d="M141.261,64.243c-1.343,3.683,3.357,6.133,4.82,5.6,1.757-.53,4.552-3.485,5.894-6.014,1.838-3.169-2.417-6.064-4.481-5.451-2,.327-5.475,4.3-6.233,5.861Z" transform="translate(-10 -26.816)"/><path id="Path-7" data-name="Path" class="cls-12" d="M99.269,120.352c-3.345,2.046-1.2,6.89.275,7.388,1.7.68,5.73.108,8.356-1.035,3.411-1.335,1.89-6.251-.106-7.057-1.77-.992-6.956-.049-8.525.7Z" transform="translate(-10 -26.816)"/></g></g></svg>