<svg id="Layer_1" data-name="Layer 1" xmlns="http://www.w3.org/2000/svg" xmlns:xlink="http://www.w3.org/1999/xlink" viewBox="0 0 96.4 107.516"><defs><style>.cls-1{fill:url(#radial-gradient);}.cls-2{isolation:isolate;}.cls-3{fill:url(#radial-gradient-2);}.cls-4{fill:#5656a5;}.cls-5{fill:#6ba9dd;opacity:0.5;}.cls-6{fill:url(#radial-gradient-3);}.cls-7{fill:url(#radial-gradient-4);}.cls-8{fill:url(#radial-gradient-5);}.cls-9{fill:url(#radial-gradient-6);}.cls-10{fill:url(#radial-gradient-7);}.cls-11{fill:url(#radial-gradient-8);}.cls-12{fill:url(#radial-gradient-9);}</style><radialGradient id="radial-gradient" cx="89.478" cy="85.059" r="14.627" gradientUnits="userSpaceOnUse"><stop offset="0" stop-color="#cacacc" stop-opacity="0"/><stop offset="1" stop-color="#468ed7"/></radialGradient><radialGradient id="radial-gradient-2" cx="380.981" cy="957.732" r="6.595" gradientTransform="translate(885.155 -561.747) rotate(76.485)" gradientUnits="userSpaceOnUse"><stop offset="0" stop-color="#afbaf7"/><stop offset="0.311" stop-color="#6d96ce"/><stop offset="0.803" stop-color="#285fcc"/></radialGradient><radialGradient id="radial-gradient-3" cx="-416.188" cy="-48.574" r="1.395" gradientTransform="matrix(1.759, 2.004, 0.617, -1.111, 849.806, 891.176)" gradientUnits="userSpaceOnUse"><stop offset="0" stop-color="#d5f6ff"/><stop offset="1" stop-color="#464646"/></radialGradient><radialGradient id="radial-gradient-4" cx="-488.054" cy="-96.9" r="1.395" gradientTransform="matrix(2.926, 2.134, 0.46, -1.032, 1564.656, 1059.145)" xlink:href="#radial-gradient-3"/><radialGradient id="radial-gradient-5" cx="-562.524" cy="-93.796" r="1.395" gradientTransform="matrix(4.502, 1.067, 0.221, -1.144, 2652.738, 614.537)" xlink:href="#radial-gradient-3"/><radialGradient id="radial-gradient-6" cx="-620.499" cy="-43.92" r="1.395" gradientTransform="matrix(5.573, -0.442, -0.248, -1.113, 3554.97, -200.069)" xlink:href="#radial-gradient-3"/><radialGradient id="radial-gradient-7" cx="-602.095" cy="-88.044" r="1.395" gradientTransform="matrix(3.959, 0.468, 0.106, -1.138, 2508.496, 304.935)" xlink:href="#radial-gradient-3"/><radialGradient id="radial-gradient-8" cx="-524.696" cy="-97.663" r="1.395" gradientTransform="matrix(2.331, 1.31, 0.452, -1.128, 1390.406, 702.968)" xlink:href="#radial-gradient-3"/><radialGradient id="radial-gradient-9" cx="-239.437" cy="207.27" r="1.395" gradientTransform="matrix(0.604, 2.851, 1.282, -0.222, -35.742, 832.063)" xlink:href="#radial-gradient-3"/></defs><title>R-ICO-013958</title><g id="R-ICO-013958"><path id="BG" class="cls-1" d="M136.452,151.887a6.686,6.686,0,0,0-.449-1.959,6.176,6.176,0,0,0-1.364-1.741c-1.066-1.127-2.256-2-2.718-3.548a7.532,7.532,0,0,1-.171-3.923,8.928,8.928,0,0,0,.388-4.421,16.976,16.976,0,0,0,1.413,1.628c.526.516,1.193.845,1.717,1.341a4.375,4.375,0,0,1,.922,1.718,11.948,11.948,0,0,1,.651,2.126c.346,1.916,1,4.586,3.309,4.985.37.064.954-.03.86-.531-.09-.479-.851-.645-1.21-.805a4.094,4.094,0,0,1-2.151-3.088,11.823,11.823,0,0,0-.748-3.089c-.292-.549-.6-1.092-.9-1.637l.081.013c1.314.219,2.555.426,3.638-.275.823-.534,1.984,1.125,2.208,1.463a.5.5,0,1,0,.841-.557c-1.2-1.816-2.515-2.454-3.6-1.753-.754.489-1.759.321-2.923.127-.405-.068-.824-.137-1.255-.183a2.507,2.507,0,0,1-.595-.318,9.413,9.413,0,0,1-2.345-3.939,3.434,3.434,0,0,0,2.09.43A10.881,10.881,0,0,0,139.4,132.2a5.633,5.633,0,0,1,1.9.9c1,.624,2.04,1.269,3.185.989a12.055,12.055,0,0,0,3.5-1.619.5.5,0,0,0-.575-.829,11.2,11.2,0,0,1-3.161,1.468,3.561,3.561,0,0,1-2.414-.865,9.391,9.391,0,0,0-1.589-.853,3.006,3.006,0,0,0,.38-.632c.163-.375.312-.769.456-1.15.658-1.737,1.279-3.378,3.354-4.158a.5.5,0,1,0-.355-.944c-2.5.941-3.267,2.962-3.942,4.745-.146.386-.285.752-.438,1.1-.735,1.686-4.2,2.572-6.311,2.64a8.969,8.969,0,0,1-2.245-1.132c.811.091,1.666-.037,2.968-1.368,1.658-1.694,1.975-4.626,2-7.62a7.471,7.471,0,0,1,.3-2.256,20.106,20.106,0,0,0,1.211-2.28c.146-.335.583-.848.383-1.2-.273-.478-.983-.312-1.271.037a5.6,5.6,0,0,0-.629,1.41c-.112.283-.213.57-.309.859a7.46,7.46,0,0,0-.691,3.422c-.018,2.771-.208,5.551-1.68,6.894-1.063.972-2.147,1.537-3.292,1.15a7.886,7.886,0,0,1-2.182-1.74c-.76-.67-1.518-1.342-2.3-1.981a17.523,17.523,0,0,0-9.176-3.8c-3.65-.4-7.4-.207-11.063-.3a29.078,29.078,0,0,1-6.142-1.1,9.281,9.281,0,0,1-2.393-.867,15.66,15.66,0,0,1-2.2-1.481c-1.7-1.309-3.567-2.52-4.731-4.383-.872-1.4-1.676-2.91-2.405-4.384a21.755,21.755,0,0,1-1.374-4.117,10.73,10.73,0,0,1-.274-5.2A4.257,4.257,0,0,1,87.712,99.5a6.42,6.42,0,0,1,1.54-.709c.772-.259,1.656-.55,2.349-.792a4.484,4.484,0,0,1,3.136-.148,2.1,2.1,0,0,1-.015,3.774,2.691,2.691,0,0,1-1.983-.131,2.087,2.087,0,0,0-2.183.793l.048.049a3.026,3.026,0,0,1,2.12-.36,2.525,2.525,0,0,1,2.231,1.751,6.556,6.556,0,0,1-.7,3.274,5.279,5.279,0,0,1-1.6,2.052l.026.062c1.4-.224,1.872-1.628,2.247-2.727.483,1.638,1.65,2.9,1.985,4.524.674-.8-.42-2.24-.8-2.923a7.139,7.139,0,0,1-.86-2,8.7,8.7,0,0,1,.127-2.45c.141-1.323.819-2.778,2.381-2.739,1.105.028,2.345,2.336,2.322,2.336a9.274,9.274,0,0,1,.817,1.979,20.3,20.3,0,0,0,1.368,3.6c.621,1.061.109,2.307-.089,3.421-.087.487-.459,1.756.024,2.124a4.581,4.581,0,0,0,.323-1.566,22.592,22.592,0,0,0,.426-3.189c.8.726,1.816,1.173,2.608,1.9a5.262,5.262,0,0,1,1.129,1.737l.066-.008c.246-2.154-2.414-2.815-3.671-4.077a6.937,6.937,0,0,1-1.489-2.916,11.113,11.113,0,0,1-.348-1.366,1.175,1.175,0,0,1,0-.583c.175-.292.921-.048,1.133.011a12.567,12.567,0,0,0,1.717.418,12.653,12.653,0,0,1,2.672.525,2.9,2.9,0,0,1,1.659,1.553c.257.562.674,1.3.923,1.956l.067-.01a4.2,4.2,0,0,0-1.843-3.554c-1.693-1.071-3.907-.553-5.627-1.57-.508-.3-1.408-.852-1.448-1.544-.061-1.057,1.54-1.187,2.218-1.419a11.871,11.871,0,0,0,1.185-.357c.407-.184.769-.459,1.158-.677a2.99,2.99,0,0,1,2.83-.264l.035-.058c-2.025-1.541-4.165.871-6.132,1.188a2.837,2.837,0,0,1-3.047-1.96c-.518-1.29-.988-3.061-.3-4.36s2.454-1.882,3.825-2.028a12.127,12.127,0,0,1,4.012.343c3,.725,6.054,2.2,7.834,4.8a11.492,11.492,0,0,1,1.8,4.54,7.221,7.221,0,0,0,1.534,3.733l.054-.042a7.33,7.33,0,0,1-.791-1.757,8.821,8.821,0,0,1-.232-.936c-.045-.236-.25-.9-.147-1.117.3-.624,2.269.184,2.9-.013a13.326,13.326,0,0,1,1.6-.307,1.858,1.858,0,0,1,1.061.323l.049-.046a1.631,1.631,0,0,0-1.961-.649,2.878,2.878,0,0,1-1.87-.028,3.572,3.572,0,0,1-1.258-.406,6.958,6.958,0,0,1-.943-1.451,4.432,4.432,0,0,1-.42-1.022,3.547,3.547,0,0,1-.363-1.277,1.87,1.87,0,0,1,1.048-1.484,26.381,26.381,0,0,0,3.059-1.135,4.52,4.52,0,0,1,1.608-.563,3.711,3.711,0,0,1,1.736.136c.848.318,1.472,1.244,2.536,1.348l.02-.065c-.773-.406-1.326-1.182-2.061-1.514a4.391,4.391,0,0,0-2.615-.269,5.832,5.832,0,0,0,1.149-2.213,5.934,5.934,0,0,1,.89-2.157c.537-.712,1.456-.8,2.246-1.129A2.376,2.376,0,0,0,121.909,89c-.917,1.65-.862,3.747-2.753,4.7a8.127,8.127,0,0,1-2.89,1.045,6.7,6.7,0,0,1-2.486-.41c-1.088-.363-2.855-1.074-3.384-2.144a1.3,1.3,0,0,1,.5-1.708,4.134,4.134,0,0,0,1.342-2.179,3.741,3.741,0,0,1,1.3-.52c.465-.014.821.284,1.251.4a5.336,5.336,0,0,0,.8.053,4.965,4.965,0,0,0,.5.123c.321.01,1.08-.421.781-.814a1.387,1.387,0,0,0-1.046-.087c-.178.1-.585.377-.709.36-.484-.066-.882-.385-1.374-.435a2.319,2.319,0,0,0-1.379.4,4.026,4.026,0,0,1,1.105-1.98,2.619,2.619,0,0,1,1.951-.734l.008-.068c-.683-.1-1.033-.437-1.751-.246a2.317,2.317,0,0,0-1.64,1.683,1.186,1.186,0,0,0,.043.413,2.013,2.013,0,0,1-.065.591,5.366,5.366,0,0,1-.539,1.635,3.491,3.491,0,0,1-.817,1.069,5.98,5.98,0,0,1-2.1,1.028,2.89,2.89,0,0,1-2.383-.4,8.557,8.557,0,0,1-3.794-4.27c-.866-2.037-.009-6.958.051-6.909a7.519,7.519,0,0,1,.8-1.407c.217-.28.5-.483.718-.756.408-.512,1.527-.194,2.067-.14a7.3,7.3,0,0,1,1.027.017c.054.015.155.155.245.184.429.14.878.16,1.308.324.406.155.425.034.818.24L109.45,78a1.558,1.558,0,0,1-.283-.332c-.014-.034.128-.141.112-.173a1.907,1.907,0,0,0-.635-.52,2.321,2.321,0,0,0-1.206-.339c-.211.016-.229.11-.385.175a1.671,1.671,0,0,1-.746.086c-.7-.038-2.017-.231-2.434-.872-.531-.817.733-1.57,1.281-1.944,1.316-.9,3.718-2.585,5.355-1.588a9.788,9.788,0,0,1,2.067,2.256,7.007,7.007,0,0,1,.851,1.151,13.888,13.888,0,0,0,1.368,1.9,2.513,2.513,0,0,1,.313,1.065,2.666,2.666,0,0,1,.041.776c.129-.236.4-.193.566-.41a1.163,1.163,0,0,0,.083-1.111c-.111-.2-.186-.16-.352-.288a1.992,1.992,0,0,1-.4-.382c-.279-.362-.591-.7-.869-1.063-.259-.338-.753-1.111-.435-1.548.3-.412.787.141,1.082.332a16.939,16.939,0,0,0,1.473,1.109c.522.254,2.492.614,2.85-.432-.673-.111-1.488-.248-2.228-.3a2.877,2.877,0,0,1-.752-.089q-.329-.157-.644-.341a8.721,8.721,0,0,1-1.417-.973,8.647,8.647,0,0,0-2.215-1.676c-.424-.179-1.213-.157-1.23-.783-.011-.362.391-.746.659-.927a7.106,7.106,0,0,1,1.558-.469c.3-.111.555-.308.845-.429.332-.139.414-.077.8-.042a5.708,5.708,0,0,0,1.839-.23c1.527-.368,3.721-.924,4.084-2.658a1.947,1.947,0,0,0-1.018.846,4.138,4.138,0,0,1-2.011,1.1c-.721.208-3.081,1.1-3.7.252-.354-.488.226-1.314.375-1.788.2-.652.409-1.319.562-1.985a6.4,6.4,0,0,1,1.587-3.1L116.2,62.2a4.3,4.3,0,0,0-1.939,2.683,11.021,11.021,0,0,1-.481,2.06,4.3,4.3,0,0,1-1.428,2.249,12.528,12.528,0,0,1-6.037,2.86c-1.27.2-1.251-2.106-1.267-2.994a4.535,4.535,0,0,1,.535-2.579c.491-.834,1.457-1.22,1.828-2.131l-.059-.035c-.856,1.071-2.687,1.662-2.765,3.238a24.024,24.024,0,0,1,.051,3.436,2.762,2.762,0,0,1-.972,1.52,4.313,4.313,0,0,1-2.349.5c-1.4.125-3.222.326-4.377-.666a14.947,14.947,0,0,1-2.951-3.689,10.023,10.023,0,0,1-1.394-3.956c-.34-3.454,4.223-3.813,6.688-4.319,1.676-.344,3.419-1.131,4.946-.047a7.925,7.925,0,0,1,1.354,1.348.886.886,0,0,0,1.17.314A16.249,16.249,0,0,1,105.1,60.52a3.916,3.916,0,0,0-2.035-1.179c.634-.494,1.6-1.181,1.6-2.083l-.065-.016a3.682,3.682,0,0,1-1.514,1.519,8.268,8.268,0,0,1-.834.384c-.11.045-2.131.633-3.026.816a5.136,5.136,0,0,0,.537-2.031,4.918,4.918,0,0,1,.17-1.244c.122-.29.372-.36.543-.691.205-.4.25-1.161-.433-.825a1.266,1.266,0,0,0-.54.686,2.334,2.334,0,0,0,.038.683,12.24,12.24,0,0,1-.3,2.1,3.44,3.44,0,0,1-.315,1,.95.95,0,0,1-.823.552A14.927,14.927,0,0,0,93.8,61.5a4.649,4.649,0,0,0,.048-4.591,7.783,7.783,0,0,1-.79-4.165c.078-.535.108-.8.619-1.01a4.636,4.636,0,0,1,.905-.291,6.423,6.423,0,0,1,1.308-.014c.956.016,2.217-.009,2.576-1.051-.418-.119-.867.326-1.143.454a2.39,2.39,0,0,1-.864.177,7.849,7.849,0,0,0-2.949.347,14.029,14.029,0,0,1,1.536-1.985,4.929,4.929,0,0,0,1-3.122l-.069,0c-.307,2.262-2.46,3.528-3.15,5.6a6.071,6.071,0,0,0,.014,3.462c.258.956.747,1.826,1,2.773a3.815,3.815,0,0,1-.362,3.151c-.266.384-.65.853-1.155.868-.562.017-1.014-.518-1.367-.887A10.208,10.208,0,0,1,88.9,58.343a4.674,4.674,0,0,1,.148-3.151,6.617,6.617,0,0,0,.22-2.458c-.118-.925-.57-2.431-1.683-2.563l-.023.062c1.213.819,1.1,2.111,1.217,3.356.08.847-.086,2.158-1.29,2.227a8.544,8.544,0,0,1-3.566-.971,9.776,9.776,0,0,1-2.537-1.108,3.066,3.066,0,0,1-.884-1.639l-.067.011a2.23,2.23,0,0,0,1.307,2.248c.147.071.3.137.447.2.98.445,1.972.984,2.987,1.348a8.614,8.614,0,0,1,3.055,2.545,6.043,6.043,0,0,1,1.821,4.5,8.468,8.468,0,0,1-2.071,4.779,7.833,7.833,0,0,1-5.029,2.6,8.738,8.738,0,0,1-5.075-.512,4.7,4.7,0,0,1-2.692-4.08,3.693,3.693,0,0,1,1.055-2.717c.575-.713,1.5-1.707,2.488-1.687.9.019,4.676,1.334,4.54-.422-.16.034-.22.267-.421.345a2.434,2.434,0,0,1-.514.064,6.663,6.663,0,0,1-1.662-.113,16.335,16.335,0,0,0-1.813-.28,2.712,2.712,0,0,0-1.922.8c.565-.361-.01-1.7-.228-2.119a3.021,3.021,0,0,0-2.105-1.77l-.02.064a3.208,3.208,0,0,1,1.281,4.816,5.249,5.249,0,0,0-1.112,2.62,6.272,6.272,0,0,0,.932,3.228c-.15-.067-.556.287-.752.31a2.382,2.382,0,0,1-1.167-.268,4.528,4.528,0,0,1-1.924-2.279c-.262-.616-.51-1.237-.782-1.849a9.9,9.9,0,0,0-.731-1.381c-.239-.37-.564-.684-.6-1.028-.2-1.8.82-3.568.355-5.371a9.526,9.526,0,0,0-.943-2.14,3.144,3.144,0,0,0-1.129-1.254,2.357,2.357,0,0,0,.682,1.525,5.6,5.6,0,0,1,.984,1.953c.427,1.635-.315,3.387-.36,5.042a3.131,3.131,0,0,0-1.388-1.038,4.16,4.16,0,0,0-1.663-.078l0,.068a5.429,5.429,0,0,1,3,1.595,10.4,10.4,0,0,1,1.732,3c.158.373.307.749.466,1.122a4.05,4.05,0,0,0,.362.682c.252.382.125.4-.237.644a3.648,3.648,0,0,1-2.351.542,15.5,15.5,0,0,1-3.7-.871c-.587-.192-1.172-.389-1.748-.611a3.763,3.763,0,0,1-1.608-1.3A6.947,6.947,0,0,1,60.8,62.061c-.149-1.241,1.443-2.043,2.072-2.932a2.646,2.646,0,0,0,.554-1.269c.028-.785-.484-.1-.61.246a2.258,2.258,0,0,1-.617,1.136,8.2,8.2,0,0,0-1.607,1.9A2.866,2.866,0,0,0,57.5,58.928l-.011.066c1.382.544,2.434,1.08,2.8,2.616.4,1.707.633,3.2,1.847,4.565a7.291,7.291,0,0,0-4.691.486,9.569,9.569,0,0,0-1.594.739c-.672.444-1,1.233-1.86,1.407l0,.068a3.221,3.221,0,0,0,2.292-1.113,6.488,6.488,0,0,1,2.4-1.06c-.411.884.018,1.915-.48,2.788a1.1,1.1,0,0,1-.272.3,4.725,4.725,0,0,0-.667.668c1.038.322,1.562-1.14,1.639-1.941.073-.748-.23-1.857.761-2.009a5.138,5.138,0,0,1,1.894-.062,13.62,13.62,0,0,1,2.079.832,6.471,6.471,0,0,1,2.141,1.292c.491.456.6.777.4,1.307a3.84,3.84,0,0,0-.438,1.944l.068,0a2.077,2.077,0,0,1,1.618-1.984c.479-.165.985-.286,1.477-.406a5.437,5.437,0,0,0,1.089-.181,27.611,27.611,0,0,1,7.726,3.249,3.732,3.732,0,0,1,1.7,4.793,9.135,9.135,0,0,1-5.106,4.659,8.574,8.574,0,0,1-3.477.686,5.383,5.383,0,0,1-2.973-1.574,15.475,15.475,0,0,1-2.19-2.868c-.4-.594-1.225-2.091-2.123-1.9,1.673.883,1.994,3.177,3.319,4.448.256.246,1.085.731,1.11,1.146.04.672-.952,1.193-1.428,1.376a9.558,9.558,0,0,1-5.5.24c-2.1-.561-2.763-2.5-4.016-4.06-.838-1.045-2.439-1.205-3.813-1.115l0,.068a9.718,9.718,0,0,1,2.992.992,4.564,4.564,0,0,1,1.521,1.683A6.182,6.182,0,0,0,59.678,83.4c.272.171.761.227.835.536.07.289-.283.612-.472.766a8.158,8.158,0,0,1-2.476,1.2,4.091,4.091,0,0,1-1.909.041c-1.479-.191-2.765-.33-3.856.907a9.765,9.765,0,0,1,2.185-.593,15.214,15.214,0,0,1,2.363.2c1.748.164,3-1.238,4.568-1.649.82-.216,2.138-.331,2.626.513.314.545.067.764-.124,1.321a8.287,8.287,0,0,0-.359,1.473c-.136.913-.041,2.065-.787,2.775a4.571,4.571,0,0,1-2.218.844V91.8a2.972,2.972,0,0,0,2.456-.459,4.426,4.426,0,0,0,.807-1.708c.538,1.025,1.394,2.621.945,3.8-.147.388-.384.5-.476.967a1.426,1.426,0,0,0,.3,1.231c.141-.2.118-.859.231-1.17s.148-.483.271-.759a2.847,2.847,0,0,0,.029-1.975A11.331,11.331,0,0,0,64.05,90.2a4.9,4.9,0,0,1-.64-1.5,5.2,5.2,0,0,1,.969-3.054,6.8,6.8,0,0,1,6.033-2.072,1.417,1.417,0,0,1,.731.167c.31.3.071.638-.13,1.038-.423.839-1.344,1.581-1.345,2.589l.066.013a6.563,6.563,0,0,1,2.255-2.481,4.283,4.283,0,0,1,2.121-1.178c2.167-.269,3.679,1.536,4.765,3.124.931,1.362,1.727,3.132,1.281,4.81-.546,2.052-2.971,2.835-4.8,2.149-.608-.228-1-.542-1.583-.758a5.183,5.183,0,0,0-2.918-.111l0,.068a12.661,12.661,0,0,1,3.078.709c.282.1.286.1.555.178.383.114,1.345.372,1.5.7.332.708-.656,1.641-1.061,2.023a17.751,17.751,0,0,1-3.221,2.313,10.82,10.82,0,0,1-6.364,1.549,7.577,7.577,0,0,0-2.751.281,5.41,5.41,0,0,0-2.2,1.874l.049.048a6.3,6.3,0,0,1,4.217-1.818c1.4.009,3.764-.057,4.533,1.38-.425,1.252-.583,3.011-1.535,4.009-.145-.031-.487.344-.677.468a11.75,11.75,0,0,1-1.03.573c2.431.606,2.967-2.83,3.478-4.443a15.41,15.41,0,0,1,.807-2.089,1.823,1.823,0,0,1,1.3-1.145,1.975,1.975,0,0,1,2.061.531l.03-.076a6.023,6.023,0,0,1-.651,2.915l.05.046a2.088,2.088,0,0,0,.948-1.733c.025-.85-.125-2.076.548-2.723a7.063,7.063,0,0,1,5.239-1.929,3.037,3.037,0,0,1,2.762,2.376c.5,2.15.6,4.374,1,6.543,1.144,3.246,3.227,10.449,8.886,14.438a23.115,23.115,0,0,0,8.209,3.946c3.777.863,7.8.63,11.647.551a14.824,14.824,0,0,1,3.1.091c.911.175,1.817.375,2.725.562a15.74,15.74,0,0,1,3.447,1.129,10.326,10.326,0,0,1,1.465.945l2.486,1.714a13.206,13.206,0,0,1,1.484,1.024,4.2,4.2,0,0,1,1.174,2.117,4.154,4.154,0,0,1-.616,2.23,5.107,5.107,0,0,1-3.92,2.017c-2.03.27-4.07-.061-6.091.277a13.969,13.969,0,0,0-2.947.787c-.641.26-1.747.618-1.955,1.365-.243.872.766.58,1.208.35a20.243,20.243,0,0,1,2.309-1.3,12.439,12.439,0,0,1,5.807-.426,8.523,8.523,0,0,0-1.706,2.177c-.324.675-.313,1.284-1.108,1.568-1.245.445-2.825.466-3.836,1.422-.3.287-.712.719-.621,1.174.207,1.031,1.279-.391,1.518-.624a1.941,1.941,0,0,1,1.534-.6,2.645,2.645,0,0,0,2.141-.779,6.593,6.593,0,0,0,.288,2.759c.17.489.812,2.153,1.583,1.657.649-.417-.394-1.581-.585-2.045a6.755,6.755,0,0,1-.471-2.514,3.339,3.339,0,0,1,.445-2.039,8.35,8.35,0,0,1,4.7-2.993,3.667,3.667,0,0,0,2.022-1.153c.405-.466.884-1.534,1.506-1.688.835-.206,1.265,1.047,1.475,1.641a8.27,8.27,0,0,1,.195,4.386,5.29,5.29,0,0,1-2.61,3.774c-1.824.977-4.162,1.6-4.713,3.892-.169.7-.434,2.4.266,2.893.917.652.755-1.16.76-1.535a3.655,3.655,0,0,1,.934-2.887,7.811,7.811,0,0,1,2.261-1.356,8.136,8.136,0,0,0-.812,5.469c.136.7,1.7,4.72,2.636,3.58.243-.3-.033-.836-.182-1.105-.336-.612-.769-1.163-1.08-1.793a6.736,6.736,0,0,1-.677-2.923,6.426,6.426,0,0,1,.64-2.807c.5-1.054,1.755-1.357,2.323-2.374-.114,2.724,1.557,4.456,3.318,6.313.346.365.843.74.962,1.253a10.693,10.693,0,0,1,.1,1.4c.032.379.077.853.459,1.058C136.075,152.835,136.486,152.356,136.452,151.887Z" transform="translate(-51.8 -46.242)"/><g id="Nucleus"><g id="NUCLEUS-2" data-name="NUCLEUS" class="cls-2"><circle class="cls-3" cx="41.25" cy="34.261" r="5.018"/><path class="cls-4" d="M87.991,81.719a5.2,5.2,0,1,1,6.275,3.843A5.209,5.209,0,0,1,87.991,81.719Zm9.759-2.345A4.834,4.834,0,1,0,94.18,85.2,4.839,4.839,0,0,0,97.75,79.374Z" transform="translate(-51.8 -46.242)"/></g></g><path id="FG" class="cls-5" d="M136.452,151.887a6.686,6.686,0,0,0-.449-1.959,6.176,6.176,0,0,0-1.364-1.741c-1.066-1.127-2.256-2-2.718-3.548a7.532,7.532,0,0,1-.171-3.923,8.928,8.928,0,0,0,.388-4.421,16.976,16.976,0,0,0,1.413,1.628c.526.516,1.193.845,1.717,1.341a4.375,4.375,0,0,1,.922,1.718,11.948,11.948,0,0,1,.651,2.126c.346,1.916,1,4.586,3.309,4.985.37.064.954-.03.86-.531-.09-.479-.851-.645-1.21-.805a4.094,4.094,0,0,1-2.151-3.088,11.823,11.823,0,0,0-.748-3.089c-.292-.549-.6-1.092-.9-1.637l.081.013c1.314.219,2.555.426,3.638-.275.823-.534,1.984,1.125,2.208,1.463a.5.5,0,1,0,.841-.557c-1.2-1.816-2.515-2.454-3.6-1.753-.754.489-1.759.321-2.923.127-.405-.068-.824-.137-1.255-.183a2.507,2.507,0,0,1-.595-.318,9.413,9.413,0,0,1-2.345-3.939,3.434,3.434,0,0,0,2.09.43A10.881,10.881,0,0,0,139.4,132.2a5.633,5.633,0,0,1,1.9.9c1,.624,2.04,1.269,3.185.989a12.055,12.055,0,0,0,3.5-1.619.5.5,0,0,0-.575-.829,11.2,11.2,0,0,1-3.161,1.468,3.561,3.561,0,0,1-2.414-.865,9.391,9.391,0,0,0-1.589-.853,3.006,3.006,0,0,0,.38-.632c.163-.375.312-.769.456-1.15.658-1.737,1.279-3.378,3.354-4.158a.5.5,0,1,0-.355-.944c-2.5.941-3.267,2.962-3.942,4.745-.146.386-.285.752-.438,1.1-.735,1.686-4.2,2.572-6.311,2.64a8.969,8.969,0,0,1-2.245-1.132c.811.091,1.666-.037,2.968-1.368,1.658-1.694,1.975-4.626,2-7.62a7.471,7.471,0,0,1,.3-2.256,20.106,20.106,0,0,0,1.211-2.28c.146-.335.583-.848.383-1.2-.273-.478-.983-.312-1.271.037a5.6,5.6,0,0,0-.629,1.41c-.112.283-.213.57-.309.859a7.46,7.46,0,0,0-.691,3.422c-.018,2.771-.208,5.551-1.68,6.894-1.063.972-2.147,1.537-3.292,1.15a7.886,7.886,0,0,1-2.182-1.74c-.76-.67-1.518-1.342-2.3-1.981a17.523,17.523,0,0,0-9.176-3.8c-3.65-.4-7.4-.207-11.063-.3a29.078,29.078,0,0,1-6.142-1.1,9.281,9.281,0,0,1-2.393-.867,15.66,15.66,0,0,1-2.2-1.481c-1.7-1.309-3.567-2.52-4.731-4.383-.872-1.4-1.676-2.91-2.405-4.384a21.755,21.755,0,0,1-1.374-4.117,10.73,10.73,0,0,1-.274-5.2A4.257,4.257,0,0,1,87.712,99.5a6.42,6.42,0,0,1,1.54-.709c.772-.259,1.656-.55,2.349-.792a4.484,4.484,0,0,1,3.136-.148,2.1,2.1,0,0,1-.015,3.774,2.691,2.691,0,0,1-1.983-.131,2.087,2.087,0,0,0-2.183.793l.048.049a3.026,3.026,0,0,1,2.12-.36,2.525,2.525,0,0,1,2.231,1.751,6.556,6.556,0,0,1-.7,3.274,5.279,5.279,0,0,1-1.6,2.052l.026.062c1.4-.224,1.872-1.628,2.247-2.727.483,1.638,1.65,2.9,1.985,4.524.674-.8-.42-2.24-.8-2.923a7.139,7.139,0,0,1-.86-2,8.7,8.7,0,0,1,.127-2.45c.141-1.323.819-2.778,2.381-2.739,1.105.028,2.345,2.336,2.322,2.336a9.274,9.274,0,0,1,.817,1.979,20.3,20.3,0,0,0,1.368,3.6c.621,1.061.109,2.307-.089,3.421-.087.487-.459,1.756.024,2.124a4.581,4.581,0,0,0,.323-1.566,22.592,22.592,0,0,0,.426-3.189c.8.726,1.816,1.173,2.608,1.9a5.262,5.262,0,0,1,1.129,1.737l.066-.008c.246-2.154-2.414-2.815-3.671-4.077a6.937,6.937,0,0,1-1.489-2.916,11.113,11.113,0,0,1-.348-1.366,1.175,1.175,0,0,1,0-.583c.175-.292.921-.048,1.133.011a12.567,12.567,0,0,0,1.717.418,12.653,12.653,0,0,1,2.672.525,2.9,2.9,0,0,1,1.659,1.553c.257.562.674,1.3.923,1.956l.067-.01a4.2,4.2,0,0,0-1.843-3.554c-1.693-1.071-3.907-.553-5.627-1.57-.508-.3-1.408-.852-1.448-1.544-.061-1.057,1.54-1.187,2.218-1.419a11.871,11.871,0,0,0,1.185-.357c.407-.184.769-.459,1.158-.677a2.99,2.99,0,0,1,2.83-.264l.035-.058c-2.025-1.541-4.165.871-6.132,1.188a2.837,2.837,0,0,1-3.047-1.96c-.518-1.29-.988-3.061-.3-4.36s2.454-1.882,3.825-2.028a12.127,12.127,0,0,1,4.012.343c3,.725,6.054,2.2,7.834,4.8a11.492,11.492,0,0,1,1.8,4.54,7.221,7.221,0,0,0,1.534,3.733l.054-.042a7.33,7.33,0,0,1-.791-1.757,8.821,8.821,0,0,1-.232-.936c-.045-.236-.25-.9-.147-1.117.3-.624,2.269.184,2.9-.013a13.326,13.326,0,0,1,1.6-.307,1.858,1.858,0,0,1,1.061.323l.049-.046a1.631,1.631,0,0,0-1.961-.649,2.878,2.878,0,0,1-1.87-.028,3.572,3.572,0,0,1-1.258-.406,6.958,6.958,0,0,1-.943-1.451,4.432,4.432,0,0,1-.42-1.022,3.547,3.547,0,0,1-.363-1.277,1.87,1.87,0,0,1,1.048-1.484,26.381,26.381,0,0,0,3.059-1.135,4.52,4.52,0,0,1,1.608-.563,3.711,3.711,0,0,1,1.736.136c.848.318,1.472,1.244,2.536,1.348l.02-.065c-.773-.406-1.326-1.182-2.061-1.514a4.391,4.391,0,0,0-2.615-.269,5.832,5.832,0,0,0,1.149-2.213,5.934,5.934,0,0,1,.89-2.157c.537-.712,1.456-.8,2.246-1.129A2.376,2.376,0,0,0,121.909,89c-.917,1.65-.862,3.747-2.753,4.7a8.127,8.127,0,0,1-2.89,1.045,6.7,6.7,0,0,1-2.486-.41c-1.088-.363-2.855-1.074-3.384-2.144a1.3,1.3,0,0,1,.5-1.708,4.134,4.134,0,0,0,1.342-2.179,3.741,3.741,0,0,1,1.3-.52c.465-.014.821.284,1.251.4a5.336,5.336,0,0,0,.8.053,4.965,4.965,0,0,0,.5.123c.321.01,1.08-.421.781-.814a1.387,1.387,0,0,0-1.046-.087c-.178.1-.585.377-.709.36-.484-.066-.882-.385-1.374-.435a2.319,2.319,0,0,0-1.379.4,4.026,4.026,0,0,1,1.105-1.98,2.619,2.619,0,0,1,1.951-.734l.008-.068c-.683-.1-1.033-.437-1.751-.246a2.317,2.317,0,0,0-1.64,1.683,1.186,1.186,0,0,0,.043.413,2.013,2.013,0,0,1-.065.591,5.366,5.366,0,0,1-.539,1.635,3.491,3.491,0,0,1-.817,1.069,5.98,5.98,0,0,1-2.1,1.028,2.89,2.89,0,0,1-2.383-.4,8.557,8.557,0,0,1-3.794-4.27c-.866-2.037-.009-6.958.051-6.909a7.519,7.519,0,0,1,.8-1.407c.217-.28.5-.483.718-.756.408-.512,1.527-.194,2.067-.14a7.3,7.3,0,0,1,1.027.017c.054.015.155.155.245.184.429.14.878.16,1.308.324.406.155.425.034.818.24L109.45,78a1.558,1.558,0,0,1-.283-.332c-.014-.034.128-.141.112-.173a1.907,1.907,0,0,0-.635-.52,2.321,2.321,0,0,0-1.206-.339c-.211.016-.229.11-.385.175a1.671,1.671,0,0,1-.746.086c-.7-.038-2.017-.231-2.434-.872-.531-.817.733-1.57,1.281-1.944,1.316-.9,3.718-2.585,5.355-1.588a9.788,9.788,0,0,1,2.067,2.256,7.007,7.007,0,0,1,.851,1.151,13.888,13.888,0,0,0,1.368,1.9,2.513,2.513,0,0,1,.313,1.065,2.666,2.666,0,0,1,.041.776c.129-.236.4-.193.566-.41a1.163,1.163,0,0,0,.083-1.111c-.111-.2-.186-.16-.352-.288a1.992,1.992,0,0,1-.4-.382c-.279-.362-.591-.7-.869-1.063-.259-.338-.753-1.111-.435-1.548.3-.412.787.141,1.082.332a16.939,16.939,0,0,0,1.473,1.109c.522.254,2.492.614,2.85-.432-.673-.111-1.488-.248-2.228-.3a2.877,2.877,0,0,1-.752-.089q-.329-.157-.644-.341a8.721,8.721,0,0,1-1.417-.973,8.647,8.647,0,0,0-2.215-1.676c-.424-.179-1.213-.157-1.23-.783-.011-.362.391-.746.659-.927a7.106,7.106,0,0,1,1.558-.469c.3-.111.555-.308.845-.429.332-.139.414-.077.8-.042a5.708,5.708,0,0,0,1.839-.23c1.527-.368,3.721-.924,4.084-2.658a1.947,1.947,0,0,0-1.018.846,4.138,4.138,0,0,1-2.011,1.1c-.721.208-3.081,1.1-3.7.252-.354-.488.226-1.314.375-1.788.2-.652.409-1.319.562-1.985a6.4,6.4,0,0,1,1.587-3.1L116.2,62.2a4.3,4.3,0,0,0-1.939,2.683,11.021,11.021,0,0,1-.481,2.06,4.3,4.3,0,0,1-1.428,2.249,12.528,12.528,0,0,1-6.037,2.86c-1.27.2-1.251-2.106-1.267-2.994a4.535,4.535,0,0,1,.535-2.579c.491-.834,1.457-1.22,1.828-2.131l-.059-.035c-.856,1.071-2.687,1.662-2.765,3.238a24.024,24.024,0,0,1,.051,3.436,2.762,2.762,0,0,1-.972,1.52,4.313,4.313,0,0,1-2.349.5c-1.4.125-3.222.326-4.377-.666a14.947,14.947,0,0,1-2.951-3.689,10.023,10.023,0,0,1-1.394-3.956c-.34-3.454,4.223-3.813,6.688-4.319,1.676-.344,3.419-1.131,4.946-.047a7.925,7.925,0,0,1,1.354,1.348.886.886,0,0,0,1.17.314A16.249,16.249,0,0,1,105.1,60.52a3.916,3.916,0,0,0-2.035-1.179c.634-.494,1.6-1.181,1.6-2.083l-.065-.016a3.682,3.682,0,0,1-1.514,1.519,8.268,8.268,0,0,1-.834.384c-.11.045-2.131.633-3.026.816a5.136,5.136,0,0,0,.537-2.031,4.918,4.918,0,0,1,.17-1.244c.122-.29.372-.36.543-.691.205-.4.25-1.161-.433-.825a1.266,1.266,0,0,0-.54.686,2.334,2.334,0,0,0,.038.683,12.24,12.24,0,0,1-.3,2.1,3.44,3.44,0,0,1-.315,1,.95.95,0,0,1-.823.552A14.927,14.927,0,0,0,93.8,61.5a4.649,4.649,0,0,0,.048-4.591,7.783,7.783,0,0,1-.79-4.165c.078-.535.108-.8.619-1.01a4.636,4.636,0,0,1,.905-.291,6.423,6.423,0,0,1,1.308-.014c.956.016,2.217-.009,2.576-1.051-.418-.119-.867.326-1.143.454a2.39,2.39,0,0,1-.864.177,7.849,7.849,0,0,0-2.949.347,14.029,14.029,0,0,1,1.536-1.985,4.929,4.929,0,0,0,1-3.122l-.069,0c-.307,2.262-2.46,3.528-3.15,5.6a6.071,6.071,0,0,0,.014,3.462c.258.956.747,1.826,1,2.773a3.815,3.815,0,0,1-.362,3.151c-.266.384-.65.853-1.155.868-.562.017-1.014-.518-1.367-.887A10.208,10.208,0,0,1,88.9,58.343a4.674,4.674,0,0,1,.148-3.151,6.617,6.617,0,0,0,.22-2.458c-.118-.925-.57-2.431-1.683-2.563l-.023.062c1.213.819,1.1,2.111,1.217,3.356.08.847-.086,2.158-1.29,2.227a8.544,8.544,0,0,1-3.566-.971,9.776,9.776,0,0,1-2.537-1.108,3.066,3.066,0,0,1-.884-1.639l-.067.011a2.23,2.23,0,0,0,1.307,2.248c.147.071.3.137.447.2.98.445,1.972.984,2.987,1.348a8.614,8.614,0,0,1,3.055,2.545,6.043,6.043,0,0,1,1.821,4.5,8.468,8.468,0,0,1-2.071,4.779,7.833,7.833,0,0,1-5.029,2.6,8.738,8.738,0,0,1-5.075-.512,4.7,4.7,0,0,1-2.692-4.08,3.693,3.693,0,0,1,1.055-2.717c.575-.713,1.5-1.707,2.488-1.687.9.019,4.676,1.334,4.54-.422-.16.034-.22.267-.421.345a2.434,2.434,0,0,1-.514.064,6.663,6.663,0,0,1-1.662-.113,16.335,16.335,0,0,0-1.813-.28,2.712,2.712,0,0,0-1.922.8c.565-.361-.01-1.7-.228-2.119a3.021,3.021,0,0,0-2.105-1.77l-.02.064a3.208,3.208,0,0,1,1.281,4.816,5.249,5.249,0,0,0-1.112,2.62,6.272,6.272,0,0,0,.932,3.228c-.15-.067-.556.287-.752.31a2.382,2.382,0,0,1-1.167-.268,4.528,4.528,0,0,1-1.924-2.279c-.262-.616-.51-1.237-.782-1.849a9.9,9.9,0,0,0-.731-1.381c-.239-.37-.564-.684-.6-1.028-.2-1.8.82-3.568.355-5.371a9.526,9.526,0,0,0-.943-2.14,3.144,3.144,0,0,0-1.129-1.254,2.357,2.357,0,0,0,.682,1.525,5.6,5.6,0,0,1,.984,1.953c.427,1.635-.315,3.387-.36,5.042a3.131,3.131,0,0,0-1.388-1.038,4.16,4.16,0,0,0-1.663-.078l0,.068a5.429,5.429,0,0,1,3,1.595,10.4,10.4,0,0,1,1.732,3c.158.373.307.749.466,1.122a4.05,4.05,0,0,0,.362.682c.252.382.125.4-.237.644a3.648,3.648,0,0,1-2.351.542,15.5,15.5,0,0,1-3.7-.871c-.587-.192-1.172-.389-1.748-.611a3.763,3.763,0,0,1-1.608-1.3A6.947,6.947,0,0,1,60.8,62.061c-.149-1.241,1.443-2.043,2.072-2.932a2.646,2.646,0,0,0,.554-1.269c.028-.785-.484-.1-.61.246a2.258,2.258,0,0,1-.617,1.136,8.2,8.2,0,0,0-1.607,1.9A2.866,2.866,0,0,0,57.5,58.928l-.011.066c1.382.544,2.434,1.08,2.8,2.616.4,1.707.633,3.2,1.847,4.565a7.291,7.291,0,0,0-4.691.486,9.569,9.569,0,0,0-1.594.739c-.672.444-1,1.233-1.86,1.407l0,.068a3.221,3.221,0,0,0,2.292-1.113,6.488,6.488,0,0,1,2.4-1.06c-.411.884.018,1.915-.48,2.788a1.1,1.1,0,0,1-.272.3,4.725,4.725,0,0,0-.667.668c1.038.322,1.562-1.14,1.639-1.941.073-.748-.23-1.857.761-2.009a5.138,5.138,0,0,1,1.894-.062,13.62,13.62,0,0,1,2.079.832,6.471,6.471,0,0,1,2.141,1.292c.491.456.6.777.4,1.307a3.84,3.84,0,0,0-.438,1.944l.068,0a2.077,2.077,0,0,1,1.618-1.984c.479-.165.985-.286,1.477-.406a5.437,5.437,0,0,0,1.089-.181,27.611,27.611,0,0,1,7.726,3.249,3.732,3.732,0,0,1,1.7,4.793,9.135,9.135,0,0,1-5.106,4.659,8.574,8.574,0,0,1-3.477.686,5.383,5.383,0,0,1-2.973-1.574,15.475,15.475,0,0,1-2.19-2.868c-.4-.594-1.225-2.091-2.123-1.9,1.673.883,1.994,3.177,3.319,4.448.256.246,1.085.731,1.11,1.146.04.672-.952,1.193-1.428,1.376a9.558,9.558,0,0,1-5.5.24c-2.1-.561-2.763-2.5-4.016-4.06-.838-1.045-2.439-1.205-3.813-1.115l0,.068a9.718,9.718,0,0,1,2.992.992,4.564,4.564,0,0,1,1.521,1.683A6.182,6.182,0,0,0,59.678,83.4c.272.171.761.227.835.536.07.289-.283.612-.472.766a8.158,8.158,0,0,1-2.476,1.2,4.091,4.091,0,0,1-1.909.041c-1.479-.191-2.765-.33-3.856.907a9.765,9.765,0,0,1,2.185-.593,15.214,15.214,0,0,1,2.363.2c1.748.164,3-1.238,4.568-1.649.82-.216,2.138-.331,2.626.513.314.545.067.764-.124,1.321a8.287,8.287,0,0,0-.359,1.473c-.136.913-.041,2.065-.787,2.775a4.571,4.571,0,0,1-2.218.844V91.8a2.972,2.972,0,0,0,2.456-.459,4.426,4.426,0,0,0,.807-1.708c.538,1.025,1.394,2.621.945,3.8-.147.388-.384.5-.476.967a1.426,1.426,0,0,0,.3,1.231c.141-.2.118-.859.231-1.17s.148-.483.271-.759a2.847,2.847,0,0,0,.029-1.975A11.331,11.331,0,0,0,64.05,90.2a4.9,4.9,0,0,1-.64-1.5,5.2,5.2,0,0,1,.969-3.054,6.8,6.8,0,0,1,6.033-2.072,1.417,1.417,0,0,1,.731.167c.31.3.071.638-.13,1.038-.423.839-1.344,1.581-1.345,2.589l.066.013a6.563,6.563,0,0,1,2.255-2.481,4.283,4.283,0,0,1,2.121-1.178c2.167-.269,3.679,1.536,4.765,3.124.931,1.362,1.727,3.132,1.281,4.81-.546,2.052-2.971,2.835-4.8,2.149-.608-.228-1-.542-1.583-.758a5.183,5.183,0,0,0-2.918-.111l0,.068a12.661,12.661,0,0,1,3.078.709c.282.1.286.1.555.178.383.114,1.345.372,1.5.7.332.708-.656,1.641-1.061,2.023a17.751,17.751,0,0,1-3.221,2.313,10.82,10.82,0,0,1-6.364,1.549,7.577,7.577,0,0,0-2.751.281,5.41,5.41,0,0,0-2.2,1.874l.049.048a6.3,6.3,0,0,1,4.217-1.818c1.4.009,3.764-.057,4.533,1.38-.425,1.252-.583,3.011-1.535,4.009-.145-.031-.487.344-.677.468a11.75,11.75,0,0,1-1.03.573c2.431.606,2.967-2.83,3.478-4.443a15.41,15.41,0,0,1,.807-2.089,1.823,1.823,0,0,1,1.3-1.145,1.975,1.975,0,0,1,2.061.531l.03-.076a6.023,6.023,0,0,1-.651,2.915l.05.046a2.088,2.088,0,0,0,.948-1.733c.025-.85-.125-2.076.548-2.723a7.063,7.063,0,0,1,5.239-1.929,3.037,3.037,0,0,1,2.762,2.376c.5,2.15.6,4.374,1,6.543,1.144,3.246,3.227,10.449,8.886,14.438a23.115,23.115,0,0,0,8.209,3.946c3.777.863,7.8.63,11.647.551a14.824,14.824,0,0,1,3.1.091c.911.175,1.817.375,2.725.562a15.74,15.74,0,0,1,3.447,1.129,10.326,10.326,0,0,1,1.465.945l2.486,1.714a13.206,13.206,0,0,1,1.484,1.024,4.2,4.2,0,0,1,1.174,2.117,4.154,4.154,0,0,1-.616,2.23,5.107,5.107,0,0,1-3.92,2.017c-2.03.27-4.07-.061-6.091.277a13.969,13.969,0,0,0-2.947.787c-.641.26-1.747.618-1.955,1.365-.243.872.766.58,1.208.35a20.243,20.243,0,0,1,2.309-1.3,12.439,12.439,0,0,1,5.807-.426,8.523,8.523,0,0,0-1.706,2.177c-.324.675-.313,1.284-1.108,1.568-1.245.445-2.825.466-3.836,1.422-.3.287-.712.719-.621,1.174.207,1.031,1.279-.391,1.518-.624a1.941,1.941,0,0,1,1.534-.6,2.645,2.645,0,0,0,2.141-.779,6.593,6.593,0,0,0,.288,2.759c.17.489.812,2.153,1.583,1.657.649-.417-.394-1.581-.585-2.045a6.755,6.755,0,0,1-.471-2.514,3.339,3.339,0,0,1,.445-2.039,8.35,8.35,0,0,1,4.7-2.993,3.667,3.667,0,0,0,2.022-1.153c.405-.466.884-1.534,1.506-1.688.835-.206,1.265,1.047,1.475,1.641a8.27,8.27,0,0,1,.195,4.386,5.29,5.29,0,0,1-2.61,3.774c-1.824.977-4.162,1.6-4.713,3.892-.169.7-.434,2.4.266,2.893.917.652.755-1.16.76-1.535a3.655,3.655,0,0,1,.934-2.887,7.811,7.811,0,0,1,2.261-1.356,8.136,8.136,0,0,0-.812,5.469c.136.7,1.7,4.72,2.636,3.58.243-.3-.033-.836-.182-1.105-.336-.612-.769-1.163-1.08-1.793a6.736,6.736,0,0,1-.677-2.923,6.426,6.426,0,0,1,.64-2.807c.5-1.054,1.755-1.357,2.323-2.374-.114,2.724,1.557,4.456,3.318,6.313.346.365.843.74.962,1.253a10.693,10.693,0,0,1,.1,1.4c.032.379.077.853.459,1.058C136.075,152.835,136.486,152.356,136.452,151.887Z" transform="translate(-51.8 -46.242)"/><g id="Myelin_shealths"><path id="Path" class="cls-6" d="M88.188,110.575c-1.525-1.725-2.851-.1-2.7.781a14,14,0,0,0,2.283,4.651c1.274,1.822,2.77.543,2.619-.657C90.356,114.262,88.826,111.4,88.188,110.575Z" transform="translate(-51.8 -46.242)"/><path id="Path-2" data-name="Path" class="cls-7" d="M92.3,117.025c-2.012-1.033-2.484.96-2,1.717a14.851,14.851,0,0,0,3.86,3.46c1.837,1.216,2.6-.517,1.976-1.571a14.953,14.953,0,0,0-3.838-3.606Z" transform="translate(-51.8 -46.242)"/><path id="Path-3" data-name="Path" class="cls-8" d="M98.756,121.306c-2.294,0-1.936,2.09-1.179,2.565a13.9,13.9,0,0,0,4.993,1.388c2.2.257,2.218-1.728,1.216-2.417-.839-.706-3.992-1.465-5.03-1.536Z" transform="translate(-51.8 -46.242)"/><path id="Path-4" data-name="Path" class="cls-9" d="M106.459,122.429c-2.235.543-1.409,2.413-.564,2.678a14.378,14.378,0,0,0,5.178.114c2.2-.282,1.766-2.142.634-2.549C110.729,122.212,107.486,122.25,106.459,122.429Z" transform="translate(-51.8 -46.242)"/><path id="Path-5" data-name="Path" class="cls-10" d="M114.791,122.641c-2.28.265-1.68,2.261-.872,2.635a14.147,14.147,0,0,0,5.123.77c2.22-.006,2-1.942.927-2.5C119.054,122.961,115.832,122.589,114.791,122.641Z" transform="translate(-51.8 -46.242)"/><path id="Path-6" data-name="Path" class="cls-11" d="M123.515,124.966c-2.168-.8-2.642,1.3-2.111,2.011a13.5,13.5,0,0,0,4.183,3.056c1.984,1.013,2.769-.857,2.089-1.858-.519-.959-3.206-2.779-4.161-3.209Z" transform="translate(-51.8 -46.242)"/><path id="Path-7" data-name="Path" class="cls-12" d="M85.909,103.023a1.649,1.649,0,0,0-3.13.265,12.489,12.489,0,0,0,1.163,5.051,1.53,1.53,0,0,0,3-.158c.271-1.087-.58-4.217-1.037-5.158Z" transform="translate(-51.8 -46.242)"/></g></g></svg>