<svg id="Layer_1" data-name="Layer 1" xmlns="http://www.w3.org/2000/svg" xmlns:xlink="http://www.w3.org/1999/xlink" viewBox="0 0 80 151.572"><defs><style>.cls-1{fill:#748ddf;}.cls-2{opacity:0.8;}.cls-3{isolation:isolate;}.cls-4{fill:url(#radial-gradient);}.cls-5{fill:#5656a5;}.cls-6{fill:url(#radial-gradient-2);}.cls-7{fill:url(#radial-gradient-3);}.cls-8{fill:url(#radial-gradient-4);}.cls-9{fill:url(#radial-gradient-5);}.cls-10{fill:url(#radial-gradient-6);}</style><radialGradient id="radial-gradient" cx="-370.195" cy="556.659" r="7.724" gradientTransform="translate(626.675 382.145) rotate(85.981)" gradientUnits="userSpaceOnUse"><stop offset="0" stop-color="#afbaf7"/><stop offset="0.311" stop-color="#6d96ce"/><stop offset="0.803" stop-color="#285fcc"/></radialGradient><radialGradient id="radial-gradient-2" cx="-346.667" cy="-182.683" r="4.021" gradientTransform="translate(-97.059 449.622) rotate(92.424)" gradientUnits="userSpaceOnUse"><stop offset="0" stop-color="#d5f6ff"/><stop offset="1" stop-color="#748ddf"/></radialGradient><radialGradient id="radial-gradient-3" cx="-336.203" cy="-182.93" r="4.045" xlink:href="#radial-gradient-2"/><radialGradient id="radial-gradient-4" cx="-325.767" cy="-183.904" r="4.037" xlink:href="#radial-gradient-2"/><radialGradient id="radial-gradient-5" cx="-315.331" cy="-184.872" r="4.046" xlink:href="#radial-gradient-2"/><radialGradient id="radial-gradient-6" cx="-357.117" cy="-183.734" r="4.013" xlink:href="#radial-gradient-2"/></defs><title>R-ICO-014083</title><g id="Relay_neuron" data-name="Relay neuron"><path id="Neuron_body" data-name="Neuron body" class="cls-1" d="M92.671,175.408a7.822,7.822,0,0,0,1.073-2.095,7.22,7.22,0,0,0,.088-2.589c-.107-1.812-.515-3.494.235-5.228a8.821,8.821,0,0,1,2.8-3.647,10.458,10.458,0,0,0,3.678-3.672,20.036,20.036,0,0,0,.041,2.523c.083.859.433,1.657.531,2.5a5.706,5.706,0,0,1-.528,2.408,13.306,13.306,0,0,1-1.022,2.337c-1.121,1.974-2.461,4.791-.722,6.85.284.336.878.692,1.171.172.28-.5-.278-1.219-.479-1.633a4.79,4.79,0,0,1,.4-4.39,13.83,13.83,0,0,0,1.655-3.334c.152-.713.288-1.429.43-2.144h0c1.037,1.213,2,2.376,3.531,2.566,1.141.142.932,2.5.879,2.976a.59.59,0,1,0,1.173.134c.288-2.536-.407-4.1-1.906-4.282-1.044-.13-1.819-1.037-2.717-2.088-.312-.366-.636-.744-.988-1.109a2.959,2.959,0,0,1-.294-.733c-.342-1.766.326-3.642.864-5.3a4.016,4.016,0,0,0,1.55,1.96,12.745,12.745,0,0,0,6.031,2.385,9.454,9.454,0,0,1,1.267,2.946,5.608,5.608,0,0,0,3,3.046,15.166,15.166,0,0,0,3.229.714.591.591,0,0,0,.108-1.177,13.125,13.125,0,0,1-3.94-1.063c-.792-.392-1.142-1.462-1.513-2.595a10.945,10.945,0,0,0-.783-1.961,3.537,3.537,0,0,0,.817-.281c.429-.214.859-.455,1.276-.688,1.9-1.062,3.69-2.066,6.139-1.2a.591.591,0,0,0,.393-1.114c-2.953-1.041-5.161.195-7.11,1.286-.422.236-.821.459-1.224.66-1.929.959-5.7-.857-7.648-2.386A10.546,10.546,0,0,1,103,153.45c.659.693,1.522,1.222,3.692,1.009,2.763-.27,5.256-2.661,7.528-5.331a8.736,8.736,0,0,1,1.966-1.8,23.778,23.778,0,0,0,2.8-1.134c.382-.19,1.161-.321,1.245-.786.115-.633-.646-1.02-1.168-.923a6.539,6.539,0,0,0-1.626.79c-.313.17-.621.351-.924.538a8.71,8.71,0,0,0-3.2,2.548c-2.1,2.472-4.368,4.821-6.7,4.918-1.685.07-3.082-.239-3.818-1.449a8.114,8.114,0,0,1-.619-3.007l-.035-.4c-.251-6.287-.759-13.166-1.059-18.857-.368-7-.659-12.52-.614-14.486a114.2,114.2,0,0,1,1.411-11.619c.308-2.047.624-4.145.875-6.046a4.47,4.47,0,0,1,.731-1.921,3.889,3.889,0,0,1,2.28-1.832c5.829-1.6,10.324-7.574,10.634-14.9A16.851,16.851,0,0,0,109.1,64c-4.114-2.754-4.2-5.406-4.292-6.226s-.448-4.456.37-5.191c.871-.783,1.917-3.1,5.012-3.127,1.49-.013,4.569,1.8,6.222,2.114,1.581.3,3.282-.356,4.807.344,1.181.541,2.216,2.354,3.258,3.179.711.564-.107,1.611-.36,2.3a2.443,2.443,0,0,0,.7,2.629l.062-.051a3.545,3.545,0,0,1-.2-2.511,2.955,2.955,0,0,1,2.276-2.418,7.668,7.668,0,0,1,3.747,1.156,6.184,6.184,0,0,1,2.225,2.076l.075-.024c-.114-1.653-1.7-2.354-2.945-2.906,1.961-.393,3.556-1.622,5.484-1.842-.859-.869-2.656.255-3.493.631a8.378,8.378,0,0,1-2.419.793,10.205,10.205,0,0,1-2.844-.4c-1.529-.3-3.156-1.246-2.946-3.064.149-1.287,2.97-2.49,2.968-2.464a10.891,10.891,0,0,1,2.393-.746,23.719,23.719,0,0,0,4.345-1.219c1.3-.613,2.7.114,3.982.463.558.152,2,.719,2.479.194a5.361,5.361,0,0,0-1.792-.541c-1.272-.172-2.35-.83-3.676-.83.931-.86,1.559-2,2.494-2.843a6.165,6.165,0,0,1,2.145-1.135l0-.078c-2.487-.513-3.536,2.521-5.14,3.855a8.1,8.1,0,0,1-3.557,1.431,12.991,12.991,0,0,1-1.63.264,1.382,1.382,0,0,1-.68-.06c-.322-.234.041-1.078.132-1.32a14.814,14.814,0,0,0,.667-1.959,14.8,14.8,0,0,1,.892-3.062,3.4,3.4,0,0,1,1.985-1.772c.683-.241,1.589-.65,2.378-.872l0-.079a4.922,4.922,0,0,0-4.339,1.777c-1.426,1.863-1.054,4.5-2.42,6.4-.4.561-1.141,1.553-1.952,1.527-1.24-.04-1.224-1.921-1.423-2.735a14.052,14.052,0,0,0-.293-1.421c-.173-.493-.455-.944-.668-1.421a3.5,3.5,0,0,1-.012-3.328l-.064-.048c-2.01,2.2.58,4.95.744,7.278a3.326,3.326,0,0,1-2.606,3.349c-1.559.469-3.673.832-5.117-.113s-5.483-2.256-4.99-3.707c1.159-3.419,3.2-6.832,6.417-8.636a13.43,13.43,0,0,1,5.484-1.62,8.469,8.469,0,0,0,4.515-1.4c-.014-.023,2.224-2.115,2.209-2.138-.672.343-3.647,2.653-4.385,2.809a11.191,11.191,0,0,1-2.3.231.3.3,0,0,1-.233-.085c-.481-.568.54-2.587.385-3.306a16.161,16.161,0,0,1-.191-1.894,2.183,2.183,0,0,1,.488-1.2l-.048-.063a1.911,1.911,0,0,0-.962,2.221,3.373,3.373,0,0,1-.229,2.178,4.19,4.19,0,0,1-.605,1.425,8.215,8.215,0,0,1-1.792.948,5.2,5.2,0,0,1-1.235.383,4.159,4.159,0,0,1-1.528.289A2.189,2.189,0,0,1,115.442,35a31.1,31.1,0,0,0-1-3.687,5.286,5.286,0,0,1-.489-1.935,4.364,4.364,0,0,1,.341-2.011c.46-.955,1.606-1.587,1.838-2.817l-.074-.03c-.555.859-1.517,1.423-1.982,2.246a5.138,5.138,0,0,0-.587,3.021,6.852,6.852,0,0,0-2.461-1.571,6.947,6.947,0,0,1-2.423-1.264c-.775-.7-.785-1.782-1.082-2.738a2.783,2.783,0,0,0,1.226,3.451c1.828,1.241,4.279,1.4,5.194,3.7a9.5,9.5,0,0,1,.916,3.48,7.816,7.816,0,0,1-.738,2.857c-.537,1.231-1.551,3.217-2.855,3.723a1.522,1.522,0,0,1-1.94-.759,4.854,4.854,0,0,0-2.4-1.794,4.393,4.393,0,0,1-.472-1.57c.034-.544.418-.928.6-1.417a11.98,11.98,0,0,0,.341-1.5c.045-.373-.378-1.3-.868-1a1.609,1.609,0,0,0-.211,1.21c.309.647-.2,1.853-.306,2.422a2.727,2.727,0,0,0,.323,1.651,4.722,4.722,0,0,1-2.194-1.5,3.067,3.067,0,0,1-.652-2.353l-.079-.016c-.194.786-.618,1.16-.47,2.017a2.712,2.712,0,0,0,1.792,2.089,1.4,1.4,0,0,0,.486-.007,2.378,2.378,0,0,1,.683.138,6.272,6.272,0,0,1,1.85.8,4.08,4.08,0,0,1,1.162,1.065,5.61,5.61,0,0,1,.978,2.559c.395,6.553-12.36,7.771-12.881,3.368a9.286,9.286,0,0,1,.052-2.426,25.729,25.729,0,0,1,.883-2.953c.224-.458.655-.883.254-1.378s-1.087,1.03-1.227,1.227a12.274,12.274,0,0,0-.335,2.718c-.118.817-.482,2.329-1.272,2.748-1.009.534-1.756-1.02-2.134-1.7-.912-1.63-2.626-4.608-1.292-6.413a11.47,11.47,0,0,1,2.848-2.175,8.173,8.173,0,0,1,1.432-.872,16.329,16.329,0,0,0,2.356-1.4,2.438,2.438,0,0,1,1.275-.253c.579.029.726-.453.491-.671a1.364,1.364,0,0,0-1.287-.213c-.244.109-.206.2-.373.381a2.414,2.414,0,0,1-.487.423c-.452.288-.879.616-1.331.9-.422.267-1.376.762-1.851.346-.45-.394.246-.9.5-1.228a20.021,20.021,0,0,0,1.449-1.6c.35-.582.977-2.843-.206-3.369-.2.773-.445,1.709-.588,2.566a3.427,3.427,0,0,1-.183.868,12.8,12.8,0,0,1-.821,1.2,10,10,0,0,1-1.165,1.285,8.747,8.747,0,0,0-1.95,2.188c-.253.476-.31,1.4-1.042,1.353-.423-.026-.83-.534-1.012-.866a8.3,8.3,0,0,1-.384-1.867c-.1-.364-.3-.679-.412-1.03a.977.977,0,0,1-.048-.539,10.056,10.056,0,0,0-.021-2.745c-.271-1.808-.726-4.275-2.645-4.86a2.277,2.277,0,0,0,.88,1.276,4.86,4.86,0,0,1,1.073,2.461c.166.862.962,3.709-.094,4.34-.607.362-1.509-.4-2.046-.625-.739-.308-1.5-.615-2.256-.863a7.5,7.5,0,0,1-3.448-2.175l-.067.045a5.033,5.033,0,0,0,2.927,2.542,12.957,12.957,0,0,1,2.353.777,5.049,5.049,0,0,1,2.474,1.9,14.671,14.671,0,0,1,2.7,7.341c.1,1.5-2.588,1.238-3.625,1.164a5.306,5.306,0,0,1-2.952-.894c-.921-.66-1.271-1.827-2.3-2.355l-.046.065c1.16,1.11,1.657,3.307,3.488,3.564,1.2.167,2.751-.064,4.013.3a3.241,3.241,0,0,1,1.67,1.293c.522.8.59,1.542-.689,2.786a17.468,17.468,0,0,1-4.612,3.055,11.738,11.738,0,0,1-4.76,1.213c-4.065.034-4.006-5.326-4.338-8.254-.226-1.992-.961-4.106.464-5.775a9.282,9.282,0,0,1,1.714-1.438,1.036,1.036,0,0,0,.488-1.331,19.006,19.006,0,0,1-1.884,1.774,4.588,4.588,0,0,0-1.588,2.25c-.511-.79-1.211-1.985-2.263-2.082l-.025.075a4.307,4.307,0,0,1,1.613,1.925,9.754,9.754,0,0,1,.361,1.013c.041.133.515,2.551.635,3.614a6.025,6.025,0,0,0-2.313-.838A5.845,5.845,0,0,1,72.6,44.31c-.326-.173-.381-.472-.75-.707-.441-.281-1.327-.412-1.007.419a1.484,1.484,0,0,0,.744.7,2.713,2.713,0,0,0,.8.027,14.6,14.6,0,0,1,2.423.566,4.106,4.106,0,0,1,1.129.472,1.115,1.115,0,0,1,.558,1.019,17.477,17.477,0,0,0,1.071,5.158c-1.5-1.293-3.6-1.12-5.351-.536a9.107,9.107,0,0,1-4.941.485c-.616-.147-.918-.209-1.113-.828A5.387,5.387,0,0,1,65.915,50a7.464,7.464,0,0,1,.121-1.527c.118-1.114.221-2.587-.957-3.115-.182.475.29,1.046.411,1.381a2.823,2.823,0,0,1,.116,1.027,9.182,9.182,0,0,0,.095,3.476,16.441,16.441,0,0,1-2.155-2,5.768,5.768,0,0,0-3.535-1.5l-.011.08c2.606.595,3.858,3.24,6.2,4.261a7.1,7.1,0,0,0,4.039.345c1.143-.2,2.208-.679,3.34-.88a4.467,4.467,0,0,1,3.638.753,1.954,1.954,0,0,1,.891,1.438c-.039.657-.71,1.128-1.177,1.5a11.951,11.951,0,0,1-3.556,2.1,5.473,5.473,0,0,1-3.659-.5,7.757,7.757,0,0,0-2.845-.515c-1.091.041-2.9.41-3.166,1.7l.071.034c1.081-1.329,2.577-1.062,4.041-1.069,1,0,2.509.326,2.463,1.739-.05,1.529-.861,2.735-1.507,4.057a11.43,11.43,0,0,1-1.557,2.843,3.6,3.6,0,0,1-2.005.86l.006.079a2.611,2.611,0,0,0,2.759-1.289c.151-.253.29-.513.441-.767.639-1.082,1.236-2.185,1.837-3.289a6.4,6.4,0,0,1,3.182-3.084c2.157-.644,4-2.575,6.037-2.968,2.165-.417,4.206-.322,7.053-1.5,2.914-1.2,4.78-4.252,7.83-4.443,2.126-.134,5.477,2.1,7.426,3.2,1.653.94,1.4,4.417,1.4,5.194s-.022,3.556-4.782,5.635c-5.041,2.2-8.812,7.7-9.094,14.362-.313,7.4,3.76,13.743,9.511,15.8l.115.043a3.779,3.779,0,0,1,2.355,4.045c-.243,1.813-.541,3.8-.833,5.736-.637,4.228-1.294,8.592-1.412,11.378-.006.146-.011.287-.014.423-.047,2.02.245,7.569.615,14.6.3,5.686.777,12.546,1.026,18.818v.265a3.613,3.613,0,0,1-2.769,4.184c-1.776.591-3.547-.2-5.034-1.144-2.025-1.286-3.6-3.12-5.671-4.338a16.428,16.428,0,0,0-3.237-1.515c-.77-.25-2.031-.761-2.78-.248-.875.6.249,1.1.819,1.224a23.862,23.862,0,0,1,3.049.573,14.593,14.593,0,0,1,5.529,3.992,10,10,0,0,0-3.169.668c-.8.361-1.249.916-2.175.572-1.452-.539-2.885-1.71-4.512-1.615-.488.029-1.18.109-1.441.586-.591,1.081,1.442.612,1.831.583a2.276,2.276,0,0,1,1.829.617,3.1,3.1,0,0,0,2.507.914,7.719,7.719,0,0,0-1.82,2.691c-.216.567-.893,2.542.171,2.679.9.115.838-1.715,1.016-2.275a7.911,7.911,0,0,1,1.471-2.609,3.907,3.907,0,0,1,1.935-1.494,9.236,9.236,0,0,1,3-.162,7.49,7.49,0,0,1,3.139.85,4.545,4.545,0,0,0,3.011.66c.715-.114,1.949-.71,2.622-.38.905.444.347,1.893.088,2.582a9.677,9.677,0,0,1-3.129,4.081,6.2,6.2,0,0,1-5.184,1.419c-2.371-.5-4.938-1.7-7.158-.059-.679.5-2.192,1.821-1.94,2.794.331,1.276,1.55-.471,1.838-.8a4.283,4.283,0,0,1,3.012-1.886,9.139,9.139,0,0,1,3.049.487,9.532,9.532,0,0,0-4.847,4.292c-.4.728-2.03,5.515-.333,5.2.443-.083.6-.774.67-1.128.159-.8.186-1.621.382-2.421a7.87,7.87,0,0,1,1.594-3.131,7.521,7.521,0,0,1,2.687-2.036c1.246-.566,2.6.106,3.872-.379-2.154,2.357-1.959,5.169-1.779,8.161a3.66,3.66,0,0,1-.081,1.847,12.43,12.43,0,0,1-.968,1.331c-.256.365-.573.823-.385,1.295A.727.727,0,0,0,92.671,175.408Z" transform="translate(-60 -24.214)"/><g id="Nucleus" class="cls-2"><g id="NUCLEUS-2" data-name="NUCLEUS" class="cls-3"><circle class="cls-4" cx="43.104" cy="53.574" r="5.877"/><path class="cls-5" d="M97.026,78.215a6.093,6.093,0,1,1,6.505,5.651A6.1,6.1,0,0,1,97.026,78.215Zm11.725-.824a5.661,5.661,0,1,0-5.25,6.044A5.666,5.666,0,0,0,108.751,77.391Z" transform="translate(-60 -24.214)"/></g></g><g id="Myelin_shealths"><path class="cls-6" d="M103.215,108.348c-.725-2.881-4.514-2.327-5.169-1.319-.822,1.134-1.274,4.3-.874,6.636a2.259,2.259,0,0,0,2.4,2.088,3.327,3.327,0,0,0,2.6-1.124,6.8,6.8,0,0,0,.921-3.03A13.891,13.891,0,0,0,103.215,108.348Z" transform="translate(-60 -24.214)"/><path class="cls-7" d="M102.556,118.3c-1.221-2.67-4.855-1.5-5.318-.368-.616,1.288-.448,4.445.221,6.546.763,2.717,4.384,1.869,5.078.39.81-1.3.449-5.325.019-6.568Z" transform="translate(-60 -24.214)"/><path class="cls-8" d="M103.132,128.8c-1.215-2.741-4.851-1.506-5.319-.418-.616,1.25-.509,4.387.111,6.5.7,2.728,4.337,1.99,5.069.526.847-1.275.562-5.338.139-6.6Z" transform="translate(-60 -24.214)"/><path class="cls-9" d="M103.605,139.206c-1.272-2.716-4.882-1.389-5.327-.294-.593,1.262-.422,4.387.223,6.48.737,2.709,4.368,1.914,5.076.434C104.41,144.533,104.051,140.466,103.605,139.206Z" transform="translate(-60 -24.214)"/><path class="cls-10" d="M104.678,97.864c-.827-2.932-4.611-2.094-5.211-1.125-.772,1.127-1.143,4.2-.863,6.392.264,2.81,3.981,2.612,4.928,1.282C104.567,103.293,104.923,99.21,104.678,97.864Z" transform="translate(-60 -24.214)"/></g></g></svg>