<?xml version="1.0" encoding="UTF-8" standalone="no"?>
<!-- Created with Inkscape (http://www.inkscape.org/) -->

<svg
   xmlns:dc="http://purl.org/dc/elements/1.1/"
   xmlns:cc="http://creativecommons.org/ns#"
   xmlns:rdf="http://www.w3.org/1999/02/22-rdf-syntax-ns#"
   xmlns:svg="http://www.w3.org/2000/svg"
   xmlns="http://www.w3.org/2000/svg"
   xmlns:sodipodi="http://sodipodi.sourceforge.net/DTD/sodipodi-0.dtd"
   xmlns:inkscape="http://www.inkscape.org/namespaces/inkscape"
   id="svg2"
   version="1.1"
   inkscape:version="0.92.2 (5c3e80d, 2017-08-06)"
   xml:space="preserve"
   width="810"
   height="690.1217"
   viewBox="0 0 810 690.1217"
   sodipodi:docname="publicdomainq-brain_organ.svg"
   inkscape:export-filename="/media/juhele/data_2TB/_GRAFIKA/Publicdomainq/publicdomainq-brain_organ.png"
   inkscape:export-xdpi="95.982819"
   inkscape:export-ydpi="95.982819"><title
     id="title700">Human brain drawing</title><metadata
     id="metadata8"><rdf:RDF><cc:Work
         rdf:about=""><dc:format>image/svg+xml</dc:format><dc:type
           rdf:resource="http://purl.org/dc/dcmitype/StillImage" /><dc:title>Human brain drawing</dc:title><cc:license
           rdf:resource="http://creativecommons.org/publicdomain/zero/1.0/" /><dc:subject><rdf:Bag><rdf:li>human</rdf:li><rdf:li>brain</rdf:li><rdf:li>anatomy</rdf:li><rdf:li>biology</rdf:li><rdf:li>think</rdf:li><rdf:li>organ</rdf:li><rdf:li>head</rdf:li><rdf:li>publicdomainq.net</rdf:li></rdf:Bag></dc:subject><dc:description>This image was adapted from a picture posted to publicdomainq.net. All of the images on these sites are in the public domain i.e. CC0. This site is only in Japanese but can be easily navigated with Google Translate.</dc:description></cc:Work><cc:License
         rdf:about="http://creativecommons.org/publicdomain/zero/1.0/"><cc:permits
           rdf:resource="http://creativecommons.org/ns#Reproduction" /><cc:permits
           rdf:resource="http://creativecommons.org/ns#Distribution" /><cc:permits
           rdf:resource="http://creativecommons.org/ns#DerivativeWorks" /></cc:License></rdf:RDF></metadata><defs
     id="defs6"><style
       id="style7911"
       type="text/css"><![CDATA[
    .str8 {stroke:#40201D;stroke-width:3.21654}
    .str7 {stroke:#40201D;stroke-width:4.2874}
    .str3 {stroke:#332C2B;stroke-width:10.7165}
    .str0 {stroke:#40201D;stroke-width:10.7165}
    .str1 {stroke:#72332C;stroke-width:10.7165}
    .str6 {stroke:#B2B4A9;stroke-width:10.7165}
    .str2 {stroke:#C4A494;stroke-width:10.7165}
    .str5 {stroke:#EDEFDF;stroke-width:10.7165}
    .str4 {stroke:#863A32;stroke-width:21.4331}
    .fil0 {fill:none;fill-rule:nonzero}
    .fil12 {fill:#332C2B;fill-rule:nonzero}
    .fil11 {fill:#40201D;fill-rule:nonzero}
    .fil13 {fill:#6B3029;fill-rule:nonzero}
    .fil8 {fill:#72332C;fill-rule:nonzero}
    .fil9 {fill:#863A32;fill-rule:nonzero}
    .fil2 {fill:#9A4239;fill-rule:nonzero}
    .fil6 {fill:#C9CBBF;fill-rule:nonzero}
    .fil4 {fill:#CED0C3;fill-rule:nonzero}
    .fil7 {fill:#D5D7BA;fill-rule:nonzero}
    .fil5 {fill:#E1E3D5;fill-rule:nonzero}
    .fil3 {fill:#EDEFDF;fill-rule:nonzero}
    .fil10 {fill:#FBDFBD;fill-rule:nonzero}
    .fil1 {fill:#FEFEFE;fill-rule:nonzero}
   ]]></style></defs><sodipodi:namedview
     pagecolor="#ffffff"
     bordercolor="#666666"
     borderopacity="1"
     objecttolerance="10"
     gridtolerance="10"
     guidetolerance="10"
     inkscape:pageopacity="0"
     inkscape:pageshadow="2"
     inkscape:window-width="1920"
     inkscape:window-height="1140"
     id="namedview4"
     showgrid="false"
     inkscape:zoom="0.85973989"
     inkscape:cx="267.24477"
     inkscape:cy="460.57657"
     inkscape:window-x="0"
     inkscape:window-y="0"
     inkscape:window-maximized="1"
     inkscape:current-layer="g8067"
     fit-margin-top="5"
     fit-margin-left="5"
     fit-margin-bottom="5"
     fit-margin-right="5" /><g
     transform="matrix(2.9750633,0,0,-2.9750633,-1500.9887,1553.53)"
     id="g16"
     style="stroke:#000000;stroke-width:0.33612731;stroke-miterlimit:4;stroke-dasharray:none;stroke-opacity:1"><g
       style="clip-rule:evenodd;fill-rule:evenodd;stroke:#000000;stroke-width:1.74801898;stroke-miterlimit:4;stroke-dasharray:none;stroke-opacity:1;image-rendering:optimizeQuality;shape-rendering:geometricPrecision;text-rendering:geometricPrecision"
       id="g8067"
       transform="matrix(0.09614521,0,0,-0.09614521,-544.14025,896.46672)"><g
         transform="matrix(7.1099703,0,0,-7.1099703,10108.035,9190.3749)"
         id="g481"><path
           d="m 258.7222,531.7832 c 0,0 -14.872,-4.744 -44.407,-2.634 -42.352,3.026 -58.158,1.59 -70.527,10.866 -12.368,9.276 -10.822,13.915 -10.822,13.915 0,0 -7.73,2.577 -12.369,20.614 -4.638,18.037 -1.545,24.736 -1.545,24.736 0,0 -5.669,3.093 1.545,25.253 7.215,22.16 24.737,76.272 79.88,96.371 55.143,20.098 78.333,19.067 92.248,19.583 13.914,0.515 23.192,-3.608 23.192,-3.608 0,0 17.006,9.277 55.657,-3.607 38.651,-12.884 40.713,-20.098 40.713,-20.098 0,0 1.546,0 5.669,-2.062 4.123,-2.061 5.153,-6.7 5.153,-6.7 0,0 10.307,3.607 20.613,-8.761 10.307,-12.368 24.739,-32.981 28.345,-39.681 3.609,-6.701 0.517,-10.308 0.517,-10.308 0,0 10.821,1.545 17.521,-11.338 6.698,-12.884 15.459,-52.049 15.976,-63.388 0.515,-11.337 -4.123,-20.613 -4.123,-20.613 0,0 2.062,-6.702 -4.123,-18.039 -6.184,-11.336 -19.584,-29.375 -26.282,-27.313 -6.7,2.062 -12.884,1.547 -18.039,8.246 -2.463,3.204 0.783,-35.609 -29.104,-48.893 -21.359,-9.493 -59.773,8.303 -66.415,9.963 -17.549,4.387 -40.564,92.481 -46.491,91.321 -23.705,-4.638 -52.782,-33.825 -52.782,-33.825"
           style="fill:#ecdeaa;fill-opacity:1;fill-rule:nonzero;stroke:none"
           id="path22"
           inkscape:connector-curvature="0" /><path
           d="m 258.7222,531.7832 c 0,0 -14.872,-4.744 -44.407,-2.634 -42.352,3.026 -58.158,1.59 -70.527,10.866 -12.368,9.276 -10.822,13.915 -10.822,13.915 0,0 -7.73,2.577 -12.369,20.614 -4.638,18.037 -1.545,24.736 -1.545,24.736 0,0 -5.669,3.093 1.545,25.253 7.215,22.16 24.737,76.272 79.88,96.371 55.143,20.098 78.333,19.067 92.248,19.583 13.914,0.515 23.192,-3.608 23.192,-3.608 0,0 17.006,9.277 55.657,-3.607 38.651,-12.884 40.713,-20.098 40.713,-20.098 0,0 1.546,0 5.669,-2.062 4.123,-2.061 5.153,-6.7 5.153,-6.7 0,0 10.307,3.607 20.613,-8.761 10.307,-12.368 24.739,-32.981 28.345,-39.681 3.609,-6.701 0.517,-10.308 0.517,-10.308 0,0 10.821,1.545 17.521,-11.338 6.698,-12.884 15.459,-52.049 15.976,-63.388 0.515,-11.337 -4.123,-20.613 -4.123,-20.613 0,0 2.062,-6.702 -4.123,-18.039 -6.184,-11.336 -19.584,-29.375 -26.282,-27.313 -6.7,2.062 -12.884,1.547 -18.039,8.246 -2.463,3.204 0.783,-35.609 -29.104,-48.893 -21.359,-9.493 -59.773,8.303 -66.415,9.963 -17.549,4.387 -40.564,92.481 -46.491,91.321 -23.705,-4.638 -52.782,-33.825 -52.782,-33.825 z"
           style="fill:none;stroke:#d7b651;stroke-width:4.17700005;stroke-linecap:butt;stroke-linejoin:miter;stroke-miterlimit:10;stroke-dasharray:none;stroke-opacity:1"
           id="path26"
           inkscape:connector-curvature="0" /><path
           d="m 141.0552,561.2139 c 0,0 5.904,6.643 16.974,5.167 11.069,-1.477 10.011,-7.215 24.033,-12.381 14.022,-5.167 26.097,0.599 26.097,0.599"
           style="fill:none;stroke:#d7b651;stroke-width:4.17700005;stroke-linecap:round;stroke-linejoin:round;stroke-miterlimit:10;stroke-dasharray:none;stroke-opacity:1"
           id="path30"
           inkscape:connector-curvature="0" /><path
           d="m 119.0518,599.2803 c 0,0 1.518,-1.786 6.917,0.015 5.398,1.799 8.399,4.799 8.399,4.799"
           style="fill:none;stroke:#d7b651;stroke-width:4.17700005;stroke-linecap:round;stroke-linejoin:round;stroke-miterlimit:10;stroke-dasharray:none;stroke-opacity:1"
           id="path34"
           inkscape:connector-curvature="0" /><path
           d="m 122.9683,577.6963 c 0,0 3.299,-2.699 12.898,0.6 9.6,3.299 12,6.599 6.9,8.399 -5.1,1.8 -14.099,4.199 -14.099,4.199"
           style="fill:none;stroke:#d7b651;stroke-width:4.17700005;stroke-linecap:round;stroke-linejoin:round;stroke-miterlimit:10;stroke-dasharray:none;stroke-opacity:1"
           id="path38"
           inkscape:connector-curvature="0" /><path
           d="m 146.3657,584.2959 c 0,0 4.499,-0.901 8.699,1.799 4.2,2.701 4.199,8.7 0.6,15.899 -3.599,7.199 -5.699,17.998 -15.898,16.798 -10.199,-1.2 -13.798,-1.2 -13.798,-1.2 0,0 17.397,-0.299 22.797,6 5.399,6.299 -5.4,13.5 -0.6,18.299 4.8,4.798 9.898,8.698 17.098,14.998 7.2,6.299 6.599,8.998 11.999,8.998 5.4,0 8.399,-1.499 8.399,-1.499 0,0 -4.5,6.899 5.7,9.299 10.198,2.4 16.498,-1.501 18.298,7.798 1.8,9.299 0.3,6.3 0.3,6.3 0,0 0.3,-3.6 4.499,-3.9 4.2,-0.299 7.499,1.8 12.599,6.6 5.099,4.8 8.699,5.101 15.898,7.2 7.199,2.099 7.8,6 10.799,9.899 3,3.899 6.3,3 11.399,0.6 5.099,-2.4 9.598,-8.7 14.098,-10.2 4.5,-1.499 15.598,3 15.598,3 0,0 4.201,-5.1 7.801,-6 3.6,-0.899 5.097,-4.498 10.798,-5.398 5.7,-0.901 11.698,1.798 11.698,1.798 0,0 -1.498,-5.999 9.599,-14.998 11.1,-8.998 27.897,-6.899 27.897,-6.899 0,0 -0.297,6.599 8.701,10.798 9,4.2 14.699,2.401 14.699,2.401 0,0 7.2,-0.901 12.298,-11.7 5.101,-10.798 11.699,-18.597 20.1,-17.097 8.398,1.499 18.297,11.099 18.297,11.099"
           style="fill:none;stroke:#d7b651;stroke-width:4.17700005;stroke-linecap:round;stroke-linejoin:round;stroke-miterlimit:10;stroke-dasharray:none;stroke-opacity:1"
           id="path42-3"
           inkscape:connector-curvature="0" /><path
           d="m 402.5391,662.5879 -0.899,-11.099 c 0,0 2.102,-6 3.6,-12.299 1.501,-6.299 0.602,-8.399 -2.999,-12.299 -3.599,-3.899 -9,-6.598 -9,-6.598 0,0 10.8,7.198 14.099,6.598 3.299,-0.6 8.399,-7.199 8.399,-12.899 0,-5.699 -5.4,-8.099 -14.399,-12.598 -8.998,-4.499 -13.496,-7.498 -20.996,-12.598 -7.5,-5.101 -13.2,-8.4 -15.599,-9"
           style="fill:none;stroke:#d7b651;stroke-width:4.17700005;stroke-linecap:round;stroke-linejoin:round;stroke-miterlimit:10;stroke-dasharray:none;stroke-opacity:1"
           id="path46"
           inkscape:connector-curvature="0" /><path
           d="m 472.584,645.6621 c 0,0 -2.85,-6.772 -9.45,-10.372 -6.599,-3.599 -14.998,-5.099 -16.198,-11.099 -1.2,-5.999 -9.299,-23.997 -18.599,-30.896 -9.298,-6.899 -39.596,-17.998 -39.596,-17.998"
           style="fill:none;stroke:#d7b651;stroke-width:4.17700005;stroke-linecap:round;stroke-linejoin:round;stroke-miterlimit:10;stroke-dasharray:none;stroke-opacity:1"
           id="path50"
           inkscape:connector-curvature="0" /><path
           d="m 433.4385,598.6943 c 0,0 3.299,-10.799 10.8,-17.099 7.497,-6.298 16.197,-13.798 20.997,-13.798 4.797,0 13.197,2.699 14.998,10.798 1.799,8.1 -0.301,21.298 2.1,27.898 2.399,6.599 2.098,15.3 5.699,13.799"
           style="fill:none;stroke:#d7b651;stroke-width:4.17700005;stroke-linecap:round;stroke-linejoin:round;stroke-miterlimit:10;stroke-dasharray:none;stroke-opacity:1"
           id="path54-67"
           inkscape:connector-curvature="0" /><path
           d="m 477.2324,627.1919 c 0,0 3.3,-1.202 -2.399,-5.701 -5.701,-4.499 -13.2,-12.598 -13.498,-16.497 -0.3,-3.899 3.299,-11.4 3.299,-11.4"
           style="fill:none;stroke:#d7b651;stroke-width:4.17700005;stroke-linecap:round;stroke-linejoin:round;stroke-miterlimit:10;stroke-dasharray:none;stroke-opacity:1"
           id="path58"
           inkscape:connector-curvature="0" /><path
           d="m 454.7363,572.2969 c 0,0 -5.699,-2.1 -6.601,-9.299 -0.899,-7.2 2.102,-19.799 1.201,-25.198 -0.9,-5.399 -0.9,-13.498 1.5,-17.098 2.399,-3.599 10.199,-11.399 10.199,-11.399"
           style="fill:none;stroke:#d7b651;stroke-width:4.17700005;stroke-linecap:round;stroke-linejoin:round;stroke-miterlimit:10;stroke-dasharray:none;stroke-opacity:1"
           id="path62-5"
           inkscape:connector-curvature="0" /><path
           d="m 464.0352,566.897 c 0,0 3.898,-6.599 5.098,-12.598 1.2,-6 -0.599,-15.598 -0.599,-15.598"
           style="fill:none;stroke:#d7b651;stroke-width:4.17700005;stroke-linecap:round;stroke-linejoin:round;stroke-miterlimit:10;stroke-dasharray:none;stroke-opacity:1"
           id="path66"
           inkscape:connector-curvature="0" /><path
           d="m 469.1328,543.5 c 0,0 6.6,2.101 12.599,-0.6 6.001,-2.7 10.201,-8.699 10.201,-8.699"
           style="fill:none;stroke:#d7b651;stroke-width:4.17700005;stroke-linecap:round;stroke-linejoin:round;stroke-miterlimit:10;stroke-dasharray:none;stroke-opacity:1"
           id="path70"
           inkscape:connector-curvature="0" /><path
           d="m 411.54,571.0967 c 0,0 11.699,2.101 16.499,-1.5 4.798,-3.599 5.699,-11.699 8.1,-20.098 2.397,-8.398 5.097,-12.299 5.097,-12.299 l 3.601,-9.598"
           style="fill:none;stroke:#d7b651;stroke-width:4.17700005;stroke-linecap:round;stroke-linejoin:round;stroke-miterlimit:10;stroke-dasharray:none;stroke-opacity:1"
           id="path74"
           inkscape:connector-curvature="0" /><path
           d="m 480.5322,576.7959 c 0,0 1.5,1.2 6.301,-0.6 4.799,-1.799 9.298,-5.999 9.298,-5.999"
           style="fill:none;stroke:#d7b651;stroke-width:4.17700005;stroke-linecap:round;stroke-linejoin:round;stroke-miterlimit:10;stroke-dasharray:none;stroke-opacity:1"
           id="path78-3"
           inkscape:connector-curvature="0" /><path
           d="m 423.1094,704.4126 c 0,0 1.33,-4.929 -1.671,-8.828 -2.998,-3.9 -6.899,-7.5 -4.8,-13.199 2.1,-5.699 9,-6.899 9,-6.899"
           style="fill:none;stroke:#d7b651;stroke-width:4.17700005;stroke-linecap:round;stroke-linejoin:round;stroke-miterlimit:10;stroke-dasharray:none;stroke-opacity:1"
           id="path82"
           inkscape:connector-curvature="0" /><path
           d="m 370.7441,725.2812 c 0,0 -1.5,-6.9 -4.2,-9 -2.698,-2.099 -5.099,-2.398 -5.099,-2.398 0,0 2.098,-8.701 -0.301,-15 -2.399,-6.299 -8.398,-13.198 -8.398,-13.198"
           style="fill:none;stroke:#d7b651;stroke-width:4.17700005;stroke-linecap:round;stroke-linejoin:round;stroke-miterlimit:10;stroke-dasharray:none;stroke-opacity:1"
           id="path86-56"
           inkscape:connector-curvature="0" /><path
           d="m 333.5479,721.0811 c 0,0 6.386,-9.356 3.899,-15.297 -5.399,-12.899 -12.3,-14.4 -12.3,-14.4"
           style="fill:none;stroke:#d7b651;stroke-width:4.17700005;stroke-linecap:round;stroke-linejoin:round;stroke-miterlimit:10;stroke-dasharray:none;stroke-opacity:1"
           id="path90-2"
           inkscape:connector-curvature="0" /><path
           d="m 295.1519,721.6812 c 0,0 -5.699,-4.2 -5.699,-8.699 0,-4.499 5.397,-11.998 5.397,-11.998"
           style="fill:none;stroke:#d7b651;stroke-width:4.17700005;stroke-linecap:round;stroke-linejoin:round;stroke-miterlimit:10;stroke-dasharray:none;stroke-opacity:1"
           id="path94-9"
           inkscape:connector-curvature="0" /><path
           d="m 317.6484,735.1797 c 0,0 -3.6,-2.099 -1.799,-6.899 1.799,-4.799 2.7,-9.598 0.301,-13.198 -2.4,-3.6 -6.3,-4.2 -6.3,-4.2"
           style="fill:none;stroke:#d7b651;stroke-width:4.17700005;stroke-linecap:round;stroke-linejoin:round;stroke-miterlimit:10;stroke-dasharray:none;stroke-opacity:1"
           id="path98-1"
           inkscape:connector-curvature="0" /><path
           d="m 252.5562,729.481 c 0,0 -3.3,-3.9 -0.6,-9 2.7,-5.099 6.899,-10.198 6.899,-10.198"
           style="fill:none;stroke:#d7b651;stroke-width:4.17700005;stroke-linecap:round;stroke-linejoin:round;stroke-miterlimit:10;stroke-dasharray:none;stroke-opacity:1"
           id="path102-2"
           inkscape:connector-curvature="0" /><path
           d="m 326.0459,684.4844 c 0,0 -2.399,-5.1 -8.099,-6.299 -5.699,-1.201 -11.098,-6.6 -17.398,-6.6 -6.298,0 -6.298,3.899 -14.098,3.299 -7.799,-0.6 -14.098,-2.099 -21.898,-1.5 -7.799,0.6 -12.598,2.401 -12.598,2.401"
           style="fill:none;stroke:#d7b651;stroke-width:4.17700005;stroke-linecap:round;stroke-linejoin:round;stroke-miterlimit:10;stroke-dasharray:none;stroke-opacity:1"
           id="path106-7"
           inkscape:connector-curvature="0" /><path
           d="m 273.5522,688.6836 c 0,0 -8.998,-3.901 -13.498,-6.3 -4.5,-2.399 -4.2,-7.2 -10.5,-9.899 -6.299,-2.699 -11.098,-2.099 -11.098,-2.099"
           style="fill:none;stroke:#d7b651;stroke-width:4.17700005;stroke-linecap:round;stroke-linejoin:round;stroke-miterlimit:10;stroke-dasharray:none;stroke-opacity:1"
           id="path110-0"
           inkscape:connector-curvature="0" /><path
           d="m 233.0562,679.3848 c 0.9,0 6.6,-4.198 6,-8.099 -0.6,-3.901 -4.2,-5.7 -12.299,-8.4 -8.099,-2.699 -12.299,-8.099 -17.398,-9.899 -5.099,-1.8 -6.599,-0.899 -6.599,-0.899 0,0 -2.101,-5.101 -6.3,-7.5 -4.199,-2.399 -8.399,-5.4 -12.598,-9.899 -4.2,-4.499 -8.7,-9.899 -9,-13.199 -0.3,-3.299 0.601,-8.099 0.601,-8.099 0,0 4.799,-3.299 8.099,-8.699 3.299,-5.4 12.599,-14.997 18.598,-19.497 5.999,-4.5 11.999,-5.4 17.698,-4.2 5.699,1.2 6.3,5.398 11.399,4.499 5.099,-0.9 9.299,-4.799 9.299,-4.799"
           style="fill:none;stroke:#d7b651;stroke-width:4.17700005;stroke-linecap:round;stroke-linejoin:round;stroke-miterlimit:10;stroke-dasharray:none;stroke-opacity:1"
           id="path114-9"
           inkscape:connector-curvature="0" /><path
           d="m 158.6641,589.6938 c 0,0 2.7,2.4 6.899,-2.4 4.2,-4.8 8.999,-14.398 13.199,-16.198 4.2,-1.8 8.999,-1.2 8.999,-1.2 0,0 6.599,-0.6 18.598,-6.299 11.999,-5.699 26.697,-5.4 26.697,-5.4"
           style="fill:none;stroke:#d7b651;stroke-width:4.17700005;stroke-linecap:round;stroke-linejoin:round;stroke-miterlimit:10;stroke-dasharray:none;stroke-opacity:1"
           id="path118-3"
           inkscape:connector-curvature="0" /><path
           d="m 216.2578,570.7954 c 0,0 3.899,-4.799 8.399,-3.899 4.5,0.899 7.2,0.299 7.5,-5.4 0.3,-5.7 11.098,-10.199 11.098,-10.199"
           style="fill:none;stroke:#d7b651;stroke-width:4.17700005;stroke-linecap:round;stroke-linejoin:round;stroke-miterlimit:10;stroke-dasharray:none;stroke-opacity:1"
           id="path122-6"
           inkscape:connector-curvature="0" /><path
           d="m 166.4629,638.5889 c 0,0 5.7,-1.5 7.5,-5.699 1.8,-4.2 0.899,-10.499 0.899,-10.499"
           style="fill:none;stroke:#d7b651;stroke-width:4.17700005;stroke-linecap:round;stroke-linejoin:round;stroke-miterlimit:10;stroke-dasharray:none;stroke-opacity:1"
           id="path126-0"
           inkscape:connector-curvature="0" /><path
           d="m 179.3618,647.5874 c 0,0 6.899,-2.999 8.399,-4.799 1.5,-1.799 0.9,-3.599 0.9,-3.599"
           style="fill:none;stroke:#d7b651;stroke-width:4.17700005;stroke-linecap:round;stroke-linejoin:round;stroke-miterlimit:10;stroke-dasharray:none;stroke-opacity:1"
           id="path130-6"
           inkscape:connector-curvature="0" /><path
           d="m 197.6602,655.9873 5.1,-3.9"
           style="fill:none;stroke:#d7b651;stroke-width:4.17700005;stroke-linecap:round;stroke-linejoin:round;stroke-miterlimit:10;stroke-dasharray:none;stroke-opacity:1"
           id="path134-2"
           inkscape:connector-curvature="0" /><path
           d="m 354.2441,642.4883 c 0,0 6.6,8.399 11.699,9 5.1,0.599 12.6,0.599 10.498,-6 -2.099,-6.6 0,-14.699 0,-14.699"
           style="fill:none;stroke:#d7b651;stroke-width:4.17700005;stroke-linecap:round;stroke-linejoin:round;stroke-miterlimit:10;stroke-dasharray:none;stroke-opacity:1"
           id="path138-61"
           inkscape:connector-curvature="0" /><path
           d="m 362.6426,669.4868 c 0,0 0,-2.103 0.6,-5.701 0.601,-3.599 6.901,-10.498 6.901,-10.498"
           style="fill:none;stroke:#d7b651;stroke-width:4.17700005;stroke-linecap:round;stroke-linejoin:round;stroke-miterlimit:10;stroke-dasharray:none;stroke-opacity:1"
           id="path142-8"
           inkscape:connector-curvature="0" /><path
           d="m 388.1406,660.4863 c 0,0 3.001,0.899 8.099,-4.8 5.1,-5.699 6.899,-8.099 6.899,-8.099"
           style="fill:none;stroke:#d7b651;stroke-width:4.17700005;stroke-linecap:round;stroke-linejoin:round;stroke-miterlimit:10;stroke-dasharray:none;stroke-opacity:1"
           id="path146-7"
           inkscape:connector-curvature="0" /><path
           d="m 166.7632,679.0845 c 0,0 6.3,9.599 14.398,10.2 8.1,0.599 7.499,2.099 9.6,3.899 2.1,1.799 5.699,0.899 5.699,0.899"
           style="fill:none;stroke:#d7b651;stroke-width:4.17700005;stroke-linecap:round;stroke-linejoin:round;stroke-miterlimit:10;stroke-dasharray:none;stroke-opacity:1"
           id="path150-9"
           inkscape:connector-curvature="0" /><path
           d="m 216.5586,708.7822 c 0,0 -8.1,0.301 -8.4,-5.099 -0.3,-5.4 1.801,-15.898 1.801,-15.898"
           style="fill:none;stroke:#d7b651;stroke-width:4.17700005;stroke-linecap:round;stroke-linejoin:round;stroke-miterlimit:10;stroke-dasharray:none;stroke-opacity:1"
           id="path154-2"
           inkscape:connector-curvature="0" /><path
           d="m 428.1318,629.1084 c 0,0 2.952,6.643 11.808,7.38 8.855,0.737 10.333,2.951 14.021,8.117 3.691,5.167 2.214,14.023 2.214,14.023"
           style="fill:none;stroke:#d7b651;stroke-width:4.17700005;stroke-linecap:round;stroke-linejoin:round;stroke-miterlimit:10;stroke-dasharray:none;stroke-opacity:1"
           id="path158-0"
           inkscape:connector-curvature="0" /><path
           d="m 265.2944,607.7651 c 0,0 8.543,5.775 21.455,11.973 12.911,6.197 33.053,5.164 46.998,-0.517 13.943,-5.681 23.24,-23.758 26.338,-26.339 3.1,-2.582 11.364,-7.23 11.364,-7.23 0,0 -4.649,-3.616 -4.649,-5.165 0,-1.55 2.582,-10.328 2.582,-10.328 l -9.145,-10.421 c 0,0 1.915,4.739 -2.216,5.255 -4.133,0.517 -10.846,-0.515 -12.913,5.166 -2.066,5.68 -9.814,6.197 -9.814,7.746 0,1.549 2.584,2.582 5.166,7.23 2.582,4.649 -1.548,14.976 -5.679,18.076 -4.132,3.099 -17.274,22.306 -40.247,14.997 -5.067,-1.612 -25.063,-15.664 -25.063,-15.664 z"
           style="fill:#e6c65c;fill-opacity:1;fill-rule:nonzero;stroke:none"
           id="path162-2"
           inkscape:connector-curvature="0" /><path
           d="m 317.6855,619.5337 c 0,0 -11.303,4.519 -25.645,0.335 -14.664,-4.278 -21.622,-17.264 -25.214,-20.962 -3.003,-3.092 -9.563,-1.195 -4.184,8.965 5.379,10.161 21.766,20.902 40.293,21.216 19.778,0.335 22.521,-10.751 14.75,-9.554"
           style="fill:#f096a7;fill-opacity:1;fill-rule:nonzero;stroke:none"
           id="path166-3"
           inkscape:connector-curvature="0" /><path
           d="m 317.6855,619.5337 c 0,0 -11.303,4.519 -25.645,0.335 -14.664,-4.278 -21.622,-17.264 -25.214,-20.962 -3.003,-3.092 -9.563,-1.195 -4.184,8.965 5.379,10.161 21.766,20.902 40.293,21.216 19.778,0.335 22.521,-10.751 14.75,-9.554 z"
           style="fill:none;stroke:#ffffff;stroke-width:1.04400003;stroke-linecap:butt;stroke-linejoin:miter;stroke-miterlimit:10;stroke-dasharray:none;stroke-opacity:1"
           id="path170-7"
           inkscape:connector-curvature="0" /><path
           d="m 380.1621,575.9736 c -10.333,-2.951 -16.237,-7.379 -17.711,-10.332 -1.476,-2.952 -2.214,-5.903 -2.214,-5.903 0,0 -6.641,-4.428 -3.69,-11.808 2.953,-7.38 4.428,-18.449 11.069,-21.401 6.642,-2.952 15.499,-7.382 14.023,-12.547 -1.477,-5.165 -8.855,-20.664 -6.641,-28.781 2.213,-8.118 19.925,-19.925 28.041,-18.449 8.119,1.475 17.714,0 22.879,1.475 5.166,1.476 6.64,16.236 9.594,16.974 2.951,0.738 2.951,9.594 2.951,9.594 0,0 3.69,0.001 5.904,7.38 2.214,7.379 5.902,11.807 2.214,21.402 -3.69,9.594 -17.712,15.497 -20.663,24.353 -2.953,8.856 -7.381,11.07 -14.76,16.236 -7.38,5.165 -12.547,5.903 -12.547,5.903 z"
           style="fill:#dc928f;fill-opacity:1;fill-rule:nonzero;stroke:none"
           id="path174-5"
           inkscape:connector-curvature="0" /><path
           d="m 281.0601,608.0518 c -2.953,-4.428 -3.691,-14.021 12.545,-10.331 16.236,3.689 8.118,9.593 2.214,12.545 -5.903,2.952 -14.759,-2.214 -14.759,-2.214"
           style="fill:#f096a7;fill-opacity:1;fill-rule:nonzero;stroke:none"
           id="path178-9"
           inkscape:connector-curvature="0" /><path
           d="m 323.3369,598.1128 c 0,0 6.709,-12.271 11.07,-16.973 4.361,-4.703 20.663,1.475 12.546,10.331 -8.118,8.856 -19.926,18.449 -23.616,6.642"
           style="fill:#e65c76;fill-opacity:1;fill-rule:nonzero;stroke:none"
           id="path182-2"
           inkscape:connector-curvature="0" /><path
           d="m 334.7461,676.3862 c 0,0 3.166,-3.141 -0.171,-7.589 -3.336,-4.448 -9.452,-6.672 -9.452,-6.672"
           style="fill:none;stroke:#d7b651;stroke-width:4.17700005;stroke-linecap:round;stroke-linejoin:round;stroke-miterlimit:10;stroke-dasharray:none;stroke-opacity:1"
           id="path186-28"
           inkscape:connector-curvature="0" /><path
           d="m 407.9697,708.2739 c 0,0 2.78,-3.334 -5.56,-7.783 -8.339,-4.448 -11.676,-6.118 -15.013,-8.342 -3.336,-2.223 -4.448,-7.227 -4.448,-7.227"
           style="fill:none;stroke:#d7b651;stroke-width:4.17700005;stroke-linecap:round;stroke-linejoin:round;stroke-miterlimit:10;stroke-dasharray:none;stroke-opacity:1"
           id="path190-9"
           inkscape:connector-curvature="0" /><path
           d="m 369.6436,548.3716 c 0,0 -6.881,-7.967 -2.173,-9.054 4.708,-1.086 5.433,-0.362 9.416,-2.172 3.983,-1.811 5.07,-5.07 2.898,-6.156 -2.175,-1.086 -6.157,-2.897 -5.072,-4.346 1.087,-1.448 2.897,-11.226 2.897,-11.226 l -3.983,-18.831 c 0,0 2.173,-8.328 5.07,-3.983 2.897,4.346 3.983,17.02 7.604,14.848 3.622,-2.173 1.449,-8.691 0.363,-11.226 -1.086,-2.535 -6.518,-10.502 -4.707,-12.312 1.809,-1.812 2.896,-1.812 3.983,2.172 1.086,3.983 3.259,13.399 6.156,12.675 2.898,-0.725 -0.362,-13.036 -1.811,-15.572 -1.448,-2.535 1.087,-10.502 3.622,-6.156 2.535,4.345 1.45,16.295 4.345,17.02 2.897,0.724 3.259,-10.864 1.449,-13.761 -1.81,-2.897 0.362,-9.053 2.172,-5.07 1.81,3.984 1.81,14.123 1.81,17.382 0,3.259 4.347,2.897 4.347,-0.724 0,-3.621 -2.899,-15.209 -1.449,-17.02 1.449,-1.81 3.258,-0.724 3.984,4.708 0.724,5.431 1.449,11.226 0.724,13.399 -0.724,2.172 0,6.88 1.81,5.069 1.811,-1.81 3.984,-9.777 2.535,-13.761 -1.449,-3.983 -0.724,-9.778 1.81,-8.691 2.535,1.086 2.896,3.984 2.174,7.243 -0.725,3.259 -0.726,9.052 0.723,7.242 1.449,-1.81 1.449,-6.88 3.622,-3.983 2.173,2.897 0.724,7.243 -1.448,8.329 -2.174,1.086 -10.502,9.778 -7.968,13.037 2.535,3.258 5.434,-1.811 6.881,-5.433 1.448,-3.62 4.345,-9.776 8.328,-7.242 3.985,2.535 -9.052,8.329 -7.241,13.399 1.811,5.07 5.793,0.724 7.241,-1.811 1.45,-2.535 2.899,-5.431 5.072,-3.983 2.171,1.448 -7.968,8.691 -5.072,9.415 2.898,0.724 7.968,-1.811 8.692,-3.621 0.725,-1.811 4.346,5.07 1.449,5.07 -2.898,0 -11.95,2.897 -10.502,5.431 1.448,2.535 9.053,-1.81 9.053,1.449 0,3.259 -2.898,1.81 -7.242,2.535 -4.346,0.724 -6.157,2.897 -0.363,3.983 5.795,1.086 5.434,6.881 1.449,5.432 -3.984,-1.448 -9.777,-11.225 -12.313,-9.053 -2.535,2.173 9.055,10.865 5.795,12.312 -3.259,1.449 -4.346,-8.329 -7.967,-8.691 -3.622,-0.362 -5.793,1.811 -3.983,5.07 1.81,3.26 10.863,7.967 6.88,10.502 -3.983,2.534 -6.519,-8.691 -9.053,-8.691 -2.535,0 -7.242,2.534 -4.346,6.518 2.898,3.983 10.864,9.415 7.967,11.226 -2.898,1.811 -5.433,-9.778 -8.33,-6.519 -2.896,3.26 -1.809,3.984 -0.723,7.605 1.086,3.622 2.172,6.157 -0.724,6.518 -2.897,0.363 0.001,-8.69 -4.708,-8.69 -4.708,0 -0.724,10.864 -3.984,11.226 -3.259,0.362 -5.431,-2.173 -2.535,-7.605 2.897,-5.432 2.897,-12.313 0,-11.951 -2.896,0.363 -2.173,16.659 -6.156,17.02 -3.983,0.363 -4.346,-1.448 -1.448,-8.328 2.897,-6.881 6.156,-11.227 3.621,-12.313 -2.535,-1.086 -9.777,11.589 -11.226,14.848 -1.449,3.259 -4.707,-0.725 -2.535,-3.26 2.173,-2.534 7.968,-8.691 5.433,-10.139 -2.536,-1.449 -8.329,8.33 -12.313,8.691"
           style="fill:#fbced0;fill-opacity:1;fill-rule:nonzero;stroke:none"
           id="path194-7"
           inkscape:connector-curvature="0" /><path
           d="m 331.1445,640.1455 c -0.498,0.226 -1.154,0.546 -1.966,0.94 -8.951,4.358 -31.025,18.155 -63.982,15.16 -35.939,-3.267 -64.152,-27.662 -66.373,-41.149 -1.327,-8.059 5.164,-19.078 23.96,-20.148 14.688,-0.835 30.93,2.155 36.92,-3.835 5.989,-5.99 6.473,-15.107 5.008,-19.035 -2.587,-6.939 -11.98,-15.246 -13.613,-21.781 -1.633,-6.535 5.446,-10.891 7.079,-10.891 1.634,0 4.901,-4.902 0.545,-7.623 -4.356,-2.722 -13.069,-7.079 -7.624,-10.891 5.445,-3.811 11.436,0.545 17.425,-1.088 5.99,-1.634 13.068,-0.545 10.891,6.533 -2.178,7.079 -15.791,8.713 -15.791,11.98 0,3.267 5.445,3.268 12.523,8.169 7.08,4.9 15.248,11.434 20.692,8.712 5.447,-2.723 7.08,-8.168 10.348,-12.524 3.267,-4.357 6.534,-5.99 6.534,-5.99 0,0 -7.078,2.178 -14.702,-1.634 -7.624,-3.811 -7.08,-24.505 3.812,-40.84 10.89,-16.335 26.137,-19.059 26.137,-19.059 0,0 -1.091,-12.523 13.612,-22.325 14.702,-9.802 18.513,-11.98 24.504,-21.237 5.99,-9.256 13.069,-22.87 13.069,-22.87 h 15.791 c 0,0 -13.612,28.316 -16.88,40.295 -3.267,11.98 -7.078,22.325 -7.078,27.771 0,5.446 4.354,16.881 4.354,16.881 0,0 11.983,21.236 4.902,27.771 -7.078,6.535 -10.345,-2.723 -17.969,9.257 -7.623,11.98 -12.524,20.694 -11.436,29.406 1.091,8.712 -5.445,16.336 -7.623,18.514 -2.178,2.178 -0.545,-3.266 -5.446,-2.177 -4.899,1.088 -4.899,9.8 -11.435,5.989 -6.534,-3.812 -3.812,-7.623 1.635,-11.979 5.444,-4.357 12.524,-10.345 16.336,-19.059 3.812,-8.713 3.812,-12.524 9.256,-20.692 5.446,-8.168 20.693,-14.158 20.693,-14.158 0,0 -9.803,-7.622 -11.98,-14.158 -2.18,-6.534 3.811,-25.049 1.09,-23.96 -2.725,1.09 -13.07,26.683 -14.704,34.851 -1.633,8.168 -5.375,38.482 -19.532,51.551 -14.159,13.069 -22.395,10.525 -33.288,4.535 -10.89,-5.99 -16.88,-14.156 -19.058,-17.424 -2.178,-3.268 -13.068,-5.992 -11.979,-3.268 1.088,2.723 6.534,13.613 6.534,13.613 0,0 -8.712,-3.812 -4.9,3.267 3.811,7.08 3.189,18.225 4.823,22.037 1.634,3.812 -4.828,8.219 -18.441,10.397 -13.614,2.179 -35.4,10.704 -20.599,25.896 10.801,11.087 37.462,15.476 54.342,12.752 16.88,-2.723 46.088,-16.747 53.166,-24.915 7.078,-8.169 1.309,-19.485 8.932,-24.93 7.623,-5.445 16.882,-2.178 21.782,9.801 4.899,11.98 -2.179,29.406 -15.247,34.307 -13.07,4.9 -25.049,9.255 -25.049,9.255"
           style="fill:#f096a7;fill-opacity:1;fill-rule:nonzero;stroke:none"
           id="path198-3"
           inkscape:connector-curvature="0" /><path
           d="m 331.1445,640.1455 c -0.498,0.226 -1.154,0.546 -1.966,0.94 -8.951,4.358 -31.025,18.155 -63.982,15.16 -35.939,-3.267 -64.152,-27.662 -66.373,-41.149 -1.327,-8.059 5.164,-19.078 23.96,-20.148 14.688,-0.835 30.93,2.155 36.92,-3.835 5.989,-5.99 6.473,-15.107 5.008,-19.035 -2.587,-6.939 -11.98,-15.246 -13.613,-21.781 -1.633,-6.535 5.446,-10.891 7.079,-10.891 1.634,0 4.901,-4.902 0.545,-7.623 -4.356,-2.722 -13.069,-7.079 -7.624,-10.891 5.445,-3.811 11.436,0.545 17.425,-1.088 5.99,-1.634 13.068,-0.545 10.891,6.533 -2.178,7.079 -15.791,8.713 -15.791,11.98 0,3.267 5.445,3.268 12.523,8.169 7.08,4.9 15.248,11.434 20.692,8.712 5.447,-2.723 7.08,-8.168 10.348,-12.524 3.267,-4.357 6.534,-5.99 6.534,-5.99 0,0 -7.078,2.178 -14.702,-1.634 -7.624,-3.811 -7.08,-24.505 3.812,-40.84 10.89,-16.335 26.137,-19.059 26.137,-19.059 0,0 -1.091,-12.523 13.612,-22.325 14.702,-9.802 18.513,-11.98 24.504,-21.237 5.99,-9.256 13.069,-22.87 13.069,-22.87 h 15.791 c 0,0 -13.612,28.316 -16.88,40.295 -3.267,11.98 -7.078,22.325 -7.078,27.771 0,5.446 4.354,16.881 4.354,16.881 0,0 11.983,21.236 4.902,27.771 -7.078,6.535 -10.345,-2.723 -17.969,9.257 -7.623,11.98 -12.524,20.694 -11.436,29.406 1.091,8.712 -5.445,16.336 -7.623,18.514 -2.178,2.178 -0.545,-3.266 -5.446,-2.177 -4.899,1.088 -4.899,9.8 -11.435,5.989 -6.534,-3.812 -3.812,-7.623 1.635,-11.979 5.444,-4.357 12.524,-10.345 16.336,-19.059 3.812,-8.713 3.812,-12.524 9.256,-20.692 5.446,-8.168 20.693,-14.158 20.693,-14.158 0,0 -9.803,-7.622 -11.98,-14.158 -2.18,-6.534 3.811,-25.049 1.09,-23.96 -2.725,1.09 -13.07,26.683 -14.704,34.851 -1.633,8.168 -5.375,38.482 -19.532,51.551 -14.159,13.069 -22.395,10.525 -33.288,4.535 -10.89,-5.99 -16.88,-14.156 -19.058,-17.424 -2.178,-3.268 -13.068,-5.992 -11.979,-3.268 1.088,2.723 6.534,13.613 6.534,13.613 0,0 -8.712,-3.812 -4.9,3.267 3.811,7.08 3.189,18.225 4.823,22.037 1.634,3.812 -4.828,8.219 -18.441,10.397 -13.614,2.179 -35.4,10.704 -20.599,25.896 10.801,11.087 37.462,15.476 54.342,12.752 16.88,-2.723 46.088,-16.747 53.166,-24.915 7.078,-8.169 1.309,-19.485 8.932,-24.93 7.623,-5.445 16.882,-2.178 21.782,9.801 4.899,11.98 -2.179,29.406 -15.247,34.307 -13.07,4.9 -25.049,9.255 -25.049,9.255 z"
           style="fill:none;stroke:#ffffff;stroke-width:1.04400003;stroke-linecap:butt;stroke-linejoin:miter;stroke-miterlimit:10;stroke-dasharray:none;stroke-opacity:1"
           id="path202-6"
           inkscape:connector-curvature="0" /></g></g></g></svg>