<?xml version="1.0"?>
<svg xmlns:rdf="http://www.w3.org/1999/02/22-rdf-syntax-ns#" xmlns="http://www.w3.org/2000/svg" xmlns:cc="http://creativecommons.org/ns#" xmlns:dc="http://purl.org/dc/elements/1.1/" xmlns:svg="http://www.w3.org/2000/svg" id="svg2" viewBox="0 0 271.75 340.13" version="1.0">
  <defs id="defs5">
    <filter id="filter2927">
      <feGaussianBlur id="feGaussianBlur2929" stdDeviation="1.5302553"/>
    </filter>
    <filter id="filter2943">
      <feGaussianBlur id="feGaussianBlur2945" stdDeviation="1.071054"/>
    </filter>
    <filter id="filter2955">
      <feGaussianBlur id="feGaussianBlur2957" stdDeviation="0.61210212"/>
    </filter>
    <filter id="filter2963">
      <feGaussianBlur id="feGaussianBlur2965" stdDeviation="0.61210212"/>
    </filter>
  </defs>
  <path id="path2343" d="m0.01577 151.06c5.4449 13.96-1.9304 27.95 4.9557 41.71 3.1401 15.46 11.602 29.17 13.7 44.98 2.055 13.47 9.266 25.13 13.546 38.08 10.044 31.11 37.636 56.11 69.312 63.73 15.43 4.99 32.3-4.63 26.04-22 1.62-7.29 9.09-12.82 6.16-1.27-7.57 18.95 14.69 23.74 28.67 20.64 17.31 4.8 25.57-11.58 38.79-16.43 13.45-8.36 23.31-19.27 29.48-34.46 9.58-11.24 12.72-26.53 14.6-40.81-0.05-17.76 16.12-31.14 17.93-49.12 2.73-14.1 1.5-29.18 4.91-42.86 6.92-13.15 3.55-29.63-4.41-41.55-3.51-14.672-10.94-29.207-21.15-40.574-11.79-13.311-20.73-28.899-32.8-42.012-16.4-9.312-31.05-26.687-51.73-24.728-12.58 3.2456-18.37 21.633-18.17 33.474 6.05 6.364-3.71 30.064-4.18 11.862-1.53-16.127-2.32-33.196-11.25-47.283-14.4-6.1081-33.716 4.1572-42.56 15.719-15.387 2.617-24.077 16.334-33.363 27.529-10.131 10.782-20.799 21.236-25.782 35.623-6.437 14.654-15.942 28.09-19.167 44.1-2.1418 8.37-3.6693 16.99-3.5322 25.65z" fill="#f5aa91"/>
  <path id="path2341" filter="url(#filter2955)" d="m0.01577 151.06c5.4449 13.96-1.9304 27.95 4.9557 41.71 3.1401 15.46 11.602 29.17 13.7 44.98 2.055 13.47 9.266 25.13 13.546 38.08 10.044 31.11 37.636 56.11 69.312 63.73 15.43 4.99 32.3-4.63 26.04-22 1.62-7.29 9.09-12.82 6.16-1.27-7.57 18.95 14.69 23.74 28.67 20.64 17.31 4.8 25.57-11.58 38.79-16.43 13.45-8.36 23.31-19.27 29.48-34.46 9.58-11.24 12.72-26.53 14.6-40.81-0.05-17.76 16.12-31.14 17.93-49.12 2.73-14.1 1.5-29.18 4.91-42.86 6.92-13.15 3.55-29.63-4.41-41.55-3.51-14.672-10.94-29.207-21.15-40.574-11.79-13.311-20.73-28.899-32.8-42.012-16.4-9.312-31.05-26.687-51.73-24.728-12.58 3.2456-18.37 21.633-18.17 33.474 6.05 6.364-3.71 30.064-4.18 11.862-1.53-16.127-2.32-33.196-11.25-47.283-14.4-6.1081-33.716 4.1572-42.56 15.719-15.387 2.617-24.077 16.334-33.363 27.529-10.131 10.782-20.799 21.236-25.782 35.623-6.437 14.654-15.942 28.09-19.167 44.1-2.1418 8.37-3.6693 16.99-3.5322 25.65zm9.75 20.85c5.1972-13.49 2.1642-29.44 4.6062-44.16 3.822-4.91 15.653 0.82 12.59-11.57 8.951-11.94 30.412-4.31 39.546 5.02 6.613 2.88 7.729 25.62 13.227 9.99 2.021-17.04 16.693-6.32 23.215-10.66-14.045-4.88-27.902-29.823-6.465-34.935 16.525-7.497-1.808 25.625 19.205 23.375 12.35-2.16 7.63 9.79-1.82 5.82-8.74-0.52-16.849 0.01-4.45 5.68-7.33 6.71-22.498 10.63-31.405 18.53-15.444 8.1-14.242-23.64-25.497-10.92-4.575 13.65-24.981 20.05-22.614 37.9 2.452 8.3-9.598 21.26 6.173 16.91 0.888-13.73 1.242-33.08 16.6-39.01 11.796-5.13 18.181 18.13 31.861 7.38 12.89-5.35 24.252-22.83 39.712-14.6 15.97-3.86 1.91 35.69-1.8 13.2 4.59-15.45-11.65-1.6-19.74-1.92-13.067 7.17-21.943 27.42-39.56 22.65-3.999-4.39-14.647-19.91-11.048-4.64 3.498 6.49-9.652 24.46 4.289 16.61 12.962-8.71 5.255 17.59-5.823 16.82-14.347 7.94-21.839-10.53-31.333-12.88 2.53 11.05 23.514 20.39 16.565 36.61 3.26 9.56-0.943 25.18-8.612 9.71 0.783-9.12-15.506-25.33-1.691-26.18-11.861-4.18-15.337-20.15-8.387-30.83-4.029 0.35-7.3008 4.4-7.3442-3.9zm7.4062-18.85c1.485 3.04 0.386-4.52 0 0zm3.531-46.21c2.043-8.963 16.782-14.032 10.517-22.96 10.028-9.615 15.274 3.084 6.566 10.778-3.018 5.402-10.984 13.892-17.083 12.182zm9.25 141.59c2.795-9.91 17.177 7.24 14.441-6.77-4.379-15.6 2.702-31.45 17.942-37.35 14.803-11.03 3.32 17.5 7.604 25.37 5.076 12.81 21.438 30.65 6.524 41.2-1.072-13.81-21.266-15.6-29.086-6.88 5.926 11.37 21.182-11.97 17.692 7.36-5.794 7.77-31.628 2.81-20.289-10.4 10.898-12.84-4.752-5.75-9.897-7.01-1.625-1.86-3.284-3.68-4.931-5.52zm3.375-122.06c7.435 7.21 14.49-9.64 1.887-2.77l-1.344 1.37-0.543 1.4zm7.844-25.97c5.92-8.664 11.917-18.761 21.591-22.561-0.819-5.647 10.521-16.163-0.445-8.019-1.69 8.743-14.009 10.214-10.173-1.336-18.956 4.945 0.668-12.198 8.558-12.368 6.852-4.222 18.22-9.257 5.546-12.192 5.471-13.129 24.557 9.401 5.08 10.363-7.16-0.726-21.974 14.745-6.187 7.181 19.643-5.589 8.736 16.061 1.621 20.42 10.345 17.655 13.352-24.597 22.07-14.952 6.64-1.902 24.567 4.128 8.168 5.965-15.812 9.074-16.99 27.849-20.326 42.849-10.552-6.14-23.234-8.66-34.919-12.24l-0.521-2.21-0.063-0.9zm7.688 183.69c8.325 3.02 21.031-2.01 28.093 0.34-2.126 10.79-22.22-2.12-10.99 12.34-2.071 5.41-12.198-11.65-17.103-12.68zm0.375-42.57c7.519 7.75 33.766-2.63 12.666-7.36-9.477-7.4-10.546-1.18-12.666 7.36zm4.906-149.18c0.195 8.785 14.627 12.985 5 2.781-0.497-0.046-4.433-5.868-5-2.781zm20.531 106.84c1.381-6.55 14.035-23.68 14.219-11.78-10.881 15.47 13.709 27.64 8.613 40.52 10.646-1.9 19.156 12.35 4.326 14.32-15.208 12.29-24.047-15.48-25.551-27.16-0.57-5.3-1.07-10.6-1.607-15.9zm1.563-152.03c6.046 4.598 2.957-5.415 0 0zm1.906 251.25c5.498-2.01 7.962-3.36 8.685-10.93 8.49-0.91 24.154-0.37 28.734 4.37-8.73 6.17-26.483-8.29-24.636 9.71-6.647-9.43-7.044 8.37-12.783-3.15zm1.906-261.85c4.392-3.369 24.743 0.317 10.313 6-3.793-0.028-8.804-2.353-10.313-6zm3.969 273.75c5.7-4.87 16.414 13.44 2.281 3.22l-1.703-1.61-0.578-1.61zm4.375-31.93c10.584-11.58 3.147-29.89 19.689-35.65 6.34 0.97 4.68 13.4 12.09 6.49 12.4-3.7-16.26-25.08-2.21-31.07 6.49-5.04-3.16-21.07 8.77-16.74 3.77 16.07 1.76 33.29-1.04 49.46-6.89 7.94-20.97-1.51-15.41 12.58-12.784 17.56 18.27-8.36 15.57 7.99-3.71 10.86-29.125 13.73-37.459 6.94zm2.812-97.5c3.35-15.98 23.357-26.74 36.067-13.28 2.77 13.3-23.01 16.57-14.72 32.53 8.92 5.24-0.42 20.05-4.24 7.86-9.24-7.47 1.22-21.39-3.41-26.14-4.06-2.54-10.916 1.39-13.697-0.97zm1.875-120.69c4.806-8.714 26.712-2.66 28.182 4.703-7.67 12.772-14.27-8.728-21.25-5.488-1.837 0.885-6.836 5.099-6.932 0.785zm1.125 258.06c7.617-3.9 9.637 8.08 1.5 2.06l-1.5-2.06zm1.094-270.53c7.083-6.696 11.763 1.513 0 0zm15.123-18.812c4.22-3.405 5.12 2.679 0 0zm1.75 286.97c3.2-13.03 14.9 8.28 0.82 2.06l-0.61-0.93-0.21-1.13zm3.22-286.28c6.17-2.786 3.06 5.77 0 0zm8.91 251.6c3.98-7.36 2.97 6.24 0 0zm15.78-112.59c4.85-12.56 1.01-28.25 4.82-40.09 10.09 4.28 13.72 17.45 25.77 17.79-9.96 6.7-22.12 16.16-20 30.05 5.01 11.97 22.33-10.01 31.32 3.78 13.77 7.94 16.81 26.68 9.26 39.72 0.16 7.85 4.06 25.02-3.77 26.53-1.39-6.07-3.93-16.04-10.59-13.3-8.07-12.31-4.91-24.66-0.49-36.65 1.56-7.43-1.83-24.32-9.43-10.6 1.25 9.14-4.23 0.14-5.83 9.74-16.28 0.29-22.19-12.27-21.06-26.97zm0.15-86.442c-1.42-16.433 12.31 4.089 0 0zm2 191.09c9.75-1.71 25.54 5.4 33.94-7.28 7.76 1.49 14.62-17.21 13.75-11.28-5.24 10.88-9.66 33.21-26.12 28.31-9.51-1.77-19.62 14.62-19.81-3.11-0.62-2.2-1.71-4.31-1.76-6.64zm0.07-66.69c-2.34-13.86 23.68-9.42 18.23 2.58 5.47 7.38-3.91 12.74 2.47 21.35-0.84 9.14-4.07 18.43-11.3 22.2-18.5-5.52 0.55-25.19-3.67-33.83-8.6 2.76-4.17-8.05-5.73-12.3zm2.75-101.78c2.9-7.048 10.79-4.7 5.56 1.12 10.32 3.05 20.64 15.39 29.22 2.09-1.13-5.59 1.69-14.954 5.46-5.01 3.92-8.047 6.75 15.16-2.49 15.55-8.4 1.44-10.74 8.44-20.46 7.95-6.03-7.13-7.23-18.73-17.29-21.7zm0-38.091c2.11-8.848 9.88 4.916 0.21 1.598l-0.21-1.598zm0.12 197.44c2.91-10.61 5.81 2.25 0 0zm0.88 34.93c8.23-1.74 18.56 1.04 24.62 2.83 1.92-5.54 2.07-21.28 7.76-7.28 2.04 13.01-10.83 15.64-19.22 7.89-3.92-1.5-10.99 0.84-13.16-3.44zm2.18-214.84c2.73-6.449 8.93 7.901 0 0zm4.82-41.875c5.53-9.1 11.36 2.541 0 0zm16.25 34.031c4.32-5.41 5.17 6.16 0 0zm2.75 69.254c4.65-10.92 10.48-1.48 0.45 1.3l-0.45-1.3zm4.28 104.78c3.96-10.48 4.72-3.36 6.19 2.37 9.91 5.96-5.7 1.21-6.19-2.37zm3.72-85.13c4.28-9.49 12.61-23.11 6-30.96 17.57 0.41 10.09 17.48 9.47 26.38 10.05-2.54 15.74-24.49 24.89-5.77 2.42 13.09 1.95 29.36 18.94 31.62 20.39-10.49 14.18 18.77 8.21 28.11-5.17-6.89 9.03-29.65-7.81-21-19.07-4.98-33.49-21.03-53.39-24.06-2.22-1.04-5.24-1.8-6.31-4.32zm0.65-91.279c3.83-12.619 6.45 8.744 0 0zm0.35 235.6c5.27-4.57 11.29-13.63 17.12-15.7-1.44 7.97-1.05 18.74-12.63 19.82 0.49-6.16 0.27-3.83-4.49-4.12zm0-277.91c1.6-5.539 2.24 4.22 0 0zm7.18 261.09c6.94-12.25 9.23 7.64 0 0zm0.19-12.97c-3.74-15.57 25.79-23.67 27.87-9.97-3.95 5.21-30.38 3.68-14.37 10.23 5.93 0.36 22.91-10.22 14.5 2.12 0.11 4.95-18.37 19.1-8.64 5.46 5.28-9.92-23.21 10.09-19.36-7.84zm3.63 24.32c2.49 3.89 2.48-3.9 0 0zm5-212.82c-0.62-13.307 17.81-11.737 10.72-0.635-11.16 7.41 24.12 7.936 18.4 20.881-8.53-9.99-27.93 12.11-26.12-9.06 0.02-4.115-3.12-7.156-3-11.186zm1.25 134.79c5.16-8.94 0.93-38.73 17.22-24.54 8.71 5.17-0.53 22.47 10.75 29.85 4.14 7.32 5.48 17.3-6.55 17.61-7.02 3.4 10.82 5.75 1.59 13.32-6.67-1.5-9.38-8.05-15.36-6.84 1-10.97-5.54-19.49-7.65-29.4zm1.22-57.6c6.27 11.46 23.73-20.77 8.78-7.84-2.82 2.55-7.12 4.29-8.78 7.84zm1.68-38.44c10.6-14.23 23.75 5.71 31.44 13.47 4.75 3.66 13.48 22.95 12.43 6.43 0.69-9.28-8.56-18.88-8.24-25.83 8.16 4.57 14.71 12.05 22 17.31 4.59 11.2-10.04 25.15-2.47 35.37-15.25 9.9-26.13-3.25-26.91-18.57-4.72-13.45-16.48-24.26-28.25-28.18zm0.85-60.09c3.65-9.512 8.91 6.751 0.16 2.26l-0.16-2.26zm5.18 162.75c-1.4 15.72 21.44 8.57 11.86-2.33-4.48-11.92-11.69-9.77-11.86 2.33zm4.25-15.22c7.51 3.7 4.2-9.58 0 0zm9.13-150c0.45-12.577 7.32 1.194 0 0zm4.09 18.032c0.03-12.645 18.72 4.252 1.85 1.781l-1.48-0.166-0.37-1.615zm2.75 7.906c12.81-5.794 23.77 13.281 27.72 23.781 11.74 8.65-8.07 13.17-8.76 4.26 0.35-17.65-14.73-13.4-18.96-28.041zm2.69 173.78c4.81-14.24 7.85 0.98 0 0zm1.09-52.37c6.9-8.91 9.49 24.57 2.62 7.75-1.08-2.51-2.14-5.05-2.62-7.75zm1.82 37.78c2.15-4.88 2.15 4.87 0 0z" fill="#f28e6e"/>
  <path id="path2339" filter="url(#filter2927)" d="m0.01577 151.06c5.4449 13.96-1.9304 27.95 4.9557 41.71 3.1401 15.46 11.602 29.17 13.7 44.98 2.055 13.47 9.266 25.13 13.546 38.08 10.044 31.11 37.636 56.11 69.312 63.73 15.43 4.99 32.3-4.63 26.04-22 1.62-7.29 9.09-12.82 6.16-1.27-7.57 18.95 14.69 23.74 28.67 20.64 17.31 4.8 25.57-11.58 38.79-16.43 13.45-8.36 23.31-19.27 29.48-34.46 9.58-11.24 12.72-26.53 14.6-40.81-0.05-17.76 16.12-31.14 17.93-49.12 2.73-14.1 1.5-29.18 4.91-42.86 6.92-13.15 3.55-29.63-4.41-41.55-3.51-14.672-10.94-29.207-21.15-40.574-11.79-13.311-20.73-28.899-32.8-42.012-16.4-9.312-31.05-26.687-51.73-24.728-12.58 3.2456-18.37 21.633-18.17 33.474 6.05 6.364-3.71 30.064-4.18 11.862-1.53-16.127-2.32-33.196-11.25-47.283-14.4-6.1081-33.716 4.1572-42.56 15.719-15.387 2.617-24.077 16.334-33.363 27.529-10.131 10.782-20.799 21.236-25.782 35.623-6.437 14.654-15.942 28.09-19.167 44.1-2.1418 8.37-3.6693 16.99-3.5322 25.65zm2.7187 0.44c-1.368-8.88 7.7735-19.81 4.7408-25.78 3.5217-11.73 10.414-27.027 18.026-35.124 14.175 1.075-8.888-5.597 1.516-11.687 4.5-3.557 12.697-2.833 4.327-6.928 0.859-3.848 15.838-10.515 5.881-10.221 8.03-9.516 21.09-11.383 23.863-21.165 8.216-9.046 17.6-2.446 21.428 6.193-2.808 6.325-8.873 10.464-1.987 15.094-0.447 7.601-16.158 22.048-7.696 22.786 6.935-11.695 14.292-23.662 16.211-34.971 4.525-3.663 16.746-12.024 3.755-5.818-13 3.997-19.071-13.286-4.682-15.559 10.42-4.683 7.87 3.049 4.118 4.213 13.775 6.831 4.056-18.613 17.135-7.374 13.34 1.085-12.453-10.963 2.75-10.705 11.4-1.273 10.75 17.401 7.86 19.233-6.11-3.347-25.161-2.364-10.02 2.695 6.62 3.159 21.57 10.503 8.1 16.286-4.14 5.239 13.57 8.017 2.74 15.927-14.4 6.296-34.086 8.219-39.882 26.426-2.57 7.599 2.371 29.549-11.965 18.479-8.54-9.61-30.981-0.13-29.159-17.167-5.355 7.057-15.563 12.407-20.188 20.607-7.485 7.32 11.589 9.31 6.506-1.48 8.287-13.38 30.61-4.21 41.493 3.14 8.106 1.94 6.246 27.93 11.883 10.54 1.524-12.85 22.102-8.58 8.715-20.45-11.945-12.846 4.801-28.634 18.117-29.908 11.59-6.277 30.8-1.85 19.39 10.714-7.75-7.319-13.22-1.332-15.37 5.062-10.474-12.644 2.28 25.902 9.79 6.932 11.23-4.996 7.18 18.53-3.02 17.98-8.24 13.06-27.535 8.16-36.338 21.11-12.191 4.47-18.561-6.79-21.701-15-6.218 12.23-23.358 20.61-26.205 36.37-0.292 5.27-5.323 27.74 2.624 17.37 0.413-14.64 3.915-33.36 20.015-38.31 11.8 3.47 27.227 14.18 36.541-1.82 12.354-6.52 28.534-8.05 40.124-6.47 1.74 14.15-3.54 28.71-0.94 43.03-9.87 4.53-13.54 14.38-15.12 24.42 5.41 0.33 19.38-10.64 18.33 4.68-2.2 6.11-0.79 14.31-1.02 17.62-3.06 9.25 2.07 31.94-12.7 35.39-9.51-9.5-16.06 19.5-3.05 7.2 19.2-8.55 9.3 23.17 5.71 32.43-4.68 6.27 4.45 31.07-10.65 28.81-6.26-11.29 7.8-31.63-13.257-31.58 1.847 4.37 4.337 14.91-2.725 18.51 11.652 3.86 8.502 15.21-2.576 13.62-8.04 3.95-9.243-4.83-6.928-9.59-3.81-9.42-15.803-19.51-3.219-26.63 8.538-7.24-2.406-14.71 7.927-20.97 11.258-14.28-4.367-25.35-11.066-36.71-5.266-4.54-5.953-35.11-9.193-17.16 0.65 5.65-3.46 13.08 2.045 17.07 5.738 11.53 17.647 24.2 10.675 37.5-7.165 16.65-12.828-17.71-16.366-4.67 7.285 11.55-22.357 15.01-3.334 17.13 7.329-3 21.496-3.63 9.792 6.76-20.103-1.01 6.975 21.89 0.07 27.14-4.379-9.7-25.797-13.29-18.716-25.02-6.363-2.86-14.183-2.81-15.88-10.99-5.269-7.25-7.623-15.84-6.404-22.15-16.366-1.11-0.288-12.78-0.778-17.84-11.23-0.14-15.474-10.56-10.969-17.72-5.682-11.53-19.379-23.83-11.95-38.15-14.517-10.02 4.385-25.04 2.006-38.03-0.609-4.82-6.6404 4.17-9.1495 4.68zm17.312 38.06c8.863 10.87 4.498-9.78 0 0zm4.125 55.57c0.686-4.85 0.813 4.83 0 0zm10.875-41.35c8.746 6.22 3.589 12.52 2.906 20.69 0.845 10.91 4.771 7.93 5.657-0.81 2.147-16.21 21.503-19.56 31.899-29.42 6.809-13.87 22.47-20.99 27.791-35.97 6.25-14.16 28.89 16.93 18.23-3.97 2.31-16.77-20.2-3.21-25.841 3.62-7.52 8.07-17.372 15.81-27.12 17.43 2.844 14.9-15.02 31.35-30.182 28.32l-1.738-0.07-1.602 0.18zm0.594-77.9c6.658 4.64 4.53-7.11 0 0zm3.531 134.37c0.997 16.39 14.749-18.82 0.454-2.85l-0.454 2.85zm1.25-16.06c5.359 9.79 3.894-7.91 0 0zm0.844-149.66c8.942-1.528 14.658-19.69 8.058-24.153-15.82-0.74 3.272 13.844-7.296 21.646l-0.762 2.507zm1.281-32.344c9.916-3.656 7.929-8.009 0 0zm2.594 219.16c9.385 3.26 5.498-9.03 0 0zm5-99.47c4.305 6.58 22.504-9.92 9.063-14.35-9.151-12.94-4.794 0.16-2.773 6.15-2.264 2.57-5.625 4.6-6.29 8.2zm0.406 82.31c9.415 8.51 9.764-9.59 0 0zm1.5-23.72c7.052 2.89 24.419 1.08 8.456-4.76-6.13-4.45-6.643-0.46-8.456 4.76zm5.125-186.66c7.912-1.633 2.801-4.666 0 0zm10.875-24.625c2.146-3.631 2.79 2.202 0 0zm9.219-3.813c8.25-8.039 10.092 3.122 0 0zm12.25-8.5c6.985-6.029 4.475 4.693 0 0zm0.719 176.93c-1.372 14.1 10.655 23.76 14.935 33.88 5.78 0.92 17.23 26.53 15.75 13.43-4.69-15.21-15.72-25.97-23.895-38.49 12.805-4.21 1.198-31.16-6.298-14.36l-0.383 2.54-0.109 3zm8.812-129.15c7.713 8.807 6.973-8.346 0 0zm2.183 220.53c7.06 9.08 28.73-6.77 9.01-2.05-2.89 0.9-6.49 0.11-9.01 2.05zm11-167.44c4.38 1.44 1.78-1.71 0 0zm13.19-19.999c3.38-3.027 3.22 4.459 0 0zm12.88 64.219c4.63-15.23 0.84-30.7 1.72-46.37-1.65-19.619 20.44-18.892 29.48-6.45 15.37 3.08 1.15-12.78-4.36-17.318-7.42-2.876-19.92 4.404-24.92-5.244-4.33-13.428 2.76-33.514 18.88-21.735 5.95 1.998 25.11 14.316 14.04 1.398-14.35-15.084 11.51-4.828 19.54-4.202 7 1.938 21.07-1.08 20.95 8.606-7.98-5.323 7.93 12.926-2.06 17.872-11.45 10.402 14.19 3.736 15.13 15.803 2.03 7.74 7.66 19.17 17.04 19.92-0.81-5.14 0.75-19.64-7.82-16.4-10.68-0.44-21.81-31.576-3.26-30.237 7.95-2.185 12.34 8.762 17.04 13.263 8.49 11.154 6.33 24.494 17.72 34.654 5.47 12.28-2.72 25.27-4.98 35.14-7.28-11.66-9.6 11.71-3.02 16.01 1.39 9.45-7.1 15.33-4.27 26-4.55 10.73-7.01 32.31-19.78 33.43-1.15-5.58-7.9-30.49-10.81-16.1 5.05 7.3 3.56 20.96 8.54 25.85 10.03-3.06 8.08 4.03 6.04 11.77-2.56 8.81-5.38 26-13.37 26.25-1.87-10.8 10.75-28.18-0.24-34.21-3 12.52-9.33 21.8-6.2 34.86-1.64 5.63 13.45-0.11 3.14 9.06-7.08 2.76-7.23 18.35-18.42 14.19 2.12-4.64 18.21-22.25 5.31-13.99-12.78 9.28-11.17 26.65-27.81 30.85-10.11 3.97-25.46-11.74-32.87 2.38-9.09 1.58-7.66-16.91-9.51-23.55 6.3-14.79-1.41-32 4.84-45.85 12.59-2.08-11.11-15.23 1.23-23.85 1.41-6.18-4.55-12.77-3.93-19.49-2.18-10.79 0.92-22.22 13.24-18.01-17.55-1.26-15.59-19.61-16.25-32.63v-1.67zm3.75 143.63c6.48 7.65 4.1-7.35 0 0zm3.18-195.41c5.48 12.04 16.8 30.39 31.12 26.81 12.8-14.11 22.58 6.82 28.19 12.77 14.16-13.19 20.94 14.92 19.69 25.8 1.62 5.82 23.03 13.64 14.91 5.4-11.8-10.54-9.98-30.82-24.09-41.34-2.3-9.28-23.29-0.59-13.99-14.78 5.24-8.24 13.39-1.84 20.22 0.52 11.31-0.12 16.57 25.17 21.62 21.32-1.6-12.5-12.09-25.62-19.85-30.47-4.78-10.38-31.45 10.53-23.95-10.52-0.04-6.767-9.38-12.481-3.99-18.893 4.44-5.34 7.81-25.602-2.21-13.002-13.2 14.917-29.52 2.828-42.69-4.531-8.19 9.653 17.36 11.75 22.78 19.188 15.36 4.029 22.61 22.938 12.46 35.038-10.89-0.85-18.2 16.63-25.91 0.74-3.17-3.59-8.37-20.15-14.31-14.05zm3.47-59.001c-0.21-18.373 22.39-13.73 33.01-7.747 17.63 8.09 2.11-10.424-6.85-8.797-10.88 1.818-15.71-20.996-4.88-8.925 3.35 9.282 15.01-0.695 19.68 8.893 10.34 3.064 19.73 24.508 1.7 18.042-13.16-3.582-28.2-12.537-40.62-2.699 3.4 1.381 16.73 4.321 4.67 6.151-2.74-0.212-7.04-1.305-6.71-4.918zm0.85 218.66c12.89 10.39 19.82-7.6 30.83-10.76-16.37-2.69 1.5-20.14-6.63-30.93-9.74-14.99 6.33-30.15-1.18-44.86-7.05 13.66-13.74 27.67-4.46 42.06 6.11 13.56-9.59 21.97-3.47 35.58-3.09 5.16-10.01 6.4-15.09 8.91zm0.5 24.21c6.96 6.35 25.73 1.68 9.79-4.85-3.08 0.04-7.35 2.76-9.79 4.85zm1 13.35c4.95 16.09 13.78-6.95 0 0zm1.97-127.97c13.13-8.7 34.03-4.94 40.11 12.3 9.09 14.29-4.69 27.68 0.06 42.8 0.13 16.06-4.37 30.88-13.41 44.18-10.7 8.37 8.52 22.04-6.58 30.09-10.3 7.83 8.06 19.07 4.55 3.47 3.36-8.47 15.5-13.08 6.21-22.89-0.22-9.13 5.67-23.22 14.14-27.41 8.17 0.79 24.35 0.78 7.86-3.98-12.38-1.91-3.04-14.42-7.51-22.03-4.25-14.02 3.62-28.04 3.94-42.12 13.09 1.81 26.55 10.43 34.51 21.32 2.72 8.33 6.57 19.16 6.29 4-1.54-9.55 7.98-25.77-7.45-22.98-15.26-6.49-28.09-18.43-45.05-20.46-24.17-3.97-1.23-23.94-4.09-36.46-6.84 6.17-16.47 19.32-23.55 20.36-6.67-4.78-8.19 15.67-10.03 19.81zm45.03 97.09c4.85 6.68 16.91-3.29 2.7-1.32-0.78 0.2-2.6 0.05-2.7 1.32zm3.65-108.4c8.34 1.28 10.34-10.96 1.66-1.77-0.55 0.59-1.1 1.18-1.66 1.77zm6.38-125.88c6.14 2.099 17.8 14.245 3.76 5.316-1.68-1.331-3.59-3.003-3.76-5.316zm4.09 188.88c3 15.16 9.75-1.13 0.65-2.93l-0.62 2.33-0.03 0.6zm2.06-172.6c8.84-4.424 26.17 19.803 5.98 15.165-5.96-2.682-1.92-10.716-5.98-15.165zm31.82 71.277c5.86 8.88 16.91-4.75 2.81-2.48-1.17 0.25-2.92 0.96-2.81 2.48zm0-35.746c2.84 5.946 6.89-4.088 0 0zm1 88.126c13.24 6.97 7.35-6.66 0 0zm15-57.06c2.4 3.99 1.58-3.72 0 0z" fill="#e9734e"/>
  <path id="path2337" filter="url(#filter2963)" d="m0.01577 151.06c5.4449 13.96-1.9304 27.95 4.9557 41.71 3.1401 15.46 11.602 29.17 13.7 44.98 2.055 13.47 9.266 25.13 13.546 38.08 10.044 31.11 37.636 56.11 69.312 63.73 15.43 4.99 32.3-4.63 26.04-22 1.62-7.29 9.09-12.82 6.16-1.27-7.57 18.95 14.69 23.74 28.67 20.64 17.31 4.8 25.57-11.58 38.79-16.43 13.45-8.36 23.31-19.27 29.48-34.46 9.58-11.24 12.72-26.53 14.6-40.81-0.05-17.76 16.12-31.14 17.93-49.12 2.73-14.1 1.5-29.18 4.91-42.86 6.92-13.15 3.55-29.63-4.41-41.55-3.51-14.672-10.94-29.207-21.15-40.574-11.79-13.311-20.73-28.899-32.8-42.012-16.4-9.312-31.05-26.687-51.73-24.728-12.58 3.2456-18.37 21.633-18.17 33.474 6.05 6.364-3.71 30.064-4.18 11.862-1.53-16.127-2.32-33.196-11.25-47.283-14.4-6.1081-33.716 4.1572-42.56 15.719-15.387 2.617-24.077 16.334-33.363 27.529-10.131 10.782-20.799 21.236-25.782 35.623-6.437 14.654-15.942 28.09-19.167 44.1-2.1418 8.37-3.6693 16.99-3.5322 25.65zm1.0625 0.04c1.6374-21.68 7.4729-43.53 20.066-61.505 5.552-15.75 14.568-30.088 27.261-41.063 6.358-8.166 15.013-9.807 15.241-18.496 9.078-8.822 21.482-6.865 26.452-17.661 9.539-7.5217 0.911 17.399 10.032 15.96 0.19-6.46-1.024-19.366 2.63-20.859 7.36 6.827 18.75-2.7971 20.04 10.775 3.69 7.303 2.11 15.771 9.17 20.9-7.64-2.982-14.24-2.69-3.82 3.476 3.98 2.515 7.77 17.098-0.98 8.125-8.23-1.847-10.03 6.708-0.35 5.005 19.21 5.55-21.09 18.507-4.27 18.682 13.19-4.913 8.81 28.581-3.73 14.32-12.56-2.48-1.75 27.961 0.49 8.64 9.91-7.385 17.23 6.781 9.16 13.591-8.19 15.89-27.62 17.4-41.003 25.46-9.779 14.07-26.875 0.77-28.722-10.04-2.459 7.25-9.918 13.57-12.999 18.4 13.009-14.68 26.794 11.26 39.982-1.46 11.218-11.03 28.442-10.84 42.062-17.91 8.48-16.89 5.31 12.97 5.54 20.1-3.28 15.39 4.54 34.21-11.93 42.69-2.1 5.82-6.21 14.52 2.71 7.46 16.88-6.27 10.18 23.93 11.13 34.24 1.51 11.05-0.86 20.47-5.41 29.64 9.25 9.18 1.42 28.06-1.13 39.74-1.64 12.42-2.68 27.94-13.62 37.82-11.52 1.02-37.087-0.53-34.895-15.73 16.132-4.53-14.546-23.46 2.031-30.08 8.919-7.61-0.956-16.86 9.592-23.25 10.452-14.47-6.663-24.18-12.118-36.05-3.826-5.5-6.428-25.75-7.643-8.8 2.509 15.18 21.074 28.41 14.773 45.11-7.251 8.61-6.495 23.65-19.173 24.59 3.863 10.36 20.28 26.27 3.15 30.21-14.043-9.11-25.625-22.78-33.018-37.83-3.602-13.92-12.148-25.93-15.388-39.8-4.232-15.87-6.686-32.09-14.8-46.47-2.7095-13.91-8.868-30.46 2.825-42.33 5.705-18.98-9.9453 5.68-9.3377-5.6zm17.313 68.65c2.41 4.29 1.89-2.87 0 0zm1.656-99.69c9.423 10.36 3.216-15.3 0 0zm1.25 69.22c3.691 5.75 3.192-4.77 0 0zm6.938 55.16c5.425 1.11 2.882-7.53 0 0zm3.812-137.09c11.349 6.8 8.207-15.19 0.977-1.54l-0.977 1.54zm0.469 72.21c3.739 6.7 2.727-8.65 0 0zm0.531-9.96c1.511 4.93 8.922-18.82 6.139-18.96-4.548 4.95-5.383 12.54-6.139 18.96zm6.281 51.84c4.096 11.8 4.92-14.91 14.556-13.36 15.486-8.12 25.969-20.68 36.992-33.74 8.961-9.26 17.124-32.26 31.294-13.89-1.95-4-0.26-19.41-10.54-10.84-15.496 1.73-18.629 21.14-30.894 26.26-9.38-1.43-9.939-0.62-9.658 7.14-4.424 15.56-25.306 17.5-28.513 31.41-1.192 2.28-3.272 4.25-3.237 7.02zm1.313 37.97c5.421 3.36 6.778-11.74 0.444-1.53l-0.444 1.53zm2.937-185.5c7.496 5.256 0.674 12.337 1.375 18.218 5.173-3.258 11.137-27.532-1.375-18.218zm7.5 108.28c8.235 1.64 17.664-11.04 5.625-16.38-6.183-6.34 7.212 11.84-3.727 12.71l-1.107 1.38-0.791 2.29zm0.094-73.72c12.239 4.04 25.214 13.82 25.79 25.45 0.157-12.98 21.968-17.24 8.099-28.57-6.315-4.18 4.697-24.131-3.201-10.349-2.691 7.799 2.187 30.599-12.875 19.499-5.222-2.99-11.648-6.74-17.813-6.03zm1.344 155.56c7.139 4.62 4.419-5.55 0 0zm2.531-26.34c8.841 6.67 2.891-7.56 0 0zm14.156 26.31c2.012 5.35 0.606 22.37 6.638 10.73-3.314-2.01-1.513-13.71-6.638-10.73zm0.813-179.78c5.612 0.803 11.079-19.143 2.292-4.847l-1.267 2.011-1.025 2.836zm5.062-48.156c4.166 12.291 1.748-9.17 9.552-8.77-4.452-0.581-9.431 4.341-9.552 8.77zm3.094 20.906c3.934 3.908 3.794 11.899 6.476 2.557-2.861-5.774 9.769-16.312-1.156-14.401 2.086 5.593-4.044 7.309-5.32 11.844zm9.031-31.562c4.647 1.13 2.44-5.605 0 0zm1.844 59.968c4.214 0.748 3.425-7.167 0 0zm3 112.47c-0.501 11.98 11.723 19.6 14.633 29.15 4.23 3.51 18.06 23.79 10.39 7.54-2.13-15.9-21.774-20.53-21.261-36.78 4.721-3.95 4.161-18.16-2.319-9.01-1.107 2.89-1.428 6.02-1.443 9.1zm10.063 114.62c5.7 4.38-0.66 25.2 7.78 14.16-5.18-9.49 9.02-30.06-7.7-28.59 4.5 6.13 5.55 8.92-0.08 14.43zm7.03-26.56c6.61 1.41 4.93-4.33 0 0zm0.16-252.13c6.26 5.011 17.15 2.818 4.08 0.215-0.69 0.514-3.87-1.97-4.08-0.215zm2.18 232.03c8.2 1.97 12.26-10.71 2.84-6.45-1.13 2.04-2.43 4.11-2.84 6.45zm13.79-253.46c3.11-4.1643 6.81 18.636 0.55 2.4l-0.55-2.4zm4.9 12.656c0.74-6.078 0.8 5.461 0 0zm7.38 300.72c5.34-11.33-3.89-26.31 1.96-38.84 4.95-10.05-4.72-29.12 7.29-33.68-12.6-9.68 3.24-23.68-6.07-35.57-4.26-12.53 8.52-22.79-1.87-31.83-2.71-14.98 0.29-30.12 1.17-44.8-1.47-13.18-4.61-29.71 5.24-40.35 10.39-12.043 23.65 15.43 29.42 4.86-7.62-13.619-29.79-6.392-35.67-19.477-0.31-9.773-3.89-38.04 12.72-25.683 6.23 1.124 23.5 10.893 12.91-1.841-11.23 2.525-26.18-6.22-14.29-17.885 9.85-8.715 25.51-0.371 35.06 1.608-7.69-8.267-23.84-7.852-29.13-20.99-3.42-1.113-11.16 21.749-13.58 12.096 4.11-10.294 10.28-32.551 23.12-15.524 6.08 8.063 11.88 10.314 21.31 11.875 16.34 5.465-21.65-14.06-2.13-9.25 8.42 7.841 20.74 21.663 16.71 33.182-13.79 7.499-30.09-12.734-43.23-4.951 12.75 6.968 28.06 8.35 42.33 11.431 6.5-1.926 21.08 12.503 10.96 0.17 4.68-8.615-13.67-22.028-3.83-25.56 9.2 6.041 20.86 17.88 18.35 26.072 11.51 8.264 23.21 17.623 28.02 31.594 5.85 14.063 13.38 27.413 15.63 42.563 1.36 9.94-5.36 22.25-7.5 28.83-5.93-14.11-10.23 9.28-0.28 11.45 2.65 16.61-5.2 33.65-11.96 48.92-10.1 13.31-5.46 30.99-12.29 45.78-6.7 13.31-14.66 26.77-23.31 38.8-9.74 8.03-21.11 11.96-31.25 18.2-3.08 12.38-27.38 6.24-25.34-1.36-4.78 4.26-19.15 10.47-20.47 0.16zm8.81-214.66c3.36 6.07 11.53 20.66 16.28 19.25-5.45-3.37-9.12-23.28-16.28-19.25zm2.31-38.215c5.28 4.945 3.37-5.86 0 0zm4.75 235.9c1.75 3.59 4.68-3.36 0 0zm1.03-15.12c7.07 4.54 15.98-0.62 3.46-2.25-1.1 0.6-2.98 0.82-3.46 2.25zm0.03-115.88c13.69-9.36 32.94-2.13 39.14 13.4 10.88 10.01-4.06 25.75 1.62 32.84 7.98-8.76-2.81-41.11 16.39-28.79 12.71 1.58 22.38 16.85 29.17 21.65-0.35-7.43 7.8-22.23-5.59-17.39-13.16-9.53-29.67-13.4-44.27-19.33-9.47-6.04-20.29-15.9-8.36-25.81 5.02-6.65 4.22-20.65-1.59-6.31-7.1 11.34-24.57 14.35-26.51 29.74zm1.25 93.47c6.3 3.44 20.78-10.25 16.82-14.25-3.59-9.64 6.99-22.8-1.2-34.12-2.74-6.63-4.49-13.03 0.58-19.01 3.84-7.35 1.35-28.87-3.08-9.47-12.48 14.6 4.19 28.56 2.31 44.44-7.81 6.11-7.51 11.78-4.99 20.91-0.44 6.2-7.78 6.99-10.44 11.5zm1.35-194.56c5.44 5.538 13.55 5.016 3.44-0.66-0.78-1.421-3.54-1.106-3.44 0.66zm10.34 5c13.87 7.445 28.53 19.082 22.4 37.082-2.26 9.1-22.52 8.12-18.86 16.85 13.21-8.71 28.83-1.55 32.27 13.54 16.23-13.96 22.43 14.87 22.07 26.97 5.18 6.52 21.26 11.59 7.82 1.56-3.23-16.19-11.47-29.87-22.25-41.94-13.58 6.54-19.14-11.84-5.35-16.08 5.17-0.72 22.61-3.01 7.94-4.73-8.73 2.01-22.14 5.05-15.5-8.27-5.77-10.496-7.6-19.688 0.02-30.412 0.94-14.253-8.82 13.443-17.63 7.34-4.35-0.068-8.88-0.108-12.93-1.91zm3.63-13.594c5.15 7.276 5.05-1.698 0 0zm0.43 246.04c5.37 12.89 5.43-12.2 14.56-13.49 2.95-6.24-10.65-15.1-1.1-21.94 1.11-12.05 14.31-19.52 21.05-19.28-14.92-1.47-2.37-23.48-11.25-25.44-0.9 16.52-4.82 31.91-14.65 45.56-9.48 6.11 3.19 13.7-0.3 21.74-1.9 4.83-6.92 7.82-8.31 12.85zm26-3.6c4.36 11.51 5.31-10.47 0 0zm2.75-33.75c4.38 1.44 1.78-1.71 0 0zm8.91-183.84c7.16-0.235 20.22 10.172 12.11-4.222 1.9-7.046 3.89-17.079-5.21-13.783 0.4 6.677-2.12 13.295-6.9 18.005zm9.56 178c1.26 5.63 4.37 19.12 6.39 5.91-0.18-4.08 7.29-25.67-0.04-18.1-1.15 4.56-5.03 7.82-6.35 12.19zm5.47-148.78c4.82 8.64 5.88-4.55 0 0zm4.19-46.191c6.85 4.276 7.78-9.238 0 0zm0.69 149.09c1.64 4.55 2.73-1.79 0 0zm0.31-113.62c4.89 9.79 18.66 17.18 11.44 0.65-0.7-5.23-9.4-3.63-11.44-0.65zm1.81 122.87c-2.19 7.17 3.3 14.82 9.32 6.53-6.96 2.25-9.31-17.13-9.32-6.53zm4.1-100.12c0.84 7.36 8.49 11.34 2.96 1.48 0.13-0.7-2.85-4.11-2.96-1.48zm11.71-4.6c10.68 6.89 7.55-7.32 0 0z" fill="#e0562c"/>
  <path id="path2331" filter="url(#filter2943)" d="m0.01577 151.06c-0.56405 7.62 5.4225 18.91 1.4375 5.44-3.2167-17.11 3.5123-34.77 9.5307-50.67 7.962-13.503 13.601-28.213 21.713-41.61 11.387-11.994 21.761-24.934 33.004-37.076 8.642-6.401 18.398-8.57 25.331-17.01 11.798-6.0235 34.158-17.837 37.578 2.992 6.39 15.433 3.99 32.616 7.59 48.594 12.73-10.46-0.57-27.129 7.54-39.677 2.74-17.301 21.4-21.073 34.38-12.594 13.44 8.519 28.3 16.097 38.17 28.837 10.62 12.929 19.29 27.315 30.85 39.48 8.11 11.281 13.22 24.444 17.41 37.174 8.49 12.16 8.82 29.91 0.63 42.15 1 15.51-1.48 31.02-4.88 46.09-3.52 17.04-19.48 29.68-15.87 47.88-4.8 13.45-6.55 27.97-16.9 38.71-5.81 15.26-18.38 26.76-33.14 31.93-10.34 16.44-30.2 15.07-47.2 14.21-21.73 0.58-8.58-23.9-12.57-36.46-7.54 10.13-6.63 24.16-9.69 35.32-11.27 9.14-27.415 3.49-39.49-1.4-24.356-11.79-45.441-32.6-52.723-59.26-6.323-13.49-11.03-27.3-15.135-41.56 0.372-16.55-12.558-28.45-12.823-44.64-5.2416-5.69 0.5942-29.58-3.5608-11.93 2.0213 14.68 5.8775 29.2 13.138 42.28 2.339 14.46 6.02 28.39 11.384 41.91 7.39 13 8.879 28.96 19.133 40.56 15.001 20.04 37.427 37.21 63.027 39.37 14.82 3.82 24.08-9.28 19.69-22.54 1.62-7.29 9.09-12.82 6.16-1.27-7.57 18.95 14.69 23.74 28.67 20.64 17.31 4.8 25.57-11.58 38.79-16.43 13.45-8.36 23.31-19.27 29.48-34.46 9.58-11.24 12.72-26.53 14.6-40.81-0.05-17.76 16.12-31.14 17.93-49.12 2.73-14.1 1.5-29.18 4.91-42.86 6.92-13.15 3.55-29.63-4.41-41.55-3.51-14.672-10.94-29.207-21.15-40.574-11.79-13.311-20.73-28.899-32.8-42.012-16.4-9.312-31.05-26.687-51.73-24.728-12.58 3.2456-18.37 21.633-18.17 33.474 6.05 6.364-3.71 30.064-4.18 11.862-1.53-16.127-2.32-33.196-11.25-47.283-14.4-6.1081-33.716 4.1572-42.56 15.719-15.387 2.617-24.077 16.334-33.363 27.529-10.131 10.782-20.799 21.236-25.782 35.623-6.437 14.654-15.942 28.09-19.167 44.1-2.1418 8.37-3.6693 16.99-3.5322 25.65zm36.031-44.93c2.488 3.89 2.488-3.9 0 0zm18.125 74.18c7.785-3.23 8.256-10.96 0.798-1.34l-0.798 1.34zm2.125-43.06c12.659 6.19-0.981-19.03 0 0zm15.75 156.88c2.84 6.94 3.882-6.85 0 0zm0.25-102.16c3.159 4.79 3.731-5.7 0 0zm2.969-69c0.068 20.49 9.697-7.22 0 0zm6.25 165.25c1.843 4.08 2.052-6.53 0 0zm1.531-177.19c1.645 4.55 2.731-1.79 0 0zm22.373 107.91c1.09 7.77 11.6 16.6 4.42 3.9-0.33-0.26-3.11-6.76-4.42-3.9zm7.63-67.31c4.99 6.08 4.99-6.08 0 0zm1.34-55.035c4.37 3.245 2.46-7.674 0 0zm9.53 90.965c9.85 2.07 12.83 15.18 14.58 20.93 1.37-14.72-3.53-29.23-2.23-44.11 2.29-11.26 3.71-35.35-0.82-39.55-0.94 18.83 1.06 37.99-2.15 56.61-1.51 4.12-7.32 2.86-9.38 6.12zm6.91-115.28c4.16 12.099 1.17 36.497 6.21 41.857 7.35-14.378-1.63-29.664-1.52-44.845-1.61-1.308-4.57 1.346-4.69 2.988zm4.78 208.69c5.45 10.47 2.47-29.92 0.12-9.12-0.11 3.04-0.13 6.08-0.12 9.12zm0.25-45.84c3.9 4.03-1.36 25.92 5.64 16.92-6.99-8.73 8.21-24.33-3.33-27.82-0.79 3.62-1.82 7.22-2.31 10.9zm16.19-118.1c1.64 4.55 2.73-1.79 0 0zm2.12-83.06c9.39 6.358 0.5-10.516 0 0zm7.25 134.59c6.9 3.23 19.38 5.41 8.78-3.51 3.09-4.69 18.08-16.01 3.85-7.83-4.42 3.18-9.58 6.95-12.63 11.34zm3.69 42.13c5.36 3.14 8.14-26.7 1.62-7.01-0.8 2.25-1.66 4.58-1.62 7.01zm2.44-105.66c5.18 7.31 4.5-3.95 0 0zm9.87 67.78c6 5.25 1.27-1.84 0 0zm0.63 113.5c3.07 9.15 0.78-5.02 0 0zm2.03 3.94c2 11.44 7.71 6.09 0 0zm10.12-166.94c5.18 4.16 15.6-8.35 3.92-2.56-0.12 1.19-3.96 0.85-3.92 2.56zm0.85-19.25c5.71 12.62 3.84-11.453 0 0zm1.97 81.47c3.88 7.53 5.08-4.38 0 0zm8.43-42.81c5.79 8.42 14.85-10.26 2.94-3.48-1.15 0.87-2.96 1.75-2.94 3.48zm7 47.81c4.44 7.35 15.67 5.45 3.19 0.47-0.67 0.33-2.54-1.73-3.19-0.47zm17.6-15.47c3.53 5 4-2.07 0 0zm6.03-62.96c10.34 9.07 5.19-7.1 0 0z" fill="#642918"/>
  <metadata>
    <rdf:RDF>
      <cc:Work>
        <dc:format>image/svg+xml</dc:format>
        <dc:type rdf:resource="http://purl.org/dc/dcmitype/StillImage"/>
        <cc:license rdf:resource="http://creativecommons.org/licenses/publicdomain/"/>
        <dc:publisher>
          <cc:Agent rdf:about="http://openclipart.org/">
            <dc:title>Openclipart</dc:title>
          </cc:Agent>
        </dc:publisher>
        <dc:title>brain</dc:title>
        <dc:date>2008-01-05T14:02:24</dc:date>
        <dc:description>brain, brain, clip art, clipart, icon, icon, image, media, organ, organ, png, public domain, svg, </dc:description>
        <dc:source>http://openclipart.org/detail/10690/brain-by-yves_guillou-10690</dc:source>
        <dc:creator>
          <cc:Agent>
            <dc:title>yves_guillou</dc:title>
          </cc:Agent>
        </dc:creator>
        <dc:subject>
          <rdf:Bag>
            <rdf:li>brain</rdf:li>
            <rdf:li>clip art</rdf:li>
            <rdf:li>clipart</rdf:li>
            <rdf:li>icon</rdf:li>
            <rdf:li>image</rdf:li>
            <rdf:li>media</rdf:li>
            <rdf:li>organ</rdf:li>
            <rdf:li>png</rdf:li>
            <rdf:li>public domain</rdf:li>
            <rdf:li>svg</rdf:li>
          </rdf:Bag>
        </dc:subject>
      </cc:Work>
      <cc:License rdf:about="http://creativecommons.org/licenses/publicdomain/">
        <cc:permits rdf:resource="http://creativecommons.org/ns#Reproduction"/>
        <cc:permits rdf:resource="http://creativecommons.org/ns#Distribution"/>
        <cc:permits rdf:resource="http://creativecommons.org/ns#DerivativeWorks"/>
      </cc:License>
    </rdf:RDF>
  </metadata>
</svg>
